<?xml version="1.0" encoding="UTF-8" standalone="no"?>
<!DOCTYPE svg PUBLIC "-//W3C//DTD SVG 1.1//EN"
 "http://www.w3.org/Graphics/SVG/1.1/DTD/svg11.dtd">
<!-- Generated by graphviz version 2.43.0 (0)
 -->
<!-- Title: GIÁM SÁT, GIAO VIỆC &amp; BÁO CÁO Pages: 1 -->
<svg width="1572pt" height="1105pt"
 viewBox="0.00 0.00 1572.00 1104.50" xmlns="http://www.w3.org/2000/svg" xmlns:xlink="http://www.w3.org/1999/xlink">
<g id="graph0" class="graph" transform="scale(1 1) rotate(0) translate(4 1100.5)">
<title>GIÁM SÁT, GIAO VIỆC &amp; BÁO CÁO</title>
<polygon fill="white" stroke="transparent" points="-4,4 -4,-1100.5 1568,-1100.5 1568,4 -4,4"/>
<text text-anchor="start" x="599" y="-1074.9" font-family="Helvetica,sans-Serif" font-size="22.00">GIÁM SÁT, GIAO VIỆC &amp; BÁO CÁO</text>
<!-- bao_cao_nhiem_vu -->
<g id="node1" class="node">
<title>bao_cao_nhiem_vu</title>
<polygon fill="#c6e0e0" stroke="transparent" points="15,-733 15,-753 332,-753 332,-733 15,-733"/>
<text text-anchor="start" x="119" y="-741.2" font-family="Consolas" font-weight="bold" font-size="11.00">bao_cao_nhiem_vu</text>
<text text-anchor="start" x="19" y="-719.7" font-family="Consolas" font-weight="bold" font-size="11.00">id</text>
<text text-anchor="start" x="149" y="-717.8" font-family="Times,serif" font-size="14.00" fill="#b8860b">PK</text>
<text text-anchor="start" x="186" y="-717.8" font-family="Times,serif" font-size="14.00" fill="#555555">BIGINT UNSIGNED</text>
<text text-anchor="start" x="19" y="-696.7" font-family="Consolas" font-weight="bold" font-size="11.00">phieu_giao_viec_id</text>
<text text-anchor="start" x="149" y="-694.8" font-family="Times,serif" font-size="14.00" fill="#1f6fb2">FK</text>
<text text-anchor="start" x="186" y="-694.8" font-family="Times,serif" font-size="14.00" fill="#555555">BIGINT UNSIGNED</text>
<text text-anchor="start" x="19" y="-672.7" font-family="Consolas" font-size="11.00">noi_dung</text>
<text text-anchor="start" x="186" y="-671.8" font-family="Times,serif" font-size="14.00" fill="#555555">TEXT</text>
<text text-anchor="start" x="19" y="-649.7" font-family="Consolas" font-size="11.00">ngay_bao_cao</text>
<text text-anchor="start" x="186" y="-648.8" font-family="Times,serif" font-size="14.00" fill="#555555">DATETIME</text>
<text text-anchor="start" x="19" y="-627.7" font-family="Consolas" font-weight="bold" font-size="11.00">nguoi_duyet_id</text>
<text text-anchor="start" x="149" y="-625.8" font-family="Times,serif" font-size="14.00" fill="#1f6fb2">FK</text>
<text text-anchor="start" x="186" y="-625.8" font-family="Times,serif" font-size="14.00" fill="#555555">BIGINT UNSIGNED</text>
<text text-anchor="start" x="19" y="-603.7" font-family="Consolas" font-size="11.00">ket_qua_danh_gia</text>
<text text-anchor="start" x="186" y="-602.8" font-family="Times,serif" font-size="14.00" fill="#555555">VARCHAR(100)</text>
<text text-anchor="start" x="19" y="-580.7" font-family="Consolas" font-size="11.00">ngay_duyet</text>
<text text-anchor="start" x="186" y="-579.8" font-family="Times,serif" font-size="14.00" fill="#555555">DATETIME</text>
<polygon fill="none" stroke="black" points="13.5,-571.5 13.5,-754.5 332.5,-754.5 332.5,-571.5 13.5,-571.5"/>
</g>
<!-- can_bo -->
<g id="node3" class="node">
<title>can_bo</title>
<polygon fill="#dce6f1" stroke="transparent" points="858.5,-607 858.5,-627 1166.5,-627 1166.5,-607 858.5,-607"/>
<text text-anchor="start" x="992" y="-615.2" font-family="Consolas" font-weight="bold" font-size="11.00">can_bo</text>
<text text-anchor="start" x="862.5" y="-593.7" font-family="Consolas" font-weight="bold" font-size="11.00">id</text>
<text text-anchor="start" x="958.5" y="-592.8" font-family="Times,serif" font-size="14.00" fill="#b8860b">PK</text>
<text text-anchor="start" x="979.5" y="-592.8" font-family="Times,serif" font-size="14.00" fill="#1f6fb2">/FK</text>
<text text-anchor="start" x="1020.5" y="-591.8" font-family="Times,serif" font-size="14.00" fill="#555555">BIGINT UNSIGNED</text>
<text text-anchor="start" x="862.5" y="-573.6" font-family="Consolas" font-size="8.00" fill="#999999">= = nguoi_dung.id</text>
<text text-anchor="start" x="862.5" y="-552.7" font-family="Consolas" font-size="11.00">ma_can_bo</text>
<text text-anchor="start" x="1020.5" y="-551.8" font-family="Times,serif" font-size="14.00" fill="#555555">VARCHAR(30)</text>
<text text-anchor="start" x="862.5" y="-529.7" font-family="Consolas" font-size="11.00">ho_ten</text>
<text text-anchor="start" x="1020.5" y="-528.8" font-family="Times,serif" font-size="14.00" fill="#555555">VARCHAR(150)</text>
<text text-anchor="start" x="862.5" y="-507.7" font-family="Consolas" font-weight="bold" font-size="11.00">don_vi_id</text>
<text text-anchor="start" x="958.5" y="-505.8" font-family="Times,serif" font-size="14.00" fill="#1f6fb2">FK</text>
<text text-anchor="start" x="1020.5" y="-505.8" font-family="Times,serif" font-size="14.00" fill="#555555">BIGINT UNSIGNED</text>
<text text-anchor="start" x="862.5" y="-483.7" font-family="Consolas" font-size="11.00">chuc_vu</text>
<text text-anchor="start" x="1020.5" y="-482.8" font-family="Times,serif" font-size="14.00" fill="#555555">VARCHAR(100)</text>
<text text-anchor="start" x="862.5" y="-460.7" font-family="Consolas" font-size="11.00">email</text>
<text text-anchor="start" x="1020.5" y="-459.8" font-family="Times,serif" font-size="14.00" fill="#555555">VARCHAR(150)</text>
<text text-anchor="start" x="862.5" y="-437.7" font-family="Consolas" font-size="11.00">so_dien_thoai</text>
<text text-anchor="start" x="1020.5" y="-436.8" font-family="Times,serif" font-size="14.00" fill="#555555">VARCHAR(20)</text>
<polygon fill="none" stroke="black" points="857.5,-428 857.5,-628 1167.5,-628 1167.5,-428 857.5,-428"/>
</g>
<!-- bao_cao_nhiem_vu&#45;&gt;can_bo -->
<g id="edge11" class="edge">
<title>bao_cao_nhiem_vu&#45;&gt;can_bo</title>
<path fill="none" stroke="#5578a8" d="M332.88,-585.62C483.69,-585.62 708.27,-585.62 857.47,-585.62"/>
</g>
<!-- phieu_giao_viec -->
<g id="node9" class="node">
<title>phieu_giao_viec</title>
<polygon fill="#c6e0e0" stroke="transparent" points="426.5,-819 426.5,-839 763.5,-839 763.5,-819 426.5,-819"/>
<text text-anchor="start" x="544" y="-827.2" font-family="Consolas" font-weight="bold" font-size="11.00">phieu_giao_viec</text>
<text text-anchor="start" x="430.5" y="-805.7" font-family="Consolas" font-weight="bold" font-size="11.00">id</text>
<text text-anchor="start" x="580.5" y="-803.8" font-family="Times,serif" font-size="14.00" fill="#b8860b">PK</text>
<text text-anchor="start" x="617.5" y="-803.8" font-family="Times,serif" font-size="14.00" fill="#555555">BIGINT UNSIGNED</text>
<text text-anchor="start" x="430.5" y="-782.7" font-family="Consolas" font-weight="bold" font-size="11.00">yeu_cau_giai_trinh_id</text>
<text text-anchor="start" x="580.5" y="-780.8" font-family="Times,serif" font-size="14.00" fill="#1f6fb2">FK</text>
<text text-anchor="start" x="617.5" y="-780.8" font-family="Times,serif" font-size="14.00" fill="#555555">BIGINT UNSIGNED</text>
<text text-anchor="start" x="430.5" y="-759.7" font-family="Consolas" font-weight="bold" font-size="11.00">nguoi_giao_id</text>
<text text-anchor="start" x="580.5" y="-757.8" font-family="Times,serif" font-size="14.00" fill="#1f6fb2">FK</text>
<text text-anchor="start" x="617.5" y="-757.8" font-family="Times,serif" font-size="14.00" fill="#555555">BIGINT UNSIGNED</text>
<text text-anchor="start" x="430.5" y="-736.7" font-family="Consolas" font-weight="bold" font-size="11.00">nguoi_nhan_id</text>
<text text-anchor="start" x="580.5" y="-734.8" font-family="Times,serif" font-size="14.00" fill="#1f6fb2">FK</text>
<text text-anchor="start" x="617.5" y="-734.8" font-family="Times,serif" font-size="14.00" fill="#555555">BIGINT UNSIGNED</text>
<text text-anchor="start" x="430.5" y="-712.7" font-family="Consolas" font-size="11.00">noi_dung</text>
<text text-anchor="start" x="617.5" y="-711.8" font-family="Times,serif" font-size="14.00" fill="#555555">TEXT</text>
<text text-anchor="start" x="430.5" y="-689.7" font-family="Consolas" font-size="11.00">ngay_giao</text>
<text text-anchor="start" x="617.5" y="-688.8" font-family="Times,serif" font-size="14.00" fill="#555555">DATETIME</text>
<text text-anchor="start" x="430.5" y="-666.7" font-family="Consolas" font-size="11.00">han_hoan_thanh</text>
<text text-anchor="start" x="617.5" y="-665.8" font-family="Times,serif" font-size="14.00" fill="#555555">DATE</text>
<text text-anchor="start" x="430.5" y="-643.7" font-family="Consolas" font-size="11.00">trang_thai</text>
<text text-anchor="start" x="617.5" y="-642.8" font-family="Times,serif" font-size="14.00" fill="#555555">ENUM</text>
<polygon fill="none" stroke="black" points="425,-634 425,-840 764,-840 764,-634 425,-634"/>
</g>
<!-- bao_cao_nhiem_vu&#45;&gt;phieu_giao_viec -->
<g id="edge12" class="edge">
<title>bao_cao_nhiem_vu&#45;&gt;phieu_giao_viec</title>
<path fill="none" stroke="#5578a8" d="M332.65,-694.25C362.83,-694.25 394.49,-694.25 424.95,-694.25"/>
</g>
<!-- bao_cao_thong_ke -->
<g id="node2" class="node">
<title>bao_cao_thong_ke</title>
<polygon fill="#c6e0e0" stroke="transparent" points="449.5,-466 449.5,-486 739.5,-486 739.5,-466 449.5,-466"/>
<text text-anchor="start" x="540" y="-474.2" font-family="Consolas" font-weight="bold" font-size="11.00">bao_cao_thong_ke</text>
<text text-anchor="start" x="453.5" y="-452.7" font-family="Consolas" font-weight="bold" font-size="11.00">id</text>
<text text-anchor="start" x="556.5" y="-450.8" font-family="Times,serif" font-size="14.00" fill="#b8860b">PK</text>
<text text-anchor="start" x="593.5" y="-450.8" font-family="Times,serif" font-size="14.00" fill="#555555">BIGINT UNSIGNED</text>
<text text-anchor="start" x="453.5" y="-429.7" font-family="Consolas" font-weight="bold" font-size="11.00">nguoi_tao_id</text>
<text text-anchor="start" x="556.5" y="-427.8" font-family="Times,serif" font-size="14.00" fill="#1f6fb2">FK</text>
<text text-anchor="start" x="593.5" y="-427.8" font-family="Times,serif" font-size="14.00" fill="#555555">BIGINT UNSIGNED</text>
<text text-anchor="start" x="453.5" y="-405.7" font-family="Consolas" font-size="11.00">ky_bao_cao</text>
<text text-anchor="start" x="593.5" y="-404.8" font-family="Times,serif" font-size="14.00" fill="#555555">VARCHAR(50)</text>
<text text-anchor="start" x="453.5" y="-383.7" font-family="Consolas" font-weight="bold" font-size="11.00">don_vi_id</text>
<text text-anchor="start" x="556.5" y="-381.8" font-family="Times,serif" font-size="14.00" fill="#1f6fb2">FK</text>
<text text-anchor="start" x="593.5" y="-381.8" font-family="Times,serif" font-size="14.00" fill="#555555">BIGINT UNSIGNED</text>
<text text-anchor="start" x="453.5" y="-359.7" font-family="Consolas" font-size="11.00">tieu_chi</text>
<text text-anchor="start" x="593.5" y="-358.8" font-family="Times,serif" font-size="14.00" fill="#555555">TEXT</text>
<text text-anchor="start" x="453.5" y="-336.7" font-family="Consolas" font-size="11.00">dinh_dang_xuat</text>
<text text-anchor="start" x="593.5" y="-335.8" font-family="Times,serif" font-size="14.00" fill="#555555">ENUM</text>
<text text-anchor="start" x="453.5" y="-313.7" font-family="Consolas" font-size="11.00">ngay_tao</text>
<text text-anchor="start" x="593.5" y="-312.8" font-family="Times,serif" font-size="14.00" fill="#555555">DATETIME</text>
<text text-anchor="start" x="453.5" y="-290.7" font-family="Consolas" font-size="11.00">duong_dan_file</text>
<text text-anchor="start" x="593.5" y="-289.8" font-family="Times,serif" font-size="14.00" fill="#555555">VARCHAR(255)</text>
<polygon fill="none" stroke="black" points="448.5,-281 448.5,-487 740.5,-487 740.5,-281 448.5,-281"/>
</g>
<!-- bao_cao_thong_ke&#45;&gt;can_bo -->
<g id="edge14" class="edge">
<title>bao_cao_thong_ke&#45;&gt;can_bo</title>
<path fill="none" stroke="#5578a8" d="M740.7,-457.5C778.36,-457.5 819.03,-457.5 857.15,-457.5"/>
</g>
<!-- don_vi -->
<g id="node6" class="node">
<title>don_vi</title>
<polygon fill="#dce6f1" stroke="transparent" points="1262.5,-954 1262.5,-974 1545.5,-974 1545.5,-954 1262.5,-954"/>
<text text-anchor="start" x="1383.5" y="-962.2" font-family="Consolas" font-weight="bold" font-size="11.00">don_vi</text>
<text text-anchor="start" x="1266.5" y="-940.7" font-family="Consolas" font-weight="bold" font-size="11.00">id</text>
<text text-anchor="start" x="1362.5" y="-938.8" font-family="Times,serif" font-size="14.00" fill="#b8860b">PK</text>
<text text-anchor="start" x="1399.5" y="-938.8" font-family="Times,serif" font-size="14.00" fill="#555555">BIGINT UNSIGNED</text>
<text text-anchor="start" x="1266.5" y="-916.7" font-family="Consolas" font-size="11.00">ma_don_vi</text>
<text text-anchor="start" x="1399.5" y="-915.8" font-family="Times,serif" font-size="14.00" fill="#555555">VARCHAR(30)</text>
<text text-anchor="start" x="1266.5" y="-893.7" font-family="Consolas" font-size="11.00">ten_don_vi</text>
<text text-anchor="start" x="1399.5" y="-892.8" font-family="Times,serif" font-size="14.00" fill="#555555">VARCHAR(255)</text>
<text text-anchor="start" x="1266.5" y="-871.7" font-family="Consolas" font-weight="bold" font-size="11.00">don_vi_cha_id</text>
<text text-anchor="start" x="1362.5" y="-869.8" font-family="Times,serif" font-size="14.00" fill="#1f6fb2">FK</text>
<text text-anchor="start" x="1399.5" y="-869.8" font-family="Times,serif" font-size="14.00" fill="#555555">BIGINT UNSIGNED</text>
<text text-anchor="start" x="1266.5" y="-847.7" font-family="Consolas" font-size="11.00">cap_don_vi</text>
<text text-anchor="start" x="1399.5" y="-846.8" font-family="Times,serif" font-size="14.00" fill="#555555">TINYINT</text>
<text text-anchor="start" x="1266.5" y="-824.7" font-family="Consolas" font-size="11.00">loai_don_vi</text>
<text text-anchor="start" x="1399.5" y="-823.8" font-family="Times,serif" font-size="14.00" fill="#555555">VARCHAR(50)</text>
<text text-anchor="start" x="1266.5" y="-801.7" font-family="Consolas" font-size="11.00">dia_chi</text>
<text text-anchor="start" x="1399.5" y="-800.8" font-family="Times,serif" font-size="14.00" fill="#555555">VARCHAR(255)</text>
<text text-anchor="start" x="1266.5" y="-778.7" font-family="Consolas" font-size="11.00">trang_thai</text>
<text text-anchor="start" x="1399.5" y="-777.8" font-family="Times,serif" font-size="14.00" fill="#555555">TINYINT</text>
<text text-anchor="start" x="1266.5" y="-755.7" font-family="Consolas" font-size="11.00">ngay_tao</text>
<text text-anchor="start" x="1399.5" y="-754.8" font-family="Times,serif" font-size="14.00" fill="#555555">DATETIME</text>
<polygon fill="none" stroke="black" points="1261,-746.5 1261,-975.5 1546,-975.5 1546,-746.5 1261,-746.5"/>
</g>
<!-- bao_cao_thong_ke&#45;&gt;don_vi -->
<g id="edge13" class="edge">
<title>bao_cao_thong_ke&#45;&gt;don_vi</title>
<path fill="none" stroke="#5578a8" d="M740.63,-354.5C973.79,-354.5 1404,-354.5 1404,-354.5 1404,-354.5 1404,-596.97 1404,-746.38"/>
</g>
<!-- cau_hinh_phan_quyen -->
<g id="node4" class="node">
<title>cau_hinh_phan_quyen</title>
<polygon fill="#c6e0e0" stroke="transparent" points="432.5,-231 432.5,-251 756.5,-251 756.5,-231 432.5,-231"/>
<text text-anchor="start" x="530" y="-239.2" font-family="Consolas" font-weight="bold" font-size="11.00">cau_hinh_phan_quyen</text>
<text text-anchor="start" x="436.5" y="-217.7" font-family="Consolas" font-weight="bold" font-size="11.00">id</text>
<text text-anchor="start" x="573.5" y="-215.8" font-family="Times,serif" font-size="14.00" fill="#b8860b">PK</text>
<text text-anchor="start" x="610.5" y="-215.8" font-family="Times,serif" font-size="14.00" fill="#555555">BIGINT UNSIGNED</text>
<text text-anchor="start" x="436.5" y="-194.7" font-family="Consolas" font-weight="bold" font-size="11.00">co_quan_giam_sat_id</text>
<text text-anchor="start" x="573.5" y="-192.8" font-family="Times,serif" font-size="14.00" fill="#1f6fb2">FK</text>
<text text-anchor="start" x="610.5" y="-192.8" font-family="Times,serif" font-size="14.00" fill="#555555">BIGINT UNSIGNED</text>
<text text-anchor="start" x="436.5" y="-170.7" font-family="Consolas" font-size="11.00">pham_vi_du_lieu</text>
<text text-anchor="start" x="610.5" y="-169.8" font-family="Times,serif" font-size="14.00" fill="#555555">TEXT</text>
<text text-anchor="start" x="436.5" y="-147.7" font-family="Consolas" font-size="11.00">muc_do_truy_cap</text>
<text text-anchor="start" x="610.5" y="-146.8" font-family="Times,serif" font-size="14.00" fill="#555555">ENUM</text>
<text text-anchor="start" x="436.5" y="-124.7" font-family="Consolas" font-size="11.00">ngay_bat_dau</text>
<text text-anchor="start" x="610.5" y="-123.8" font-family="Times,serif" font-size="14.00" fill="#555555">DATE</text>
<text text-anchor="start" x="436.5" y="-101.7" font-family="Consolas" font-size="11.00">ngay_ket_thuc</text>
<text text-anchor="start" x="610.5" y="-100.8" font-family="Times,serif" font-size="14.00" fill="#555555">DATE</text>
<text text-anchor="start" x="436.5" y="-79.7" font-family="Consolas" font-weight="bold" font-size="11.00">nguoi_cau_hinh_id</text>
<text text-anchor="start" x="573.5" y="-77.8" font-family="Times,serif" font-size="14.00" fill="#1f6fb2">FK</text>
<text text-anchor="start" x="610.5" y="-77.8" font-family="Times,serif" font-size="14.00" fill="#555555">BIGINT UNSIGNED</text>
<text text-anchor="start" x="436.5" y="-56.7" font-family="Consolas" font-weight="bold" font-size="11.00">nguoi_duyet_id</text>
<text text-anchor="start" x="573.5" y="-54.8" font-family="Times,serif" font-size="14.00" fill="#1f6fb2">FK</text>
<text text-anchor="start" x="610.5" y="-54.8" font-family="Times,serif" font-size="14.00" fill="#555555">BIGINT UNSIGNED</text>
<text text-anchor="start" x="436.5" y="-32.7" font-family="Consolas" font-size="11.00">trang_thai</text>
<text text-anchor="start" x="610.5" y="-31.8" font-family="Times,serif" font-size="14.00" fill="#555555">ENUM</text>
<text text-anchor="start" x="436.5" y="-9.7" font-family="Consolas" font-size="11.00">ngay_duyet</text>
<text text-anchor="start" x="610.5" y="-8.8" font-family="Times,serif" font-size="14.00" fill="#555555">DATETIME</text>
<polygon fill="none" stroke="black" points="431.5,0 431.5,-252 757.5,-252 757.5,0 431.5,0"/>
</g>
<!-- cau_hinh_phan_quyen&#45;&gt;can_bo -->
<g id="edge4" class="edge">
<title>cau_hinh_phan_quyen&#45;&gt;can_bo</title>
<path fill="none" stroke="#5578a8" d="M757.81,-240.5C813.51,-240.5 862,-240.5 862,-240.5 862,-240.5 862,-344.88 862,-427.85"/>
</g>
<!-- cau_hinh_phan_quyen&#45;&gt;can_bo -->
<g id="edge5" class="edge">
<title>cau_hinh_phan_quyen&#45;&gt;can_bo</title>
<path fill="none" stroke="#5578a8" d="M757.53,-229C815.19,-229 866,-229 866,-229 866,-229 866,-340.74 866,-427.61"/>
</g>
<!-- co_quan_giam_sat -->
<g id="node5" class="node">
<title>co_quan_giam_sat</title>
<polygon fill="#c6e0e0" stroke="transparent" points="871.5,-196 871.5,-216 1154.5,-216 1154.5,-196 871.5,-196"/>
<text text-anchor="start" x="958.5" y="-204.2" font-family="Consolas" font-weight="bold" font-size="11.00">co_quan_giam_sat</text>
<text text-anchor="start" x="875.5" y="-182.7" font-family="Consolas" font-weight="bold" font-size="11.00">id</text>
<text text-anchor="start" x="971.5" y="-180.8" font-family="Times,serif" font-size="14.00" fill="#b8860b">PK</text>
<text text-anchor="start" x="1008.5" y="-180.8" font-family="Times,serif" font-size="14.00" fill="#555555">BIGINT UNSIGNED</text>
<text text-anchor="start" x="875.5" y="-158.7" font-family="Consolas" font-size="11.00">ten_co_quan</text>
<text text-anchor="start" x="1008.5" y="-157.8" font-family="Times,serif" font-size="14.00" fill="#555555">VARCHAR(255)</text>
<text text-anchor="start" x="875.5" y="-135.7" font-family="Consolas" font-size="11.00">ma_co_quan</text>
<text text-anchor="start" x="1008.5" y="-134.8" font-family="Times,serif" font-size="14.00" fill="#555555">VARCHAR(30)</text>
<text text-anchor="start" x="875.5" y="-112.7" font-family="Consolas" font-size="11.00">dia_chi</text>
<text text-anchor="start" x="1008.5" y="-111.8" font-family="Times,serif" font-size="14.00" fill="#555555">VARCHAR(255)</text>
<text text-anchor="start" x="875.5" y="-89.7" font-family="Consolas" font-size="11.00">nguoi_lien_he</text>
<text text-anchor="start" x="1008.5" y="-88.8" font-family="Times,serif" font-size="14.00" fill="#555555">VARCHAR(150)</text>
<text text-anchor="start" x="875.5" y="-66.7" font-family="Consolas" font-size="11.00">email</text>
<text text-anchor="start" x="1008.5" y="-65.8" font-family="Times,serif" font-size="14.00" fill="#555555">VARCHAR(150)</text>
<text text-anchor="start" x="875.5" y="-43.7" font-family="Consolas" font-size="11.00">so_dien_thoai</text>
<text text-anchor="start" x="1008.5" y="-42.8" font-family="Times,serif" font-size="14.00" fill="#555555">VARCHAR(20)</text>
<polygon fill="none" stroke="black" points="870,-34.5 870,-217.5 1155,-217.5 1155,-34.5 870,-34.5"/>
</g>
<!-- cau_hinh_phan_quyen&#45;&gt;co_quan_giam_sat -->
<g id="edge6" class="edge">
<title>cau_hinh_phan_quyen&#45;&gt;co_quan_giam_sat</title>
<path fill="none" stroke="#5578a8" d="M757.61,-126C794.61,-126 833.63,-126 869.71,-126"/>
</g>
<!-- don_vi&#45;&gt;don_vi -->
<g id="edge1" class="edge">
<title>don_vi&#45;&gt;don_vi</title>
<path fill="none" stroke="#5578a8" stroke-dasharray="5,2" d="M1260.94,-918.25C1238.21,-918.25 1222,-918.25 1222,-918.25 1222,-918.25 1222,-1020 1222,-1020 1222,-1020 1564,-1020 1564,-1020 1564,-1020 1564,-861 1564,-861 1564,-861 1557.12,-861 1546.21,-861"/>
</g>
<!-- lich_su_xuat_bao_cao -->
<g id="node7" class="node">
<title>lich_su_xuat_bao_cao</title>
<polygon fill="#c6e0e0" stroke="transparent" points="11,-470 11,-490 335,-490 335,-470 11,-470"/>
<text text-anchor="start" x="105" y="-478.2" font-family="Consolas" font-weight="bold" font-size="11.00">lich_su_xuat_bao_cao</text>
<text text-anchor="start" x="15" y="-456.7" font-family="Consolas" font-weight="bold" font-size="11.00">id</text>
<text text-anchor="start" x="152" y="-454.8" font-family="Times,serif" font-size="14.00" fill="#b8860b">PK</text>
<text text-anchor="start" x="189" y="-454.8" font-family="Times,serif" font-size="14.00" fill="#555555">BIGINT UNSIGNED</text>
<text text-anchor="start" x="15" y="-433.7" font-family="Consolas" font-weight="bold" font-size="11.00">bao_cao_thong_ke_id</text>
<text text-anchor="start" x="152" y="-431.8" font-family="Times,serif" font-size="14.00" fill="#1f6fb2">FK</text>
<text text-anchor="start" x="189" y="-431.8" font-family="Times,serif" font-size="14.00" fill="#555555">BIGINT UNSIGNED</text>
<text text-anchor="start" x="15" y="-410.7" font-family="Consolas" font-weight="bold" font-size="11.00">nguoi_xuat_id</text>
<text text-anchor="start" x="152" y="-408.8" font-family="Times,serif" font-size="14.00" fill="#1f6fb2">FK</text>
<text text-anchor="start" x="189" y="-408.8" font-family="Times,serif" font-size="14.00" fill="#555555">BIGINT UNSIGNED</text>
<text text-anchor="start" x="15" y="-386.7" font-family="Consolas" font-size="11.00">ngay_xuat</text>
<text text-anchor="start" x="189" y="-385.8" font-family="Times,serif" font-size="14.00" fill="#555555">DATETIME</text>
<polygon fill="none" stroke="black" points="10,-377 10,-491 336,-491 336,-377 10,-377"/>
</g>
<!-- lich_su_xuat_bao_cao&#45;&gt;bao_cao_thong_ke -->
<g id="edge16" class="edge">
<title>lich_su_xuat_bao_cao&#45;&gt;bao_cao_thong_ke</title>
<path fill="none" stroke="#5578a8" d="M336.26,-432C373.19,-432 412.18,-432 448.35,-432"/>
</g>
<!-- lich_su_xuat_bao_cao&#45;&gt;can_bo -->
<g id="edge15" class="edge">
<title>lich_su_xuat_bao_cao&#45;&gt;can_bo</title>
<path fill="none" stroke="#5578a8" d="M173,-491.13C173,-512.3 173,-531.25 173,-531.25 173,-531.25 614.38,-531.25 857.05,-531.25"/>
</g>
<!-- nhat_ky_giam_sat -->
<g id="node8" class="node">
<title>nhat_ky_giam_sat</title>
<polygon fill="#c6e0e0" stroke="transparent" points="1,-185 1,-205 345,-205 345,-185 1,-185"/>
<text text-anchor="start" x="118.5" y="-193.2" font-family="Consolas" font-weight="bold" font-size="11.00">nhat_ky_giam_sat</text>
<text text-anchor="start" x="5" y="-171.7" font-family="Consolas" font-weight="bold" font-size="11.00">id</text>
<text text-anchor="start" x="162" y="-169.8" font-family="Times,serif" font-size="14.00" fill="#b8860b">PK</text>
<text text-anchor="start" x="199" y="-169.8" font-family="Times,serif" font-size="14.00" fill="#555555">BIGINT UNSIGNED</text>
<text text-anchor="start" x="5" y="-148.7" font-family="Consolas" font-weight="bold" font-size="11.00">cau_hinh_phan_quyen_id</text>
<text text-anchor="start" x="162" y="-146.8" font-family="Times,serif" font-size="14.00" fill="#1f6fb2">FK</text>
<text text-anchor="start" x="199" y="-146.8" font-family="Times,serif" font-size="14.00" fill="#555555">BIGINT UNSIGNED</text>
<text text-anchor="start" x="5" y="-124.7" font-family="Consolas" font-size="11.00">nguoi_truy_cap</text>
<text text-anchor="start" x="199" y="-123.8" font-family="Times,serif" font-size="14.00" fill="#555555">VARCHAR(150)</text>
<text text-anchor="start" x="5" y="-101.7" font-family="Consolas" font-size="11.00">thoi_gian_truy_cap</text>
<text text-anchor="start" x="199" y="-100.8" font-family="Times,serif" font-size="14.00" fill="#555555">DATETIME</text>
<text text-anchor="start" x="5" y="-78.7" font-family="Consolas" font-size="11.00">thao_tac</text>
<text text-anchor="start" x="199" y="-77.8" font-family="Times,serif" font-size="14.00" fill="#555555">VARCHAR(255)</text>
<text text-anchor="start" x="5" y="-55.7" font-family="Consolas" font-size="11.00">du_lieu_truy_cap</text>
<text text-anchor="start" x="199" y="-54.8" font-family="Times,serif" font-size="14.00" fill="#555555">TEXT</text>
<polygon fill="none" stroke="black" points="0,-46 0,-206 346,-206 346,-46 0,-46"/>
</g>
<!-- nhat_ky_giam_sat&#45;&gt;cau_hinh_phan_quyen -->
<g id="edge7" class="edge">
<title>nhat_ky_giam_sat&#45;&gt;cau_hinh_phan_quyen</title>
<path fill="none" stroke="#5578a8" d="M346.26,-126C374.42,-126 403.5,-126 431.4,-126"/>
</g>
<!-- phieu_giao_viec&#45;&gt;can_bo -->
<g id="edge8" class="edge">
<title>phieu_giao_viec&#45;&gt;can_bo</title>
<path fill="none" stroke="#5578a8" d="M747,-633.68C747,-614.18 747,-599.75 747,-599.75 747,-599.75 799.19,-599.75 857.29,-599.75"/>
</g>
<!-- phieu_giao_viec&#45;&gt;can_bo -->
<g id="edge9" class="edge">
<title>phieu_giao_viec&#45;&gt;can_bo</title>
<path fill="none" stroke="#5578a8" d="M752,-633.93C752,-621.94 752,-613.88 752,-613.88 752,-613.88 801.42,-613.88 857.2,-613.88"/>
</g>
<!-- yeu_cau_giai_trinh -->
<g id="node10" class="node">
<title>yeu_cau_giai_trinh</title>
<polygon fill="#fbe5d6" stroke="transparent" points="844.5,-1043 844.5,-1063 1181.5,-1063 1181.5,-1043 844.5,-1043"/>
<text text-anchor="start" x="952" y="-1051.2" font-family="Consolas" font-weight="bold" font-size="11.00">yeu_cau_giai_trinh</text>
<text text-anchor="start" x="848.5" y="-1029.7" font-family="Consolas" font-weight="bold" font-size="11.00">id</text>
<text text-anchor="start" x="998.5" y="-1027.8" font-family="Times,serif" font-size="14.00" fill="#b8860b">PK</text>
<text text-anchor="start" x="1035.5" y="-1027.8" font-family="Times,serif" font-size="14.00" fill="#555555">BIGINT UNSIGNED</text>
<text text-anchor="start" x="848.5" y="-1005.7" font-family="Consolas" font-size="11.00">ma_yeu_cau</text>
<text text-anchor="start" x="1035.5" y="-1004.8" font-family="Times,serif" font-size="14.00" fill="#555555">VARCHAR(30)</text>
<text text-anchor="start" x="848.5" y="-983.7" font-family="Consolas" font-weight="bold" font-size="11.00">nguoi_yeu_cau_id</text>
<text text-anchor="start" x="998.5" y="-981.8" font-family="Times,serif" font-size="14.00" fill="#1f6fb2">FK</text>
<text text-anchor="start" x="1035.5" y="-981.8" font-family="Times,serif" font-size="14.00" fill="#555555">BIGINT UNSIGNED</text>
<text text-anchor="start" x="848.5" y="-959.7" font-family="Consolas" font-size="11.00">hinh_thuc_gui</text>
<text text-anchor="start" x="1035.5" y="-958.8" font-family="Times,serif" font-size="14.00" fill="#555555">ENUM</text>
<text text-anchor="start" x="848.5" y="-936.7" font-family="Consolas" font-size="11.00">nguon_goc</text>
<text text-anchor="start" x="1035.5" y="-935.8" font-family="Times,serif" font-size="14.00" fill="#555555">ENUM</text>
<text text-anchor="start" x="848.5" y="-913.7" font-family="Consolas" font-size="11.00">noi_dung_yeu_cau</text>
<text text-anchor="start" x="1035.5" y="-912.8" font-family="Times,serif" font-size="14.00" fill="#555555">TEXT</text>
<text text-anchor="start" x="848.5" y="-890.7" font-family="Consolas" font-size="11.00">ngay_gui</text>
<text text-anchor="start" x="1035.5" y="-889.8" font-family="Times,serif" font-size="14.00" fill="#555555">DATETIME</text>
<text text-anchor="start" x="848.5" y="-868.7" font-family="Consolas" font-weight="bold" font-size="11.00">don_vi_tiep_nhan_id</text>
<text text-anchor="start" x="998.5" y="-866.8" font-family="Times,serif" font-size="14.00" fill="#1f6fb2">FK</text>
<text text-anchor="start" x="1035.5" y="-866.8" font-family="Times,serif" font-size="14.00" fill="#555555">BIGINT UNSIGNED</text>
<text text-anchor="start" x="848.5" y="-845.7" font-family="Consolas" font-weight="bold" font-size="11.00">don_vi_chuyen_mon_id</text>
<text text-anchor="start" x="998.5" y="-843.8" font-family="Times,serif" font-size="14.00" fill="#1f6fb2">FK</text>
<text text-anchor="start" x="1035.5" y="-843.8" font-family="Times,serif" font-size="14.00" fill="#555555">BIGINT UNSIGNED</text>
<text text-anchor="start" x="848.5" y="-821.7" font-family="Consolas" font-size="11.00">han_xu_ly</text>
<text text-anchor="start" x="1035.5" y="-820.8" font-family="Times,serif" font-size="14.00" fill="#555555">DATE</text>
<text text-anchor="start" x="848.5" y="-798.7" font-family="Consolas" font-size="11.00" fill="#c00000">han_xu_ly_cu</text>
<text text-anchor="start" x="1035.5" y="-797.8" font-family="Times,serif" font-size="14.00" fill="#555555">DATE</text>
<text text-anchor="start" x="848.5" y="-775.7" font-family="Consolas" font-size="11.00" fill="#c00000">so_lan_gia_han</text>
<text text-anchor="start" x="1035.5" y="-774.8" font-family="Times,serif" font-size="14.00" fill="#555555">TINYINT</text>
<text text-anchor="start" x="848.5" y="-753.7" font-family="Consolas" font-weight="bold" font-size="11.00" fill="#c00000">ly_do_gia_han_id</text>
<text text-anchor="start" x="998.5" y="-751.8" font-family="Times,serif" font-size="14.00" fill="#1f6fb2">FK</text>
<text text-anchor="start" x="1035.5" y="-751.8" font-family="Times,serif" font-size="14.00" fill="#555555">BIGINT UNSIGNED</text>
<text text-anchor="start" x="848.5" y="-729.7" font-family="Consolas" font-size="11.00" fill="#c00000">ngay_gia_han_gan_nhat</text>
<text text-anchor="start" x="1035.5" y="-728.8" font-family="Times,serif" font-size="14.00" fill="#555555">DATETIME</text>
<text text-anchor="start" x="848.5" y="-706.7" font-family="Consolas" font-size="11.00">trang_thai</text>
<text text-anchor="start" x="1035.5" y="-705.8" font-family="Times,serif" font-size="14.00" fill="#555555">ENUM</text>
<text text-anchor="start" x="848.5" y="-687.6" font-family="Consolas" font-size="8.00" fill="#999999">= ...,Đã rút (bổ sung)</text>
<text text-anchor="start" x="848.5" y="-666.7" font-family="Consolas" font-size="11.00">ngay_dong</text>
<text text-anchor="start" x="1035.5" y="-665.8" font-family="Times,serif" font-size="14.00" fill="#555555">DATETIME</text>
<polygon fill="none" stroke="black" points="843,-657.5 843,-1064.5 1182,-1064.5 1182,-657.5 843,-657.5"/>
</g>
<!-- phieu_giao_viec&#45;&gt;yeu_cau_giai_trinh -->
<g id="edge10" class="edge">
<title>phieu_giao_viec&#45;&gt;yeu_cau_giai_trinh</title>
<path fill="none" stroke="#5578a8" d="M764.22,-748.75C790.11,-748.75 816.84,-748.75 842.74,-748.75"/>
</g>
<!-- yeu_cau_giai_trinh&#45;&gt;don_vi -->
<g id="edge2" class="edge">
<title>yeu_cau_giai_trinh&#45;&gt;don_vi</title>
<path fill="none" stroke="#5578a8" d="M1182.01,-803.75C1208.3,-803.75 1235.24,-803.75 1260.86,-803.75"/>
</g>
<!-- yeu_cau_giai_trinh&#45;&gt;don_vi -->
<g id="edge3" class="edge">
<title>yeu_cau_giai_trinh&#45;&gt;don_vi</title>
<path fill="none" stroke="#5578a8" d="M1182.01,-861C1208.3,-861 1235.24,-861 1260.86,-861"/>
</g>
</g>
</svg>
