<?xml version="1.0" encoding="UTF-8" standalone="no"?>
<!DOCTYPE svg PUBLIC "-//W3C//DTD SVG 1.1//EN"
 "http://www.w3.org/Graphics/SVG/1.1/DTD/svg11.dtd">
<!-- Generated by graphviz version 2.43.0 (0)
 -->
<!-- Title: GIÁM SÁT, GIAO VIỆC &amp; BÁO CÁO (đã bổ sung văn bản đôn đốc) Pages: 1 -->
<svg width="1572pt" height="1112pt"
 viewBox="0.00 0.00 1572.00 1111.50" xmlns="http://www.w3.org/2000/svg" xmlns:xlink="http://www.w3.org/1999/xlink">
<g id="graph0" class="graph" transform="scale(1 1) rotate(0) translate(4 1107.5)">
<title>GIÁM SÁT, GIAO VIỆC &amp; BÁO CÁO (đã bổ sung văn bản đôn đốc)</title>
<polygon fill="white" stroke="transparent" points="-4,4 -4,-1107.5 1568,-1107.5 1568,4 -4,4"/>
<text text-anchor="start" x="430.5" y="-1081.9" font-family="Helvetica,sans-Serif" font-size="22.00">GIÁM SÁT, GIAO VIỆC &amp; BÁO CÁO (đã bổ sung văn bản đôn đốc)</text>
<!-- bao_cao_nhiem_vu -->
<g id="node1" class="node">
<title>bao_cao_nhiem_vu</title>
<polygon fill="#c6e0e0" stroke="transparent" points="15,-556.5 15,-576.5 332,-576.5 332,-556.5 15,-556.5"/>
<text text-anchor="start" x="119" y="-564.7" font-family="Consolas" font-weight="bold" font-size="11.00">bao_cao_nhiem_vu</text>
<text text-anchor="start" x="19" y="-543.2" font-family="Consolas" font-weight="bold" font-size="11.00">id</text>
<text text-anchor="start" x="149" y="-541.3" font-family="Times,serif" font-size="14.00" fill="#b8860b">PK</text>
<text text-anchor="start" x="186" y="-541.3" font-family="Times,serif" font-size="14.00" fill="#555555">BIGINT UNSIGNED</text>
<text text-anchor="start" x="19" y="-520.2" font-family="Consolas" font-weight="bold" font-size="11.00">phieu_giao_viec_id</text>
<text text-anchor="start" x="149" y="-518.3" font-family="Times,serif" font-size="14.00" fill="#1f6fb2">FK</text>
<text text-anchor="start" x="186" y="-518.3" font-family="Times,serif" font-size="14.00" fill="#555555">BIGINT UNSIGNED</text>
<text text-anchor="start" x="19" y="-496.2" font-family="Consolas" font-size="11.00">noi_dung</text>
<text text-anchor="start" x="186" y="-495.3" font-family="Times,serif" font-size="14.00" fill="#555555">TEXT</text>
<text text-anchor="start" x="19" y="-473.2" font-family="Consolas" font-size="11.00">ngay_bao_cao</text>
<text text-anchor="start" x="186" y="-472.3" font-family="Times,serif" font-size="14.00" fill="#555555">DATETIME</text>
<text text-anchor="start" x="19" y="-451.2" font-family="Consolas" font-weight="bold" font-size="11.00">nguoi_duyet_id</text>
<text text-anchor="start" x="149" y="-449.3" font-family="Times,serif" font-size="14.00" fill="#1f6fb2">FK</text>
<text text-anchor="start" x="186" y="-449.3" font-family="Times,serif" font-size="14.00" fill="#555555">BIGINT UNSIGNED</text>
<text text-anchor="start" x="19" y="-427.2" font-family="Consolas" font-size="11.00">ket_qua_danh_gia</text>
<text text-anchor="start" x="186" y="-426.3" font-family="Times,serif" font-size="14.00" fill="#555555">VARCHAR(100)</text>
<text text-anchor="start" x="19" y="-404.2" font-family="Consolas" font-size="11.00">ngay_duyet</text>
<text text-anchor="start" x="186" y="-403.3" font-family="Times,serif" font-size="14.00" fill="#555555">DATETIME</text>
<polygon fill="none" stroke="black" points="13.5,-395 13.5,-578 332.5,-578 332.5,-395 13.5,-395"/>
</g>
<!-- can_bo -->
<g id="node3" class="node">
<title>can_bo</title>
<polygon fill="#dce6f1" stroke="transparent" points="858.5,-827.5 858.5,-847.5 1166.5,-847.5 1166.5,-827.5 858.5,-827.5"/>
<text text-anchor="start" x="992" y="-835.7" font-family="Consolas" font-weight="bold" font-size="11.00">can_bo</text>
<text text-anchor="start" x="862.5" y="-814.2" font-family="Consolas" font-weight="bold" font-size="11.00">id</text>
<text text-anchor="start" x="958.5" y="-813.3" font-family="Times,serif" font-size="14.00" fill="#b8860b">PK</text>
<text text-anchor="start" x="979.5" y="-813.3" font-family="Times,serif" font-size="14.00" fill="#1f6fb2">/FK</text>
<text text-anchor="start" x="1020.5" y="-812.3" font-family="Times,serif" font-size="14.00" fill="#555555">BIGINT UNSIGNED</text>
<text text-anchor="start" x="862.5" y="-794.1" font-family="Consolas" font-size="8.00" fill="#999999">= = nguoi_dung.id</text>
<text text-anchor="start" x="862.5" y="-773.2" font-family="Consolas" font-size="11.00">ma_can_bo</text>
<text text-anchor="start" x="1020.5" y="-772.3" font-family="Times,serif" font-size="14.00" fill="#555555">VARCHAR(30)</text>
<text text-anchor="start" x="862.5" y="-750.2" font-family="Consolas" font-size="11.00">ho_ten</text>
<text text-anchor="start" x="1020.5" y="-749.3" font-family="Times,serif" font-size="14.00" fill="#555555">VARCHAR(150)</text>
<text text-anchor="start" x="862.5" y="-728.2" font-family="Consolas" font-weight="bold" font-size="11.00">don_vi_id</text>
<text text-anchor="start" x="958.5" y="-726.3" font-family="Times,serif" font-size="14.00" fill="#1f6fb2">FK</text>
<text text-anchor="start" x="1020.5" y="-726.3" font-family="Times,serif" font-size="14.00" fill="#555555">BIGINT UNSIGNED</text>
<text text-anchor="start" x="862.5" y="-704.2" font-family="Consolas" font-size="11.00">chuc_vu</text>
<text text-anchor="start" x="1020.5" y="-703.3" font-family="Times,serif" font-size="14.00" fill="#555555">VARCHAR(100)</text>
<text text-anchor="start" x="862.5" y="-681.2" font-family="Consolas" font-size="11.00">email</text>
<text text-anchor="start" x="1020.5" y="-680.3" font-family="Times,serif" font-size="14.00" fill="#555555">VARCHAR(150)</text>
<text text-anchor="start" x="862.5" y="-658.2" font-family="Consolas" font-size="11.00">so_dien_thoai</text>
<text text-anchor="start" x="1020.5" y="-657.3" font-family="Times,serif" font-size="14.00" fill="#555555">VARCHAR(20)</text>
<polygon fill="none" stroke="black" points="857.5,-648.5 857.5,-848.5 1167.5,-848.5 1167.5,-648.5 857.5,-648.5"/>
</g>
<!-- bao_cao_nhiem_vu&#45;&gt;can_bo -->
<g id="edge11" class="edge">
<title>bao_cao_nhiem_vu&#45;&gt;can_bo</title>
<path fill="none" stroke="#5578a8" d="M332.73,-440.5C513.77,-440.5 784,-440.5 784,-440.5 784,-440.5 784,-669.5 784,-669.5 784,-669.5 816.64,-669.5 857.24,-669.5"/>
</g>
<!-- phieu_giao_viec -->
<g id="node9" class="node">
<title>phieu_giao_viec</title>
<polygon fill="#c6e0e0" stroke="transparent" points="426.5,-669.5 426.5,-689.5 763.5,-689.5 763.5,-669.5 426.5,-669.5"/>
<text text-anchor="start" x="544" y="-677.7" font-family="Consolas" font-weight="bold" font-size="11.00">phieu_giao_viec</text>
<text text-anchor="start" x="430.5" y="-656.2" font-family="Consolas" font-weight="bold" font-size="11.00">id</text>
<text text-anchor="start" x="580.5" y="-654.3" font-family="Times,serif" font-size="14.00" fill="#b8860b">PK</text>
<text text-anchor="start" x="617.5" y="-654.3" font-family="Times,serif" font-size="14.00" fill="#555555">BIGINT UNSIGNED</text>
<text text-anchor="start" x="430.5" y="-633.2" font-family="Consolas" font-weight="bold" font-size="11.00">yeu_cau_giai_trinh_id</text>
<text text-anchor="start" x="580.5" y="-631.3" font-family="Times,serif" font-size="14.00" fill="#1f6fb2">FK</text>
<text text-anchor="start" x="617.5" y="-631.3" font-family="Times,serif" font-size="14.00" fill="#555555">BIGINT UNSIGNED</text>
<text text-anchor="start" x="430.5" y="-610.2" font-family="Consolas" font-weight="bold" font-size="11.00">nguoi_giao_id</text>
<text text-anchor="start" x="580.5" y="-608.3" font-family="Times,serif" font-size="14.00" fill="#1f6fb2">FK</text>
<text text-anchor="start" x="617.5" y="-608.3" font-family="Times,serif" font-size="14.00" fill="#555555">BIGINT UNSIGNED</text>
<text text-anchor="start" x="430.5" y="-587.2" font-family="Consolas" font-weight="bold" font-size="11.00">nguoi_nhan_id</text>
<text text-anchor="start" x="580.5" y="-585.3" font-family="Times,serif" font-size="14.00" fill="#1f6fb2">FK</text>
<text text-anchor="start" x="617.5" y="-585.3" font-family="Times,serif" font-size="14.00" fill="#555555">BIGINT UNSIGNED</text>
<text text-anchor="start" x="430.5" y="-563.2" font-family="Consolas" font-size="11.00">noi_dung</text>
<text text-anchor="start" x="617.5" y="-562.3" font-family="Times,serif" font-size="14.00" fill="#555555">TEXT</text>
<text text-anchor="start" x="430.5" y="-540.2" font-family="Consolas" font-size="11.00">ngay_giao</text>
<text text-anchor="start" x="617.5" y="-539.3" font-family="Times,serif" font-size="14.00" fill="#555555">DATETIME</text>
<text text-anchor="start" x="430.5" y="-517.2" font-family="Consolas" font-size="11.00">han_hoan_thanh</text>
<text text-anchor="start" x="617.5" y="-516.3" font-family="Times,serif" font-size="14.00" fill="#555555">DATE</text>
<text text-anchor="start" x="430.5" y="-494.2" font-family="Consolas" font-size="11.00">trang_thai</text>
<text text-anchor="start" x="617.5" y="-493.3" font-family="Times,serif" font-size="14.00" fill="#555555">ENUM</text>
<polygon fill="none" stroke="black" points="425,-484.5 425,-690.5 764,-690.5 764,-484.5 425,-484.5"/>
</g>
<!-- bao_cao_nhiem_vu&#45;&gt;phieu_giao_viec -->
<g id="edge12" class="edge">
<title>bao_cao_nhiem_vu&#45;&gt;phieu_giao_viec</title>
<path fill="none" stroke="#5578a8" d="M332.65,-531.25C362.83,-531.25 394.49,-531.25 424.95,-531.25"/>
</g>
<!-- bao_cao_thong_ke -->
<g id="node2" class="node">
<title>bao_cao_thong_ke</title>
<polygon fill="#c6e0e0" stroke="transparent" points="449.5,-1050.5 449.5,-1070.5 739.5,-1070.5 739.5,-1050.5 449.5,-1050.5"/>
<text text-anchor="start" x="540" y="-1058.7" font-family="Consolas" font-weight="bold" font-size="11.00">bao_cao_thong_ke</text>
<text text-anchor="start" x="453.5" y="-1037.2" font-family="Consolas" font-weight="bold" font-size="11.00">id</text>
<text text-anchor="start" x="556.5" y="-1035.3" font-family="Times,serif" font-size="14.00" fill="#b8860b">PK</text>
<text text-anchor="start" x="593.5" y="-1035.3" font-family="Times,serif" font-size="14.00" fill="#555555">BIGINT UNSIGNED</text>
<text text-anchor="start" x="453.5" y="-1014.2" font-family="Consolas" font-weight="bold" font-size="11.00">nguoi_tao_id</text>
<text text-anchor="start" x="556.5" y="-1012.3" font-family="Times,serif" font-size="14.00" fill="#1f6fb2">FK</text>
<text text-anchor="start" x="593.5" y="-1012.3" font-family="Times,serif" font-size="14.00" fill="#555555">BIGINT UNSIGNED</text>
<text text-anchor="start" x="453.5" y="-990.2" font-family="Consolas" font-size="11.00">ky_bao_cao</text>
<text text-anchor="start" x="593.5" y="-989.3" font-family="Times,serif" font-size="14.00" fill="#555555">VARCHAR(50)</text>
<text text-anchor="start" x="453.5" y="-968.2" font-family="Consolas" font-weight="bold" font-size="11.00">don_vi_id</text>
<text text-anchor="start" x="556.5" y="-966.3" font-family="Times,serif" font-size="14.00" fill="#1f6fb2">FK</text>
<text text-anchor="start" x="593.5" y="-966.3" font-family="Times,serif" font-size="14.00" fill="#555555">BIGINT UNSIGNED</text>
<text text-anchor="start" x="453.5" y="-944.2" font-family="Consolas" font-size="11.00">tieu_chi</text>
<text text-anchor="start" x="593.5" y="-943.3" font-family="Times,serif" font-size="14.00" fill="#555555">TEXT</text>
<text text-anchor="start" x="453.5" y="-921.2" font-family="Consolas" font-size="11.00">dinh_dang_xuat</text>
<text text-anchor="start" x="593.5" y="-920.3" font-family="Times,serif" font-size="14.00" fill="#555555">ENUM</text>
<text text-anchor="start" x="453.5" y="-898.2" font-family="Consolas" font-size="11.00">ngay_tao</text>
<text text-anchor="start" x="593.5" y="-897.3" font-family="Times,serif" font-size="14.00" fill="#555555">DATETIME</text>
<text text-anchor="start" x="453.5" y="-875.2" font-family="Consolas" font-size="11.00">duong_dan_file</text>
<text text-anchor="start" x="593.5" y="-874.3" font-family="Times,serif" font-size="14.00" fill="#555555">VARCHAR(255)</text>
<polygon fill="none" stroke="black" points="448.5,-865.5 448.5,-1071.5 740.5,-1071.5 740.5,-865.5 448.5,-865.5"/>
</g>
<!-- bao_cao_thong_ke&#45;&gt;can_bo -->
<g id="edge14" class="edge">
<title>bao_cao_thong_ke&#45;&gt;can_bo</title>
<path fill="none" stroke="#5578a8" d="M595,-865.28C595,-838.44 595,-816.9 595,-816.9 595,-816.9 738.58,-816.9 857.34,-816.9"/>
</g>
<!-- don_vi -->
<g id="node6" class="node">
<title>don_vi</title>
<polygon fill="#dce6f1" stroke="transparent" points="1262.5,-508.5 1262.5,-528.5 1545.5,-528.5 1545.5,-508.5 1262.5,-508.5"/>
<text text-anchor="start" x="1383.5" y="-516.7" font-family="Consolas" font-weight="bold" font-size="11.00">don_vi</text>
<text text-anchor="start" x="1266.5" y="-495.2" font-family="Consolas" font-weight="bold" font-size="11.00">id</text>
<text text-anchor="start" x="1362.5" y="-493.3" font-family="Times,serif" font-size="14.00" fill="#b8860b">PK</text>
<text text-anchor="start" x="1399.5" y="-493.3" font-family="Times,serif" font-size="14.00" fill="#555555">BIGINT UNSIGNED</text>
<text text-anchor="start" x="1266.5" y="-471.2" font-family="Consolas" font-size="11.00">ma_don_vi</text>
<text text-anchor="start" x="1399.5" y="-470.3" font-family="Times,serif" font-size="14.00" fill="#555555">VARCHAR(30)</text>
<text text-anchor="start" x="1266.5" y="-448.2" font-family="Consolas" font-size="11.00">ten_don_vi</text>
<text text-anchor="start" x="1399.5" y="-447.3" font-family="Times,serif" font-size="14.00" fill="#555555">VARCHAR(255)</text>
<text text-anchor="start" x="1266.5" y="-426.2" font-family="Consolas" font-weight="bold" font-size="11.00">don_vi_cha_id</text>
<text text-anchor="start" x="1362.5" y="-424.3" font-family="Times,serif" font-size="14.00" fill="#1f6fb2">FK</text>
<text text-anchor="start" x="1399.5" y="-424.3" font-family="Times,serif" font-size="14.00" fill="#555555">BIGINT UNSIGNED</text>
<text text-anchor="start" x="1266.5" y="-402.2" font-family="Consolas" font-size="11.00">cap_don_vi</text>
<text text-anchor="start" x="1399.5" y="-401.3" font-family="Times,serif" font-size="14.00" fill="#555555">TINYINT</text>
<text text-anchor="start" x="1266.5" y="-379.2" font-family="Consolas" font-size="11.00">loai_don_vi</text>
<text text-anchor="start" x="1399.5" y="-378.3" font-family="Times,serif" font-size="14.00" fill="#555555">VARCHAR(50)</text>
<text text-anchor="start" x="1266.5" y="-356.2" font-family="Consolas" font-size="11.00">dia_chi</text>
<text text-anchor="start" x="1399.5" y="-355.3" font-family="Times,serif" font-size="14.00" fill="#555555">VARCHAR(255)</text>
<text text-anchor="start" x="1266.5" y="-333.2" font-family="Consolas" font-size="11.00">trang_thai</text>
<text text-anchor="start" x="1399.5" y="-332.3" font-family="Times,serif" font-size="14.00" fill="#555555">TINYINT</text>
<text text-anchor="start" x="1266.5" y="-310.2" font-family="Consolas" font-size="11.00">ngay_tao</text>
<text text-anchor="start" x="1399.5" y="-309.3" font-family="Times,serif" font-size="14.00" fill="#555555">DATETIME</text>
<polygon fill="none" stroke="black" points="1261,-301 1261,-530 1546,-530 1546,-301 1261,-301"/>
</g>
<!-- bao_cao_thong_ke&#45;&gt;don_vi -->
<g id="edge13" class="edge">
<title>bao_cao_thong_ke&#45;&gt;don_vi</title>
<path fill="none" stroke="#5578a8" d="M740.63,-968.5C973.79,-968.5 1404,-968.5 1404,-968.5 1404,-968.5 1404,-692.06 1404,-530.08"/>
</g>
<!-- cau_hinh_phan_quyen -->
<g id="node4" class="node">
<title>cau_hinh_phan_quyen</title>
<polygon fill="#c6e0e0" stroke="transparent" points="432.5,-375.5 432.5,-395.5 756.5,-395.5 756.5,-375.5 432.5,-375.5"/>
<text text-anchor="start" x="530" y="-383.7" font-family="Consolas" font-weight="bold" font-size="11.00">cau_hinh_phan_quyen</text>
<text text-anchor="start" x="436.5" y="-362.2" font-family="Consolas" font-weight="bold" font-size="11.00">id</text>
<text text-anchor="start" x="573.5" y="-360.3" font-family="Times,serif" font-size="14.00" fill="#b8860b">PK</text>
<text text-anchor="start" x="610.5" y="-360.3" font-family="Times,serif" font-size="14.00" fill="#555555">BIGINT UNSIGNED</text>
<text text-anchor="start" x="436.5" y="-339.2" font-family="Consolas" font-weight="bold" font-size="11.00">co_quan_giam_sat_id</text>
<text text-anchor="start" x="573.5" y="-337.3" font-family="Times,serif" font-size="14.00" fill="#1f6fb2">FK</text>
<text text-anchor="start" x="610.5" y="-337.3" font-family="Times,serif" font-size="14.00" fill="#555555">BIGINT UNSIGNED</text>
<text text-anchor="start" x="436.5" y="-315.2" font-family="Consolas" font-size="11.00">pham_vi_du_lieu</text>
<text text-anchor="start" x="610.5" y="-314.3" font-family="Times,serif" font-size="14.00" fill="#555555">TEXT</text>
<text text-anchor="start" x="436.5" y="-292.2" font-family="Consolas" font-size="11.00">muc_do_truy_cap</text>
<text text-anchor="start" x="610.5" y="-291.3" font-family="Times,serif" font-size="14.00" fill="#555555">ENUM</text>
<text text-anchor="start" x="436.5" y="-269.2" font-family="Consolas" font-size="11.00">ngay_bat_dau</text>
<text text-anchor="start" x="610.5" y="-268.3" font-family="Times,serif" font-size="14.00" fill="#555555">DATE</text>
<text text-anchor="start" x="436.5" y="-246.2" font-family="Consolas" font-size="11.00">ngay_ket_thuc</text>
<text text-anchor="start" x="610.5" y="-245.3" font-family="Times,serif" font-size="14.00" fill="#555555">DATE</text>
<text text-anchor="start" x="436.5" y="-224.2" font-family="Consolas" font-weight="bold" font-size="11.00">nguoi_cau_hinh_id</text>
<text text-anchor="start" x="573.5" y="-222.3" font-family="Times,serif" font-size="14.00" fill="#1f6fb2">FK</text>
<text text-anchor="start" x="610.5" y="-222.3" font-family="Times,serif" font-size="14.00" fill="#555555">BIGINT UNSIGNED</text>
<text text-anchor="start" x="436.5" y="-201.2" font-family="Consolas" font-weight="bold" font-size="11.00">nguoi_duyet_id</text>
<text text-anchor="start" x="573.5" y="-199.3" font-family="Times,serif" font-size="14.00" fill="#1f6fb2">FK</text>
<text text-anchor="start" x="610.5" y="-199.3" font-family="Times,serif" font-size="14.00" fill="#555555">BIGINT UNSIGNED</text>
<text text-anchor="start" x="436.5" y="-177.2" font-family="Consolas" font-size="11.00">trang_thai</text>
<text text-anchor="start" x="610.5" y="-176.3" font-family="Times,serif" font-size="14.00" fill="#555555">ENUM</text>
<text text-anchor="start" x="436.5" y="-154.2" font-family="Consolas" font-size="11.00">ngay_duyet</text>
<text text-anchor="start" x="610.5" y="-153.3" font-family="Times,serif" font-size="14.00" fill="#555555">DATETIME</text>
<polygon fill="none" stroke="black" points="431.5,-144.5 431.5,-396.5 757.5,-396.5 757.5,-144.5 431.5,-144.5"/>
</g>
<!-- cau_hinh_phan_quyen&#45;&gt;can_bo -->
<g id="edge4" class="edge">
<title>cau_hinh_phan_quyen&#45;&gt;can_bo</title>
<path fill="none" stroke="#5578a8" d="M757.51,-335C784.55,-335 804,-335 804,-335 804,-335 804,-662.5 804,-662.5 804,-662.5 826.85,-662.5 857.42,-662.5"/>
</g>
<!-- cau_hinh_phan_quyen&#45;&gt;can_bo -->
<g id="edge5" class="edge">
<title>cau_hinh_phan_quyen&#45;&gt;can_bo</title>
<path fill="none" stroke="#5578a8" d="M757.62,-273.5C795,-273.5 824,-273.5 824,-273.5 824,-273.5 824,-655.5 824,-655.5 824,-655.5 837.5,-655.5 857.27,-655.5"/>
</g>
<!-- co_quan_giam_sat -->
<g id="node5" class="node">
<title>co_quan_giam_sat</title>
<polygon fill="#c6e0e0" stroke="transparent" points="871.5,-161.5 871.5,-181.5 1154.5,-181.5 1154.5,-161.5 871.5,-161.5"/>
<text text-anchor="start" x="958.5" y="-169.7" font-family="Consolas" font-weight="bold" font-size="11.00">co_quan_giam_sat</text>
<text text-anchor="start" x="875.5" y="-148.2" font-family="Consolas" font-weight="bold" font-size="11.00">id</text>
<text text-anchor="start" x="971.5" y="-146.3" font-family="Times,serif" font-size="14.00" fill="#b8860b">PK</text>
<text text-anchor="start" x="1008.5" y="-146.3" font-family="Times,serif" font-size="14.00" fill="#555555">BIGINT UNSIGNED</text>
<text text-anchor="start" x="875.5" y="-124.2" font-family="Consolas" font-size="11.00">ten_co_quan</text>
<text text-anchor="start" x="1008.5" y="-123.3" font-family="Times,serif" font-size="14.00" fill="#555555">VARCHAR(255)</text>
<text text-anchor="start" x="875.5" y="-101.2" font-family="Consolas" font-size="11.00">ma_co_quan</text>
<text text-anchor="start" x="1008.5" y="-100.3" font-family="Times,serif" font-size="14.00" fill="#555555">VARCHAR(30)</text>
<text text-anchor="start" x="875.5" y="-78.2" font-family="Consolas" font-size="11.00">dia_chi</text>
<text text-anchor="start" x="1008.5" y="-77.3" font-family="Times,serif" font-size="14.00" fill="#555555">VARCHAR(255)</text>
<text text-anchor="start" x="875.5" y="-55.2" font-family="Consolas" font-size="11.00">nguoi_lien_he</text>
<text text-anchor="start" x="1008.5" y="-54.3" font-family="Times,serif" font-size="14.00" fill="#555555">VARCHAR(150)</text>
<text text-anchor="start" x="875.5" y="-32.2" font-family="Consolas" font-size="11.00">email</text>
<text text-anchor="start" x="1008.5" y="-31.3" font-family="Times,serif" font-size="14.00" fill="#555555">VARCHAR(150)</text>
<text text-anchor="start" x="875.5" y="-9.2" font-family="Consolas" font-size="11.00">so_dien_thoai</text>
<text text-anchor="start" x="1008.5" y="-8.3" font-family="Times,serif" font-size="14.00" fill="#555555">VARCHAR(20)</text>
<polygon fill="none" stroke="black" points="870,0 870,-183 1155,-183 1155,0 870,0"/>
</g>
<!-- cau_hinh_phan_quyen&#45;&gt;co_quan_giam_sat -->
<g id="edge6" class="edge">
<title>cau_hinh_phan_quyen&#45;&gt;co_quan_giam_sat</title>
<path fill="none" stroke="#5578a8" d="M757.61,-163.75C794.61,-163.75 833.63,-163.75 869.71,-163.75"/>
</g>
<!-- don_vi&#45;&gt;don_vi -->
<g id="edge1" class="edge">
<title>don_vi&#45;&gt;don_vi</title>
<path fill="none" stroke="#5578a8" stroke-dasharray="5,2" d="M1260.94,-472.75C1238.21,-472.75 1222,-472.75 1222,-472.75 1222,-472.75 1222,-574.5 1222,-574.5 1222,-574.5 1564,-574.5 1564,-574.5 1564,-574.5 1564,-415.5 1564,-415.5 1564,-415.5 1557.12,-415.5 1546.21,-415.5"/>
</g>
<!-- lich_su_xuat_bao_cao -->
<g id="node7" class="node">
<title>lich_su_xuat_bao_cao</title>
<polygon fill="#c6e0e0" stroke="transparent" points="11,-1000.5 11,-1020.5 335,-1020.5 335,-1000.5 11,-1000.5"/>
<text text-anchor="start" x="105" y="-1008.7" font-family="Consolas" font-weight="bold" font-size="11.00">lich_su_xuat_bao_cao</text>
<text text-anchor="start" x="15" y="-987.2" font-family="Consolas" font-weight="bold" font-size="11.00">id</text>
<text text-anchor="start" x="152" y="-985.3" font-family="Times,serif" font-size="14.00" fill="#b8860b">PK</text>
<text text-anchor="start" x="189" y="-985.3" font-family="Times,serif" font-size="14.00" fill="#555555">BIGINT UNSIGNED</text>
<text text-anchor="start" x="15" y="-964.2" font-family="Consolas" font-weight="bold" font-size="11.00">bao_cao_thong_ke_id</text>
<text text-anchor="start" x="152" y="-962.3" font-family="Times,serif" font-size="14.00" fill="#1f6fb2">FK</text>
<text text-anchor="start" x="189" y="-962.3" font-family="Times,serif" font-size="14.00" fill="#555555">BIGINT UNSIGNED</text>
<text text-anchor="start" x="15" y="-941.2" font-family="Consolas" font-weight="bold" font-size="11.00">nguoi_xuat_id</text>
<text text-anchor="start" x="152" y="-939.3" font-family="Times,serif" font-size="14.00" fill="#1f6fb2">FK</text>
<text text-anchor="start" x="189" y="-939.3" font-family="Times,serif" font-size="14.00" fill="#555555">BIGINT UNSIGNED</text>
<text text-anchor="start" x="15" y="-917.2" font-family="Consolas" font-size="11.00">ngay_xuat</text>
<text text-anchor="start" x="189" y="-916.3" font-family="Times,serif" font-size="14.00" fill="#555555">DATETIME</text>
<polygon fill="none" stroke="black" points="10,-907.5 10,-1021.5 336,-1021.5 336,-907.5 10,-907.5"/>
</g>
<!-- lich_su_xuat_bao_cao&#45;&gt;bao_cao_thong_ke -->
<g id="edge16" class="edge">
<title>lich_su_xuat_bao_cao&#45;&gt;bao_cao_thong_ke</title>
<path fill="none" stroke="#5578a8" d="M336.26,-983.5C373.19,-983.5 412.18,-983.5 448.35,-983.5"/>
</g>
<!-- lich_su_xuat_bao_cao&#45;&gt;can_bo -->
<g id="edge15" class="edge">
<title>lich_su_xuat_bao_cao&#45;&gt;can_bo</title>
<path fill="none" stroke="#5578a8" d="M336.06,-945.5C364.94,-945.5 386,-945.5 386,-945.5 386,-945.5 386,-785.3 386,-785.3 386,-785.3 671.7,-785.3 857.23,-785.3"/>
</g>
<!-- nhat_ky_giam_sat -->
<g id="node8" class="node">
<title>nhat_ky_giam_sat</title>
<polygon fill="#c6e0e0" stroke="transparent" points="1,-329.5 1,-349.5 345,-349.5 345,-329.5 1,-329.5"/>
<text text-anchor="start" x="118.5" y="-337.7" font-family="Consolas" font-weight="bold" font-size="11.00">nhat_ky_giam_sat</text>
<text text-anchor="start" x="5" y="-316.2" font-family="Consolas" font-weight="bold" font-size="11.00">id</text>
<text text-anchor="start" x="162" y="-314.3" font-family="Times,serif" font-size="14.00" fill="#b8860b">PK</text>
<text text-anchor="start" x="199" y="-314.3" font-family="Times,serif" font-size="14.00" fill="#555555">BIGINT UNSIGNED</text>
<text text-anchor="start" x="5" y="-293.2" font-family="Consolas" font-weight="bold" font-size="11.00">cau_hinh_phan_quyen_id</text>
<text text-anchor="start" x="162" y="-291.3" font-family="Times,serif" font-size="14.00" fill="#1f6fb2">FK</text>
<text text-anchor="start" x="199" y="-291.3" font-family="Times,serif" font-size="14.00" fill="#555555">BIGINT UNSIGNED</text>
<text text-anchor="start" x="5" y="-269.2" font-family="Consolas" font-size="11.00">nguoi_truy_cap</text>
<text text-anchor="start" x="199" y="-268.3" font-family="Times,serif" font-size="14.00" fill="#555555">VARCHAR(150)</text>
<text text-anchor="start" x="5" y="-246.2" font-family="Consolas" font-size="11.00">thoi_gian_truy_cap</text>
<text text-anchor="start" x="199" y="-245.3" font-family="Times,serif" font-size="14.00" fill="#555555">DATETIME</text>
<text text-anchor="start" x="5" y="-223.2" font-family="Consolas" font-size="11.00">thao_tac</text>
<text text-anchor="start" x="199" y="-222.3" font-family="Times,serif" font-size="14.00" fill="#555555">VARCHAR(255)</text>
<text text-anchor="start" x="5" y="-200.2" font-family="Consolas" font-size="11.00">du_lieu_truy_cap</text>
<text text-anchor="start" x="199" y="-199.3" font-family="Times,serif" font-size="14.00" fill="#555555">TEXT</text>
<polygon fill="none" stroke="black" points="0,-190.5 0,-350.5 346,-350.5 346,-190.5 0,-190.5"/>
</g>
<!-- nhat_ky_giam_sat&#45;&gt;cau_hinh_phan_quyen -->
<g id="edge7" class="edge">
<title>nhat_ky_giam_sat&#45;&gt;cau_hinh_phan_quyen</title>
<path fill="none" stroke="#5578a8" d="M346.26,-270.5C374.42,-270.5 403.5,-270.5 431.4,-270.5"/>
</g>
<!-- phieu_giao_viec&#45;&gt;can_bo -->
<g id="edge8" class="edge">
<title>phieu_giao_viec&#45;&gt;can_bo</title>
<path fill="none" stroke="#5578a8" d="M764.22,-676.5C794.97,-676.5 826.91,-676.5 857.23,-676.5"/>
</g>
<!-- phieu_giao_viec&#45;&gt;can_bo -->
<g id="edge9" class="edge">
<title>phieu_giao_viec&#45;&gt;can_bo</title>
<path fill="none" stroke="#5578a8" d="M764.22,-683.5C794.97,-683.5 826.91,-683.5 857.23,-683.5"/>
</g>
<!-- yeu_cau_giai_trinh -->
<g id="node11" class="node">
<title>yeu_cau_giai_trinh</title>
<polygon fill="#fbe5d6" stroke="transparent" points="844.5,-597.5 844.5,-617.5 1181.5,-617.5 1181.5,-597.5 844.5,-597.5"/>
<text text-anchor="start" x="952" y="-605.7" font-family="Consolas" font-weight="bold" font-size="11.00">yeu_cau_giai_trinh</text>
<text text-anchor="start" x="848.5" y="-584.2" font-family="Consolas" font-weight="bold" font-size="11.00">id</text>
<text text-anchor="start" x="998.5" y="-582.3" font-family="Times,serif" font-size="14.00" fill="#b8860b">PK</text>
<text text-anchor="start" x="1035.5" y="-582.3" font-family="Times,serif" font-size="14.00" fill="#555555">BIGINT UNSIGNED</text>
<text text-anchor="start" x="848.5" y="-560.2" font-family="Consolas" font-size="11.00">ma_yeu_cau</text>
<text text-anchor="start" x="1035.5" y="-559.3" font-family="Times,serif" font-size="14.00" fill="#555555">VARCHAR(30)</text>
<text text-anchor="start" x="848.5" y="-538.2" font-family="Consolas" font-weight="bold" font-size="11.00">nguoi_yeu_cau_id</text>
<text text-anchor="start" x="998.5" y="-536.3" font-family="Times,serif" font-size="14.00" fill="#1f6fb2">FK</text>
<text text-anchor="start" x="1035.5" y="-536.3" font-family="Times,serif" font-size="14.00" fill="#555555">BIGINT UNSIGNED</text>
<text text-anchor="start" x="848.5" y="-514.2" font-family="Consolas" font-size="11.00">hinh_thuc_gui</text>
<text text-anchor="start" x="1035.5" y="-513.3" font-family="Times,serif" font-size="14.00" fill="#555555">ENUM</text>
<text text-anchor="start" x="848.5" y="-491.2" font-family="Consolas" font-size="11.00">nguon_goc</text>
<text text-anchor="start" x="1035.5" y="-490.3" font-family="Times,serif" font-size="14.00" fill="#555555">ENUM</text>
<text text-anchor="start" x="848.5" y="-468.2" font-family="Consolas" font-size="11.00">noi_dung_yeu_cau</text>
<text text-anchor="start" x="1035.5" y="-467.3" font-family="Times,serif" font-size="14.00" fill="#555555">TEXT</text>
<text text-anchor="start" x="848.5" y="-445.2" font-family="Consolas" font-size="11.00">ngay_gui</text>
<text text-anchor="start" x="1035.5" y="-444.3" font-family="Times,serif" font-size="14.00" fill="#555555">DATETIME</text>
<text text-anchor="start" x="848.5" y="-423.2" font-family="Consolas" font-weight="bold" font-size="11.00">don_vi_tiep_nhan_id</text>
<text text-anchor="start" x="998.5" y="-421.3" font-family="Times,serif" font-size="14.00" fill="#1f6fb2">FK</text>
<text text-anchor="start" x="1035.5" y="-421.3" font-family="Times,serif" font-size="14.00" fill="#555555">BIGINT UNSIGNED</text>
<text text-anchor="start" x="848.5" y="-400.2" font-family="Consolas" font-weight="bold" font-size="11.00">don_vi_chuyen_mon_id</text>
<text text-anchor="start" x="998.5" y="-398.3" font-family="Times,serif" font-size="14.00" fill="#1f6fb2">FK</text>
<text text-anchor="start" x="1035.5" y="-398.3" font-family="Times,serif" font-size="14.00" fill="#555555">BIGINT UNSIGNED</text>
<text text-anchor="start" x="848.5" y="-376.2" font-family="Consolas" font-size="11.00">han_xu_ly</text>
<text text-anchor="start" x="1035.5" y="-375.3" font-family="Times,serif" font-size="14.00" fill="#555555">DATE</text>
<text text-anchor="start" x="848.5" y="-353.2" font-family="Consolas" font-size="11.00" fill="#c00000">han_xu_ly_cu</text>
<text text-anchor="start" x="1035.5" y="-352.3" font-family="Times,serif" font-size="14.00" fill="#555555">DATE</text>
<text text-anchor="start" x="848.5" y="-330.2" font-family="Consolas" font-size="11.00" fill="#c00000">so_lan_gia_han</text>
<text text-anchor="start" x="1035.5" y="-329.3" font-family="Times,serif" font-size="14.00" fill="#555555">TINYINT</text>
<text text-anchor="start" x="848.5" y="-308.2" font-family="Consolas" font-weight="bold" font-size="11.00" fill="#c00000">ly_do_gia_han_id</text>
<text text-anchor="start" x="998.5" y="-306.3" font-family="Times,serif" font-size="14.00" fill="#1f6fb2">FK</text>
<text text-anchor="start" x="1035.5" y="-306.3" font-family="Times,serif" font-size="14.00" fill="#555555">BIGINT UNSIGNED</text>
<text text-anchor="start" x="848.5" y="-284.2" font-family="Consolas" font-size="11.00" fill="#c00000">ngay_gia_han_gan_nhat</text>
<text text-anchor="start" x="1035.5" y="-283.3" font-family="Times,serif" font-size="14.00" fill="#555555">DATETIME</text>
<text text-anchor="start" x="848.5" y="-261.2" font-family="Consolas" font-size="11.00">trang_thai</text>
<text text-anchor="start" x="1035.5" y="-260.3" font-family="Times,serif" font-size="14.00" fill="#555555">ENUM</text>
<text text-anchor="start" x="848.5" y="-242.1" font-family="Consolas" font-size="8.00" fill="#999999">= ...,Đã rút (bổ sung)</text>
<text text-anchor="start" x="848.5" y="-221.2" font-family="Consolas" font-size="11.00">ngay_dong</text>
<text text-anchor="start" x="1035.5" y="-220.3" font-family="Times,serif" font-size="14.00" fill="#555555">DATETIME</text>
<polygon fill="none" stroke="black" points="843,-212 843,-619 1182,-619 1182,-212 843,-212"/>
</g>
<!-- phieu_giao_viec&#45;&gt;yeu_cau_giai_trinh -->
<g id="edge10" class="edge">
<title>phieu_giao_viec&#45;&gt;yeu_cau_giai_trinh</title>
<path fill="none" stroke="#5578a8" d="M764.22,-551.75C790.11,-551.75 816.84,-551.75 842.74,-551.75"/>
</g>
<!-- van_ban_don_doc -->
<g id="node10" class="node">
<title>van_ban_don_doc</title>
<polygon fill="#c6e0e0" stroke="transparent" points="15,-853.5 15,-873.5 332,-873.5 332,-853.5 15,-853.5"/>
<text text-anchor="start" x="122.5" y="-861.7" font-family="Consolas" font-weight="bold" font-size="11.00">van_ban_don_doc</text>
<text text-anchor="start" x="19" y="-840.2" font-family="Consolas" font-weight="bold" font-size="11.00" fill="#c00000">id</text>
<text text-anchor="start" x="149" y="-838.3" font-family="Times,serif" font-size="14.00" fill="#b8860b">PK</text>
<text text-anchor="start" x="186" y="-838.3" font-family="Times,serif" font-size="14.00" fill="#555555">BIGINT UNSIGNED</text>
<text text-anchor="start" x="19" y="-817.2" font-family="Consolas" font-weight="bold" font-size="11.00" fill="#c00000">phieu_giao_viec_id</text>
<text text-anchor="start" x="149" y="-815.3" font-family="Times,serif" font-size="14.00" fill="#1f6fb2">FK</text>
<text text-anchor="start" x="186" y="-815.3" font-family="Times,serif" font-size="14.00" fill="#555555">BIGINT UNSIGNED</text>
<text text-anchor="start" x="19" y="-793.2" font-family="Consolas" font-size="11.00" fill="#c00000">so_van_ban</text>
<text text-anchor="start" x="186" y="-792.3" font-family="Times,serif" font-size="14.00" fill="#555555">VARCHAR(50)</text>
<text text-anchor="start" x="19" y="-770.2" font-family="Consolas" font-size="11.00" fill="#c00000">trich_yeu</text>
<text text-anchor="start" x="186" y="-769.3" font-family="Times,serif" font-size="14.00" fill="#555555">VARCHAR(500)</text>
<text text-anchor="start" x="19" y="-747.2" font-family="Consolas" font-size="11.00" fill="#c00000">noi_dung</text>
<text text-anchor="start" x="186" y="-746.3" font-family="Times,serif" font-size="14.00" fill="#555555">LONGTEXT</text>
<text text-anchor="start" x="19" y="-725.2" font-family="Consolas" font-weight="bold" font-size="11.00" fill="#c00000">nguoi_soan_id</text>
<text text-anchor="start" x="149" y="-723.3" font-family="Times,serif" font-size="14.00" fill="#1f6fb2">FK</text>
<text text-anchor="start" x="186" y="-723.3" font-family="Times,serif" font-size="14.00" fill="#555555">BIGINT UNSIGNED</text>
<text text-anchor="start" x="19" y="-701.2" font-family="Consolas" font-size="11.00" fill="#c00000">ngay_soan</text>
<text text-anchor="start" x="186" y="-700.3" font-family="Times,serif" font-size="14.00" fill="#555555">DATETIME</text>
<text text-anchor="start" x="19" y="-679.2" font-family="Consolas" font-weight="bold" font-size="11.00" fill="#c00000">nguoi_ky_id</text>
<text text-anchor="start" x="149" y="-677.3" font-family="Times,serif" font-size="14.00" fill="#1f6fb2">FK</text>
<text text-anchor="start" x="186" y="-677.3" font-family="Times,serif" font-size="14.00" fill="#555555">BIGINT UNSIGNED</text>
<text text-anchor="start" x="19" y="-655.2" font-family="Consolas" font-size="11.00" fill="#c00000">ngay_ban_hanh</text>
<text text-anchor="start" x="186" y="-654.3" font-family="Times,serif" font-size="14.00" fill="#555555">DATETIME</text>
<text text-anchor="start" x="19" y="-632.2" font-family="Consolas" font-size="11.00" fill="#c00000">trang_thai</text>
<text text-anchor="start" x="186" y="-631.3" font-family="Times,serif" font-size="14.00" fill="#555555">ENUM</text>
<polygon fill="none" stroke="black" points="13.5,-622.5 13.5,-874.5 332.5,-874.5 332.5,-622.5 13.5,-622.5"/>
</g>
<!-- van_ban_don_doc&#45;&gt;can_bo -->
<g id="edge18" class="edge">
<title>van_ban_don_doc&#45;&gt;can_bo</title>
<path fill="none" stroke="#5578a8" d="M332.88,-722.1C483.69,-722.1 708.27,-722.1 857.47,-722.1"/>
</g>
<!-- van_ban_don_doc&#45;&gt;can_bo -->
<g id="edge19" class="edge">
<title>van_ban_don_doc&#45;&gt;can_bo</title>
<path fill="none" stroke="#5578a8" d="M332.88,-753.7C483.69,-753.7 708.27,-753.7 857.47,-753.7"/>
</g>
<!-- van_ban_don_doc&#45;&gt;phieu_giao_viec -->
<g id="edge17" class="edge">
<title>van_ban_don_doc&#45;&gt;phieu_giao_viec</title>
<path fill="none" stroke="#5578a8" d="M332.65,-656.5C362.83,-656.5 394.49,-656.5 424.95,-656.5"/>
</g>
<!-- yeu_cau_giai_trinh&#45;&gt;don_vi -->
<g id="edge2" class="edge">
<title>yeu_cau_giai_trinh&#45;&gt;don_vi</title>
<path fill="none" stroke="#5578a8" d="M1182.01,-358.25C1208.3,-358.25 1235.24,-358.25 1260.86,-358.25"/>
</g>
<!-- yeu_cau_giai_trinh&#45;&gt;don_vi -->
<g id="edge3" class="edge">
<title>yeu_cau_giai_trinh&#45;&gt;don_vi</title>
<path fill="none" stroke="#5578a8" d="M1182.01,-415.5C1208.3,-415.5 1235.24,-415.5 1260.86,-415.5"/>
</g>
</g>
</svg>
