<?xml version="1.0" encoding="UTF-8" standalone="no"?>
<!DOCTYPE svg PUBLIC "-//W3C//DTD SVG 1.1//EN"
 "http://www.w3.org/Graphics/SVG/1.1/DTD/svg11.dtd">
<!-- Generated by graphviz version 2.43.0 (0)
 -->
<!-- Title: DANH MỤC DÙNG CHUNG (đã bổ sung lý do, danh mục, phiên đăng nhập) Pages: 1 -->
<svg width="1132pt" height="1628pt"
 viewBox="0.00 0.00 1132.00 1628.00" xmlns="http://www.w3.org/2000/svg" xmlns:xlink="http://www.w3.org/1999/xlink">
<g id="graph0" class="graph" transform="scale(1 1) rotate(0) translate(4 1624)">
<title>DANH MỤC DÙNG CHUNG (đã bổ sung lý do, danh mục, phiên đăng nhập)</title>
<polygon fill="white" stroke="transparent" points="-4,4 -4,-1624 1128,-1624 1128,4 -4,4"/>
<text text-anchor="middle" x="562" y="-1598.4" font-family="Helvetica,sans-Serif" font-size="22.00">DANH MỤC DÙNG CHUNG (đã bổ sung lý do, danh mục, phiên đăng nhập)</text>
<!-- bo_phan_tiep_nhan -->
<g id="node1" class="node">
<title>bo_phan_tiep_nhan</title>
<polygon fill="#dce6f1" stroke="transparent" points="447.5,-270 447.5,-290 717.5,-290 717.5,-270 447.5,-270"/>
<text text-anchor="start" x="525" y="-278.2" font-family="Consolas" font-weight="bold" font-size="11.00">bo_phan_tiep_nhan</text>
<text text-anchor="start" x="451.5" y="-256.7" font-family="Consolas" font-weight="bold" font-size="11.00">id</text>
<text text-anchor="start" x="534.5" y="-254.8" font-family="Times,serif" font-size="14.00" fill="#b8860b">PK</text>
<text text-anchor="start" x="571.5" y="-254.8" font-family="Times,serif" font-size="14.00" fill="#555555">BIGINT UNSIGNED</text>
<text text-anchor="start" x="451.5" y="-233.7" font-family="Consolas" font-weight="bold" font-size="11.00">don_vi_id</text>
<text text-anchor="start" x="534.5" y="-231.8" font-family="Times,serif" font-size="14.00" fill="#1f6fb2">FK</text>
<text text-anchor="start" x="571.5" y="-231.8" font-family="Times,serif" font-size="14.00" fill="#555555">BIGINT UNSIGNED</text>
<text text-anchor="start" x="451.5" y="-209.7" font-family="Consolas" font-size="11.00">ten_bo_phan</text>
<text text-anchor="start" x="571.5" y="-208.8" font-family="Times,serif" font-size="14.00" fill="#555555">VARCHAR(150)</text>
<polygon fill="none" stroke="black" points="446.5,-200.5 446.5,-291.5 718.5,-291.5 718.5,-200.5 446.5,-200.5"/>
</g>
<!-- don_vi -->
<g id="node5" class="node">
<title>don_vi</title>
<polygon fill="#dce6f1" stroke="transparent" points="822.5,-351 822.5,-371 1105.5,-371 1105.5,-351 822.5,-351"/>
<text text-anchor="start" x="943.5" y="-359.2" font-family="Consolas" font-weight="bold" font-size="11.00">don_vi</text>
<text text-anchor="start" x="826.5" y="-337.7" font-family="Consolas" font-weight="bold" font-size="11.00">id</text>
<text text-anchor="start" x="922.5" y="-335.8" font-family="Times,serif" font-size="14.00" fill="#b8860b">PK</text>
<text text-anchor="start" x="959.5" y="-335.8" font-family="Times,serif" font-size="14.00" fill="#555555">BIGINT UNSIGNED</text>
<text text-anchor="start" x="826.5" y="-313.7" font-family="Consolas" font-size="11.00">ma_don_vi</text>
<text text-anchor="start" x="959.5" y="-312.8" font-family="Times,serif" font-size="14.00" fill="#555555">VARCHAR(30)</text>
<text text-anchor="start" x="826.5" y="-290.7" font-family="Consolas" font-size="11.00">ten_don_vi</text>
<text text-anchor="start" x="959.5" y="-289.8" font-family="Times,serif" font-size="14.00" fill="#555555">VARCHAR(255)</text>
<text text-anchor="start" x="826.5" y="-268.7" font-family="Consolas" font-weight="bold" font-size="11.00">don_vi_cha_id</text>
<text text-anchor="start" x="922.5" y="-266.8" font-family="Times,serif" font-size="14.00" fill="#1f6fb2">FK</text>
<text text-anchor="start" x="959.5" y="-266.8" font-family="Times,serif" font-size="14.00" fill="#555555">BIGINT UNSIGNED</text>
<text text-anchor="start" x="826.5" y="-244.7" font-family="Consolas" font-size="11.00">cap_don_vi</text>
<text text-anchor="start" x="959.5" y="-243.8" font-family="Times,serif" font-size="14.00" fill="#555555">TINYINT</text>
<text text-anchor="start" x="826.5" y="-221.7" font-family="Consolas" font-size="11.00">loai_don_vi</text>
<text text-anchor="start" x="959.5" y="-220.8" font-family="Times,serif" font-size="14.00" fill="#555555">VARCHAR(50)</text>
<text text-anchor="start" x="826.5" y="-198.7" font-family="Consolas" font-size="11.00">dia_chi</text>
<text text-anchor="start" x="959.5" y="-197.8" font-family="Times,serif" font-size="14.00" fill="#555555">VARCHAR(255)</text>
<text text-anchor="start" x="826.5" y="-175.7" font-family="Consolas" font-size="11.00">trang_thai</text>
<text text-anchor="start" x="959.5" y="-174.8" font-family="Times,serif" font-size="14.00" fill="#555555">TINYINT</text>
<text text-anchor="start" x="826.5" y="-152.7" font-family="Consolas" font-size="11.00">ngay_tao</text>
<text text-anchor="start" x="959.5" y="-151.8" font-family="Times,serif" font-size="14.00" fill="#555555">DATETIME</text>
<polygon fill="none" stroke="black" points="821,-143.5 821,-372.5 1106,-372.5 1106,-143.5 821,-143.5"/>
</g>
<!-- bo_phan_tiep_nhan&#45;&gt;don_vi -->
<g id="edge4" class="edge">
<title>bo_phan_tiep_nhan&#45;&gt;don_vi</title>
<path fill="none" stroke="#5578a8" d="M718.7,-246C751.82,-246 787.31,-246 820.72,-246"/>
</g>
<!-- can_bo -->
<g id="node2" class="node">
<title>can_bo</title>
<polygon fill="#dce6f1" stroke="transparent" points="18,-523 18,-543 326,-543 326,-523 18,-523"/>
<text text-anchor="start" x="151.5" y="-531.2" font-family="Consolas" font-weight="bold" font-size="11.00">can_bo</text>
<text text-anchor="start" x="22" y="-509.7" font-family="Consolas" font-weight="bold" font-size="11.00">id</text>
<text text-anchor="start" x="118" y="-508.8" font-family="Times,serif" font-size="14.00" fill="#b8860b">PK</text>
<text text-anchor="start" x="139" y="-508.8" font-family="Times,serif" font-size="14.00" fill="#1f6fb2">/FK</text>
<text text-anchor="start" x="180" y="-507.8" font-family="Times,serif" font-size="14.00" fill="#555555">BIGINT UNSIGNED</text>
<text text-anchor="start" x="22" y="-489.6" font-family="Consolas" font-size="8.00" fill="#999999">= = nguoi_dung.id</text>
<text text-anchor="start" x="22" y="-468.7" font-family="Consolas" font-size="11.00">ma_can_bo</text>
<text text-anchor="start" x="180" y="-467.8" font-family="Times,serif" font-size="14.00" fill="#555555">VARCHAR(30)</text>
<text text-anchor="start" x="22" y="-445.7" font-family="Consolas" font-size="11.00">ho_ten</text>
<text text-anchor="start" x="180" y="-444.8" font-family="Times,serif" font-size="14.00" fill="#555555">VARCHAR(150)</text>
<text text-anchor="start" x="22" y="-423.7" font-family="Consolas" font-weight="bold" font-size="11.00">don_vi_id</text>
<text text-anchor="start" x="118" y="-421.8" font-family="Times,serif" font-size="14.00" fill="#1f6fb2">FK</text>
<text text-anchor="start" x="180" y="-421.8" font-family="Times,serif" font-size="14.00" fill="#555555">BIGINT UNSIGNED</text>
<text text-anchor="start" x="22" y="-399.7" font-family="Consolas" font-size="11.00">chuc_vu</text>
<text text-anchor="start" x="180" y="-398.8" font-family="Times,serif" font-size="14.00" fill="#555555">VARCHAR(100)</text>
<text text-anchor="start" x="22" y="-376.7" font-family="Consolas" font-size="11.00">email</text>
<text text-anchor="start" x="180" y="-375.8" font-family="Times,serif" font-size="14.00" fill="#555555">VARCHAR(150)</text>
<text text-anchor="start" x="22" y="-353.7" font-family="Consolas" font-size="11.00">so_dien_thoai</text>
<text text-anchor="start" x="180" y="-352.8" font-family="Times,serif" font-size="14.00" fill="#555555">VARCHAR(20)</text>
<polygon fill="none" stroke="black" points="17,-344 17,-544 327,-544 327,-344 17,-344"/>
</g>
<!-- danh_muc_dung_chung -->
<g id="node3" class="node">
<title>danh_muc_dung_chung</title>
<polygon fill="#dce6f1" stroke="transparent" points="31,-729 31,-749 314,-749 314,-729 31,-729"/>
<text text-anchor="start" x="108" y="-737.2" font-family="Consolas" font-weight="bold" font-size="11.00">danh_muc_dung_chung</text>
<text text-anchor="start" x="35" y="-715.7" font-family="Consolas" font-weight="bold" font-size="11.00" fill="#c00000">id</text>
<text text-anchor="start" x="131" y="-713.8" font-family="Times,serif" font-size="14.00" fill="#b8860b">PK</text>
<text text-anchor="start" x="168" y="-713.8" font-family="Times,serif" font-size="14.00" fill="#555555">BIGINT UNSIGNED</text>
<text text-anchor="start" x="35" y="-691.7" font-family="Consolas" font-size="11.00" fill="#c00000">loai_danh_muc</text>
<text text-anchor="start" x="168" y="-690.8" font-family="Times,serif" font-size="14.00" fill="#555555">VARCHAR(100)</text>
<text text-anchor="start" x="35" y="-672.6" font-family="Consolas" font-size="8.00" fill="#999999">= vd: linh_vuc_giai_trinh, loai_van_ban_lien_thong,...</text>
<text text-anchor="start" x="35" y="-651.7" font-family="Consolas" font-size="11.00" fill="#c00000">ma</text>
<text text-anchor="start" x="168" y="-650.8" font-family="Times,serif" font-size="14.00" fill="#555555">VARCHAR(50)</text>
<text text-anchor="start" x="35" y="-628.7" font-family="Consolas" font-size="11.00" fill="#c00000">ten</text>
<text text-anchor="start" x="168" y="-627.8" font-family="Times,serif" font-size="14.00" fill="#555555">VARCHAR(255)</text>
<text text-anchor="start" x="35" y="-605.7" font-family="Consolas" font-size="11.00" fill="#c00000">thu_tu</text>
<text text-anchor="start" x="168" y="-604.8" font-family="Times,serif" font-size="14.00" fill="#555555">TINYINT</text>
<text text-anchor="start" x="35" y="-582.7" font-family="Consolas" font-size="11.00" fill="#c00000">trang_thai</text>
<text text-anchor="start" x="168" y="-581.8" font-family="Times,serif" font-size="14.00" fill="#555555">TINYINT</text>
<polygon fill="none" stroke="black" points="29.5,-573.5 29.5,-750.5 314.5,-750.5 314.5,-573.5 29.5,-573.5"/>
</g>
<!-- danh_muc_ly_do_giai_trinh -->
<g id="node4" class="node">
<title>danh_muc_ly_do_giai_trinh</title>
<polygon fill="#dce6f1" stroke="transparent" points="41,-895 41,-915 304,-915 304,-895 41,-895"/>
<text text-anchor="start" x="88" y="-903.2" font-family="Consolas" font-weight="bold" font-size="11.00">danh_muc_ly_do_giai_trinh</text>
<text text-anchor="start" x="45" y="-881.7" font-family="Consolas" font-weight="bold" font-size="11.00" fill="#c00000">id</text>
<text text-anchor="start" x="121" y="-879.8" font-family="Times,serif" font-size="14.00" fill="#b8860b">PK</text>
<text text-anchor="start" x="158" y="-879.8" font-family="Times,serif" font-size="14.00" fill="#555555">BIGINT UNSIGNED</text>
<text text-anchor="start" x="45" y="-857.7" font-family="Consolas" font-size="11.00" fill="#c00000">nhom_ly_do</text>
<text text-anchor="start" x="158" y="-856.8" font-family="Times,serif" font-size="14.00" fill="#555555">ENUM</text>
<text text-anchor="start" x="45" y="-834.7" font-family="Consolas" font-size="11.00" fill="#c00000">noi_dung</text>
<text text-anchor="start" x="158" y="-833.8" font-family="Times,serif" font-size="14.00" fill="#555555">VARCHAR(255)</text>
<text text-anchor="start" x="45" y="-811.7" font-family="Consolas" font-size="11.00" fill="#c00000">thu_tu</text>
<text text-anchor="start" x="158" y="-810.8" font-family="Times,serif" font-size="14.00" fill="#555555">TINYINT</text>
<text text-anchor="start" x="45" y="-788.7" font-family="Consolas" font-size="11.00" fill="#c00000">trang_thai</text>
<text text-anchor="start" x="158" y="-787.8" font-family="Times,serif" font-size="14.00" fill="#555555">TINYINT</text>
<polygon fill="none" stroke="black" points="39.5,-779.5 39.5,-916.5 304.5,-916.5 304.5,-779.5 39.5,-779.5"/>
</g>
<!-- don_vi&#45;&gt;don_vi -->
<g id="edge1" class="edge">
<title>don_vi&#45;&gt;don_vi</title>
<path fill="none" stroke="#5578a8" stroke-dasharray="5,2" d="M820.94,-149C798.21,-149 782,-149 782,-149 782,-149 782,-128.75 782,-128.75 782,-128.75 1124,-128.75 1124,-128.75 1124,-128.75 1124,-258 1124,-258 1124,-258 1117.12,-258 1106.21,-258"/>
</g>
<!-- lich_truc -->
<g id="node6" class="node">
<title>lich_truc</title>
<polygon fill="#dce6f1" stroke="transparent" points="7,-293 7,-313 338,-313 338,-293 7,-293"/>
<text text-anchor="start" x="142" y="-301.2" font-family="Consolas" font-weight="bold" font-size="11.00">lich_truc</text>
<text text-anchor="start" x="11" y="-279.7" font-family="Consolas" font-weight="bold" font-size="11.00">id</text>
<text text-anchor="start" x="155" y="-277.8" font-family="Times,serif" font-size="14.00" fill="#b8860b">PK</text>
<text text-anchor="start" x="192" y="-277.8" font-family="Times,serif" font-size="14.00" fill="#555555">BIGINT UNSIGNED</text>
<text text-anchor="start" x="11" y="-256.7" font-family="Consolas" font-weight="bold" font-size="11.00">bo_phan_tiep_nhan_id</text>
<text text-anchor="start" x="155" y="-254.8" font-family="Times,serif" font-size="14.00" fill="#1f6fb2">FK</text>
<text text-anchor="start" x="192" y="-254.8" font-family="Times,serif" font-size="14.00" fill="#555555">BIGINT UNSIGNED</text>
<text text-anchor="start" x="11" y="-233.7" font-family="Consolas" font-weight="bold" font-size="11.00">nguoi_dung_id</text>
<text text-anchor="start" x="155" y="-231.8" font-family="Times,serif" font-size="14.00" fill="#1f6fb2">FK</text>
<text text-anchor="start" x="192" y="-231.8" font-family="Times,serif" font-size="14.00" fill="#555555">BIGINT UNSIGNED</text>
<text text-anchor="start" x="11" y="-209.7" font-family="Consolas" font-size="11.00">ngay_truc</text>
<text text-anchor="start" x="192" y="-208.8" font-family="Times,serif" font-size="14.00" fill="#555555">DATE</text>
<text text-anchor="start" x="11" y="-186.7" font-family="Consolas" font-size="11.00">ca_truc</text>
<text text-anchor="start" x="192" y="-185.8" font-family="Times,serif" font-size="14.00" fill="#555555">VARCHAR(20)</text>
<polygon fill="none" stroke="black" points="5.5,-177.5 5.5,-314.5 338.5,-314.5 338.5,-177.5 5.5,-177.5"/>
</g>
<!-- lich_truc&#45;&gt;bo_phan_tiep_nhan -->
<g id="edge5" class="edge">
<title>lich_truc&#45;&gt;bo_phan_tiep_nhan</title>
<path fill="none" stroke="#5578a8" d="M338.67,-246C374.43,-246 411.81,-246 446.26,-246"/>
</g>
<!-- nguoi_dan -->
<g id="node7" class="node">
<title>nguoi_dan</title>
<polygon fill="#dce6f1" stroke="transparent" points="1,-1125 1,-1145 343,-1145 343,-1125 1,-1125"/>
<text text-anchor="start" x="141.5" y="-1133.2" font-family="Consolas" font-weight="bold" font-size="11.00">nguoi_dan</text>
<text text-anchor="start" x="5" y="-1111.7" font-family="Consolas" font-weight="bold" font-size="11.00">id</text>
<text text-anchor="start" x="135" y="-1110.8" font-family="Times,serif" font-size="14.00" fill="#b8860b">PK</text>
<text text-anchor="start" x="156" y="-1110.8" font-family="Times,serif" font-size="14.00" fill="#1f6fb2">/FK</text>
<text text-anchor="start" x="197" y="-1109.8" font-family="Times,serif" font-size="14.00" fill="#555555">BIGINT UNSIGNED</text>
<text text-anchor="start" x="5" y="-1091.6" font-family="Consolas" font-size="8.00" fill="#999999">= = nguoi_dung.id</text>
<text text-anchor="start" x="5" y="-1070.7" font-family="Consolas" font-size="11.00">ho_ten</text>
<text text-anchor="start" x="197" y="-1069.8" font-family="Times,serif" font-size="14.00" fill="#555555">VARCHAR(150)</text>
<text text-anchor="start" x="5" y="-1047.7" font-family="Consolas" font-size="11.00">ngay_sinh</text>
<text text-anchor="start" x="197" y="-1046.8" font-family="Times,serif" font-size="14.00" fill="#555555">DATE</text>
<text text-anchor="start" x="5" y="-1024.7" font-family="Consolas" font-size="11.00">gioi_tinh</text>
<text text-anchor="start" x="197" y="-1023.8" font-family="Times,serif" font-size="14.00" fill="#555555">TINYINT</text>
<text text-anchor="start" x="5" y="-1001.7" font-family="Consolas" font-size="11.00">dia_chi_thuong_tru</text>
<text text-anchor="start" x="197" y="-1000.8" font-family="Times,serif" font-size="14.00" fill="#555555">VARCHAR(255)</text>
<text text-anchor="start" x="5" y="-978.7" font-family="Consolas" font-size="11.00">email</text>
<text text-anchor="start" x="197" y="-977.8" font-family="Times,serif" font-size="14.00" fill="#555555">VARCHAR(150)</text>
<text text-anchor="start" x="5" y="-955.7" font-family="Consolas" font-size="11.00">so_dien_thoai</text>
<text text-anchor="start" x="197" y="-954.8" font-family="Times,serif" font-size="14.00" fill="#555555">VARCHAR(20)</text>
<polygon fill="none" stroke="black" points="0,-946 0,-1146 344,-1146 344,-946 0,-946"/>
</g>
<!-- nguoi_dung -->
<g id="node8" class="node">
<title>nguoi_dung</title>
<polygon fill="#dce6f1" stroke="transparent" points="424.5,-1326 424.5,-1346 741.5,-1346 741.5,-1326 424.5,-1326"/>
<text text-anchor="start" x="549" y="-1334.2" font-family="Consolas" font-weight="bold" font-size="11.00">nguoi_dung</text>
<text text-anchor="start" x="428.5" y="-1312.7" font-family="Consolas" font-weight="bold" font-size="11.00">id</text>
<text text-anchor="start" x="558.5" y="-1310.8" font-family="Times,serif" font-size="14.00" fill="#b8860b">PK</text>
<text text-anchor="start" x="595.5" y="-1310.8" font-family="Times,serif" font-size="14.00" fill="#555555">BIGINT UNSIGNED</text>
<text text-anchor="start" x="428.5" y="-1288.7" font-family="Consolas" font-size="11.00">ma_dinh_danh</text>
<text text-anchor="start" x="595.5" y="-1287.8" font-family="Times,serif" font-size="14.00" fill="#555555">VARCHAR(30)</text>
<text text-anchor="start" x="428.5" y="-1265.7" font-family="Consolas" font-size="11.00">loai_tk</text>
<text text-anchor="start" x="595.5" y="-1264.8" font-family="Times,serif" font-size="14.00" fill="#555555">ENUM</text>
<text text-anchor="start" x="428.5" y="-1242.7" font-family="Consolas" font-size="11.00">trang_thai</text>
<text text-anchor="start" x="595.5" y="-1241.8" font-family="Times,serif" font-size="14.00" fill="#555555">TINYINT</text>
<text text-anchor="start" x="428.5" y="-1219.7" font-family="Consolas" font-size="11.00">lan_dang_nhap_cuoi</text>
<text text-anchor="start" x="595.5" y="-1218.8" font-family="Times,serif" font-size="14.00" fill="#555555">DATETIME</text>
<text text-anchor="start" x="428.5" y="-1196.7" font-family="Consolas" font-size="11.00">ngay_tao</text>
<text text-anchor="start" x="595.5" y="-1195.8" font-family="Times,serif" font-size="14.00" fill="#555555">DATETIME</text>
<polygon fill="none" stroke="black" points="423,-1187 423,-1347 742,-1347 742,-1187 423,-1187"/>
</g>
<!-- nguoi_dung_vai_tro -->
<g id="node9" class="node">
<title>nguoi_dung_vai_tro</title>
<polygon fill="#dce6f1" stroke="transparent" points="441.5,-139 441.5,-159 724.5,-159 724.5,-139 441.5,-139"/>
<text text-anchor="start" x="522" y="-147.2" font-family="Consolas" font-weight="bold" font-size="11.00">nguoi_dung_vai_tro</text>
<text text-anchor="start" x="445.5" y="-125.7" font-family="Consolas" font-weight="bold" font-size="11.00">id</text>
<text text-anchor="start" x="541.5" y="-123.8" font-family="Times,serif" font-size="14.00" fill="#b8860b">PK</text>
<text text-anchor="start" x="578.5" y="-123.8" font-family="Times,serif" font-size="14.00" fill="#555555">BIGINT UNSIGNED</text>
<text text-anchor="start" x="445.5" y="-102.7" font-family="Consolas" font-weight="bold" font-size="11.00">nguoi_dung_id</text>
<text text-anchor="start" x="541.5" y="-100.8" font-family="Times,serif" font-size="14.00" fill="#1f6fb2">FK</text>
<text text-anchor="start" x="578.5" y="-100.8" font-family="Times,serif" font-size="14.00" fill="#555555">BIGINT UNSIGNED</text>
<text text-anchor="start" x="445.5" y="-79.7" font-family="Consolas" font-weight="bold" font-size="11.00">vai_tro_id</text>
<text text-anchor="start" x="541.5" y="-77.8" font-family="Times,serif" font-size="14.00" fill="#1f6fb2">FK</text>
<text text-anchor="start" x="578.5" y="-77.8" font-family="Times,serif" font-size="14.00" fill="#555555">BIGINT UNSIGNED</text>
<text text-anchor="start" x="445.5" y="-56.7" font-family="Consolas" font-weight="bold" font-size="11.00">don_vi_id</text>
<text text-anchor="start" x="541.5" y="-54.8" font-family="Times,serif" font-size="14.00" fill="#1f6fb2">FK</text>
<text text-anchor="start" x="578.5" y="-54.8" font-family="Times,serif" font-size="14.00" fill="#555555">BIGINT UNSIGNED</text>
<text text-anchor="start" x="445.5" y="-32.7" font-family="Consolas" font-size="11.00">ngay_bat_dau</text>
<text text-anchor="start" x="578.5" y="-31.8" font-family="Times,serif" font-size="14.00" fill="#555555">DATE</text>
<text text-anchor="start" x="445.5" y="-9.7" font-family="Consolas" font-size="11.00">ngay_ket_thuc</text>
<text text-anchor="start" x="578.5" y="-8.8" font-family="Times,serif" font-size="14.00" fill="#555555">DATE</text>
<polygon fill="none" stroke="black" points="440,0 440,-160 725,-160 725,0 440,0"/>
</g>
<!-- nguoi_dung_vai_tro&#45;&gt;don_vi -->
<g id="edge2" class="edge">
<title>nguoi_dung_vai_tro&#45;&gt;don_vi</title>
<path fill="none" stroke="#5578a8" d="M725.18,-154.5C756.45,-154.5 789.55,-154.5 820.82,-154.5"/>
</g>
<!-- vai_tro -->
<g id="node13" class="node">
<title>vai_tro</title>
<polygon fill="#dce6f1" stroke="transparent" points="828.5,-93 828.5,-113 1098.5,-113 1098.5,-93 828.5,-93"/>
<text text-anchor="start" x="939.5" y="-101.2" font-family="Consolas" font-weight="bold" font-size="11.00">vai_tro</text>
<text text-anchor="start" x="832.5" y="-79.7" font-family="Consolas" font-weight="bold" font-size="11.00">id</text>
<text text-anchor="start" x="915.5" y="-77.8" font-family="Times,serif" font-size="14.00" fill="#b8860b">PK</text>
<text text-anchor="start" x="952.5" y="-77.8" font-family="Times,serif" font-size="14.00" fill="#555555">BIGINT UNSIGNED</text>
<text text-anchor="start" x="832.5" y="-55.7" font-family="Consolas" font-size="11.00">ma_vai_tro</text>
<text text-anchor="start" x="952.5" y="-54.8" font-family="Times,serif" font-size="14.00" fill="#555555">VARCHAR(30)</text>
<text text-anchor="start" x="832.5" y="-32.7" font-family="Consolas" font-size="11.00">ten_vai_tro</text>
<text text-anchor="start" x="952.5" y="-31.8" font-family="Times,serif" font-size="14.00" fill="#555555">VARCHAR(150)</text>
<text text-anchor="start" x="832.5" y="-9.7" font-family="Consolas" font-size="11.00">mo_ta</text>
<text text-anchor="start" x="952.5" y="-8.8" font-family="Times,serif" font-size="14.00" fill="#555555">VARCHAR(255)</text>
<polygon fill="none" stroke="black" points="827.5,0 827.5,-114 1099.5,-114 1099.5,0 827.5,0"/>
</g>
<!-- nguoi_dung_vai_tro&#45;&gt;vai_tro -->
<g id="edge3" class="edge">
<title>nguoi_dung_vai_tro&#45;&gt;vai_tro</title>
<path fill="none" stroke="#5578a8" d="M725.18,-57C758.67,-57 794.26,-57 827.44,-57"/>
</g>
<!-- noi_quy_quy_che -->
<g id="node10" class="node">
<title>noi_quy_quy_che</title>
<polygon fill="#dce6f1" stroke="transparent" points="441.5,-482 441.5,-502 724.5,-502 724.5,-482 441.5,-482"/>
<text text-anchor="start" x="532" y="-490.2" font-family="Consolas" font-weight="bold" font-size="11.00">noi_quy_quy_che</text>
<text text-anchor="start" x="445.5" y="-468.7" font-family="Consolas" font-weight="bold" font-size="11.00">id</text>
<text text-anchor="start" x="541.5" y="-466.8" font-family="Times,serif" font-size="14.00" fill="#b8860b">PK</text>
<text text-anchor="start" x="578.5" y="-466.8" font-family="Times,serif" font-size="14.00" fill="#555555">BIGINT UNSIGNED</text>
<text text-anchor="start" x="445.5" y="-445.7" font-family="Consolas" font-weight="bold" font-size="11.00">don_vi_id</text>
<text text-anchor="start" x="541.5" y="-443.8" font-family="Times,serif" font-size="14.00" fill="#1f6fb2">FK</text>
<text text-anchor="start" x="578.5" y="-443.8" font-family="Times,serif" font-size="14.00" fill="#555555">BIGINT UNSIGNED</text>
<text text-anchor="start" x="445.5" y="-421.7" font-family="Consolas" font-size="11.00">ten_quy_che</text>
<text text-anchor="start" x="578.5" y="-420.8" font-family="Times,serif" font-size="14.00" fill="#555555">VARCHAR(255)</text>
<text text-anchor="start" x="445.5" y="-398.7" font-family="Consolas" font-size="11.00">noi_dung</text>
<text text-anchor="start" x="578.5" y="-397.8" font-family="Times,serif" font-size="14.00" fill="#555555">TEXT</text>
<text text-anchor="start" x="445.5" y="-375.7" font-family="Consolas" font-size="11.00">file_dinh_kem</text>
<text text-anchor="start" x="578.5" y="-374.8" font-family="Times,serif" font-size="14.00" fill="#555555">VARCHAR(255)</text>
<text text-anchor="start" x="445.5" y="-352.7" font-family="Consolas" font-size="11.00">ngay_ban_hanh</text>
<text text-anchor="start" x="578.5" y="-351.8" font-family="Times,serif" font-size="14.00" fill="#555555">DATE</text>
<text text-anchor="start" x="445.5" y="-329.7" font-family="Consolas" font-size="11.00">trang_thai</text>
<text text-anchor="start" x="578.5" y="-328.8" font-family="Times,serif" font-size="14.00" fill="#555555">TINYINT</text>
<polygon fill="none" stroke="black" points="440,-320.5 440,-503.5 725,-503.5 725,-320.5 440,-320.5"/>
</g>
<!-- noi_quy_quy_che&#45;&gt;don_vi -->
<g id="edge6" class="edge">
<title>noi_quy_quy_che&#45;&gt;don_vi</title>
<path fill="none" stroke="#5578a8" d="M725.18,-346.5C756.45,-346.5 789.55,-346.5 820.82,-346.5"/>
</g>
<!-- phien_dang_nhap -->
<g id="node11" class="node">
<title>phien_dang_nhap</title>
<polygon fill="#dce6f1" stroke="transparent" points="10,-1337 10,-1357 334,-1357 334,-1337 10,-1337"/>
<text text-anchor="start" x="121" y="-1345.2" font-family="Consolas" font-weight="bold" font-size="11.00">phien_dang_nhap</text>
<text text-anchor="start" x="14" y="-1323.7" font-family="Consolas" font-weight="bold" font-size="11.00" fill="#c00000">id</text>
<text text-anchor="start" x="151" y="-1321.8" font-family="Times,serif" font-size="14.00" fill="#b8860b">PK</text>
<text text-anchor="start" x="188" y="-1321.8" font-family="Times,serif" font-size="14.00" fill="#555555">BIGINT UNSIGNED</text>
<text text-anchor="start" x="14" y="-1300.7" font-family="Consolas" font-weight="bold" font-size="11.00" fill="#c00000">nguoi_dung_id</text>
<text text-anchor="start" x="151" y="-1298.8" font-family="Times,serif" font-size="14.00" fill="#1f6fb2">FK</text>
<text text-anchor="start" x="188" y="-1298.8" font-family="Times,serif" font-size="14.00" fill="#555555">BIGINT UNSIGNED</text>
<text text-anchor="start" x="14" y="-1276.7" font-family="Consolas" font-size="11.00" fill="#c00000">thiet_bi</text>
<text text-anchor="start" x="188" y="-1275.8" font-family="Times,serif" font-size="14.00" fill="#555555">VARCHAR(255)</text>
<text text-anchor="start" x="14" y="-1253.7" font-family="Consolas" font-size="11.00" fill="#c00000">dia_chi_ip</text>
<text text-anchor="start" x="188" y="-1252.8" font-family="Times,serif" font-size="14.00" fill="#555555">VARCHAR(45)</text>
<text text-anchor="start" x="14" y="-1230.7" font-family="Consolas" font-size="11.00" fill="#c00000">thoi_gian_dang_nhap</text>
<text text-anchor="start" x="188" y="-1229.8" font-family="Times,serif" font-size="14.00" fill="#555555">DATETIME</text>
<text text-anchor="start" x="14" y="-1207.7" font-family="Consolas" font-size="11.00" fill="#c00000">thoi_gian_dang_xuat</text>
<text text-anchor="start" x="188" y="-1206.8" font-family="Times,serif" font-size="14.00" fill="#555555">DATETIME</text>
<text text-anchor="start" x="14" y="-1184.7" font-family="Consolas" font-size="11.00" fill="#c00000">trang_thai</text>
<text text-anchor="start" x="188" y="-1183.8" font-family="Times,serif" font-size="14.00" fill="#555555">ENUM</text>
<polygon fill="none" stroke="black" points="9,-1175.5 9,-1358.5 335,-1358.5 335,-1175.5 9,-1175.5"/>
</g>
<!-- phien_dang_nhap&#45;&gt;nguoi_dung -->
<g id="edge7" class="edge">
<title>phien_dang_nhap&#45;&gt;nguoi_dung</title>
<path fill="none" stroke="#5578a8" d="M335.12,-1267C363.98,-1267 394,-1267 422.77,-1267"/>
</g>
<!-- to_chuc -->
<g id="node12" class="node">
<title>to_chuc</title>
<polygon fill="#dce6f1" stroke="transparent" points="15,-1567 15,-1587 330,-1587 330,-1567 15,-1567"/>
<text text-anchor="start" x="148.5" y="-1575.2" font-family="Consolas" font-weight="bold" font-size="11.00">to_chuc</text>
<text text-anchor="start" x="19" y="-1553.7" font-family="Consolas" font-weight="bold" font-size="11.00">id</text>
<text text-anchor="start" x="122" y="-1552.8" font-family="Times,serif" font-size="14.00" fill="#b8860b">PK</text>
<text text-anchor="start" x="143" y="-1552.8" font-family="Times,serif" font-size="14.00" fill="#1f6fb2">/FK</text>
<text text-anchor="start" x="184" y="-1551.8" font-family="Times,serif" font-size="14.00" fill="#555555">BIGINT UNSIGNED</text>
<text text-anchor="start" x="19" y="-1533.6" font-family="Consolas" font-size="8.00" fill="#999999">= = nguoi_dung.id</text>
<text text-anchor="start" x="19" y="-1512.7" font-family="Consolas" font-size="11.00">ten_to_chuc</text>
<text text-anchor="start" x="184" y="-1511.8" font-family="Times,serif" font-size="14.00" fill="#555555">VARCHAR(255)</text>
<text text-anchor="start" x="19" y="-1489.7" font-family="Consolas" font-size="11.00">ma_so_thue</text>
<text text-anchor="start" x="184" y="-1488.8" font-family="Times,serif" font-size="14.00" fill="#555555">VARCHAR(30)</text>
<text text-anchor="start" x="19" y="-1466.7" font-family="Consolas" font-size="11.00">nguoi_dai_dien</text>
<text text-anchor="start" x="184" y="-1465.8" font-family="Times,serif" font-size="14.00" fill="#555555">VARCHAR(150)</text>
<text text-anchor="start" x="19" y="-1443.7" font-family="Consolas" font-size="11.00">dia_chi</text>
<text text-anchor="start" x="184" y="-1442.8" font-family="Times,serif" font-size="14.00" fill="#555555">VARCHAR(255)</text>
<text text-anchor="start" x="19" y="-1420.7" font-family="Consolas" font-size="11.00">email</text>
<text text-anchor="start" x="184" y="-1419.8" font-family="Times,serif" font-size="14.00" fill="#555555">VARCHAR(150)</text>
<text text-anchor="start" x="19" y="-1397.7" font-family="Consolas" font-size="11.00">so_dien_thoai</text>
<text text-anchor="start" x="184" y="-1396.8" font-family="Times,serif" font-size="14.00" fill="#555555">VARCHAR(20)</text>
<polygon fill="none" stroke="black" points="13.5,-1388 13.5,-1588 330.5,-1588 330.5,-1388 13.5,-1388"/>
</g>
</g>
</svg>
