<?xml version="1.0" encoding="UTF-8" standalone="no"?>
<!DOCTYPE svg PUBLIC "-//W3C//DTD SVG 1.1//EN"
 "http://www.w3.org/Graphics/SVG/1.1/DTD/svg11.dtd">
<!-- Generated by graphviz version 2.43.0 (0)
 -->
<!-- Title: SỔ VĂN BẢN &amp; LƯU TRỮ (đã bổ sung kỳ số hoá) Pages: 1 -->
<svg width="1565pt" height="1304pt"
 viewBox="0.00 0.00 1565.00 1304.00" xmlns="http://www.w3.org/2000/svg" xmlns:xlink="http://www.w3.org/1999/xlink">
<g id="graph0" class="graph" transform="scale(1 1) rotate(0) translate(4 1300)">
<title>SỔ VĂN BẢN &amp; LƯU TRỮ (đã bổ sung kỳ số hoá)</title>
<polygon fill="white" stroke="transparent" points="-4,4 -4,-1300 1561,-1300 1561,4 -4,4"/>
<text text-anchor="start" x="514.5" y="-1274.4" font-family="Helvetica,sans-Serif" font-size="22.00">SỔ VĂN BẢN &amp; LƯU TRỮ (đã bổ sung kỳ số hoá)</text>
<!-- ban_giao_ho_so -->
<g id="node1" class="node">
<title>ban_giao_ho_so</title>
<polygon fill="#e4e4c6" stroke="transparent" points="419.5,-309 419.5,-329 756.5,-329 756.5,-309 419.5,-309"/>
<text text-anchor="start" x="540.5" y="-317.2" font-family="Consolas" font-weight="bold" font-size="11.00">ban_giao_ho_so</text>
<text text-anchor="start" x="423.5" y="-295.7" font-family="Consolas" font-weight="bold" font-size="11.00">id</text>
<text text-anchor="start" x="573.5" y="-293.8" font-family="Times,serif" font-size="14.00" fill="#b8860b">PK</text>
<text text-anchor="start" x="610.5" y="-293.8" font-family="Times,serif" font-size="14.00" fill="#555555">BIGINT UNSIGNED</text>
<text text-anchor="start" x="423.5" y="-272.7" font-family="Consolas" font-weight="bold" font-size="11.00">yeu_cau_giai_trinh_id</text>
<text text-anchor="start" x="573.5" y="-270.8" font-family="Times,serif" font-size="14.00" fill="#1f6fb2">FK</text>
<text text-anchor="start" x="610.5" y="-270.8" font-family="Times,serif" font-size="14.00" fill="#555555">BIGINT UNSIGNED</text>
<text text-anchor="start" x="423.5" y="-249.7" font-family="Consolas" font-weight="bold" font-size="11.00">nguoi_ban_giao_id</text>
<text text-anchor="start" x="573.5" y="-247.8" font-family="Times,serif" font-size="14.00" fill="#1f6fb2">FK</text>
<text text-anchor="start" x="610.5" y="-247.8" font-family="Times,serif" font-size="14.00" fill="#555555">BIGINT UNSIGNED</text>
<text text-anchor="start" x="423.5" y="-226.7" font-family="Consolas" font-weight="bold" font-size="11.00">nguoi_nhan_id</text>
<text text-anchor="start" x="573.5" y="-224.8" font-family="Times,serif" font-size="14.00" fill="#1f6fb2">FK</text>
<text text-anchor="start" x="610.5" y="-224.8" font-family="Times,serif" font-size="14.00" fill="#555555">BIGINT UNSIGNED</text>
<text text-anchor="start" x="423.5" y="-202.7" font-family="Consolas" font-size="11.00">ngay_ban_giao</text>
<text text-anchor="start" x="610.5" y="-201.8" font-family="Times,serif" font-size="14.00" fill="#555555">DATETIME</text>
<text text-anchor="start" x="423.5" y="-179.7" font-family="Consolas" font-size="11.00">trang_thai_xac_nhan</text>
<text text-anchor="start" x="610.5" y="-178.8" font-family="Times,serif" font-size="14.00" fill="#555555">ENUM</text>
<text text-anchor="start" x="423.5" y="-156.7" font-family="Consolas" font-size="11.00">ngay_xac_nhan</text>
<text text-anchor="start" x="610.5" y="-155.8" font-family="Times,serif" font-size="14.00" fill="#555555">DATETIME</text>
<polygon fill="none" stroke="black" points="418,-147.5 418,-330.5 757,-330.5 757,-147.5 418,-147.5"/>
</g>
<!-- can_bo -->
<g id="node2" class="node">
<title>can_bo</title>
<polygon fill="#dce6f1" stroke="transparent" points="851.5,-769 851.5,-789 1159.5,-789 1159.5,-769 851.5,-769"/>
<text text-anchor="start" x="985" y="-777.2" font-family="Consolas" font-weight="bold" font-size="11.00">can_bo</text>
<text text-anchor="start" x="855.5" y="-755.7" font-family="Consolas" font-weight="bold" font-size="11.00">id</text>
<text text-anchor="start" x="951.5" y="-754.8" font-family="Times,serif" font-size="14.00" fill="#b8860b">PK</text>
<text text-anchor="start" x="972.5" y="-754.8" font-family="Times,serif" font-size="14.00" fill="#1f6fb2">/FK</text>
<text text-anchor="start" x="1013.5" y="-753.8" font-family="Times,serif" font-size="14.00" fill="#555555">BIGINT UNSIGNED</text>
<text text-anchor="start" x="855.5" y="-735.6" font-family="Consolas" font-size="8.00" fill="#999999">= = nguoi_dung.id</text>
<text text-anchor="start" x="855.5" y="-714.7" font-family="Consolas" font-size="11.00">ma_can_bo</text>
<text text-anchor="start" x="1013.5" y="-713.8" font-family="Times,serif" font-size="14.00" fill="#555555">VARCHAR(30)</text>
<text text-anchor="start" x="855.5" y="-691.7" font-family="Consolas" font-size="11.00">ho_ten</text>
<text text-anchor="start" x="1013.5" y="-690.8" font-family="Times,serif" font-size="14.00" fill="#555555">VARCHAR(150)</text>
<text text-anchor="start" x="855.5" y="-669.7" font-family="Consolas" font-weight="bold" font-size="11.00">don_vi_id</text>
<text text-anchor="start" x="951.5" y="-667.8" font-family="Times,serif" font-size="14.00" fill="#1f6fb2">FK</text>
<text text-anchor="start" x="1013.5" y="-667.8" font-family="Times,serif" font-size="14.00" fill="#555555">BIGINT UNSIGNED</text>
<text text-anchor="start" x="855.5" y="-645.7" font-family="Consolas" font-size="11.00">chuc_vu</text>
<text text-anchor="start" x="1013.5" y="-644.8" font-family="Times,serif" font-size="14.00" fill="#555555">VARCHAR(100)</text>
<text text-anchor="start" x="855.5" y="-622.7" font-family="Consolas" font-size="11.00">email</text>
<text text-anchor="start" x="1013.5" y="-621.8" font-family="Times,serif" font-size="14.00" fill="#555555">VARCHAR(150)</text>
<text text-anchor="start" x="855.5" y="-599.7" font-family="Consolas" font-size="11.00">so_dien_thoai</text>
<text text-anchor="start" x="1013.5" y="-598.8" font-family="Times,serif" font-size="14.00" fill="#555555">VARCHAR(20)</text>
<polygon fill="none" stroke="black" points="850.5,-590 850.5,-790 1160.5,-790 1160.5,-590 850.5,-590"/>
</g>
<!-- ban_giao_ho_so&#45;&gt;can_bo -->
<g id="edge7" class="edge">
<title>ban_giao_ho_so&#45;&gt;can_bo</title>
<path fill="none" stroke="#5578a8" d="M757.08,-284.75C769.33,-284.75 777,-284.75 777,-284.75 777,-284.75 777,-692.75 777,-692.75 777,-692.75 809.64,-692.75 850.24,-692.75"/>
</g>
<!-- ban_giao_ho_so&#45;&gt;can_bo -->
<g id="edge8" class="edge">
<title>ban_giao_ho_so&#45;&gt;can_bo</title>
<path fill="none" stroke="#5578a8" d="M757.1,-239C780.66,-239 797,-239 797,-239 797,-239 797,-660.33 797,-660.33 797,-660.33 819.85,-660.33 850.42,-660.33"/>
</g>
<!-- yeu_cau_giai_trinh -->
<g id="node10" class="node">
<title>yeu_cau_giai_trinh</title>
<polygon fill="#fbe5d6" stroke="transparent" points="837.5,-474 837.5,-494 1174.5,-494 1174.5,-474 837.5,-474"/>
<text text-anchor="start" x="945" y="-482.2" font-family="Consolas" font-weight="bold" font-size="11.00">yeu_cau_giai_trinh</text>
<text text-anchor="start" x="841.5" y="-460.7" font-family="Consolas" font-weight="bold" font-size="11.00">id</text>
<text text-anchor="start" x="991.5" y="-458.8" font-family="Times,serif" font-size="14.00" fill="#b8860b">PK</text>
<text text-anchor="start" x="1028.5" y="-458.8" font-family="Times,serif" font-size="14.00" fill="#555555">BIGINT UNSIGNED</text>
<text text-anchor="start" x="841.5" y="-436.7" font-family="Consolas" font-size="11.00">ma_yeu_cau</text>
<text text-anchor="start" x="1028.5" y="-435.8" font-family="Times,serif" font-size="14.00" fill="#555555">VARCHAR(30)</text>
<text text-anchor="start" x="841.5" y="-414.7" font-family="Consolas" font-weight="bold" font-size="11.00">nguoi_yeu_cau_id</text>
<text text-anchor="start" x="991.5" y="-412.8" font-family="Times,serif" font-size="14.00" fill="#1f6fb2">FK</text>
<text text-anchor="start" x="1028.5" y="-412.8" font-family="Times,serif" font-size="14.00" fill="#555555">BIGINT UNSIGNED</text>
<text text-anchor="start" x="841.5" y="-390.7" font-family="Consolas" font-size="11.00">hinh_thuc_gui</text>
<text text-anchor="start" x="1028.5" y="-389.8" font-family="Times,serif" font-size="14.00" fill="#555555">ENUM</text>
<text text-anchor="start" x="841.5" y="-367.7" font-family="Consolas" font-size="11.00">nguon_goc</text>
<text text-anchor="start" x="1028.5" y="-366.8" font-family="Times,serif" font-size="14.00" fill="#555555">ENUM</text>
<text text-anchor="start" x="841.5" y="-344.7" font-family="Consolas" font-size="11.00">noi_dung_yeu_cau</text>
<text text-anchor="start" x="1028.5" y="-343.8" font-family="Times,serif" font-size="14.00" fill="#555555">TEXT</text>
<text text-anchor="start" x="841.5" y="-321.7" font-family="Consolas" font-size="11.00">ngay_gui</text>
<text text-anchor="start" x="1028.5" y="-320.8" font-family="Times,serif" font-size="14.00" fill="#555555">DATETIME</text>
<text text-anchor="start" x="841.5" y="-299.7" font-family="Consolas" font-weight="bold" font-size="11.00">don_vi_tiep_nhan_id</text>
<text text-anchor="start" x="991.5" y="-297.8" font-family="Times,serif" font-size="14.00" fill="#1f6fb2">FK</text>
<text text-anchor="start" x="1028.5" y="-297.8" font-family="Times,serif" font-size="14.00" fill="#555555">BIGINT UNSIGNED</text>
<text text-anchor="start" x="841.5" y="-276.7" font-family="Consolas" font-weight="bold" font-size="11.00">don_vi_chuyen_mon_id</text>
<text text-anchor="start" x="991.5" y="-274.8" font-family="Times,serif" font-size="14.00" fill="#1f6fb2">FK</text>
<text text-anchor="start" x="1028.5" y="-274.8" font-family="Times,serif" font-size="14.00" fill="#555555">BIGINT UNSIGNED</text>
<text text-anchor="start" x="841.5" y="-252.7" font-family="Consolas" font-size="11.00">han_xu_ly</text>
<text text-anchor="start" x="1028.5" y="-251.8" font-family="Times,serif" font-size="14.00" fill="#555555">DATE</text>
<text text-anchor="start" x="841.5" y="-229.7" font-family="Consolas" font-size="11.00" fill="#c00000">han_xu_ly_cu</text>
<text text-anchor="start" x="1028.5" y="-228.8" font-family="Times,serif" font-size="14.00" fill="#555555">DATE</text>
<text text-anchor="start" x="841.5" y="-206.7" font-family="Consolas" font-size="11.00" fill="#c00000">so_lan_gia_han</text>
<text text-anchor="start" x="1028.5" y="-205.8" font-family="Times,serif" font-size="14.00" fill="#555555">TINYINT</text>
<text text-anchor="start" x="841.5" y="-184.7" font-family="Consolas" font-weight="bold" font-size="11.00" fill="#c00000">ly_do_gia_han_id</text>
<text text-anchor="start" x="991.5" y="-182.8" font-family="Times,serif" font-size="14.00" fill="#1f6fb2">FK</text>
<text text-anchor="start" x="1028.5" y="-182.8" font-family="Times,serif" font-size="14.00" fill="#555555">BIGINT UNSIGNED</text>
<text text-anchor="start" x="841.5" y="-160.7" font-family="Consolas" font-size="11.00" fill="#c00000">ngay_gia_han_gan_nhat</text>
<text text-anchor="start" x="1028.5" y="-159.8" font-family="Times,serif" font-size="14.00" fill="#555555">DATETIME</text>
<text text-anchor="start" x="841.5" y="-137.7" font-family="Consolas" font-size="11.00">trang_thai</text>
<text text-anchor="start" x="1028.5" y="-136.8" font-family="Times,serif" font-size="14.00" fill="#555555">ENUM</text>
<text text-anchor="start" x="841.5" y="-118.6" font-family="Consolas" font-size="8.00" fill="#999999">= ...,Đã rút (bổ sung)</text>
<text text-anchor="start" x="841.5" y="-97.7" font-family="Consolas" font-size="11.00">ngay_dong</text>
<text text-anchor="start" x="1028.5" y="-96.8" font-family="Times,serif" font-size="14.00" fill="#555555">DATETIME</text>
<polygon fill="none" stroke="black" points="836,-88.5 836,-495.5 1175,-495.5 1175,-88.5 836,-88.5"/>
</g>
<!-- ban_giao_ho_so&#45;&gt;yeu_cau_giai_trinh -->
<g id="edge9" class="edge">
<title>ban_giao_ho_so&#45;&gt;yeu_cau_giai_trinh</title>
<path fill="none" stroke="#5578a8" d="M757.22,-193.25C783.11,-193.25 809.84,-193.25 835.74,-193.25"/>
</g>
<!-- don_vi -->
<g id="node3" class="node">
<title>don_vi</title>
<polygon fill="#dce6f1" stroke="transparent" points="1255.5,-385 1255.5,-405 1538.5,-405 1538.5,-385 1255.5,-385"/>
<text text-anchor="start" x="1376.5" y="-393.2" font-family="Consolas" font-weight="bold" font-size="11.00">don_vi</text>
<text text-anchor="start" x="1259.5" y="-371.7" font-family="Consolas" font-weight="bold" font-size="11.00">id</text>
<text text-anchor="start" x="1355.5" y="-369.8" font-family="Times,serif" font-size="14.00" fill="#b8860b">PK</text>
<text text-anchor="start" x="1392.5" y="-369.8" font-family="Times,serif" font-size="14.00" fill="#555555">BIGINT UNSIGNED</text>
<text text-anchor="start" x="1259.5" y="-347.7" font-family="Consolas" font-size="11.00">ma_don_vi</text>
<text text-anchor="start" x="1392.5" y="-346.8" font-family="Times,serif" font-size="14.00" fill="#555555">VARCHAR(30)</text>
<text text-anchor="start" x="1259.5" y="-324.7" font-family="Consolas" font-size="11.00">ten_don_vi</text>
<text text-anchor="start" x="1392.5" y="-323.8" font-family="Times,serif" font-size="14.00" fill="#555555">VARCHAR(255)</text>
<text text-anchor="start" x="1259.5" y="-302.7" font-family="Consolas" font-weight="bold" font-size="11.00">don_vi_cha_id</text>
<text text-anchor="start" x="1355.5" y="-300.8" font-family="Times,serif" font-size="14.00" fill="#1f6fb2">FK</text>
<text text-anchor="start" x="1392.5" y="-300.8" font-family="Times,serif" font-size="14.00" fill="#555555">BIGINT UNSIGNED</text>
<text text-anchor="start" x="1259.5" y="-278.7" font-family="Consolas" font-size="11.00">cap_don_vi</text>
<text text-anchor="start" x="1392.5" y="-277.8" font-family="Times,serif" font-size="14.00" fill="#555555">TINYINT</text>
<text text-anchor="start" x="1259.5" y="-255.7" font-family="Consolas" font-size="11.00">loai_don_vi</text>
<text text-anchor="start" x="1392.5" y="-254.8" font-family="Times,serif" font-size="14.00" fill="#555555">VARCHAR(50)</text>
<text text-anchor="start" x="1259.5" y="-232.7" font-family="Consolas" font-size="11.00">dia_chi</text>
<text text-anchor="start" x="1392.5" y="-231.8" font-family="Times,serif" font-size="14.00" fill="#555555">VARCHAR(255)</text>
<text text-anchor="start" x="1259.5" y="-209.7" font-family="Consolas" font-size="11.00">trang_thai</text>
<text text-anchor="start" x="1392.5" y="-208.8" font-family="Times,serif" font-size="14.00" fill="#555555">TINYINT</text>
<text text-anchor="start" x="1259.5" y="-186.7" font-family="Consolas" font-size="11.00">ngay_tao</text>
<text text-anchor="start" x="1392.5" y="-185.8" font-family="Times,serif" font-size="14.00" fill="#555555">DATETIME</text>
<polygon fill="none" stroke="black" points="1254,-177.5 1254,-406.5 1539,-406.5 1539,-177.5 1254,-177.5"/>
</g>
<!-- don_vi&#45;&gt;don_vi -->
<g id="edge1" class="edge">
<title>don_vi&#45;&gt;don_vi</title>
<path fill="none" stroke="#5578a8" stroke-dasharray="5,2" d="M1253.94,-349.25C1231.21,-349.25 1215,-349.25 1215,-349.25 1215,-349.25 1215,-451 1215,-451 1215,-451 1557,-451 1557,-451 1557,-451 1557,-292 1557,-292 1557,-292 1550.12,-292 1539.21,-292"/>
</g>
<!-- ho_so_luu_tru -->
<g id="node4" class="node">
<title>ho_so_luu_tru</title>
<polygon fill="#e4e4c6" stroke="transparent" points="1.5,-185 1.5,-205 338.5,-205 338.5,-185 1.5,-185"/>
<text text-anchor="start" x="126" y="-193.2" font-family="Consolas" font-weight="bold" font-size="11.00">ho_so_luu_tru</text>
<text text-anchor="start" x="5.5" y="-171.7" font-family="Consolas" font-weight="bold" font-size="11.00">id</text>
<text text-anchor="start" x="155.5" y="-169.8" font-family="Times,serif" font-size="14.00" fill="#b8860b">PK</text>
<text text-anchor="start" x="192.5" y="-169.8" font-family="Times,serif" font-size="14.00" fill="#555555">BIGINT UNSIGNED</text>
<text text-anchor="start" x="5.5" y="-148.7" font-family="Consolas" font-weight="bold" font-size="11.00">yeu_cau_giai_trinh_id</text>
<text text-anchor="start" x="155.5" y="-146.8" font-family="Times,serif" font-size="14.00" fill="#1f6fb2">FK</text>
<text text-anchor="start" x="192.5" y="-146.8" font-family="Times,serif" font-size="14.00" fill="#555555">BIGINT UNSIGNED</text>
<text text-anchor="start" x="5.5" y="-125.7" font-family="Consolas" font-weight="bold" font-size="11.00">phuong_an_luu_tru_id</text>
<text text-anchor="start" x="155.5" y="-123.8" font-family="Times,serif" font-size="14.00" fill="#1f6fb2">FK</text>
<text text-anchor="start" x="192.5" y="-123.8" font-family="Times,serif" font-size="14.00" fill="#555555">BIGINT UNSIGNED</text>
<text text-anchor="start" x="5.5" y="-101.7" font-family="Consolas" font-size="11.00">so_luu_tru</text>
<text text-anchor="start" x="192.5" y="-100.8" font-family="Times,serif" font-size="14.00" fill="#555555">VARCHAR(50)</text>
<text text-anchor="start" x="5.5" y="-78.7" font-family="Consolas" font-size="11.00">ngay_dong_ho_so</text>
<text text-anchor="start" x="192.5" y="-77.8" font-family="Times,serif" font-size="14.00" fill="#555555">DATETIME</text>
<text text-anchor="start" x="5.5" y="-55.7" font-family="Consolas" font-size="11.00">trang_thai_toan_ven</text>
<text text-anchor="start" x="192.5" y="-54.8" font-family="Times,serif" font-size="14.00" fill="#555555">ENUM</text>
<text text-anchor="start" x="5.5" y="-33.7" font-family="Consolas" font-weight="bold" font-size="11.00">don_vi_luu_tru_id</text>
<text text-anchor="start" x="155.5" y="-31.8" font-family="Times,serif" font-size="14.00" fill="#1f6fb2">FK</text>
<text text-anchor="start" x="192.5" y="-31.8" font-family="Times,serif" font-size="14.00" fill="#555555">BIGINT UNSIGNED</text>
<text text-anchor="start" x="5.5" y="-9.7" font-family="Consolas" font-size="11.00">ma_lien_thong</text>
<text text-anchor="start" x="192.5" y="-8.8" font-family="Times,serif" font-size="14.00" fill="#555555">VARCHAR(100)</text>
<polygon fill="none" stroke="black" points="0,0 0,-206 339,-206 339,0 0,0"/>
</g>
<!-- ho_so_luu_tru&#45;&gt;don_vi -->
<g id="edge15" class="edge">
<title>ho_so_luu_tru&#45;&gt;don_vi</title>
<path fill="none" stroke="#5578a8" d="M339.21,-44.25C676.08,-44.25 1397,-44.25 1397,-44.25 1397,-44.25 1397,-112.38 1397,-177.19"/>
</g>
<!-- phuong_an_luu_tru -->
<g id="node6" class="node">
<title>phuong_an_luu_tru</title>
<polygon fill="#e4e4c6" stroke="transparent" points="419.5,-545 419.5,-565 756.5,-565 756.5,-545 419.5,-545"/>
<text text-anchor="start" x="530.5" y="-553.2" font-family="Consolas" font-weight="bold" font-size="11.00">phuong_an_luu_tru</text>
<text text-anchor="start" x="423.5" y="-531.7" font-family="Consolas" font-weight="bold" font-size="11.00">id</text>
<text text-anchor="start" x="573.5" y="-529.8" font-family="Times,serif" font-size="14.00" fill="#b8860b">PK</text>
<text text-anchor="start" x="610.5" y="-529.8" font-family="Times,serif" font-size="14.00" fill="#555555">BIGINT UNSIGNED</text>
<text text-anchor="start" x="423.5" y="-508.7" font-family="Consolas" font-weight="bold" font-size="11.00">yeu_cau_giai_trinh_id</text>
<text text-anchor="start" x="573.5" y="-506.8" font-family="Times,serif" font-size="14.00" fill="#1f6fb2">FK</text>
<text text-anchor="start" x="610.5" y="-506.8" font-family="Times,serif" font-size="14.00" fill="#555555">BIGINT UNSIGNED</text>
<text text-anchor="start" x="423.5" y="-484.7" font-family="Consolas" font-size="11.00">noi_dung_phuong_an</text>
<text text-anchor="start" x="610.5" y="-483.8" font-family="Times,serif" font-size="14.00" fill="#555555">TEXT</text>
<text text-anchor="start" x="423.5" y="-462.7" font-family="Consolas" font-weight="bold" font-size="11.00">nguoi_trinh_id</text>
<text text-anchor="start" x="573.5" y="-460.8" font-family="Times,serif" font-size="14.00" fill="#1f6fb2">FK</text>
<text text-anchor="start" x="610.5" y="-460.8" font-family="Times,serif" font-size="14.00" fill="#555555">BIGINT UNSIGNED</text>
<text text-anchor="start" x="423.5" y="-438.7" font-family="Consolas" font-size="11.00">ngay_trinh</text>
<text text-anchor="start" x="610.5" y="-437.8" font-family="Times,serif" font-size="14.00" fill="#555555">DATETIME</text>
<text text-anchor="start" x="423.5" y="-416.7" font-family="Consolas" font-weight="bold" font-size="11.00">nguoi_duyet_id</text>
<text text-anchor="start" x="573.5" y="-414.8" font-family="Times,serif" font-size="14.00" fill="#1f6fb2">FK</text>
<text text-anchor="start" x="610.5" y="-414.8" font-family="Times,serif" font-size="14.00" fill="#555555">BIGINT UNSIGNED</text>
<text text-anchor="start" x="423.5" y="-392.7" font-family="Consolas" font-size="11.00">ngay_duyet</text>
<text text-anchor="start" x="610.5" y="-391.8" font-family="Times,serif" font-size="14.00" fill="#555555">DATETIME</text>
<text text-anchor="start" x="423.5" y="-369.7" font-family="Consolas" font-size="11.00">trang_thai</text>
<text text-anchor="start" x="610.5" y="-368.8" font-family="Times,serif" font-size="14.00" fill="#555555">ENUM</text>
<polygon fill="none" stroke="black" points="418,-360 418,-566 757,-566 757,-360 418,-360"/>
</g>
<!-- ho_so_luu_tru&#45;&gt;phuong_an_luu_tru -->
<g id="edge17" class="edge">
<title>ho_so_luu_tru&#45;&gt;phuong_an_luu_tru</title>
<path fill="none" stroke="#5578a8" d="M170,-206.16C170,-312.54 170,-463 170,-463 170,-463 302.33,-463 417.99,-463"/>
</g>
<!-- ho_so_luu_tru&#45;&gt;yeu_cau_giai_trinh -->
<g id="edge16" class="edge">
<title>ho_so_luu_tru&#45;&gt;yeu_cau_giai_trinh</title>
<path fill="none" stroke="#5578a8" d="M339.18,-118C483.91,-118 690.94,-118 835.71,-118"/>
</g>
<!-- ky_so_hoa -->
<g id="node5" class="node">
<title>ky_so_hoa</title>
<polygon fill="#e4e4c6" stroke="transparent" points="429.5,-1185 429.5,-1205 746.5,-1205 746.5,-1185 429.5,-1185"/>
<text text-anchor="start" x="557.5" y="-1193.2" font-family="Consolas" font-weight="bold" font-size="11.00">ky_so_hoa</text>
<text text-anchor="start" x="433.5" y="-1171.7" font-family="Consolas" font-weight="bold" font-size="11.00" fill="#c00000">id</text>
<text text-anchor="start" x="563.5" y="-1169.8" font-family="Times,serif" font-size="14.00" fill="#b8860b">PK</text>
<text text-anchor="start" x="600.5" y="-1169.8" font-family="Times,serif" font-size="14.00" fill="#555555">BIGINT UNSIGNED</text>
<text text-anchor="start" x="433.5" y="-1147.7" font-family="Consolas" font-size="11.00" fill="#c00000">ten_ky</text>
<text text-anchor="start" x="600.5" y="-1146.8" font-family="Times,serif" font-size="14.00" fill="#555555">VARCHAR(150)</text>
<text text-anchor="start" x="433.5" y="-1124.7" font-family="Consolas" font-size="11.00" fill="#c00000">loai_doi_tuong</text>
<text text-anchor="start" x="600.5" y="-1123.8" font-family="Times,serif" font-size="14.00" fill="#555555">ENUM</text>
<text text-anchor="start" x="433.5" y="-1101.7" font-family="Consolas" font-size="11.00" fill="#c00000">tu_ngay</text>
<text text-anchor="start" x="600.5" y="-1100.8" font-family="Times,serif" font-size="14.00" fill="#555555">DATE</text>
<text text-anchor="start" x="433.5" y="-1078.7" font-family="Consolas" font-size="11.00" fill="#c00000">den_ngay</text>
<text text-anchor="start" x="600.5" y="-1077.8" font-family="Times,serif" font-size="14.00" fill="#555555">DATE</text>
<text text-anchor="start" x="433.5" y="-1056.7" font-family="Consolas" font-weight="bold" font-size="11.00" fill="#c00000">nguoi_phu_trach_id</text>
<text text-anchor="start" x="563.5" y="-1054.8" font-family="Times,serif" font-size="14.00" fill="#1f6fb2">FK</text>
<text text-anchor="start" x="600.5" y="-1054.8" font-family="Times,serif" font-size="14.00" fill="#555555">BIGINT UNSIGNED</text>
<text text-anchor="start" x="433.5" y="-1032.7" font-family="Consolas" font-size="11.00" fill="#c00000">trang_thai</text>
<text text-anchor="start" x="600.5" y="-1031.8" font-family="Times,serif" font-size="14.00" fill="#555555">ENUM</text>
<polygon fill="none" stroke="black" points="428,-1023.5 428,-1206.5 747,-1206.5 747,-1023.5 428,-1023.5"/>
</g>
<!-- ky_so_hoa&#45;&gt;can_bo -->
<g id="edge19" class="edge">
<title>ky_so_hoa&#45;&gt;can_bo</title>
<path fill="none" stroke="#5578a8" d="M747.12,-1115C883.57,-1115 1058,-1115 1058,-1115 1058,-1115 1058,-915.83 1058,-790.18"/>
</g>
<!-- phuong_an_luu_tru&#45;&gt;can_bo -->
<g id="edge10" class="edge">
<title>phuong_an_luu_tru&#45;&gt;can_bo</title>
<path fill="none" stroke="#5578a8" d="M757.07,-542.5C853.02,-542.5 954,-542.5 954,-542.5 954,-542.5 954,-563.68 954,-589.98"/>
</g>
<!-- phuong_an_luu_tru&#45;&gt;can_bo -->
<g id="edge11" class="edge">
<title>phuong_an_luu_tru&#45;&gt;can_bo</title>
<path fill="none" stroke="#5578a8" d="M757.03,-519C891.86,-519 1058,-519 1058,-519 1058,-519 1058,-552.32 1058,-589.54"/>
</g>
<!-- phuong_an_luu_tru&#45;&gt;yeu_cau_giai_trinh -->
<g id="edge12" class="edge">
<title>phuong_an_luu_tru&#45;&gt;yeu_cau_giai_trinh</title>
<path fill="none" stroke="#5578a8" d="M757.22,-427.75C783.11,-427.75 809.84,-427.75 835.74,-427.75"/>
</g>
<!-- so_van_ban -->
<g id="node7" class="node">
<title>so_van_ban</title>
<polygon fill="#e4e4c6" stroke="transparent" points="1.5,-865 1.5,-885 338.5,-885 338.5,-865 1.5,-865"/>
<text text-anchor="start" x="136" y="-873.2" font-family="Consolas" font-weight="bold" font-size="11.00">so_van_ban</text>
<text text-anchor="start" x="5.5" y="-851.7" font-family="Consolas" font-weight="bold" font-size="11.00">id</text>
<text text-anchor="start" x="155.5" y="-849.8" font-family="Times,serif" font-size="14.00" fill="#b8860b">PK</text>
<text text-anchor="start" x="192.5" y="-849.8" font-family="Times,serif" font-size="14.00" fill="#555555">BIGINT UNSIGNED</text>
<text text-anchor="start" x="5.5" y="-828.7" font-family="Consolas" font-weight="bold" font-size="11.00">van_ban_giai_trinh_id</text>
<text text-anchor="start" x="155.5" y="-826.8" font-family="Times,serif" font-size="14.00" fill="#1f6fb2">FK</text>
<text text-anchor="start" x="192.5" y="-826.8" font-family="Times,serif" font-size="14.00" fill="#555555">BIGINT UNSIGNED</text>
<text text-anchor="start" x="5.5" y="-804.7" font-family="Consolas" font-size="11.00">so_hieu</text>
<text text-anchor="start" x="192.5" y="-803.8" font-family="Times,serif" font-size="14.00" fill="#555555">VARCHAR(50)</text>
<text text-anchor="start" x="5.5" y="-781.7" font-family="Consolas" font-size="11.00">loai_van_ban</text>
<text text-anchor="start" x="192.5" y="-780.8" font-family="Times,serif" font-size="14.00" fill="#555555">VARCHAR(100)</text>
<text text-anchor="start" x="5.5" y="-758.7" font-family="Consolas" font-size="11.00">ngay_dang_ky</text>
<text text-anchor="start" x="192.5" y="-757.8" font-family="Times,serif" font-size="14.00" fill="#555555">DATETIME</text>
<text text-anchor="start" x="5.5" y="-736.7" font-family="Consolas" font-weight="bold" font-size="11.00">nguoi_dang_ky_id</text>
<text text-anchor="start" x="155.5" y="-734.8" font-family="Times,serif" font-size="14.00" fill="#1f6fb2">FK</text>
<text text-anchor="start" x="192.5" y="-734.8" font-family="Times,serif" font-size="14.00" fill="#555555">BIGINT UNSIGNED</text>
<polygon fill="none" stroke="black" points="0,-726 0,-886 339,-886 339,-726 0,-726"/>
</g>
<!-- so_van_ban&#45;&gt;can_bo -->
<g id="edge13" class="edge">
<title>so_van_ban&#45;&gt;can_bo</title>
<path fill="none" stroke="#5578a8" d="M331,-886.14C331,-919.01 331,-949.5 331,-949.5 331,-949.5 954,-949.5 954,-949.5 954,-949.5 954,-863.35 954,-790.33"/>
</g>
<!-- van_ban_giai_trinh -->
<g id="node9" class="node">
<title>van_ban_giai_trinh</title>
<polygon fill="#d8e4bc" stroke="transparent" points="419.5,-895 419.5,-915 756.5,-915 756.5,-895 419.5,-895"/>
<text text-anchor="start" x="527" y="-903.2" font-family="Consolas" font-weight="bold" font-size="11.00">van_ban_giai_trinh</text>
<text text-anchor="start" x="423.5" y="-881.7" font-family="Consolas" font-weight="bold" font-size="11.00">id</text>
<text text-anchor="start" x="573.5" y="-879.8" font-family="Times,serif" font-size="14.00" fill="#b8860b">PK</text>
<text text-anchor="start" x="610.5" y="-879.8" font-family="Times,serif" font-size="14.00" fill="#555555">BIGINT UNSIGNED</text>
<text text-anchor="start" x="423.5" y="-858.7" font-family="Consolas" font-weight="bold" font-size="11.00">yeu_cau_giai_trinh_id</text>
<text text-anchor="start" x="573.5" y="-856.8" font-family="Times,serif" font-size="14.00" fill="#1f6fb2">FK</text>
<text text-anchor="start" x="610.5" y="-856.8" font-family="Times,serif" font-size="14.00" fill="#555555">BIGINT UNSIGNED</text>
<text text-anchor="start" x="423.5" y="-834.7" font-family="Consolas" font-size="11.00" fill="#c00000">loai_van_ban</text>
<text text-anchor="start" x="610.5" y="-833.8" font-family="Times,serif" font-size="14.00" fill="#555555">ENUM</text>
<text text-anchor="start" x="423.5" y="-811.7" font-family="Consolas" font-size="11.00">so_van_ban</text>
<text text-anchor="start" x="610.5" y="-810.8" font-family="Times,serif" font-size="14.00" fill="#555555">VARCHAR(50)</text>
<text text-anchor="start" x="423.5" y="-788.7" font-family="Consolas" font-size="11.00">trich_yeu</text>
<text text-anchor="start" x="610.5" y="-787.8" font-family="Times,serif" font-size="14.00" fill="#555555">VARCHAR(500)</text>
<text text-anchor="start" x="423.5" y="-765.7" font-family="Consolas" font-size="11.00">noi_dung</text>
<text text-anchor="start" x="610.5" y="-764.8" font-family="Times,serif" font-size="14.00" fill="#555555">LONGTEXT</text>
<text text-anchor="start" x="423.5" y="-743.7" font-family="Consolas" font-weight="bold" font-size="11.00">nguoi_soan_id</text>
<text text-anchor="start" x="573.5" y="-741.8" font-family="Times,serif" font-size="14.00" fill="#1f6fb2">FK</text>
<text text-anchor="start" x="610.5" y="-741.8" font-family="Times,serif" font-size="14.00" fill="#555555">BIGINT UNSIGNED</text>
<text text-anchor="start" x="423.5" y="-719.7" font-family="Consolas" font-size="11.00">ngay_soan</text>
<text text-anchor="start" x="610.5" y="-718.8" font-family="Times,serif" font-size="14.00" fill="#555555">DATETIME</text>
<text text-anchor="start" x="423.5" y="-697.7" font-family="Consolas" font-weight="bold" font-size="11.00">nguoi_ky_id</text>
<text text-anchor="start" x="573.5" y="-695.8" font-family="Times,serif" font-size="14.00" fill="#1f6fb2">FK</text>
<text text-anchor="start" x="610.5" y="-695.8" font-family="Times,serif" font-size="14.00" fill="#555555">BIGINT UNSIGNED</text>
<text text-anchor="start" x="423.5" y="-673.7" font-family="Consolas" font-size="11.00">ngay_ban_hanh</text>
<text text-anchor="start" x="610.5" y="-672.8" font-family="Times,serif" font-size="14.00" fill="#555555">DATETIME</text>
<text text-anchor="start" x="423.5" y="-650.7" font-family="Consolas" font-size="11.00">chu_ky_so</text>
<text text-anchor="start" x="610.5" y="-649.8" font-family="Times,serif" font-size="14.00" fill="#555555">VARCHAR(255)</text>
<text text-anchor="start" x="423.5" y="-628.7" font-family="Consolas" font-weight="bold" font-size="11.00" fill="#c00000">van_ban_thay_the_id</text>
<text text-anchor="start" x="573.5" y="-626.8" font-family="Times,serif" font-size="14.00" fill="#1f6fb2">FK</text>
<text text-anchor="start" x="610.5" y="-626.8" font-family="Times,serif" font-size="14.00" fill="#555555">BIGINT UNSIGNED</text>
<text text-anchor="start" x="423.5" y="-604.7" font-family="Consolas" font-size="11.00">trang_thai</text>
<text text-anchor="start" x="610.5" y="-603.8" font-family="Times,serif" font-size="14.00" fill="#555555">ENUM</text>
<polygon fill="none" stroke="black" points="418,-595.5 418,-916.5 757,-916.5 757,-595.5 418,-595.5"/>
</g>
<!-- so_van_ban&#45;&gt;van_ban_giai_trinh -->
<g id="edge14" class="edge">
<title>so_van_ban&#45;&gt;van_ban_giai_trinh</title>
<path fill="none" stroke="#5578a8" d="M339.22,-806C365.11,-806 391.84,-806 417.74,-806"/>
</g>
<!-- tep_dinh_kem -->
<g id="node8" class="node">
<title>tep_dinh_kem</title>
<polygon fill="#ffe699" stroke="transparent" points="17.5,-1243 17.5,-1263 321.5,-1263 321.5,-1243 17.5,-1243"/>
<text text-anchor="start" x="128.5" y="-1251.2" font-family="Consolas" font-weight="bold" font-size="11.00">tep_dinh_kem</text>
<text text-anchor="start" x="21.5" y="-1229.7" font-family="Consolas" font-weight="bold" font-size="11.00">id</text>
<text text-anchor="start" x="138.5" y="-1227.8" font-family="Times,serif" font-size="14.00" fill="#b8860b">PK</text>
<text text-anchor="start" x="175.5" y="-1227.8" font-family="Times,serif" font-size="14.00" fill="#555555">BIGINT UNSIGNED</text>
<text text-anchor="start" x="21.5" y="-1205.7" font-family="Consolas" font-size="11.00">doi_tuong_loai</text>
<text text-anchor="start" x="175.5" y="-1204.8" font-family="Times,serif" font-size="14.00" fill="#555555">VARCHAR(50)</text>
<text text-anchor="start" x="21.5" y="-1182.7" font-family="Consolas" font-size="11.00">doi_tuong_id</text>
<text text-anchor="start" x="175.5" y="-1181.8" font-family="Times,serif" font-size="14.00" fill="#555555">BIGINT UNSIGNED</text>
<text text-anchor="start" x="21.5" y="-1159.7" font-family="Consolas" font-size="11.00">ten_file</text>
<text text-anchor="start" x="175.5" y="-1158.8" font-family="Times,serif" font-size="14.00" fill="#555555">VARCHAR(255)</text>
<text text-anchor="start" x="21.5" y="-1136.7" font-family="Consolas" font-size="11.00">duong_dan</text>
<text text-anchor="start" x="175.5" y="-1135.8" font-family="Times,serif" font-size="14.00" fill="#555555">VARCHAR(500)</text>
<text text-anchor="start" x="21.5" y="-1113.7" font-family="Consolas" font-size="11.00">loai_file</text>
<text text-anchor="start" x="175.5" y="-1112.8" font-family="Times,serif" font-size="14.00" fill="#555555">VARCHAR(30)</text>
<text text-anchor="start" x="21.5" y="-1090.7" font-family="Consolas" font-size="11.00">dung_luong</text>
<text text-anchor="start" x="175.5" y="-1089.8" font-family="Times,serif" font-size="14.00" fill="#555555">BIGINT</text>
<text text-anchor="start" x="21.5" y="-1068.7" font-family="Consolas" font-weight="bold" font-size="11.00">nguoi_tai_len_id</text>
<text text-anchor="start" x="138.5" y="-1066.8" font-family="Times,serif" font-size="14.00" fill="#1f6fb2">FK</text>
<text text-anchor="start" x="175.5" y="-1066.8" font-family="Times,serif" font-size="14.00" fill="#555555">BIGINT UNSIGNED</text>
<text text-anchor="start" x="21.5" y="-1044.7" font-family="Consolas" font-size="11.00">ngay_tai_len</text>
<text text-anchor="start" x="175.5" y="-1043.8" font-family="Times,serif" font-size="14.00" fill="#555555">DATETIME</text>
<text text-anchor="start" x="21.5" y="-1022.7" font-family="Consolas" font-weight="bold" font-size="11.00" fill="#c00000">ky_so_hoa_id</text>
<text text-anchor="start" x="138.5" y="-1020.8" font-family="Times,serif" font-size="14.00" fill="#1f6fb2">FK</text>
<text text-anchor="start" x="175.5" y="-1020.8" font-family="Times,serif" font-size="14.00" fill="#555555">BIGINT UNSIGNED</text>
<text text-anchor="start" x="21.5" y="-998.7" font-family="Consolas" font-size="11.00" fill="#c00000">da_so_hoa</text>
<text text-anchor="start" x="175.5" y="-997.8" font-family="Times,serif" font-size="14.00" fill="#555555">TINYINT</text>
<text text-anchor="start" x="21.5" y="-975.7" font-family="Consolas" font-size="11.00" fill="#c00000">chat_luong_ocr</text>
<text text-anchor="start" x="175.5" y="-974.8" font-family="Times,serif" font-size="14.00" fill="#555555">VARCHAR(50)</text>
<polygon fill="none" stroke="black" points="16.5,-966 16.5,-1264 322.5,-1264 322.5,-966 16.5,-966"/>
</g>
<!-- tep_dinh_kem&#45;&gt;ky_so_hoa -->
<g id="edge20" class="edge">
<title>tep_dinh_kem&#45;&gt;ky_so_hoa</title>
<path fill="none" stroke="#5578a8" d="M322.77,-1115C357.03,-1115 393.43,-1115 427.93,-1115"/>
</g>
<!-- van_ban_giai_trinh&#45;&gt;can_bo -->
<g id="edge4" class="edge">
<title>van_ban_giai_trinh&#45;&gt;can_bo</title>
<path fill="none" stroke="#5578a8" d="M757.22,-725.17C787.97,-725.17 819.91,-725.17 850.23,-725.17"/>
</g>
<!-- van_ban_giai_trinh&#45;&gt;can_bo -->
<g id="edge5" class="edge">
<title>van_ban_giai_trinh&#45;&gt;can_bo</title>
<path fill="none" stroke="#5578a8" d="M757.22,-757.58C787.97,-757.58 819.91,-757.58 850.23,-757.58"/>
</g>
<!-- van_ban_giai_trinh&#45;&gt;van_ban_giai_trinh -->
<g id="edge18" class="edge">
<title>van_ban_giai_trinh&#45;&gt;van_ban_giai_trinh</title>
<path fill="none" stroke="#5578a8" stroke-dasharray="5,2" d="M417.73,-901.25C394.81,-901.25 379,-901.25 379,-901.25 379,-901.25 379,-933 379,-933 379,-933 817,-933 817,-933 817,-933 817,-853.25 817,-853.25 817,-853.25 791.25,-853.25 757,-853.25"/>
</g>
<!-- van_ban_giai_trinh&#45;&gt;yeu_cau_giai_trinh -->
<g id="edge6" class="edge">
<title>van_ban_giai_trinh&#45;&gt;yeu_cau_giai_trinh</title>
<path fill="none" stroke="#5578a8" d="M757.16,-627.92C804.86,-627.92 844,-627.92 844,-627.92 844,-627.92 844,-566.18 844,-495.64"/>
</g>
<!-- yeu_cau_giai_trinh&#45;&gt;don_vi -->
<g id="edge2" class="edge">
<title>yeu_cau_giai_trinh&#45;&gt;don_vi</title>
<path fill="none" stroke="#5578a8" d="M1175.01,-234.75C1201.3,-234.75 1228.24,-234.75 1253.86,-234.75"/>
</g>
<!-- yeu_cau_giai_trinh&#45;&gt;don_vi -->
<g id="edge3" class="edge">
<title>yeu_cau_giai_trinh&#45;&gt;don_vi</title>
<path fill="none" stroke="#5578a8" d="M1175.01,-292C1201.3,-292 1228.24,-292 1253.86,-292"/>
</g>
</g>
</svg>
