<?xml version="1.0" encoding="UTF-8" standalone="no"?>
<!DOCTYPE svg PUBLIC "-//W3C//DTD SVG 1.1//EN"
 "http://www.w3.org/Graphics/SVG/1.1/DTD/svg11.dtd">
<!-- Generated by graphviz version 2.43.0 (0)
 -->
<!-- Title: G Pages: 1 -->
<svg width="1568pt" height="899pt"
 viewBox="0.00 0.00 1567.60 898.60" xmlns="http://www.w3.org/2000/svg" xmlns:xlink="http://www.w3.org/1999/xlink">
<g id="graph0" class="graph" transform="scale(1 1) rotate(0) translate(28.8 869.8)">
<title>G</title>
<polygon fill="white" stroke="transparent" points="-28.8,28.8 -28.8,-869.8 1538.8,-869.8 1538.8,28.8 -28.8,28.8"/>
<text text-anchor="middle" x="755" y="-821" font-family="Helvetica,sans-Serif" font-size="20.00">ERD CHI TIẾT — NHÓM: GIÁM SÁT, GIAO VIỆC &amp; BÁO CÁO</text>
<g id="clust1" class="cluster">
<title>cluster_main</title>
<polygon fill="#c6e0e0" fill-opacity="0.200000" stroke="#c6e0e0" points="8,-8 8,-803 975,-803 975,-8 8,-8"/>
</g>
<g id="clust2" class="cluster">
<title>cluster_ghost</title>
<polygon fill="white" stroke="#999999" stroke-dasharray="5,2" points="983,-73 983,-165 1502,-165 1502,-73 983,-73"/>
<text text-anchor="middle" x="1242.5" y="-152.2" font-family="Helvetica,sans-Serif" font-weight="bold" font-size="11.00">Bảng cha tham chiếu tới (ở nhóm khác)</text>
</g>
<!-- co_quan_giam_sat -->
<g id="node1" class="node">
<title>co_quan_giam_sat</title>
<polygon fill="#c6e0e0" stroke="transparent" points="234,-175 234,-197 433,-197 433,-175 234,-175"/>
<text text-anchor="start" x="279" y="-184.2" font-family="Consolas" font-weight="bold" font-size="11.00">co_quan_giam_sat</text>
<text text-anchor="start" x="239" y="-162.2" font-family="Consolas" font-weight="bold" font-size="11.00">id</text>
<text text-anchor="start" x="253" y="-162.2" font-family="Consolas" font-size="11.00"> </text>
<text text-anchor="start" x="260" y="-162.2" font-family="Consolas" font-size="11.00" fill="#b8860b">PK</text>
<text text-anchor="start" x="337" y="-161.5" font-family="Consolas" font-size="10.00" fill="#666666">BIGINT UNSIGNED</text>
<text text-anchor="start" x="239" y="-139.2" font-family="Consolas" font-size="11.00">ten_co_quan</text>
<text text-anchor="start" x="337" y="-139.5" font-family="Consolas" font-size="10.00" fill="#666666">VARCHAR(255)</text>
<text text-anchor="start" x="239" y="-117.2" font-family="Consolas" font-size="11.00">ma_co_quan</text>
<text text-anchor="start" x="337" y="-117.5" font-family="Consolas" font-size="10.00" fill="#666666">VARCHAR(30)</text>
<text text-anchor="start" x="239" y="-95.2" font-family="Consolas" font-size="11.00">dia_chi</text>
<text text-anchor="start" x="337" y="-95.5" font-family="Consolas" font-size="10.00" fill="#666666">VARCHAR(255)</text>
<text text-anchor="start" x="239" y="-73.2" font-family="Consolas" font-size="11.00">nguoi_lien_he</text>
<text text-anchor="start" x="337" y="-73.5" font-family="Consolas" font-size="10.00" fill="#666666">VARCHAR(150)</text>
<text text-anchor="start" x="239" y="-51.2" font-family="Consolas" font-size="11.00">email</text>
<text text-anchor="start" x="337" y="-51.5" font-family="Consolas" font-size="10.00" fill="#666666">VARCHAR(150)</text>
<text text-anchor="start" x="239" y="-29.2" font-family="Consolas" font-size="11.00">so_dien_thoai</text>
<text text-anchor="start" x="337" y="-29.5" font-family="Consolas" font-size="10.00" fill="#666666">VARCHAR(20)</text>
<polygon fill="none" stroke="black" points="232.5,-20 232.5,-198 433.5,-198 433.5,-20 232.5,-20"/>
</g>
<!-- cau_hinh_phan_quyen -->
<g id="node2" class="node">
<title>cau_hinh_phan_quyen</title>
<polygon fill="#c6e0e0" stroke="transparent" points="74,-509 74,-531 335,-531 335,-509 74,-509"/>
<text text-anchor="start" x="140" y="-518.2" font-family="Consolas" font-weight="bold" font-size="11.00">cau_hinh_phan_quyen</text>
<text text-anchor="start" x="79" y="-496.2" font-family="Consolas" font-weight="bold" font-size="11.00">id</text>
<text text-anchor="start" x="93" y="-496.2" font-family="Consolas" font-size="11.00"> </text>
<text text-anchor="start" x="100" y="-496.2" font-family="Consolas" font-size="11.00" fill="#b8860b">PK</text>
<text text-anchor="start" x="239" y="-495.5" font-family="Consolas" font-size="10.00" fill="#666666">BIGINT UNSIGNED</text>
<text text-anchor="start" x="79" y="-474.2" font-family="Consolas" font-size="11.00">co_quan_giam_sat_id </text>
<text text-anchor="start" x="215" y="-474.2" font-family="Consolas" font-size="11.00" fill="#1f6fb2">FK</text>
<text text-anchor="start" x="239" y="-473.5" font-family="Consolas" font-size="10.00" fill="#666666">BIGINT UNSIGNED</text>
<text text-anchor="start" x="79" y="-451.2" font-family="Consolas" font-size="11.00">pham_vi_du_lieu</text>
<text text-anchor="start" x="239" y="-451.5" font-family="Consolas" font-size="10.00" fill="#666666">TEXT</text>
<text text-anchor="start" x="79" y="-429.2" font-family="Consolas" font-size="11.00">muc_do_truy_cap</text>
<text text-anchor="start" x="239" y="-429.5" font-family="Consolas" font-size="10.00" fill="#666666">ENUM</text>
<text text-anchor="start" x="79" y="-407.2" font-family="Consolas" font-size="11.00">ngay_bat_dau</text>
<text text-anchor="start" x="239" y="-407.5" font-family="Consolas" font-size="10.00" fill="#666666">DATE</text>
<text text-anchor="start" x="79" y="-385.2" font-family="Consolas" font-size="11.00">ngay_ket_thuc</text>
<text text-anchor="start" x="239" y="-385.5" font-family="Consolas" font-size="10.00" fill="#666666">DATE</text>
<text text-anchor="start" x="79" y="-364.2" font-family="Consolas" font-size="11.00">nguoi_cau_hinh_id </text>
<text text-anchor="start" x="201" y="-364.2" font-family="Consolas" font-size="11.00" fill="#1f6fb2">FK</text>
<text text-anchor="start" x="239" y="-363.5" font-family="Consolas" font-size="10.00" fill="#666666">BIGINT UNSIGNED</text>
<text text-anchor="start" x="79" y="-342.2" font-family="Consolas" font-size="11.00">nguoi_duyet_id </text>
<text text-anchor="start" x="181" y="-342.2" font-family="Consolas" font-size="11.00" fill="#1f6fb2">FK</text>
<text text-anchor="start" x="239" y="-341.5" font-family="Consolas" font-size="10.00" fill="#666666">BIGINT UNSIGNED</text>
<text text-anchor="start" x="79" y="-319.2" font-family="Consolas" font-size="11.00">trang_thai</text>
<text text-anchor="start" x="239" y="-319.5" font-family="Consolas" font-size="10.00" fill="#666666">ENUM</text>
<text text-anchor="start" x="79" y="-297.2" font-family="Consolas" font-size="11.00">ngay_duyet</text>
<text text-anchor="start" x="239" y="-297.5" font-family="Consolas" font-size="10.00" fill="#666666">DATETIME</text>
<polygon fill="none" stroke="black" points="72.5,-288 72.5,-532 335.5,-532 335.5,-288 72.5,-288"/>
</g>
<!-- cau_hinh_phan_quyen&#45;&gt;co_quan_giam_sat -->
<g id="edge1" class="edge">
<title>cau_hinh_phan_quyen:e&#45;&gt;co_quan_giam_sat:w</title>
<path fill="none" stroke="#31859c" stroke-width="1.3" d="M234,-475C369.25,-475 106.51,-177.22 224.66,-164.42"/>
<polygon fill="#31859c" stroke="#31859c" stroke-width="1.3" points="225.01,-164.41 233.18,-167.6 229.01,-164.2 233,-164 233,-164 233,-164 229.01,-164.2 232.82,-160.4 225.01,-164.41 225.01,-164.41"/>
</g>
<!-- can_bo -->
<g id="node9" class="node">
<title>can_bo</title>
<polygon fill="#dce6f1" fill-opacity="0.400000" stroke="transparent" points="1176,-108 1176,-132 1283,-132 1283,-108 1176,-108"/>
<text text-anchor="start" x="1195.5" y="-118.2" font-family="Consolas" font-weight="bold" font-size="11.00">can_bo</text>
<text text-anchor="start" x="1182" y="-94.8" font-family="Consolas" font-size="9.00" fill="#777777">(bảng ở nhóm khác)</text>
<polygon fill="none" stroke="black" points="1174.5,-85 1174.5,-133 1283.5,-133 1283.5,-85 1174.5,-85"/>
</g>
<!-- cau_hinh_phan_quyen&#45;&gt;can_bo -->
<g id="edge2" class="edge">
<title>cau_hinh_phan_quyen:e&#45;&gt;can_bo</title>
<path fill="none" stroke="#31859c" stroke-width="1.3" d="M234,-365C303.97,-365 303.28,-308.01 369,-284 489.52,-239.98 526.57,-252.96 654,-238 762,-225.32 1043.78,-248.66 1142,-202 1168.7,-189.32 1191.35,-164.58 1206.84,-143.95"/>
<polygon fill="#31859c" stroke="#31859c" stroke-width="1.3" points="1206.89,-143.87 1214.52,-139.54 1209.25,-140.65 1211.61,-137.42 1211.61,-137.42 1211.61,-137.42 1209.25,-140.65 1208.71,-135.29 1206.89,-143.87 1206.89,-143.87"/>
<text text-anchor="middle" x="696.5" y="-240.8" font-family="Helvetica,sans-Serif" font-size="9.00" fill="#31859c">nguoi_cau_hinh_id</text>
</g>
<!-- cau_hinh_phan_quyen&#45;&gt;can_bo -->
<g id="edge3" class="edge">
<title>cau_hinh_phan_quyen:e&#45;&gt;can_bo</title>
<path fill="none" stroke="#31859c" stroke-width="1.3" d="M234,-343C341.14,-343 347.23,-264.65 451,-238 599.93,-199.76 1002.41,-266.48 1142,-202 1169.01,-189.52 1191.78,-164.52 1207.24,-143.73"/>
<polygon fill="#31859c" stroke="#31859c" stroke-width="1.3" points="1207.31,-143.63 1214.92,-139.26 1209.66,-140.39 1212,-137.15 1212,-137.15 1212,-137.15 1209.66,-140.39 1209.08,-135.04 1207.31,-143.63 1207.31,-143.63"/>
<text text-anchor="middle" x="486" y="-240.8" font-family="Helvetica,sans-Serif" font-size="9.00" fill="#31859c">nguoi_duyet_id</text>
</g>
<!-- nhat_ky_giam_sat -->
<g id="node3" class="node">
<title>nhat_ky_giam_sat</title>
<polygon fill="#c6e0e0" stroke="transparent" points="26,-757 26,-779 307,-779 307,-757 26,-757"/>
<text text-anchor="start" x="112" y="-766.2" font-family="Consolas" font-weight="bold" font-size="11.00">nhat_ky_giam_sat</text>
<text text-anchor="start" x="31" y="-744.2" font-family="Consolas" font-weight="bold" font-size="11.00">id</text>
<text text-anchor="start" x="45" y="-744.2" font-family="Consolas" font-size="11.00"> </text>
<text text-anchor="start" x="52" y="-744.2" font-family="Consolas" font-size="11.00" fill="#b8860b">PK</text>
<text text-anchor="start" x="211" y="-743.5" font-family="Consolas" font-size="10.00" fill="#666666">BIGINT UNSIGNED</text>
<text text-anchor="start" x="31" y="-722.2" font-family="Consolas" font-size="11.00">cau_hinh_phan_quyen_id </text>
<text text-anchor="start" x="187" y="-722.2" font-family="Consolas" font-size="11.00" fill="#1f6fb2">FK</text>
<text text-anchor="start" x="211" y="-721.5" font-family="Consolas" font-size="10.00" fill="#666666">BIGINT UNSIGNED</text>
<text text-anchor="start" x="31" y="-699.2" font-family="Consolas" font-size="11.00">nguoi_truy_cap</text>
<text text-anchor="start" x="211" y="-699.5" font-family="Consolas" font-size="10.00" fill="#666666">VARCHAR(150)</text>
<text text-anchor="start" x="31" y="-677.2" font-family="Consolas" font-size="11.00">thoi_gian_truy_cap</text>
<text text-anchor="start" x="211" y="-677.5" font-family="Consolas" font-size="10.00" fill="#666666">DATETIME</text>
<text text-anchor="start" x="31" y="-655.2" font-family="Consolas" font-size="11.00">thao_tac</text>
<text text-anchor="start" x="211" y="-655.5" font-family="Consolas" font-size="10.00" fill="#666666">VARCHAR(255)</text>
<text text-anchor="start" x="31" y="-633.2" font-family="Consolas" font-size="11.00">du_lieu_truy_cap</text>
<text text-anchor="start" x="211" y="-633.5" font-family="Consolas" font-size="10.00" fill="#666666">TEXT</text>
<polygon fill="none" stroke="black" points="24.5,-624 24.5,-780 307.5,-780 307.5,-624 24.5,-624"/>
</g>
<!-- nhat_ky_giam_sat&#45;&gt;cau_hinh_phan_quyen -->
<g id="edge4" class="edge">
<title>nhat_ky_giam_sat:e&#45;&gt;cau_hinh_phan_quyen:w</title>
<path fill="none" stroke="#31859c" stroke-width="1.3" d="M206,-723C319.1,-723 -24.23,-509.71 64.8,-498.46"/>
<polygon fill="#31859c" stroke="#31859c" stroke-width="1.3" points="65.01,-498.45 73.2,-501.59 69.01,-498.22 73,-498 73,-498 73,-498 69.01,-498.22 72.8,-494.41 65.01,-498.45 65.01,-498.45"/>
</g>
<!-- phieu_giao_viec -->
<g id="node4" class="node">
<title>phieu_giao_viec</title>
<polygon fill="#c6e0e0" stroke="transparent" points="684,-487 684,-509 958,-509 958,-487 684,-487"/>
<text text-anchor="start" x="770" y="-496.2" font-family="Consolas" font-weight="bold" font-size="11.00">phieu_giao_viec</text>
<text text-anchor="start" x="689" y="-474.2" font-family="Consolas" font-weight="bold" font-size="11.00">id</text>
<text text-anchor="start" x="703" y="-474.2" font-family="Consolas" font-size="11.00"> </text>
<text text-anchor="start" x="710" y="-474.2" font-family="Consolas" font-size="11.00" fill="#b8860b">PK</text>
<text text-anchor="start" x="862" y="-473.5" font-family="Consolas" font-size="10.00" fill="#666666">BIGINT UNSIGNED</text>
<text text-anchor="start" x="689" y="-452.2" font-family="Consolas" font-size="11.00">yeu_cau_giai_trinh_id </text>
<text text-anchor="start" x="838" y="-452.2" font-family="Consolas" font-size="11.00" fill="#1f6fb2">FK</text>
<text text-anchor="start" x="862" y="-451.5" font-family="Consolas" font-size="10.00" fill="#666666">BIGINT UNSIGNED</text>
<text text-anchor="start" x="689" y="-430.2" font-family="Consolas" font-size="11.00">nguoi_giao_id </text>
<text text-anchor="start" x="784" y="-430.2" font-family="Consolas" font-size="11.00" fill="#1f6fb2">FK</text>
<text text-anchor="start" x="862" y="-429.5" font-family="Consolas" font-size="10.00" fill="#666666">BIGINT UNSIGNED</text>
<text text-anchor="start" x="689" y="-408.2" font-family="Consolas" font-size="11.00">nguoi_nhan_id </text>
<text text-anchor="start" x="784" y="-408.2" font-family="Consolas" font-size="11.00" fill="#1f6fb2">FK</text>
<text text-anchor="start" x="862" y="-407.5" font-family="Consolas" font-size="10.00" fill="#666666">BIGINT UNSIGNED</text>
<text text-anchor="start" x="689" y="-385.2" font-family="Consolas" font-size="11.00">noi_dung</text>
<text text-anchor="start" x="862" y="-385.5" font-family="Consolas" font-size="10.00" fill="#666666">TEXT</text>
<text text-anchor="start" x="689" y="-363.2" font-family="Consolas" font-size="11.00">ngay_giao</text>
<text text-anchor="start" x="862" y="-363.5" font-family="Consolas" font-size="10.00" fill="#666666">DATETIME</text>
<text text-anchor="start" x="689" y="-341.2" font-family="Consolas" font-size="11.00">han_hoan_thanh</text>
<text text-anchor="start" x="862" y="-341.5" font-family="Consolas" font-size="10.00" fill="#666666">DATE</text>
<text text-anchor="start" x="689" y="-319.2" font-family="Consolas" font-size="11.00">trang_thai</text>
<text text-anchor="start" x="862" y="-319.5" font-family="Consolas" font-size="10.00" fill="#666666">ENUM</text>
<polygon fill="none" stroke="black" points="683,-310 683,-510 959,-510 959,-310 683,-310"/>
</g>
<!-- phieu_giao_viec&#45;&gt;can_bo -->
<g id="edge6" class="edge">
<title>phieu_giao_viec:e&#45;&gt;can_bo</title>
<path fill="none" stroke="#31859c" stroke-width="1.3" d="M857,-431C962.71,-431 908.41,-297.18 996,-238 1051.38,-200.58 1084.25,-235.64 1142,-202 1166.92,-187.48 1189.14,-163.69 1204.89,-143.94"/>
<polygon fill="#31859c" stroke="#31859c" stroke-width="1.3" points="1205.06,-143.72 1212.81,-139.63 1207.52,-140.57 1209.98,-137.41 1209.98,-137.41 1209.98,-137.41 1207.52,-140.57 1207.14,-135.2 1205.06,-143.72 1205.06,-143.72"/>
<text text-anchor="middle" x="1027" y="-240.8" font-family="Helvetica,sans-Serif" font-size="9.00" fill="#31859c">nguoi_giao_id</text>
</g>
<!-- phieu_giao_viec&#45;&gt;can_bo -->
<g id="edge7" class="edge">
<title>phieu_giao_viec:e&#45;&gt;can_bo</title>
<path fill="none" stroke="#31859c" stroke-width="1.3" d="M857,-409C936.18,-409 847.43,-290.16 907,-238 986.5,-168.39 1048.41,-251.04 1142,-202 1168,-188.37 1190.55,-163.93 1206.17,-143.66"/>
<polygon fill="#31859c" stroke="#31859c" stroke-width="1.3" points="1206.19,-143.64 1213.88,-139.41 1208.6,-140.44 1211,-137.24 1211,-137.24 1211,-137.24 1208.6,-140.44 1208.12,-135.08 1206.19,-143.64 1206.19,-143.64"/>
<text text-anchor="middle" x="940.5" y="-240.8" font-family="Helvetica,sans-Serif" font-size="9.00" fill="#31859c">nguoi_nhan_id</text>
</g>
<!-- yeu_cau_giai_trinh -->
<g id="node10" class="node">
<title>yeu_cau_giai_trinh</title>
<polygon fill="#fbe5d6" fill-opacity="0.400000" stroke="transparent" points="1351,-108 1351,-132 1485,-132 1485,-108 1351,-108"/>
<text text-anchor="start" x="1357" y="-118.2" font-family="Consolas" font-weight="bold" font-size="11.00">yeu_cau_giai_trinh</text>
<text text-anchor="start" x="1370.5" y="-94.8" font-family="Consolas" font-size="9.00" fill="#777777">(bảng ở nhóm khác)</text>
<polygon fill="none" stroke="black" points="1350,-85 1350,-133 1486,-133 1486,-85 1350,-85"/>
</g>
<!-- phieu_giao_viec&#45;&gt;yeu_cau_giai_trinh -->
<g id="edge5" class="edge">
<title>phieu_giao_viec:e&#45;&gt;yeu_cau_giai_trinh</title>
<path fill="none" stroke="#31859c" stroke-width="1.3" d="M857,-453C1092.83,-453 1313.36,-229.65 1389.72,-143.41"/>
<polygon fill="#31859c" stroke="#31859c" stroke-width="1.3" points="1389.9,-143.21 1397.88,-139.58 1392.54,-140.21 1395.18,-137.2 1395.18,-137.2 1395.18,-137.2 1392.54,-140.21 1392.47,-134.82 1389.9,-143.21 1389.9,-143.21"/>
</g>
<!-- bao_cao_nhiem_vu -->
<g id="node5" class="node">
<title>bao_cao_nhiem_vu</title>
<polygon fill="#c6e0e0" stroke="transparent" points="704,-768 704,-790 958,-790 958,-768 704,-768"/>
<text text-anchor="start" x="776.5" y="-777.2" font-family="Consolas" font-weight="bold" font-size="11.00">bao_cao_nhiem_vu</text>
<text text-anchor="start" x="709" y="-755.2" font-family="Consolas" font-weight="bold" font-size="11.00">id</text>
<text text-anchor="start" x="723" y="-755.2" font-family="Consolas" font-size="11.00"> </text>
<text text-anchor="start" x="730" y="-755.2" font-family="Consolas" font-size="11.00" fill="#b8860b">PK</text>
<text text-anchor="start" x="862" y="-754.5" font-family="Consolas" font-size="10.00" fill="#666666">BIGINT UNSIGNED</text>
<text text-anchor="start" x="709" y="-733.2" font-family="Consolas" font-size="11.00">phieu_giao_viec_id </text>
<text text-anchor="start" x="838" y="-733.2" font-family="Consolas" font-size="11.00" fill="#1f6fb2">FK</text>
<text text-anchor="start" x="862" y="-732.5" font-family="Consolas" font-size="10.00" fill="#666666">BIGINT UNSIGNED</text>
<text text-anchor="start" x="709" y="-710.2" font-family="Consolas" font-size="11.00">noi_dung</text>
<text text-anchor="start" x="862" y="-710.5" font-family="Consolas" font-size="10.00" fill="#666666">TEXT</text>
<text text-anchor="start" x="709" y="-688.2" font-family="Consolas" font-size="11.00">ngay_bao_cao</text>
<text text-anchor="start" x="862" y="-688.5" font-family="Consolas" font-size="10.00" fill="#666666">DATETIME</text>
<text text-anchor="start" x="709" y="-667.2" font-family="Consolas" font-size="11.00">nguoi_duyet_id </text>
<text text-anchor="start" x="811" y="-667.2" font-family="Consolas" font-size="11.00" fill="#1f6fb2">FK</text>
<text text-anchor="start" x="862" y="-666.5" font-family="Consolas" font-size="10.00" fill="#666666">BIGINT UNSIGNED</text>
<text text-anchor="start" x="709" y="-644.2" font-family="Consolas" font-size="11.00">ket_qua_danh_gia</text>
<text text-anchor="start" x="862" y="-644.5" font-family="Consolas" font-size="10.00" fill="#666666">VARCHAR(100)</text>
<text text-anchor="start" x="709" y="-622.2" font-family="Consolas" font-size="11.00">ngay_duyet</text>
<text text-anchor="start" x="862" y="-622.5" font-family="Consolas" font-size="10.00" fill="#666666">DATETIME</text>
<polygon fill="none" stroke="black" points="703,-613 703,-791 959,-791 959,-613 703,-613"/>
</g>
<!-- bao_cao_nhiem_vu&#45;&gt;phieu_giao_viec -->
<g id="edge8" class="edge">
<title>bao_cao_nhiem_vu:e&#45;&gt;phieu_giao_viec:w</title>
<path fill="none" stroke="#31859c" stroke-width="1.3" d="M857,-734C992.34,-734 563.78,-486.97 674.89,-476.35"/>
<polygon fill="#31859c" stroke="#31859c" stroke-width="1.3" points="675.01,-476.35 683.16,-479.6 679,-476.17 683,-476 683,-476 683,-476 679,-476.17 682.84,-472.4 675.01,-476.35 675.01,-476.35"/>
</g>
<!-- bao_cao_nhiem_vu&#45;&gt;can_bo -->
<g id="edge9" class="edge">
<title>bao_cao_nhiem_vu:e&#45;&gt;can_bo</title>
<path fill="none" stroke="#31859c" stroke-width="1.3" d="M857,-668C987.15,-668 1048.04,-670.73 1134,-573 1244.01,-447.93 1239.29,-230.1 1232.62,-145.25"/>
<polygon fill="#31859c" stroke="#31859c" stroke-width="1.3" points="1232.61,-145.19 1235.54,-136.92 1232.28,-141.21 1231.95,-137.22 1231.95,-137.22 1231.95,-137.22 1232.28,-141.21 1228.36,-137.52 1232.61,-145.19 1232.61,-145.19"/>
</g>
<!-- bao_cao_thong_ke -->
<g id="node6" class="node">
<title>bao_cao_thong_ke</title>
<polygon fill="#c6e0e0" stroke="transparent" points="403,-487 403,-509 616,-509 616,-487 403,-487"/>
<text text-anchor="start" x="455" y="-496.2" font-family="Consolas" font-weight="bold" font-size="11.00">bao_cao_thong_ke</text>
<text text-anchor="start" x="408" y="-474.2" font-family="Consolas" font-weight="bold" font-size="11.00">id</text>
<text text-anchor="start" x="422" y="-474.2" font-family="Consolas" font-size="11.00"> </text>
<text text-anchor="start" x="429" y="-474.2" font-family="Consolas" font-size="11.00" fill="#b8860b">PK</text>
<text text-anchor="start" x="520" y="-473.5" font-family="Consolas" font-size="10.00" fill="#666666">BIGINT UNSIGNED</text>
<text text-anchor="start" x="408" y="-452.2" font-family="Consolas" font-size="11.00">nguoi_tao_id </text>
<text text-anchor="start" x="496" y="-452.2" font-family="Consolas" font-size="11.00" fill="#1f6fb2">FK</text>
<text text-anchor="start" x="520" y="-451.5" font-family="Consolas" font-size="10.00" fill="#666666">BIGINT UNSIGNED</text>
<text text-anchor="start" x="408" y="-429.2" font-family="Consolas" font-size="11.00">ky_bao_cao</text>
<text text-anchor="start" x="520" y="-429.5" font-family="Consolas" font-size="10.00" fill="#666666">VARCHAR(50)</text>
<text text-anchor="start" x="408" y="-408.2" font-family="Consolas" font-size="11.00">don_vi_id </text>
<text text-anchor="start" x="476" y="-408.2" font-family="Consolas" font-size="11.00" fill="#1f6fb2">FK</text>
<text text-anchor="start" x="520" y="-407.5" font-family="Consolas" font-size="10.00" fill="#666666">BIGINT UNSIGNED</text>
<text text-anchor="start" x="408" y="-385.2" font-family="Consolas" font-size="11.00">tieu_chi</text>
<text text-anchor="start" x="520" y="-385.5" font-family="Consolas" font-size="10.00" fill="#666666">TEXT</text>
<text text-anchor="start" x="408" y="-363.2" font-family="Consolas" font-size="11.00">dinh_dang_xuat</text>
<text text-anchor="start" x="520" y="-363.5" font-family="Consolas" font-size="10.00" fill="#666666">ENUM</text>
<text text-anchor="start" x="408" y="-341.2" font-family="Consolas" font-size="11.00">ngay_tao</text>
<text text-anchor="start" x="520" y="-341.5" font-family="Consolas" font-size="10.00" fill="#666666">DATETIME</text>
<text text-anchor="start" x="408" y="-319.2" font-family="Consolas" font-size="11.00">duong_dan_file</text>
<text text-anchor="start" x="520" y="-319.5" font-family="Consolas" font-size="10.00" fill="#666666">VARCHAR(255)</text>
<polygon fill="none" stroke="black" points="401.5,-310 401.5,-510 616.5,-510 616.5,-310 401.5,-310"/>
</g>
<!-- don_vi -->
<g id="node8" class="node">
<title>don_vi</title>
<polygon fill="#dce6f1" fill-opacity="0.400000" stroke="transparent" points="1001,-108 1001,-132 1108,-132 1108,-108 1001,-108"/>
<text text-anchor="start" x="1034" y="-118.2" font-family="Consolas" font-weight="bold" font-size="11.00">don_vi</text>
<text text-anchor="start" x="1007" y="-94.8" font-family="Consolas" font-size="9.00" fill="#777777">(bảng ở nhóm khác)</text>
<polygon fill="none" stroke="black" points="999.5,-85 999.5,-133 1108.5,-133 1108.5,-85 999.5,-85"/>
</g>
<!-- bao_cao_thong_ke&#45;&gt;don_vi -->
<g id="edge11" class="edge">
<title>bao_cao_thong_ke:e&#45;&gt;don_vi</title>
<path fill="none" stroke="#31859c" stroke-width="1.3" d="M515,-409C592.95,-409 495.13,-289.09 554,-238 626.92,-174.72 902.83,-249.32 987,-202 1009.86,-189.15 1027.02,-164.9 1038.25,-144.52"/>
<polygon fill="#31859c" stroke="#31859c" stroke-width="1.3" points="1038.38,-144.29 1045.3,-138.9 1040.25,-140.75 1042.12,-137.22 1042.12,-137.22 1042.12,-137.22 1040.25,-140.75 1038.94,-135.53 1038.38,-144.29 1038.38,-144.29"/>
</g>
<!-- bao_cao_thong_ke&#45;&gt;can_bo -->
<g id="edge10" class="edge">
<title>bao_cao_thong_ke:e&#45;&gt;can_bo</title>
<path fill="none" stroke="#31859c" stroke-width="1.3" d="M515,-453C611.13,-453 567.74,-333.74 650,-284 742.19,-228.25 781.74,-255.79 888,-238 1000.45,-219.18 1040.71,-254.35 1142,-202 1168.08,-188.52 1190.63,-164.07 1206.23,-143.76"/>
<polygon fill="#31859c" stroke="#31859c" stroke-width="1.3" points="1206.25,-143.73 1213.93,-139.49 1208.65,-140.53 1211.04,-137.33 1211.04,-137.33 1211.04,-137.33 1208.65,-140.53 1208.16,-135.17 1206.25,-143.73 1206.25,-143.73"/>
</g>
<!-- lich_su_xuat_bao_cao -->
<g id="node7" class="node">
<title>lich_su_xuat_bao_cao</title>
<polygon fill="#c6e0e0" stroke="transparent" points="375,-735 375,-757 636,-757 636,-735 375,-735"/>
<text text-anchor="start" x="437.5" y="-744.2" font-family="Consolas" font-weight="bold" font-size="11.00">lich_su_xuat_bao_cao</text>
<text text-anchor="start" x="380" y="-722.2" font-family="Consolas" font-weight="bold" font-size="11.00">id</text>
<text text-anchor="start" x="394" y="-722.2" font-family="Consolas" font-size="11.00"> </text>
<text text-anchor="start" x="401" y="-722.2" font-family="Consolas" font-size="11.00" fill="#b8860b">PK</text>
<text text-anchor="start" x="540" y="-721.5" font-family="Consolas" font-size="10.00" fill="#666666">BIGINT UNSIGNED</text>
<text text-anchor="start" x="380" y="-700.2" font-family="Consolas" font-size="11.00">bao_cao_thong_ke_id </text>
<text text-anchor="start" x="516" y="-700.2" font-family="Consolas" font-size="11.00" fill="#1f6fb2">FK</text>
<text text-anchor="start" x="540" y="-699.5" font-family="Consolas" font-size="10.00" fill="#666666">BIGINT UNSIGNED</text>
<text text-anchor="start" x="380" y="-678.2" font-family="Consolas" font-size="11.00">nguoi_xuat_id </text>
<text text-anchor="start" x="475" y="-678.2" font-family="Consolas" font-size="11.00" fill="#1f6fb2">FK</text>
<text text-anchor="start" x="540" y="-677.5" font-family="Consolas" font-size="10.00" fill="#666666">BIGINT UNSIGNED</text>
<text text-anchor="start" x="380" y="-655.2" font-family="Consolas" font-size="11.00">ngay_xuat</text>
<text text-anchor="start" x="540" y="-655.5" font-family="Consolas" font-size="10.00" fill="#666666">DATETIME</text>
<polygon fill="none" stroke="black" points="373.5,-646 373.5,-758 636.5,-758 636.5,-646 373.5,-646"/>
</g>
<!-- lich_su_xuat_bao_cao&#45;&gt;bao_cao_thong_ke -->
<g id="edge12" class="edge">
<title>lich_su_xuat_bao_cao:e&#45;&gt;bao_cao_thong_ke:w</title>
<path fill="none" stroke="#31859c" stroke-width="1.3" d="M535,-701C648.1,-701 304.77,-487.71 393.8,-476.46"/>
<polygon fill="#31859c" stroke="#31859c" stroke-width="1.3" points="394.01,-476.45 402.2,-479.59 398.01,-476.22 402,-476 402,-476 402,-476 398.01,-476.22 401.8,-472.41 394.01,-476.45 394.01,-476.45"/>
</g>
<!-- lich_su_xuat_bao_cao&#45;&gt;can_bo -->
<g id="edge13" class="edge">
<title>lich_su_xuat_bao_cao:e&#45;&gt;can_bo</title>
<path fill="none" stroke="#31859c" stroke-width="1.3" d="M535,-679C602.59,-679 606.53,-632.22 670,-609 807.81,-558.59 874.56,-623.99 992,-536 1062.24,-483.37 1174.24,-236.37 1214.22,-144.52"/>
<polygon fill="#31859c" stroke="#31859c" stroke-width="1.3" points="1214.24,-144.48 1220.72,-138.58 1215.83,-140.81 1217.42,-137.14 1217.42,-137.14 1217.42,-137.14 1215.83,-140.81 1214.12,-135.71 1214.24,-144.48 1214.24,-144.48"/>
</g>
</g>
</svg>
