<?xml version="1.0" encoding="UTF-8" standalone="no"?>
<!DOCTYPE svg PUBLIC "-//W3C//DTD SVG 1.1//EN"
 "http://www.w3.org/Graphics/SVG/1.1/DTD/svg11.dtd">
<!-- Generated by graphviz version 2.43.0 (0)
 -->
<!-- Title: G Pages: 1 -->
<svg width="994pt" height="670pt"
 viewBox="0.00 0.00 993.85 669.60" xmlns="http://www.w3.org/2000/svg" xmlns:xlink="http://www.w3.org/1999/xlink">
<g id="graph0" class="graph" transform="scale(1 1) rotate(0) translate(28.8 640.8)">
<title>G</title>
<polygon fill="white" stroke="transparent" points="-28.8,28.8 -28.8,-640.8 965.05,-640.8 965.05,28.8 -28.8,28.8"/>
<text text-anchor="middle" x="468.13" y="-592" font-family="Helvetica,sans-Serif" font-size="20.00">ERD CHI TIẾT — NHÓM: PHẢN HỒI &amp; KHIẾU NẠI</text>
<g id="clust1" class="cluster">
<title>cluster_main</title>
<polygon fill="#d9d2e9" fill-opacity="0.200000" stroke="#d9d2e9" points="8,-136 8,-574 880,-574 880,-136 8,-136"/>
</g>
<g id="clust2" class="cluster">
<title>cluster_ghost</title>
<polygon fill="white" stroke="#999999" stroke-dasharray="5,2" points="132,-8 132,-100 854,-100 854,-8 132,-8"/>
<text text-anchor="middle" x="493" y="-87.2" font-family="Helvetica,sans-Serif" font-weight="bold" font-size="11.00">Bảng cha tham chiếu tới (ở nhóm khác)</text>
</g>
<!-- phan_hoi_van_ban -->
<g id="node1" class="node">
<title>phan_hoi_van_ban</title>
<polygon fill="#d9d2e9" stroke="transparent" points="61,-303 61,-325 335,-325 335,-303 61,-303"/>
<text text-anchor="start" x="143.5" y="-312.2" font-family="Consolas" font-weight="bold" font-size="11.00">phan_hoi_van_ban</text>
<text text-anchor="start" x="66" y="-290.2" font-family="Consolas" font-weight="bold" font-size="11.00">id</text>
<text text-anchor="start" x="80" y="-290.2" font-family="Consolas" font-size="11.00"> </text>
<text text-anchor="start" x="87" y="-290.2" font-family="Consolas" font-size="11.00" fill="#b8860b">PK</text>
<text text-anchor="start" x="239" y="-289.5" font-family="Consolas" font-size="10.00" fill="#666666">BIGINT UNSIGNED</text>
<text text-anchor="start" x="66" y="-268.2" font-family="Consolas" font-size="11.00">van_ban_giai_trinh_id </text>
<text text-anchor="start" x="215" y="-268.2" font-family="Consolas" font-size="11.00" fill="#1f6fb2">FK</text>
<text text-anchor="start" x="239" y="-267.5" font-family="Consolas" font-size="10.00" fill="#666666">BIGINT UNSIGNED</text>
<text text-anchor="start" x="66" y="-246.2" font-family="Consolas" font-size="11.00">nguoi_gui_id </text>
<text text-anchor="start" x="154" y="-246.2" font-family="Consolas" font-size="11.00" fill="#1f6fb2">FK</text>
<text text-anchor="start" x="239" y="-245.5" font-family="Consolas" font-size="10.00" fill="#666666">BIGINT UNSIGNED</text>
<text text-anchor="start" x="66" y="-223.2" font-family="Consolas" font-size="11.00">hinh_thuc_gui</text>
<text text-anchor="start" x="239" y="-223.5" font-family="Consolas" font-size="10.00" fill="#666666">ENUM</text>
<text text-anchor="start" x="66" y="-201.2" font-family="Consolas" font-size="11.00">noi_dung</text>
<text text-anchor="start" x="239" y="-201.5" font-family="Consolas" font-size="10.00" fill="#666666">TEXT</text>
<text text-anchor="start" x="66" y="-179.2" font-family="Consolas" font-size="11.00">ngay_gui</text>
<text text-anchor="start" x="239" y="-179.5" font-family="Consolas" font-size="10.00" fill="#666666">DATETIME</text>
<text text-anchor="start" x="66" y="-157.2" font-family="Consolas" font-size="11.00">trang_thai</text>
<text text-anchor="start" x="239" y="-157.5" font-family="Consolas" font-size="10.00" fill="#666666">ENUM</text>
<polygon fill="none" stroke="black" points="60,-148 60,-326 336,-326 336,-148 60,-148"/>
</g>
<!-- nguoi_yeu_cau -->
<g id="node7" class="node">
<title>nguoi_yeu_cau</title>
<polygon fill="#fbe5d6" fill-opacity="0.400000" stroke="transparent" points="352,-43 352,-67 459,-67 459,-43 352,-43"/>
<text text-anchor="start" x="361.5" y="-53.2" font-family="Consolas" font-weight="bold" font-size="11.00">nguoi_yeu_cau</text>
<text text-anchor="start" x="358" y="-29.8" font-family="Consolas" font-size="9.00" fill="#777777">(bảng ở nhóm khác)</text>
<polygon fill="none" stroke="black" points="350.5,-20 350.5,-68 459.5,-68 459.5,-20 350.5,-20"/>
</g>
<!-- phan_hoi_van_ban&#45;&gt;nguoi_yeu_cau -->
<g id="edge2" class="edge">
<title>phan_hoi_van_ban:e&#45;&gt;nguoi_yeu_cau</title>
<path fill="none" stroke="#7030a0" stroke-width="1.3" d="M234,-247C320.45,-247 372.19,-137.89 393.55,-80.05"/>
<polygon fill="#7030a0" stroke="#7030a0" stroke-width="1.3" points="393.65,-79.77 399.75,-73.46 395.01,-76.01 396.36,-72.24 396.36,-72.24 396.36,-72.24 395.01,-76.01 392.98,-71.02 393.65,-79.77 393.65,-79.77"/>
</g>
<!-- van_ban_giai_trinh -->
<g id="node8" class="node">
<title>van_ban_giai_trinh</title>
<polygon fill="#d8e4bc" fill-opacity="0.400000" stroke="transparent" points="149,-43 149,-67 283,-67 283,-43 149,-43"/>
<text text-anchor="start" x="155" y="-53.2" font-family="Consolas" font-weight="bold" font-size="11.00">van_ban_giai_trinh</text>
<text text-anchor="start" x="168.5" y="-29.8" font-family="Consolas" font-size="9.00" fill="#777777">(bảng ở nhóm khác)</text>
<polygon fill="none" stroke="black" points="148,-20 148,-68 284,-68 284,-20 148,-20"/>
</g>
<!-- phan_hoi_van_ban&#45;&gt;van_ban_giai_trinh -->
<g id="edge1" class="edge">
<title>phan_hoi_van_ban:e&#45;&gt;van_ban_giai_trinh</title>
<path fill="none" stroke="#7030a0" stroke-width="1.3" d="M234,-269C309.17,-269 261,-142.12 232.56,-79.34"/>
<polygon fill="#7030a0" stroke="#7030a0" stroke-width="1.3" points="232.54,-79.29 232.47,-70.52 230.87,-75.66 229.2,-72.02 229.2,-72.02 229.2,-72.02 230.87,-75.66 225.93,-73.52 232.54,-79.29 232.54,-79.29"/>
</g>
<!-- quyet_dinh_thu_ly_phan_hoi -->
<g id="node2" class="node">
<title>quyet_dinh_thu_ly_phan_hoi</title>
<polygon fill="#d9d2e9" stroke="transparent" points="26,-539 26,-561 233,-561 233,-539 26,-539"/>
<text text-anchor="start" x="41.5" y="-548.2" font-family="Consolas" font-weight="bold" font-size="11.00">quyet_dinh_thu_ly_phan_hoi</text>
<text text-anchor="start" x="31" y="-526.2" font-family="Consolas" font-weight="bold" font-size="11.00">id</text>
<text text-anchor="start" x="45" y="-526.2" font-family="Consolas" font-size="11.00"> </text>
<text text-anchor="start" x="52" y="-526.2" font-family="Consolas" font-size="11.00" fill="#b8860b">PK</text>
<text text-anchor="start" x="137" y="-525.5" font-family="Consolas" font-size="10.00" fill="#666666">BIGINT UNSIGNED</text>
<text text-anchor="start" x="31" y="-504.2" font-family="Consolas" font-size="11.00">phan_hoi_id </text>
<text text-anchor="start" x="113" y="-504.2" font-family="Consolas" font-size="11.00" fill="#1f6fb2">FK</text>
<text text-anchor="start" x="137" y="-503.5" font-family="Consolas" font-size="10.00" fill="#666666">BIGINT UNSIGNED</text>
<text text-anchor="start" x="31" y="-482.2" font-family="Consolas" font-size="11.00">nguoi_ky_id </text>
<text text-anchor="start" x="113" y="-482.2" font-family="Consolas" font-size="11.00" fill="#1f6fb2">FK</text>
<text text-anchor="start" x="137" y="-481.5" font-family="Consolas" font-size="10.00" fill="#666666">BIGINT UNSIGNED</text>
<text text-anchor="start" x="31" y="-459.2" font-family="Consolas" font-size="11.00">so_quyet_dinh</text>
<text text-anchor="start" x="137" y="-459.5" font-family="Consolas" font-size="10.00" fill="#666666">VARCHAR(50)</text>
<text text-anchor="start" x="31" y="-437.2" font-family="Consolas" font-size="11.00">ngay_ky</text>
<text text-anchor="start" x="137" y="-437.5" font-family="Consolas" font-size="10.00" fill="#666666">DATETIME</text>
<text text-anchor="start" x="31" y="-415.2" font-family="Consolas" font-size="11.00">ket_qua</text>
<text text-anchor="start" x="137" y="-415.5" font-family="Consolas" font-size="10.00" fill="#666666">ENUM</text>
<polygon fill="none" stroke="black" points="24.5,-406 24.5,-562 233.5,-562 233.5,-406 24.5,-406"/>
</g>
<!-- quyet_dinh_thu_ly_phan_hoi&#45;&gt;phan_hoi_van_ban -->
<g id="edge3" class="edge">
<title>quyet_dinh_thu_ly_phan_hoi:e&#45;&gt;phan_hoi_van_ban:w</title>
<path fill="none" stroke="#7030a0" stroke-width="1.3" d="M132,-505C228.81,-505 -23.3,-305.1 51.7,-292.61"/>
<polygon fill="#7030a0" stroke="#7030a0" stroke-width="1.3" points="52.02,-292.59 60.26,-295.59 56.01,-292.29 60,-292 60,-292 60,-292 56.01,-292.29 59.74,-288.41 52.02,-292.59 52.02,-292.59"/>
</g>
<!-- can_bo -->
<g id="node6" class="node">
<title>can_bo</title>
<polygon fill="#dce6f1" fill-opacity="0.400000" stroke="transparent" points="730,-43 730,-67 837,-67 837,-43 730,-43"/>
<text text-anchor="start" x="749.5" y="-53.2" font-family="Consolas" font-weight="bold" font-size="11.00">can_bo</text>
<text text-anchor="start" x="736" y="-29.8" font-family="Consolas" font-size="9.00" fill="#777777">(bảng ở nhóm khác)</text>
<polygon fill="none" stroke="black" points="728.5,-20 728.5,-68 837.5,-68 837.5,-20 728.5,-20"/>
</g>
<!-- quyet_dinh_thu_ly_phan_hoi&#45;&gt;can_bo -->
<g id="edge4" class="edge">
<title>quyet_dinh_thu_ly_phan_hoi:e&#45;&gt;can_bo</title>
<path fill="none" stroke="#7030a0" stroke-width="1.3" d="M132,-483C201.97,-483 201.28,-426.03 267,-402 454.75,-333.34 563.65,-465.1 711,-330 781.95,-264.94 787.44,-141.03 785.41,-80.31"/>
<polygon fill="#7030a0" stroke="#7030a0" stroke-width="1.3" points="785.4,-80.17 788.67,-72.03 785.24,-76.17 785.08,-72.18 785.08,-72.18 785.08,-72.18 785.24,-76.17 781.48,-72.32 785.4,-80.17 785.4,-80.17"/>
</g>
<!-- don_khieu_nai -->
<g id="node3" class="node">
<title>don_khieu_nai</title>
<polygon fill="#d9d2e9" stroke="transparent" points="403,-303 403,-325 677,-325 677,-303 403,-303"/>
<text text-anchor="start" x="496" y="-312.2" font-family="Consolas" font-weight="bold" font-size="11.00">don_khieu_nai</text>
<text text-anchor="start" x="408" y="-290.2" font-family="Consolas" font-weight="bold" font-size="11.00">id</text>
<text text-anchor="start" x="422" y="-290.2" font-family="Consolas" font-size="11.00"> </text>
<text text-anchor="start" x="429" y="-290.2" font-family="Consolas" font-size="11.00" fill="#b8860b">PK</text>
<text text-anchor="start" x="581" y="-289.5" font-family="Consolas" font-size="10.00" fill="#666666">BIGINT UNSIGNED</text>
<text text-anchor="start" x="408" y="-268.2" font-family="Consolas" font-size="11.00">yeu_cau_giai_trinh_id </text>
<text text-anchor="start" x="557" y="-268.2" font-family="Consolas" font-size="11.00" fill="#1f6fb2">FK</text>
<text text-anchor="start" x="581" y="-267.5" font-family="Consolas" font-size="10.00" fill="#666666">BIGINT UNSIGNED</text>
<text text-anchor="start" x="408" y="-246.2" font-family="Consolas" font-size="11.00">nguoi_khieu_nai_id </text>
<text text-anchor="start" x="537" y="-246.2" font-family="Consolas" font-size="11.00" fill="#1f6fb2">FK</text>
<text text-anchor="start" x="581" y="-245.5" font-family="Consolas" font-size="10.00" fill="#666666">BIGINT UNSIGNED</text>
<text text-anchor="start" x="408" y="-223.2" font-family="Consolas" font-size="11.00">noi_dung</text>
<text text-anchor="start" x="581" y="-223.5" font-family="Consolas" font-size="10.00" fill="#666666">TEXT</text>
<text text-anchor="start" x="408" y="-201.2" font-family="Consolas" font-size="11.00">ngay_nop</text>
<text text-anchor="start" x="581" y="-201.5" font-family="Consolas" font-size="10.00" fill="#666666">DATETIME</text>
<text text-anchor="start" x="408" y="-180.2" font-family="Consolas" font-size="11.00">can_bo_tiep_nhan_id </text>
<text text-anchor="start" x="544" y="-180.2" font-family="Consolas" font-size="11.00" fill="#1f6fb2">FK</text>
<text text-anchor="start" x="581" y="-179.5" font-family="Consolas" font-size="10.00" fill="#666666">BIGINT UNSIGNED</text>
<text text-anchor="start" x="408" y="-157.2" font-family="Consolas" font-size="11.00">trang_thai</text>
<text text-anchor="start" x="581" y="-157.5" font-family="Consolas" font-size="10.00" fill="#666666">ENUM</text>
<polygon fill="none" stroke="black" points="402,-148 402,-326 678,-326 678,-148 402,-148"/>
</g>
<!-- don_khieu_nai&#45;&gt;can_bo -->
<g id="edge7" class="edge">
<title>don_khieu_nai:e&#45;&gt;can_bo</title>
<path fill="none" stroke="#7030a0" stroke-width="1.3" d="M576,-181C650.49,-181 718.95,-118.72 755.44,-78.46"/>
<polygon fill="#7030a0" stroke="#7030a0" stroke-width="1.3" points="755.69,-78.17 763.7,-74.59 758.35,-75.18 761.01,-72.19 761.01,-72.19 761.01,-72.19 758.35,-75.18 758.33,-69.8 755.69,-78.17 755.69,-78.17"/>
</g>
<!-- don_khieu_nai&#45;&gt;nguoi_yeu_cau -->
<g id="edge6" class="edge">
<title>don_khieu_nai:e&#45;&gt;nguoi_yeu_cau</title>
<path fill="none" stroke="#7030a0" stroke-width="1.3" d="M576,-247C663.98,-247 524.69,-134 448.89,-77.03"/>
<polygon fill="#7030a0" stroke="#7030a0" stroke-width="1.3" points="448.61,-76.83 444.36,-69.15 445.41,-74.43 442.2,-72.03 442.2,-72.03 442.2,-72.03 445.41,-74.43 440.05,-74.92 448.61,-76.83 448.61,-76.83"/>
</g>
<!-- yeu_cau_giai_trinh -->
<g id="node9" class="node">
<title>yeu_cau_giai_trinh</title>
<polygon fill="#fbe5d6" fill-opacity="0.400000" stroke="transparent" points="527,-43 527,-67 661,-67 661,-43 527,-43"/>
<text text-anchor="start" x="533" y="-53.2" font-family="Consolas" font-weight="bold" font-size="11.00">yeu_cau_giai_trinh</text>
<text text-anchor="start" x="546.5" y="-29.8" font-family="Consolas" font-size="9.00" fill="#777777">(bảng ở nhóm khác)</text>
<polygon fill="none" stroke="black" points="526,-20 526,-68 662,-68 662,-20 526,-20"/>
</g>
<!-- don_khieu_nai&#45;&gt;yeu_cau_giai_trinh -->
<g id="edge5" class="edge">
<title>don_khieu_nai:e&#45;&gt;yeu_cau_giai_trinh</title>
<path fill="none" stroke="#7030a0" stroke-width="1.3" d="M576,-269C651.02,-269 623.5,-142.64 605.15,-79.73"/>
<polygon fill="#7030a0" stroke="#7030a0" stroke-width="1.3" points="605.14,-79.69 606.31,-70.99 604,-75.85 602.86,-72.02 602.86,-72.02 602.86,-72.02 604,-75.85 599.41,-73.05 605.14,-79.69 605.14,-79.69"/>
</g>
<!-- quyet_dinh_thu_ly_khieu_nai -->
<g id="node4" class="node">
<title>quyet_dinh_thu_ly_khieu_nai</title>
<polygon fill="#d9d2e9" stroke="transparent" points="301,-539 301,-561 541,-561 541,-539 301,-539"/>
<text text-anchor="start" x="329.5" y="-548.2" font-family="Consolas" font-weight="bold" font-size="11.00">quyet_dinh_thu_ly_khieu_nai</text>
<text text-anchor="start" x="306" y="-526.2" font-family="Consolas" font-weight="bold" font-size="11.00">id</text>
<text text-anchor="start" x="320" y="-526.2" font-family="Consolas" font-size="11.00"> </text>
<text text-anchor="start" x="327" y="-526.2" font-family="Consolas" font-size="11.00" fill="#b8860b">PK</text>
<text text-anchor="start" x="445" y="-525.5" font-family="Consolas" font-size="10.00" fill="#666666">BIGINT UNSIGNED</text>
<text text-anchor="start" x="306" y="-504.2" font-family="Consolas" font-size="11.00">don_khieu_nai_id </text>
<text text-anchor="start" x="421" y="-504.2" font-family="Consolas" font-size="11.00" fill="#1f6fb2">FK</text>
<text text-anchor="start" x="445" y="-503.5" font-family="Consolas" font-size="10.00" fill="#666666">BIGINT UNSIGNED</text>
<text text-anchor="start" x="306" y="-482.2" font-family="Consolas" font-size="11.00">nguoi_ky_id </text>
<text text-anchor="start" x="388" y="-482.2" font-family="Consolas" font-size="11.00" fill="#1f6fb2">FK</text>
<text text-anchor="start" x="445" y="-481.5" font-family="Consolas" font-size="10.00" fill="#666666">BIGINT UNSIGNED</text>
<text text-anchor="start" x="306" y="-459.2" font-family="Consolas" font-size="11.00">so_quyet_dinh</text>
<text text-anchor="start" x="445" y="-459.5" font-family="Consolas" font-size="10.00" fill="#666666">VARCHAR(50)</text>
<text text-anchor="start" x="306" y="-437.2" font-family="Consolas" font-size="11.00">ngay_ky</text>
<text text-anchor="start" x="445" y="-437.5" font-family="Consolas" font-size="10.00" fill="#666666">DATETIME</text>
<text text-anchor="start" x="306" y="-415.2" font-family="Consolas" font-size="11.00">ket_qua</text>
<text text-anchor="start" x="445" y="-415.5" font-family="Consolas" font-size="10.00" fill="#666666">ENUM</text>
<polygon fill="none" stroke="black" points="300,-406 300,-562 542,-562 542,-406 300,-406"/>
</g>
<!-- quyet_dinh_thu_ly_khieu_nai&#45;&gt;don_khieu_nai -->
<g id="edge8" class="edge">
<title>quyet_dinh_thu_ly_khieu_nai:e&#45;&gt;don_khieu_nai:w</title>
<path fill="none" stroke="#7030a0" stroke-width="1.3" d="M440,-505C533.16,-505 319.91,-305.1 393.92,-292.61"/>
<polygon fill="#7030a0" stroke="#7030a0" stroke-width="1.3" points="394.02,-292.6 402.27,-295.59 398.01,-292.3 402,-292 402,-292 402,-292 398.01,-292.3 401.73,-288.41 394.02,-292.6 394.02,-292.6"/>
</g>
<!-- quyet_dinh_thu_ly_khieu_nai&#45;&gt;can_bo -->
<g id="edge9" class="edge">
<title>quyet_dinh_thu_ly_khieu_nai:e&#45;&gt;can_bo</title>
<path fill="none" stroke="#7030a0" stroke-width="1.3" d="M440,-483C509.97,-483 511.26,-430.85 575,-402 670.65,-358.7 738.1,-414.81 800,-330 854.57,-255.25 820.49,-137.93 798.05,-79.9"/>
<polygon fill="#7030a0" stroke="#7030a0" stroke-width="1.3" points="797.92,-79.55 798.32,-70.79 796.44,-75.83 794.97,-72.11 794.97,-72.11 794.97,-72.11 796.44,-75.83 791.62,-73.44 797.92,-79.55 797.92,-79.55"/>
</g>
<!-- xac_minh_khieu_nai -->
<g id="node5" class="node">
<title>xac_minh_khieu_nai</title>
<polygon fill="#d9d2e9" stroke="transparent" points="609,-539 609,-561 863,-561 863,-539 609,-539"/>
<text text-anchor="start" x="675" y="-548.2" font-family="Consolas" font-weight="bold" font-size="11.00">xac_minh_khieu_nai</text>
<text text-anchor="start" x="614" y="-526.2" font-family="Consolas" font-weight="bold" font-size="11.00">id</text>
<text text-anchor="start" x="628" y="-526.2" font-family="Consolas" font-size="11.00"> </text>
<text text-anchor="start" x="635" y="-526.2" font-family="Consolas" font-size="11.00" fill="#b8860b">PK</text>
<text text-anchor="start" x="767" y="-525.5" font-family="Consolas" font-size="10.00" fill="#666666">BIGINT UNSIGNED</text>
<text text-anchor="start" x="614" y="-504.2" font-family="Consolas" font-size="11.00">don_khieu_nai_id </text>
<text text-anchor="start" x="729" y="-504.2" font-family="Consolas" font-size="11.00" fill="#1f6fb2">FK</text>
<text text-anchor="start" x="767" y="-503.5" font-family="Consolas" font-size="10.00" fill="#666666">BIGINT UNSIGNED</text>
<text text-anchor="start" x="614" y="-482.2" font-family="Consolas" font-size="11.00">can_bo_xac_minh_id </text>
<text text-anchor="start" x="743" y="-482.2" font-family="Consolas" font-size="11.00" fill="#1f6fb2">FK</text>
<text text-anchor="start" x="767" y="-481.5" font-family="Consolas" font-size="10.00" fill="#666666">BIGINT UNSIGNED</text>
<text text-anchor="start" x="614" y="-459.2" font-family="Consolas" font-size="11.00">noi_dung_xac_minh</text>
<text text-anchor="start" x="767" y="-459.5" font-family="Consolas" font-size="10.00" fill="#666666">TEXT</text>
<text text-anchor="start" x="614" y="-437.2" font-family="Consolas" font-size="11.00">ket_qua_giai_quyet</text>
<text text-anchor="start" x="767" y="-437.5" font-family="Consolas" font-size="10.00" fill="#666666">TEXT</text>
<text text-anchor="start" x="614" y="-415.2" font-family="Consolas" font-size="11.00">ngay_cap_nhat</text>
<text text-anchor="start" x="767" y="-415.5" font-family="Consolas" font-size="10.00" fill="#666666">DATETIME</text>
<polygon fill="none" stroke="black" points="608,-406 608,-562 864,-562 864,-406 608,-406"/>
</g>
<!-- xac_minh_khieu_nai&#45;&gt;don_khieu_nai -->
<g id="edge10" class="edge">
<title>xac_minh_khieu_nai:e&#45;&gt;don_khieu_nai:w</title>
<path fill="none" stroke="#7030a0" stroke-width="1.3" d="M762,-505C856.88,-505 660.44,-443.27 575,-402 500.38,-365.96 449.82,-398.38 403,-330 395.54,-319.11 388.82,-302.04 394.29,-295.1"/>
<polygon fill="#7030a0" stroke="#7030a0" stroke-width="1.3" points="394.58,-294.98 403.34,-295.34 398.29,-293.49 402,-292 402,-292 402,-292 398.29,-293.49 400.66,-288.66 394.58,-294.98 394.58,-294.98"/>
</g>
<!-- xac_minh_khieu_nai&#45;&gt;can_bo -->
<g id="edge11" class="edge">
<title>xac_minh_khieu_nai:e&#45;&gt;can_bo</title>
<path fill="none" stroke="#7030a0" stroke-width="1.3" d="M762,-483C928.3,-483 975.68,-285.09 902,-136 889.73,-111.17 867.08,-91.25 844.81,-76.46"/>
<polygon fill="#7030a0" stroke="#7030a0" stroke-width="1.3" points="844.65,-76.35 839.86,-69 841.28,-74.19 837.92,-72.03 837.92,-72.03 837.92,-72.03 841.28,-74.19 835.97,-75.06 844.65,-76.35 844.65,-76.35"/>
</g>
</g>
</svg>
