<?xml version="1.0" encoding="UTF-8" standalone="no"?>
<!DOCTYPE svg PUBLIC "-//W3C//DTD SVG 1.1//EN"
 "http://www.w3.org/Graphics/SVG/1.1/DTD/svg11.dtd">
<!-- Generated by graphviz version 2.43.0 (0)
 -->
<!-- Title: G Pages: 1 -->
<svg width="1058pt" height="1310pt"
 viewBox="0.00 0.00 1058.00 1310.00" xmlns="http://www.w3.org/2000/svg" xmlns:xlink="http://www.w3.org/1999/xlink">
<g id="graph0" class="graph" transform="scale(1 1) rotate(0) translate(4 1306)">
<title>G</title>
<polygon fill="white" stroke="transparent" points="-4,4 -4,-1306 1054,-1306 1054,4 -4,4"/>
<text text-anchor="middle" x="525" y="-1282" font-family="Helvetica,sans-Serif" font-size="20.00">ERD CHI TIẾT — NHÓM: DANH MỤC DÙNG CHUNG &amp; ĐỊNH DANH NGƯỜI DÙNG (CẬP NHẬT)</text>
<g id="clust1" class="cluster">
<title>cluster_main</title>
<polygon fill="#dce6f1" stroke="#dce6f1" points="8,-8 8,-1264 1042,-1264 1042,-8 8,-8"/>
</g>
<g id="clust2" class="cluster">
<title>cluster_identity</title>
<polygon fill="white" stroke="#999999" stroke-dasharray="5,2" points="348,-407 348,-1129 1034,-1129 1034,-407 348,-407"/>
<text text-anchor="middle" x="691" y="-1116.2" font-family="Helvetica,sans-Serif" font-size="11.00" fill="#555555">Khối định danh (dùng chung khóa chính)</text>
</g>
<!-- nguoi_dung -->
<g id="node1" class="node">
<title>nguoi_dung</title>
<polygon fill="white" stroke="transparent" points="767,-661 767,-855 1026,-855 1026,-661 767,-661"/>
<polygon fill="#dce6f1" stroke="transparent" points="768.5,-832 768.5,-854 1025.5,-854 1025.5,-832 768.5,-832"/>
<text text-anchor="start" x="863" y="-841.2" font-family="Consolas" font-weight="bold" font-size="11.00">nguoi_dung</text>
<text text-anchor="start" x="773.5" y="-819.2" font-family="Consolas" font-weight="bold" font-size="11.00">id</text>
<text text-anchor="start" x="905.5" y="-818.2" font-family="Consolas" font-size="11.00" fill="#b8860b">PK</text>
<text text-anchor="start" x="929.5" y="-818.5" font-family="Consolas" font-size="10.00" fill="#666666">BIGINT UNSIGNED</text>
<text text-anchor="start" x="773.5" y="-796.2" font-family="Consolas" font-size="11.00">ma_dinh_danh</text>
<text text-anchor="start" x="929.5" y="-796.5" font-family="Consolas" font-size="10.00" fill="#666666">VARCHAR(30)</text>
<text text-anchor="start" x="773.5" y="-777.6" font-family="Consolas" font-style="italic" font-size="8.00" fill="#666666">từ hệ thống thứ 2, sau xác thực bên thứ 3</text>
<text text-anchor="start" x="773.5" y="-755.2" font-family="Consolas" font-size="11.00">loai_tk</text>
<text text-anchor="start" x="929.5" y="-755.5" font-family="Consolas" font-size="10.00" fill="#666666">ENUM</text>
<text text-anchor="start" x="773.5" y="-736.6" font-family="Consolas" font-style="italic" font-size="8.00" fill="#666666">&#39;Dân&#39;,&#39;Cán bộ&#39;,&#39;Tổ chức&#39;</text>
<text text-anchor="start" x="773.5" y="-714.2" font-family="Consolas" font-size="11.00">trang_thai</text>
<text text-anchor="start" x="929.5" y="-714.5" font-family="Consolas" font-size="10.00" fill="#666666">TINYINT</text>
<text text-anchor="start" x="773.5" y="-692.2" font-family="Consolas" font-size="11.00">lan_dang_nhap_cuoi</text>
<text text-anchor="start" x="929.5" y="-692.5" font-family="Consolas" font-size="10.00" fill="#666666">DATETIME</text>
<text text-anchor="start" x="773.5" y="-670.2" font-family="Consolas" font-size="11.00">ngay_tao</text>
<text text-anchor="start" x="929.5" y="-670.5" font-family="Consolas" font-size="10.00" fill="#666666">DATETIME</text>
<polygon fill="none" stroke="black" points="767,-661 767,-855 1026,-855 1026,-661 767,-661"/>
</g>
<!-- can_bo -->
<g id="node2" class="node">
<title>can_bo</title>
<polygon fill="white" stroke="transparent" points="373,-415 373,-615 617,-615 617,-415 373,-415"/>
<polygon fill="#dce6f1" stroke="transparent" points="374,-592 374,-614 616,-614 616,-592 374,-592"/>
<text text-anchor="start" x="474.5" y="-601.2" font-family="Consolas" font-weight="bold" font-size="11.00">can_bo</text>
<text text-anchor="start" x="379" y="-577.7" font-family="Consolas" font-weight="bold" font-size="11.00">id</text>
<text text-anchor="start" x="477" y="-576.8" font-family="Consolas" font-size="11.00" fill="#b8860b">PK</text>
<text text-anchor="start" x="491" y="-576.8" font-family="Times,serif" font-size="14.00">/</text>
<text text-anchor="start" x="496" y="-576.8" font-family="Consolas" font-size="11.00" fill="#1f6fb2">FK</text>
<text text-anchor="start" x="520" y="-577" font-family="Consolas" font-size="10.00" fill="#666666">BIGINT UNSIGNED</text>
<text text-anchor="start" x="379" y="-556.6" font-family="Consolas" font-style="italic" font-size="8.00" fill="#666666">= nguoi_dung.id</text>
<text text-anchor="start" x="379" y="-534.2" font-family="Consolas" font-size="11.00">ma_can_bo</text>
<text text-anchor="start" x="520" y="-534.5" font-family="Consolas" font-size="10.00" fill="#666666">VARCHAR(30)</text>
<text text-anchor="start" x="379" y="-512.2" font-family="Consolas" font-size="11.00">ho_ten</text>
<text text-anchor="start" x="520" y="-512.5" font-family="Consolas" font-size="10.00" fill="#666666">VARCHAR(150)</text>
<text text-anchor="start" x="379" y="-490.2" font-family="Consolas" font-size="11.00">don_vi_id</text>
<text text-anchor="start" x="477" y="-490.2" font-family="Consolas" font-size="11.00" fill="#1f6fb2">FK</text>
<text text-anchor="start" x="520" y="-490.5" font-family="Consolas" font-size="10.00" fill="#666666">BIGINT UNSIGNED</text>
<text text-anchor="start" x="379" y="-468.2" font-family="Consolas" font-size="11.00">chuc_vu</text>
<text text-anchor="start" x="520" y="-468.5" font-family="Consolas" font-size="10.00" fill="#666666">VARCHAR(100)</text>
<text text-anchor="start" x="379" y="-446.2" font-family="Consolas" font-size="11.00">email</text>
<text text-anchor="start" x="520" y="-446.5" font-family="Consolas" font-size="10.00" fill="#666666">VARCHAR(150)</text>
<text text-anchor="start" x="379" y="-424.2" font-family="Consolas" font-size="11.00">so_dien_thoai</text>
<text text-anchor="start" x="520" y="-424.5" font-family="Consolas" font-size="10.00" fill="#666666">VARCHAR(20)</text>
<polygon fill="none" stroke="black" points="373,-415 373,-615 617,-615 617,-415 373,-415"/>
</g>
<!-- can_bo&#45;&gt;nguoi_dung -->
<g id="edge10" class="edge">
<title>can_bo&#45;&gt;nguoi_dung</title>
<path fill="none" stroke="#2e8b57" stroke-width="1.6" stroke-dasharray="5,2" d="M617.22,-588.73C662.21,-616.1 713.52,-647.31 759.72,-675.41"/>
<polygon fill="#2e8b57" stroke="#2e8b57" stroke-width="1.6" points="758.51,-677.95 766.8,-679.72 761.42,-673.17 758.51,-677.95"/>
<text text-anchor="middle" x="700.5" y="-660.8" font-family="Helvetica,sans-Serif" font-size="9.00" fill="#2e8b57">1&#45;1 (id chung)</text>
</g>
<!-- don_vi -->
<g id="node5" class="node">
<title>don_vi</title>
<polygon fill="white" stroke="transparent" points="784,-139.5 784,-380.5 1009,-380.5 1009,-139.5 784,-139.5"/>
<polygon fill="#dce6f1" stroke="transparent" points="785.5,-357 785.5,-379 1008.5,-379 1008.5,-357 785.5,-357"/>
<text text-anchor="start" x="876.5" y="-366.2" font-family="Consolas" font-weight="bold" font-size="11.00">don_vi</text>
<text text-anchor="start" x="790.5" y="-344.2" font-family="Consolas" font-weight="bold" font-size="11.00">id</text>
<text text-anchor="start" x="888.5" y="-343.2" font-family="Consolas" font-size="11.00" fill="#b8860b">PK</text>
<text text-anchor="start" x="912.5" y="-343.5" font-family="Consolas" font-size="10.00" fill="#666666">BIGINT UNSIGNED</text>
<text text-anchor="start" x="790.5" y="-321.2" font-family="Consolas" font-size="11.00">ma_don_vi</text>
<text text-anchor="start" x="912.5" y="-321.5" font-family="Consolas" font-size="10.00" fill="#666666">VARCHAR(30)</text>
<text text-anchor="start" x="790.5" y="-299.2" font-family="Consolas" font-size="11.00">ten_don_vi</text>
<text text-anchor="start" x="912.5" y="-299.5" font-family="Consolas" font-size="10.00" fill="#666666">VARCHAR(255)</text>
<text text-anchor="start" x="790.5" y="-277.2" font-family="Consolas" font-size="11.00">don_vi_cha_id</text>
<text text-anchor="start" x="888.5" y="-277.2" font-family="Consolas" font-size="11.00" fill="#1f6fb2">FK</text>
<text text-anchor="start" x="912.5" y="-277.5" font-family="Consolas" font-size="10.00" fill="#666666">BIGINT UNSIGNED</text>
<text text-anchor="start" x="790.5" y="-258.6" font-family="Consolas" font-style="italic" font-size="8.00" fill="#666666">tự tham chiếu</text>
<text text-anchor="start" x="790.5" y="-236.2" font-family="Consolas" font-size="11.00">cap_don_vi</text>
<text text-anchor="start" x="912.5" y="-236.5" font-family="Consolas" font-size="10.00" fill="#666666">TINYINT</text>
<text text-anchor="start" x="790.5" y="-214.2" font-family="Consolas" font-size="11.00">loai_don_vi</text>
<text text-anchor="start" x="912.5" y="-214.5" font-family="Consolas" font-size="10.00" fill="#666666">VARCHAR(50)</text>
<text text-anchor="start" x="790.5" y="-192.2" font-family="Consolas" font-size="11.00">dia_chi</text>
<text text-anchor="start" x="912.5" y="-192.5" font-family="Consolas" font-size="10.00" fill="#666666">VARCHAR(255)</text>
<text text-anchor="start" x="790.5" y="-170.2" font-family="Consolas" font-size="11.00">trang_thai</text>
<text text-anchor="start" x="912.5" y="-170.5" font-family="Consolas" font-size="10.00" fill="#666666">TINYINT</text>
<text text-anchor="start" x="790.5" y="-148.2" font-family="Consolas" font-size="11.00">ngay_tao</text>
<text text-anchor="start" x="912.5" y="-148.5" font-family="Consolas" font-size="10.00" fill="#666666">DATETIME</text>
<polygon fill="none" stroke="black" points="784,-139.5 784,-380.5 1009,-380.5 1009,-139.5 784,-139.5"/>
</g>
<!-- can_bo&#45;&gt;don_vi -->
<g id="edge2" class="edge">
<title>can_bo&#45;&gt;don_vi</title>
<path fill="none" stroke="#4472c4" stroke-width="1.3" d="M617.15,-451.51C655.2,-430.45 696.94,-406.19 734,-382 748.29,-372.67 762.97,-362.49 777.38,-352.12"/>
<polygon fill="#4472c4" stroke="#4472c4" stroke-width="1.3" points="779.14,-354.31 783.98,-347.35 775.85,-349.77 779.14,-354.31"/>
</g>
<!-- nguoi_dan -->
<g id="node3" class="node">
<title>nguoi_dan</title>
<polygon fill="white" stroke="transparent" points="356,-901 356,-1101 634,-1101 634,-901 356,-901"/>
<polygon fill="#dce6f1" stroke="transparent" points="357,-1078 357,-1100 633,-1100 633,-1078 357,-1078"/>
<text text-anchor="start" x="464.5" y="-1087.2" font-family="Consolas" font-weight="bold" font-size="11.00">nguoi_dan</text>
<text text-anchor="start" x="362" y="-1063.7" font-family="Consolas" font-weight="bold" font-size="11.00">id</text>
<text text-anchor="start" x="494" y="-1062.8" font-family="Consolas" font-size="11.00" fill="#b8860b">PK</text>
<text text-anchor="start" x="508" y="-1062.8" font-family="Times,serif" font-size="14.00">/</text>
<text text-anchor="start" x="513" y="-1062.8" font-family="Consolas" font-size="11.00" fill="#1f6fb2">FK</text>
<text text-anchor="start" x="537" y="-1063" font-family="Consolas" font-size="10.00" fill="#666666">BIGINT UNSIGNED</text>
<text text-anchor="start" x="362" y="-1042.6" font-family="Consolas" font-style="italic" font-size="8.00" fill="#666666">= nguoi_dung.id</text>
<text text-anchor="start" x="362" y="-1020.2" font-family="Consolas" font-size="11.00">ho_ten</text>
<text text-anchor="start" x="537" y="-1020.5" font-family="Consolas" font-size="10.00" fill="#666666">VARCHAR(150)</text>
<text text-anchor="start" x="362" y="-998.2" font-family="Consolas" font-size="11.00">ngay_sinh</text>
<text text-anchor="start" x="537" y="-998.5" font-family="Consolas" font-size="10.00" fill="#666666">DATE</text>
<text text-anchor="start" x="362" y="-976.2" font-family="Consolas" font-size="11.00">gioi_tinh</text>
<text text-anchor="start" x="537" y="-976.5" font-family="Consolas" font-size="10.00" fill="#666666">TINYINT</text>
<text text-anchor="start" x="362" y="-954.2" font-family="Consolas" font-size="11.00">dia_chi_thuong_tru</text>
<text text-anchor="start" x="537" y="-954.5" font-family="Consolas" font-size="10.00" fill="#666666">VARCHAR(255)</text>
<text text-anchor="start" x="362" y="-932.2" font-family="Consolas" font-size="11.00">email</text>
<text text-anchor="start" x="537" y="-932.5" font-family="Consolas" font-size="10.00" fill="#666666">VARCHAR(150)</text>
<text text-anchor="start" x="362" y="-910.2" font-family="Consolas" font-size="11.00">so_dien_thoai</text>
<text text-anchor="start" x="537" y="-910.5" font-family="Consolas" font-size="10.00" fill="#666666">VARCHAR(20)</text>
<polygon fill="none" stroke="black" points="356,-901 356,-1101 634,-1101 634,-901 356,-901"/>
</g>
<!-- nguoi_dan&#45;&gt;nguoi_dung -->
<g id="edge11" class="edge">
<title>nguoi_dan&#45;&gt;nguoi_dung</title>
<path fill="none" stroke="#2e8b57" stroke-width="1.6" stroke-dasharray="5,2" d="M634.04,-917.03C674.77,-892.26 719.28,-865.19 759.85,-840.51"/>
<polygon fill="#2e8b57" stroke="#2e8b57" stroke-width="1.6" points="761.47,-842.8 766.85,-836.25 758.56,-838.02 761.47,-842.8"/>
<text text-anchor="middle" x="700.5" y="-896.8" font-family="Helvetica,sans-Serif" font-size="9.00" fill="#2e8b57">1&#45;1 (id chung)</text>
</g>
<!-- to_chuc -->
<g id="node4" class="node">
<title>to_chuc</title>
<polygon fill="white" stroke="transparent" points="369.5,-658 369.5,-858 620.5,-858 620.5,-658 369.5,-658"/>
<polygon fill="#dce6f1" stroke="transparent" points="371,-835 371,-857 620,-857 620,-835 371,-835"/>
<text text-anchor="start" x="471.5" y="-844.2" font-family="Consolas" font-weight="bold" font-size="11.00">to_chuc</text>
<text text-anchor="start" x="376" y="-820.7" font-family="Consolas" font-weight="bold" font-size="11.00">id</text>
<text text-anchor="start" x="481" y="-819.8" font-family="Consolas" font-size="11.00" fill="#b8860b">PK</text>
<text text-anchor="start" x="495" y="-819.8" font-family="Times,serif" font-size="14.00">/</text>
<text text-anchor="start" x="500" y="-819.8" font-family="Consolas" font-size="11.00" fill="#1f6fb2">FK</text>
<text text-anchor="start" x="524" y="-820" font-family="Consolas" font-size="10.00" fill="#666666">BIGINT UNSIGNED</text>
<text text-anchor="start" x="376" y="-799.6" font-family="Consolas" font-style="italic" font-size="8.00" fill="#666666">= nguoi_dung.id</text>
<text text-anchor="start" x="376" y="-777.2" font-family="Consolas" font-size="11.00">ten_to_chuc</text>
<text text-anchor="start" x="524" y="-777.5" font-family="Consolas" font-size="10.00" fill="#666666">VARCHAR(255)</text>
<text text-anchor="start" x="376" y="-755.2" font-family="Consolas" font-size="11.00">ma_so_thue</text>
<text text-anchor="start" x="524" y="-755.5" font-family="Consolas" font-size="10.00" fill="#666666">VARCHAR(30)</text>
<text text-anchor="start" x="376" y="-733.2" font-family="Consolas" font-size="11.00">nguoi_dai_dien</text>
<text text-anchor="start" x="524" y="-733.5" font-family="Consolas" font-size="10.00" fill="#666666">VARCHAR(150)</text>
<text text-anchor="start" x="376" y="-711.2" font-family="Consolas" font-size="11.00">dia_chi</text>
<text text-anchor="start" x="524" y="-711.5" font-family="Consolas" font-size="10.00" fill="#666666">VARCHAR(255)</text>
<text text-anchor="start" x="376" y="-689.2" font-family="Consolas" font-size="11.00">email</text>
<text text-anchor="start" x="524" y="-689.5" font-family="Consolas" font-size="10.00" fill="#666666">VARCHAR(150)</text>
<text text-anchor="start" x="376" y="-667.2" font-family="Consolas" font-size="11.00">so_dien_thoai</text>
<text text-anchor="start" x="524" y="-667.5" font-family="Consolas" font-size="10.00" fill="#666666">VARCHAR(20)</text>
<polygon fill="none" stroke="black" points="369.5,-658 369.5,-858 620.5,-858 620.5,-658 369.5,-658"/>
</g>
<!-- to_chuc&#45;&gt;nguoi_dung -->
<g id="edge12" class="edge">
<title>to_chuc&#45;&gt;nguoi_dung</title>
<path fill="none" stroke="#2e8b57" stroke-width="1.6" stroke-dasharray="5,2" d="M620.76,-758C664.6,-758 714.08,-758 758.85,-758"/>
<polygon fill="#2e8b57" stroke="#2e8b57" stroke-width="1.6" points="758.86,-760.8 766.86,-758 758.86,-755.2 758.86,-760.8"/>
<text text-anchor="middle" x="700.5" y="-760.8" font-family="Helvetica,sans-Serif" font-size="9.00" fill="#2e8b57">1&#45;1 (id chung)</text>
</g>
<!-- don_vi&#45;&gt;don_vi -->
<g id="edge1" class="edge">
<title>don_vi&#45;&gt;don_vi</title>
<path fill="none" stroke="#4472c4" stroke-width="1.3" d="M861.1,-380.85C864.89,-405.68 876.69,-423.5 896.5,-423.5 914.14,-423.5 925.43,-409.37 930.37,-388.74"/>
<polygon fill="#4472c4" stroke="#4472c4" stroke-width="1.3" points="933.13,-389.24 931.9,-380.85 927.63,-388.17 933.13,-389.24"/>
</g>
<!-- vai_tro -->
<g id="node6" class="node">
<title>vai_tro</title>
<polygon fill="white" stroke="transparent" points="389,-1144 389,-1256 601,-1256 601,-1144 389,-1144"/>
<polygon fill="#dce6f1" stroke="transparent" points="390,-1233 390,-1255 600,-1255 600,-1233 390,-1233"/>
<text text-anchor="start" x="471" y="-1242.2" font-family="Consolas" font-weight="bold" font-size="11.00">vai_tro</text>
<text text-anchor="start" x="395" y="-1220.2" font-family="Consolas" font-weight="bold" font-size="11.00">id</text>
<text text-anchor="start" x="480" y="-1219.2" font-family="Consolas" font-size="11.00" fill="#b8860b">PK</text>
<text text-anchor="start" x="504" y="-1219.5" font-family="Consolas" font-size="10.00" fill="#666666">BIGINT UNSIGNED</text>
<text text-anchor="start" x="395" y="-1197.2" font-family="Consolas" font-size="11.00">ma_vai_tro</text>
<text text-anchor="start" x="504" y="-1197.5" font-family="Consolas" font-size="10.00" fill="#666666">VARCHAR(30)</text>
<text text-anchor="start" x="395" y="-1175.2" font-family="Consolas" font-size="11.00">ten_vai_tro</text>
<text text-anchor="start" x="504" y="-1175.5" font-family="Consolas" font-size="10.00" fill="#666666">VARCHAR(150)</text>
<text text-anchor="start" x="395" y="-1153.2" font-family="Consolas" font-size="11.00">mo_ta</text>
<text text-anchor="start" x="504" y="-1153.5" font-family="Consolas" font-size="10.00" fill="#666666">VARCHAR(255)</text>
<polygon fill="none" stroke="black" points="389,-1144 389,-1256 601,-1256 601,-1144 389,-1144"/>
</g>
<!-- nguoi_dung_vai_tro -->
<g id="node7" class="node">
<title>nguoi_dung_vai_tro</title>
<polygon fill="white" stroke="transparent" points="40,-427.5 40,-602.5 265,-602.5 265,-427.5 40,-427.5"/>
<polygon fill="#dce6f1" stroke="transparent" points="41.5,-579 41.5,-601 264.5,-601 264.5,-579 41.5,-579"/>
<text text-anchor="start" x="92" y="-588.2" font-family="Consolas" font-weight="bold" font-size="11.00">nguoi_dung_vai_tro</text>
<text text-anchor="start" x="46.5" y="-566.2" font-family="Consolas" font-weight="bold" font-size="11.00">id</text>
<text text-anchor="start" x="144.5" y="-565.2" font-family="Consolas" font-size="11.00" fill="#b8860b">PK</text>
<text text-anchor="start" x="168.5" y="-565.5" font-family="Consolas" font-size="10.00" fill="#666666">BIGINT UNSIGNED</text>
<text text-anchor="start" x="46.5" y="-543.2" font-family="Consolas" font-size="11.00">can_bo_id</text>
<text text-anchor="start" x="144.5" y="-543.2" font-family="Consolas" font-size="11.00" fill="#1f6fb2">FK</text>
<text text-anchor="start" x="168.5" y="-543.5" font-family="Consolas" font-size="10.00" fill="#666666">BIGINT UNSIGNED</text>
<text text-anchor="start" x="46.5" y="-521.2" font-family="Consolas" font-size="11.00">vai_tro_id</text>
<text text-anchor="start" x="144.5" y="-521.2" font-family="Consolas" font-size="11.00" fill="#1f6fb2">FK</text>
<text text-anchor="start" x="168.5" y="-521.5" font-family="Consolas" font-size="10.00" fill="#666666">BIGINT UNSIGNED</text>
<text text-anchor="start" x="46.5" y="-499.2" font-family="Consolas" font-size="11.00">don_vi_id</text>
<text text-anchor="start" x="144.5" y="-499.2" font-family="Consolas" font-size="11.00" fill="#1f6fb2">FK</text>
<text text-anchor="start" x="168.5" y="-499.5" font-family="Consolas" font-size="10.00" fill="#666666">BIGINT UNSIGNED</text>
<text text-anchor="start" x="46.5" y="-480.6" font-family="Consolas" font-style="italic" font-size="8.00" fill="#666666">phạm vi áp dụng</text>
<text text-anchor="start" x="46.5" y="-458.2" font-family="Consolas" font-size="11.00">ngay_bat_dau</text>
<text text-anchor="start" x="168.5" y="-458.5" font-family="Consolas" font-size="10.00" fill="#666666">DATE</text>
<text text-anchor="start" x="46.5" y="-436.2" font-family="Consolas" font-size="11.00">ngay_ket_thuc</text>
<text text-anchor="start" x="168.5" y="-436.5" font-family="Consolas" font-size="10.00" fill="#666666">DATE</text>
<polygon fill="none" stroke="black" points="40,-427.5 40,-602.5 265,-602.5 265,-427.5 40,-427.5"/>
</g>
<!-- nguoi_dung_vai_tro&#45;&gt;can_bo -->
<g id="edge3" class="edge">
<title>nguoi_dung_vai_tro&#45;&gt;can_bo</title>
<path fill="none" stroke="#4472c4" stroke-width="1.3" d="M265.46,-515C297.18,-515 331.97,-515 364.62,-515"/>
<polygon fill="#4472c4" stroke="#4472c4" stroke-width="1.3" points="364.88,-517.8 372.88,-515 364.88,-512.2 364.88,-517.8"/>
</g>
<!-- nguoi_dung_vai_tro&#45;&gt;don_vi -->
<g id="edge5" class="edge">
<title>nguoi_dung_vai_tro&#45;&gt;don_vi</title>
<path fill="none" stroke="#4472c4" stroke-width="1.3" d="M265.02,-437.53C291.29,-422.1 319.86,-407.46 348,-397 468.82,-352.1 509.03,-380.53 634,-349 681.14,-337.1 731.96,-320.67 776.15,-305.16"/>
<polygon fill="#4472c4" stroke="#4472c4" stroke-width="1.3" points="777.13,-307.78 783.75,-302.48 775.27,-302.5 777.13,-307.78"/>
</g>
<!-- nguoi_dung_vai_tro&#45;&gt;vai_tro -->
<g id="edge4" class="edge">
<title>nguoi_dung_vai_tro&#45;&gt;vai_tro</title>
<path fill="none" stroke="#4472c4" stroke-width="1.3" d="M157.98,-602.72C169.26,-734.98 208.86,-986.19 348,-1139 357.6,-1149.54 369.3,-1158.31 381.87,-1165.6"/>
<polygon fill="#4472c4" stroke="#4472c4" stroke-width="1.3" points="380.57,-1168.09 388.93,-1169.5 383.28,-1163.18 380.57,-1168.09"/>
</g>
<!-- bo_phan_tiep_nhan -->
<g id="node8" class="node">
<title>bo_phan_tiep_nhan</title>
<polygon fill="white" stroke="transparent" points="389,-237 389,-327 601,-327 601,-237 389,-237"/>
<polygon fill="#dce6f1" stroke="transparent" points="390,-304 390,-326 600,-326 600,-304 390,-304"/>
<text text-anchor="start" x="437.5" y="-313.2" font-family="Consolas" font-weight="bold" font-size="11.00">bo_phan_tiep_nhan</text>
<text text-anchor="start" x="395" y="-291.2" font-family="Consolas" font-weight="bold" font-size="11.00">id</text>
<text text-anchor="start" x="480" y="-290.2" font-family="Consolas" font-size="11.00" fill="#b8860b">PK</text>
<text text-anchor="start" x="504" y="-290.5" font-family="Consolas" font-size="10.00" fill="#666666">BIGINT UNSIGNED</text>
<text text-anchor="start" x="395" y="-268.2" font-family="Consolas" font-size="11.00">don_vi_id</text>
<text text-anchor="start" x="480" y="-268.2" font-family="Consolas" font-size="11.00" fill="#1f6fb2">FK</text>
<text text-anchor="start" x="504" y="-268.5" font-family="Consolas" font-size="10.00" fill="#666666">BIGINT UNSIGNED</text>
<text text-anchor="start" x="395" y="-246.2" font-family="Consolas" font-size="11.00">ten_bo_phan</text>
<text text-anchor="start" x="504" y="-246.5" font-family="Consolas" font-size="10.00" fill="#666666">VARCHAR(150)</text>
<polygon fill="none" stroke="black" points="389,-237 389,-327 601,-327 601,-237 389,-237"/>
</g>
<!-- bo_phan_tiep_nhan&#45;&gt;don_vi -->
<g id="edge6" class="edge">
<title>bo_phan_tiep_nhan&#45;&gt;don_vi</title>
<path fill="none" stroke="#4472c4" stroke-width="1.3" d="M601.23,-276.21C654.77,-273.26 720.09,-269.66 775.57,-266.6"/>
<polygon fill="#4472c4" stroke="#4472c4" stroke-width="1.3" points="775.85,-269.39 783.68,-266.16 775.54,-263.8 775.85,-269.39"/>
</g>
<!-- lich_truc -->
<g id="node9" class="node">
<title>lich_truc</title>
<polygon fill="white" stroke="transparent" points="16,-224.5 16,-377.5 289,-377.5 289,-224.5 16,-224.5"/>
<polygon fill="#dce6f1" stroke="transparent" points="17.5,-354 17.5,-376 288.5,-376 288.5,-354 17.5,-354"/>
<text text-anchor="start" x="122.5" y="-363.2" font-family="Consolas" font-weight="bold" font-size="11.00">lich_truc</text>
<text text-anchor="start" x="22.5" y="-341.2" font-family="Consolas" font-weight="bold" font-size="11.00">id</text>
<text text-anchor="start" x="168.5" y="-340.2" font-family="Consolas" font-size="11.00" fill="#b8860b">PK</text>
<text text-anchor="start" x="192.5" y="-340.5" font-family="Consolas" font-size="10.00" fill="#666666">BIGINT UNSIGNED</text>
<text text-anchor="start" x="22.5" y="-318.2" font-family="Consolas" font-size="11.00">bo_phan_tiep_nhan_id</text>
<text text-anchor="start" x="168.5" y="-318.2" font-family="Consolas" font-size="11.00" fill="#1f6fb2">FK</text>
<text text-anchor="start" x="192.5" y="-318.5" font-family="Consolas" font-size="10.00" fill="#666666">BIGINT UNSIGNED</text>
<text text-anchor="start" x="22.5" y="-296.2" font-family="Consolas" font-size="11.00">can_bo_id</text>
<text text-anchor="start" x="168.5" y="-296.2" font-family="Consolas" font-size="11.00" fill="#1f6fb2">FK</text>
<text text-anchor="start" x="192.5" y="-296.5" font-family="Consolas" font-size="10.00" fill="#666666">BIGINT UNSIGNED</text>
<text text-anchor="start" x="22.5" y="-274.2" font-family="Consolas" font-size="11.00">ngay_truc</text>
<text text-anchor="start" x="192.5" y="-274.5" font-family="Consolas" font-size="10.00" fill="#666666">DATE</text>
<text text-anchor="start" x="22.5" y="-252.2" font-family="Consolas" font-size="11.00">ca_truc</text>
<text text-anchor="start" x="192.5" y="-252.5" font-family="Consolas" font-size="10.00" fill="#666666">VARCHAR(20)</text>
<text text-anchor="start" x="22.5" y="-233.6" font-family="Consolas" font-style="italic" font-size="8.00" fill="#666666">Sáng/Chiều/Cả ngày</text>
<polygon fill="none" stroke="black" points="16,-224.5 16,-377.5 289,-377.5 289,-224.5 16,-224.5"/>
</g>
<!-- lich_truc&#45;&gt;can_bo -->
<g id="edge8" class="edge">
<title>lich_truc&#45;&gt;can_bo</title>
<path fill="none" stroke="#4472c4" stroke-width="1.3" d="M275.47,-377.65C304.79,-396.09 336.2,-415.83 365.8,-434.43"/>
<polygon fill="#4472c4" stroke="#4472c4" stroke-width="1.3" points="364.62,-436.99 372.88,-438.88 367.6,-432.25 364.62,-436.99"/>
</g>
<!-- lich_truc&#45;&gt;bo_phan_tiep_nhan -->
<g id="edge7" class="edge">
<title>lich_truc&#45;&gt;bo_phan_tiep_nhan</title>
<path fill="none" stroke="#4472c4" stroke-width="1.3" d="M289.05,-293.44C319.4,-291.74 351.28,-289.96 380.61,-288.33"/>
<polygon fill="#4472c4" stroke="#4472c4" stroke-width="1.3" points="380.98,-291.11 388.82,-287.87 380.67,-285.52 380.98,-291.11"/>
</g>
<!-- noi_quy_quy_che -->
<g id="node10" class="node">
<title>noi_quy_quy_che</title>
<polygon fill="white" stroke="transparent" points="382.5,-16 382.5,-194 607.5,-194 607.5,-16 382.5,-16"/>
<polygon fill="#dce6f1" stroke="transparent" points="384,-171 384,-193 607,-193 607,-171 384,-171"/>
<text text-anchor="start" x="444.5" y="-180.2" font-family="Consolas" font-weight="bold" font-size="11.00">noi_quy_quy_che</text>
<text text-anchor="start" x="389" y="-158.2" font-family="Consolas" font-weight="bold" font-size="11.00">id</text>
<text text-anchor="start" x="487" y="-157.2" font-family="Consolas" font-size="11.00" fill="#b8860b">PK</text>
<text text-anchor="start" x="511" y="-157.5" font-family="Consolas" font-size="10.00" fill="#666666">BIGINT UNSIGNED</text>
<text text-anchor="start" x="389" y="-135.2" font-family="Consolas" font-size="11.00">don_vi_id</text>
<text text-anchor="start" x="487" y="-135.2" font-family="Consolas" font-size="11.00" fill="#1f6fb2">FK</text>
<text text-anchor="start" x="511" y="-135.5" font-family="Consolas" font-size="10.00" fill="#666666">BIGINT UNSIGNED</text>
<text text-anchor="start" x="389" y="-113.2" font-family="Consolas" font-size="11.00">ten_quy_che</text>
<text text-anchor="start" x="511" y="-113.5" font-family="Consolas" font-size="10.00" fill="#666666">VARCHAR(255)</text>
<text text-anchor="start" x="389" y="-91.2" font-family="Consolas" font-size="11.00">noi_dung</text>
<text text-anchor="start" x="511" y="-91.5" font-family="Consolas" font-size="10.00" fill="#666666">TEXT</text>
<text text-anchor="start" x="389" y="-69.2" font-family="Consolas" font-size="11.00">file_dinh_kem</text>
<text text-anchor="start" x="511" y="-69.5" font-family="Consolas" font-size="10.00" fill="#666666">VARCHAR(255)</text>
<text text-anchor="start" x="389" y="-47.2" font-family="Consolas" font-size="11.00">ngay_ban_hanh</text>
<text text-anchor="start" x="511" y="-47.5" font-family="Consolas" font-size="10.00" fill="#666666">DATE</text>
<text text-anchor="start" x="389" y="-25.2" font-family="Consolas" font-size="11.00">trang_thai</text>
<text text-anchor="start" x="511" y="-25.5" font-family="Consolas" font-size="10.00" fill="#666666">TINYINT</text>
<polygon fill="none" stroke="black" points="382.5,-16 382.5,-194 607.5,-194 607.5,-16 382.5,-16"/>
</g>
<!-- noi_quy_quy_che&#45;&gt;don_vi -->
<g id="edge9" class="edge">
<title>noi_quy_quy_che&#45;&gt;don_vi</title>
<path fill="none" stroke="#4472c4" stroke-width="1.3" d="M607.55,-148.28C660.13,-168.68 722.92,-193.04 776.43,-213.8"/>
<polygon fill="#4472c4" stroke="#4472c4" stroke-width="1.3" points="775.45,-216.42 783.92,-216.71 777.47,-211.2 775.45,-216.42"/>
</g>
</g>
</svg>
