<?xml version="1.0" encoding="UTF-8" standalone="no"?>
<!DOCTYPE svg PUBLIC "-//W3C//DTD SVG 1.1//EN"
 "http://www.w3.org/Graphics/SVG/1.1/DTD/svg11.dtd">
<!-- Generated by graphviz version 2.43.0 (0)
 -->
<!-- Title: G Pages: 1 -->
<svg width="1270pt" height="747pt"
 viewBox="0.00 0.00 1269.60 746.60" xmlns="http://www.w3.org/2000/svg" xmlns:xlink="http://www.w3.org/1999/xlink">
<g id="graph0" class="graph" transform="scale(1 1) rotate(0) translate(28.8 717.8)">
<title>G</title>
<polygon fill="white" stroke="transparent" points="-28.8,28.8 -28.8,-717.8 1240.8,-717.8 1240.8,28.8 -28.8,28.8"/>
<text text-anchor="middle" x="606" y="-669" font-family="Helvetica,sans-Serif" font-size="20.00">ERD CHI TIẾT — NHÓM: SỔ VĂN BẢN &amp; LƯU TRỮ</text>
<g id="clust1" class="cluster">
<title>cluster_main</title>
<polygon fill="#e4e4c6" fill-opacity="0.200000" stroke="#e4e4c6" points="8,-146 8,-651 1000,-651 1000,-146 8,-146"/>
</g>
<g id="clust2" class="cluster">
<title>cluster_ghost</title>
<polygon fill="white" stroke="#999999" stroke-dasharray="5,2" points="482,-8 482,-100 1204,-100 1204,-8 482,-8"/>
<text text-anchor="middle" x="843" y="-87.2" font-family="Helvetica,sans-Serif" font-weight="bold" font-size="11.00">Bảng cha tham chiếu tới (ở nhóm khác)</text>
</g>
<!-- ban_giao_ho_so -->
<g id="node1" class="node">
<title>ban_giao_ho_so</title>
<polygon fill="#e4e4c6" stroke="transparent" points="25,-605 25,-627 299,-627 299,-605 25,-605"/>
<text text-anchor="start" x="114.5" y="-614.2" font-family="Consolas" font-weight="bold" font-size="11.00">ban_giao_ho_so</text>
<text text-anchor="start" x="30" y="-592.2" font-family="Consolas" font-weight="bold" font-size="11.00">id</text>
<text text-anchor="start" x="44" y="-592.2" font-family="Consolas" font-size="11.00"> </text>
<text text-anchor="start" x="51" y="-592.2" font-family="Consolas" font-size="11.00" fill="#b8860b">PK</text>
<text text-anchor="start" x="203" y="-591.5" font-family="Consolas" font-size="10.00" fill="#666666">BIGINT UNSIGNED</text>
<text text-anchor="start" x="30" y="-570.2" font-family="Consolas" font-size="11.00">yeu_cau_giai_trinh_id </text>
<text text-anchor="start" x="179" y="-570.2" font-family="Consolas" font-size="11.00" fill="#1f6fb2">FK</text>
<text text-anchor="start" x="203" y="-569.5" font-family="Consolas" font-size="10.00" fill="#666666">BIGINT UNSIGNED</text>
<text text-anchor="start" x="30" y="-548.2" font-family="Consolas" font-size="11.00">nguoi_ban_giao_id </text>
<text text-anchor="start" x="152" y="-548.2" font-family="Consolas" font-size="11.00" fill="#1f6fb2">FK</text>
<text text-anchor="start" x="203" y="-547.5" font-family="Consolas" font-size="10.00" fill="#666666">BIGINT UNSIGNED</text>
<text text-anchor="start" x="30" y="-526.2" font-family="Consolas" font-size="11.00">nguoi_nhan_id </text>
<text text-anchor="start" x="125" y="-526.2" font-family="Consolas" font-size="11.00" fill="#1f6fb2">FK</text>
<text text-anchor="start" x="203" y="-525.5" font-family="Consolas" font-size="10.00" fill="#666666">BIGINT UNSIGNED</text>
<text text-anchor="start" x="30" y="-503.2" font-family="Consolas" font-size="11.00">ngay_ban_giao</text>
<text text-anchor="start" x="203" y="-503.5" font-family="Consolas" font-size="10.00" fill="#666666">DATETIME</text>
<text text-anchor="start" x="30" y="-481.2" font-family="Consolas" font-size="11.00">trang_thai_xac_nhan</text>
<text text-anchor="start" x="203" y="-481.5" font-family="Consolas" font-size="10.00" fill="#666666">ENUM</text>
<text text-anchor="start" x="30" y="-459.2" font-family="Consolas" font-size="11.00">ngay_xac_nhan</text>
<text text-anchor="start" x="203" y="-459.5" font-family="Consolas" font-size="10.00" fill="#666666">DATETIME</text>
<polygon fill="none" stroke="black" points="24,-450 24,-628 300,-628 300,-450 24,-450"/>
</g>
<!-- can_bo -->
<g id="node6" class="node">
<title>can_bo</title>
<polygon fill="#dce6f1" fill-opacity="0.400000" stroke="transparent" points="500,-43 500,-67 607,-67 607,-43 500,-43"/>
<text text-anchor="start" x="519.5" y="-53.2" font-family="Consolas" font-weight="bold" font-size="11.00">can_bo</text>
<text text-anchor="start" x="506" y="-29.8" font-family="Consolas" font-size="9.00" fill="#777777">(bảng ở nhóm khác)</text>
<polygon fill="none" stroke="black" points="498.5,-20 498.5,-68 607.5,-68 607.5,-20 498.5,-20"/>
</g>
<!-- ban_giao_ho_so&#45;&gt;can_bo -->
<g id="edge2" class="edge">
<title>ban_giao_ho_so:e&#45;&gt;can_bo</title>
<path fill="none" stroke="#806000" stroke-width="1.3" d="M198,-549C276.53,-549 264.27,-472.98 333,-435 399.3,-398.36 449.3,-427.7 487,-362 539.78,-270.03 550.61,-141.49 552.66,-80.2"/>
<polygon fill="#806000" stroke="#806000" stroke-width="1.3" points="552.66,-80.01 556.49,-72.11 552.78,-76.01 552.89,-72.01 552.89,-72.01 552.89,-72.01 552.78,-76.01 549.29,-71.91 552.66,-80.01 552.66,-80.01"/>
<text text-anchor="middle" x="589" y="-255.8" font-family="Helvetica,sans-Serif" font-size="9.00" fill="#806000">nguoi_ban_giao_id</text>
</g>
<!-- ban_giao_ho_so&#45;&gt;can_bo -->
<g id="edge3" class="edge">
<title>ban_giao_ho_so:e&#45;&gt;can_bo</title>
<path fill="none" stroke="#806000" stroke-width="1.3" d="M198,-527C391.35,-527 291.25,-300.12 408,-146 429.86,-117.14 462.37,-93.43 491.08,-76.25"/>
<polygon fill="#806000" stroke="#806000" stroke-width="1.3" points="491.38,-76.07 500.1,-75.13 494.83,-74.05 498.28,-72.02 498.28,-72.02 498.28,-72.02 494.83,-74.05 496.46,-68.92 491.38,-76.07 491.38,-76.07"/>
<text text-anchor="middle" x="441.5" y="-255.8" font-family="Helvetica,sans-Serif" font-size="9.00" fill="#806000">nguoi_nhan_id</text>
</g>
<!-- yeu_cau_giai_trinh -->
<g id="node8" class="node">
<title>yeu_cau_giai_trinh</title>
<polygon fill="#fbe5d6" fill-opacity="0.400000" stroke="transparent" points="675,-43 675,-67 809,-67 809,-43 675,-43"/>
<text text-anchor="start" x="681" y="-53.2" font-family="Consolas" font-weight="bold" font-size="11.00">yeu_cau_giai_trinh</text>
<text text-anchor="start" x="694.5" y="-29.8" font-family="Consolas" font-size="9.00" fill="#777777">(bảng ở nhóm khác)</text>
<polygon fill="none" stroke="black" points="674,-20 674,-68 810,-68 810,-20 674,-20"/>
</g>
<!-- ban_giao_ho_so&#45;&gt;yeu_cau_giai_trinh -->
<g id="edge1" class="edge">
<title>ban_giao_ho_so:e&#45;&gt;yeu_cau_giai_trinh</title>
<path fill="none" stroke="#806000" stroke-width="1.3" d="M198,-571C283.17,-571 258.56,-476.37 333,-435 456.72,-366.24 539.69,-458.76 643,-362 723.75,-286.37 739.07,-146.02 741.68,-80.46"/>
<polygon fill="#806000" stroke="#806000" stroke-width="1.3" points="741.69,-80.09 745.55,-72.22 741.82,-76.09 741.95,-72.09 741.95,-72.09 741.95,-72.09 741.82,-76.09 738.36,-71.97 741.69,-80.09 741.69,-80.09"/>
</g>
<!-- phuong_an_luu_tru -->
<g id="node2" class="node">
<title>phuong_an_luu_tru</title>
<polygon fill="#e4e4c6" stroke="transparent" points="25,-335 25,-357 299,-357 299,-335 25,-335"/>
<text text-anchor="start" x="104.5" y="-344.2" font-family="Consolas" font-weight="bold" font-size="11.00">phuong_an_luu_tru</text>
<text text-anchor="start" x="30" y="-322.2" font-family="Consolas" font-weight="bold" font-size="11.00">id</text>
<text text-anchor="start" x="44" y="-322.2" font-family="Consolas" font-size="11.00"> </text>
<text text-anchor="start" x="51" y="-322.2" font-family="Consolas" font-size="11.00" fill="#b8860b">PK</text>
<text text-anchor="start" x="203" y="-321.5" font-family="Consolas" font-size="10.00" fill="#666666">BIGINT UNSIGNED</text>
<text text-anchor="start" x="30" y="-300.2" font-family="Consolas" font-size="11.00">yeu_cau_giai_trinh_id </text>
<text text-anchor="start" x="179" y="-300.2" font-family="Consolas" font-size="11.00" fill="#1f6fb2">FK</text>
<text text-anchor="start" x="203" y="-299.5" font-family="Consolas" font-size="10.00" fill="#666666">BIGINT UNSIGNED</text>
<text text-anchor="start" x="30" y="-277.2" font-family="Consolas" font-size="11.00">noi_dung_phuong_an</text>
<text text-anchor="start" x="203" y="-277.5" font-family="Consolas" font-size="10.00" fill="#666666">TEXT</text>
<text text-anchor="start" x="30" y="-256.2" font-family="Consolas" font-size="11.00">nguoi_trinh_id </text>
<text text-anchor="start" x="132" y="-256.2" font-family="Consolas" font-size="11.00" fill="#1f6fb2">FK</text>
<text text-anchor="start" x="203" y="-255.5" font-family="Consolas" font-size="10.00" fill="#666666">BIGINT UNSIGNED</text>
<text text-anchor="start" x="30" y="-233.2" font-family="Consolas" font-size="11.00">ngay_trinh</text>
<text text-anchor="start" x="203" y="-233.5" font-family="Consolas" font-size="10.00" fill="#666666">DATETIME</text>
<text text-anchor="start" x="30" y="-212.2" font-family="Consolas" font-size="11.00">nguoi_duyet_id </text>
<text text-anchor="start" x="132" y="-212.2" font-family="Consolas" font-size="11.00" fill="#1f6fb2">FK</text>
<text text-anchor="start" x="203" y="-211.5" font-family="Consolas" font-size="10.00" fill="#666666">BIGINT UNSIGNED</text>
<text text-anchor="start" x="30" y="-189.2" font-family="Consolas" font-size="11.00">ngay_duyet</text>
<text text-anchor="start" x="203" y="-189.5" font-family="Consolas" font-size="10.00" fill="#666666">DATETIME</text>
<text text-anchor="start" x="30" y="-167.2" font-family="Consolas" font-size="11.00">trang_thai</text>
<text text-anchor="start" x="203" y="-167.5" font-family="Consolas" font-size="10.00" fill="#666666">ENUM</text>
<polygon fill="none" stroke="black" points="24,-158 24,-358 300,-358 300,-158 24,-158"/>
</g>
<!-- phuong_an_luu_tru&#45;&gt;can_bo -->
<g id="edge5" class="edge">
<title>phuong_an_luu_tru:e&#45;&gt;can_bo</title>
<path fill="none" stroke="#806000" stroke-width="1.3" d="M198,-257C279.53,-257 237.64,-153.93 305,-108 357.8,-72 429.58,-56.57 482.33,-49.95"/>
<polygon fill="#806000" stroke="#806000" stroke-width="1.3" points="482.35,-49.95 490.72,-52.58 486.33,-49.47 490.3,-49 490.3,-49 490.3,-49 486.33,-49.47 489.87,-45.43 482.35,-49.95 482.35,-49.95"/>
<text text-anchor="middle" x="337.5" y="-110.8" font-family="Helvetica,sans-Serif" font-size="9.00" fill="#806000">nguoi_trinh_id</text>
</g>
<!-- phuong_an_luu_tru&#45;&gt;can_bo -->
<g id="edge6" class="edge">
<title>phuong_an_luu_tru:e&#45;&gt;can_bo</title>
<path fill="none" stroke="#806000" stroke-width="1.3" d="M198,-213C245.14,-213 180.36,-142.01 213,-108 249.22,-70.25 393.75,-54.7 482.3,-48.62"/>
<polygon fill="#806000" stroke="#806000" stroke-width="1.3" points="482.44,-48.61 490.66,-51.67 486.43,-48.34 490.42,-48.08 490.42,-48.08 490.42,-48.08 486.43,-48.34 490.18,-44.48 482.44,-48.61 482.44,-48.61"/>
<text text-anchor="middle" x="248" y="-110.8" font-family="Helvetica,sans-Serif" font-size="9.00" fill="#806000">nguoi_duyet_id</text>
</g>
<!-- phuong_an_luu_tru&#45;&gt;yeu_cau_giai_trinh -->
<g id="edge4" class="edge">
<title>phuong_an_luu_tru:e&#45;&gt;yeu_cau_giai_trinh</title>
<path fill="none" stroke="#806000" stroke-width="1.3" d="M198,-301C293.25,-301 261.58,-190.12 346,-146 463.6,-84.54 515.32,-142.58 641,-100 658.55,-94.06 676.64,-85.19 692.58,-76.31"/>
<polygon fill="#806000" stroke="#806000" stroke-width="1.3" points="692.79,-76.19 701.53,-75.37 696.27,-74.22 699.75,-72.24 699.75,-72.24 699.75,-72.24 696.27,-74.22 697.97,-69.11 692.79,-76.19 692.79,-76.19"/>
</g>
<!-- so_van_ban -->
<g id="node3" class="node">
<title>so_van_ban</title>
<polygon fill="#e4e4c6" stroke="transparent" points="709,-594 709,-616 983,-616 983,-594 709,-594"/>
<text text-anchor="start" x="812" y="-603.2" font-family="Consolas" font-weight="bold" font-size="11.00">so_van_ban</text>
<text text-anchor="start" x="714" y="-581.2" font-family="Consolas" font-weight="bold" font-size="11.00">id</text>
<text text-anchor="start" x="728" y="-581.2" font-family="Consolas" font-size="11.00"> </text>
<text text-anchor="start" x="735" y="-581.2" font-family="Consolas" font-size="11.00" fill="#b8860b">PK</text>
<text text-anchor="start" x="887" y="-580.5" font-family="Consolas" font-size="10.00" fill="#666666">BIGINT UNSIGNED</text>
<text text-anchor="start" x="714" y="-559.2" font-family="Consolas" font-size="11.00">van_ban_giai_trinh_id </text>
<text text-anchor="start" x="863" y="-559.2" font-family="Consolas" font-size="11.00" fill="#1f6fb2">FK</text>
<text text-anchor="start" x="887" y="-558.5" font-family="Consolas" font-size="10.00" fill="#666666">BIGINT UNSIGNED</text>
<text text-anchor="start" x="714" y="-536.2" font-family="Consolas" font-size="11.00">so_hieu</text>
<text text-anchor="start" x="887" y="-536.5" font-family="Consolas" font-size="10.00" fill="#666666">VARCHAR(50)</text>
<text text-anchor="start" x="714" y="-514.2" font-family="Consolas" font-size="11.00">loai_van_ban</text>
<text text-anchor="start" x="887" y="-514.5" font-family="Consolas" font-size="10.00" fill="#666666">VARCHAR(100)</text>
<text text-anchor="start" x="714" y="-492.2" font-family="Consolas" font-size="11.00">ngay_dang_ky</text>
<text text-anchor="start" x="887" y="-492.5" font-family="Consolas" font-size="10.00" fill="#666666">DATETIME</text>
<text text-anchor="start" x="714" y="-471.2" font-family="Consolas" font-size="11.00">nguoi_dang_ky_id </text>
<text text-anchor="start" x="829" y="-471.2" font-family="Consolas" font-size="11.00" fill="#1f6fb2">FK</text>
<text text-anchor="start" x="887" y="-470.5" font-family="Consolas" font-size="10.00" fill="#666666">BIGINT UNSIGNED</text>
<polygon fill="none" stroke="black" points="708,-461 708,-617 984,-617 984,-461 708,-461"/>
</g>
<!-- so_van_ban&#45;&gt;can_bo -->
<g id="edge8" class="edge">
<title>so_van_ban:e&#45;&gt;can_bo</title>
<path fill="none" stroke="#806000" stroke-width="1.3" d="M882,-472C935.52,-472 999.71,-446.46 977,-398 936.52,-311.63 702.37,-145.98 600.42,-76.69"/>
<polygon fill="#806000" stroke="#806000" stroke-width="1.3" points="600.22,-76.56 595.62,-69.09 596.91,-74.32 593.6,-72.07 593.6,-72.07 593.6,-72.07 596.91,-74.32 591.58,-75.05 600.22,-76.56 600.22,-76.56"/>
</g>
<!-- van_ban_giai_trinh -->
<g id="node7" class="node">
<title>van_ban_giai_trinh</title>
<polygon fill="#d8e4bc" fill-opacity="0.400000" stroke="transparent" points="1053,-43 1053,-67 1187,-67 1187,-43 1053,-43"/>
<text text-anchor="start" x="1059" y="-53.2" font-family="Consolas" font-weight="bold" font-size="11.00">van_ban_giai_trinh</text>
<text text-anchor="start" x="1072.5" y="-29.8" font-family="Consolas" font-size="9.00" fill="#777777">(bảng ở nhóm khác)</text>
<polygon fill="none" stroke="black" points="1052,-20 1052,-68 1188,-68 1188,-20 1052,-20"/>
</g>
<!-- so_van_ban&#45;&gt;van_ban_giai_trinh -->
<g id="edge7" class="edge">
<title>so_van_ban:e&#45;&gt;van_ban_giai_trinh</title>
<path fill="none" stroke="#806000" stroke-width="1.3" d="M882,-560C995.08,-560 1024.74,-498.21 1079,-399 1136.08,-294.63 1130.55,-147.34 1124.25,-80.48"/>
<polygon fill="#806000" stroke="#806000" stroke-width="1.3" points="1124.24,-80.32 1127.03,-72 1123.84,-76.34 1123.45,-72.35 1123.45,-72.35 1123.45,-72.35 1123.84,-76.34 1119.86,-72.71 1124.24,-80.32 1124.24,-80.32"/>
</g>
<!-- ho_so_luu_tru -->
<g id="node4" class="node">
<title>ho_so_luu_tru</title>
<polygon fill="#e4e4c6" stroke="transparent" points="367,-616 367,-638 641,-638 641,-616 367,-616"/>
<text text-anchor="start" x="460" y="-625.2" font-family="Consolas" font-weight="bold" font-size="11.00">ho_so_luu_tru</text>
<text text-anchor="start" x="372" y="-603.2" font-family="Consolas" font-weight="bold" font-size="11.00">id</text>
<text text-anchor="start" x="386" y="-603.2" font-family="Consolas" font-size="11.00"> </text>
<text text-anchor="start" x="393" y="-603.2" font-family="Consolas" font-size="11.00" fill="#b8860b">PK</text>
<text text-anchor="start" x="545" y="-602.5" font-family="Consolas" font-size="10.00" fill="#666666">BIGINT UNSIGNED</text>
<text text-anchor="start" x="372" y="-581.2" font-family="Consolas" font-size="11.00">yeu_cau_giai_trinh_id </text>
<text text-anchor="start" x="521" y="-581.2" font-family="Consolas" font-size="11.00" fill="#1f6fb2">FK</text>
<text text-anchor="start" x="545" y="-580.5" font-family="Consolas" font-size="10.00" fill="#666666">BIGINT UNSIGNED</text>
<text text-anchor="start" x="372" y="-559.2" font-family="Consolas" font-size="11.00">phuong_an_luu_tru_id </text>
<text text-anchor="start" x="514" y="-559.2" font-family="Consolas" font-size="11.00" fill="#1f6fb2">FK</text>
<text text-anchor="start" x="545" y="-558.5" font-family="Consolas" font-size="10.00" fill="#666666">BIGINT UNSIGNED</text>
<text text-anchor="start" x="372" y="-536.2" font-family="Consolas" font-size="11.00">so_luu_tru</text>
<text text-anchor="start" x="545" y="-536.5" font-family="Consolas" font-size="10.00" fill="#666666">VARCHAR(50)</text>
<text text-anchor="start" x="372" y="-514.2" font-family="Consolas" font-size="11.00">ngay_dong_ho_so</text>
<text text-anchor="start" x="545" y="-514.5" font-family="Consolas" font-size="10.00" fill="#666666">DATETIME</text>
<text text-anchor="start" x="372" y="-492.2" font-family="Consolas" font-size="11.00">trang_thai_toan_ven</text>
<text text-anchor="start" x="545" y="-492.5" font-family="Consolas" font-size="10.00" fill="#666666">ENUM</text>
<text text-anchor="start" x="372" y="-471.2" font-family="Consolas" font-size="11.00">don_vi_luu_tru_id </text>
<text text-anchor="start" x="494" y="-471.2" font-family="Consolas" font-size="11.00" fill="#1f6fb2">FK</text>
<text text-anchor="start" x="545" y="-470.5" font-family="Consolas" font-size="10.00" fill="#666666">BIGINT UNSIGNED</text>
<text text-anchor="start" x="372" y="-448.2" font-family="Consolas" font-size="11.00">ma_lien_thong</text>
<text text-anchor="start" x="545" y="-448.5" font-family="Consolas" font-size="10.00" fill="#666666">VARCHAR(100)</text>
<polygon fill="none" stroke="black" points="366,-439 366,-639 642,-639 642,-439 366,-439"/>
</g>
<!-- ho_so_luu_tru&#45;&gt;phuong_an_luu_tru -->
<g id="edge10" class="edge">
<title>ho_so_luu_tru:e&#45;&gt;phuong_an_luu_tru:w</title>
<path fill="none" stroke="#806000" stroke-width="1.3" d="M540,-560C647.47,-560 432.48,-475.66 333,-435 202.78,-381.78 113.7,-471.2 25,-362 16.68,-351.76 10.44,-334.32 16.16,-327.19"/>
<polygon fill="#806000" stroke="#806000" stroke-width="1.3" points="16.59,-327.01 25.36,-327.33 20.29,-325.51 24,-324 24,-324 24,-324 20.29,-325.51 22.64,-320.67 16.59,-327.01 16.59,-327.01"/>
</g>
<!-- don_vi -->
<g id="node5" class="node">
<title>don_vi</title>
<polygon fill="#dce6f1" fill-opacity="0.400000" stroke="transparent" points="878,-43 878,-67 985,-67 985,-43 878,-43"/>
<text text-anchor="start" x="911" y="-53.2" font-family="Consolas" font-weight="bold" font-size="11.00">don_vi</text>
<text text-anchor="start" x="884" y="-29.8" font-family="Consolas" font-size="9.00" fill="#777777">(bảng ở nhóm khác)</text>
<polygon fill="none" stroke="black" points="876.5,-20 876.5,-68 985.5,-68 985.5,-20 876.5,-20"/>
</g>
<!-- ho_so_luu_tru&#45;&gt;don_vi -->
<g id="edge11" class="edge">
<title>ho_so_luu_tru:e&#45;&gt;don_vi</title>
<path fill="none" stroke="#806000" stroke-width="1.3" d="M540,-472C602.21,-472 614.93,-451.18 675,-435 735.37,-418.74 760.03,-435.21 811,-399 915.55,-324.72 930.19,-154.15 931.44,-80.23"/>
<polygon fill="#806000" stroke="#806000" stroke-width="1.3" points="931.44,-80.13 935.12,-72.17 931.48,-76.13 931.52,-72.13 931.52,-72.13 931.52,-72.13 931.48,-76.13 927.92,-72.09 931.44,-80.13 931.44,-80.13"/>
</g>
<!-- ho_so_luu_tru&#45;&gt;yeu_cau_giai_trinh -->
<g id="edge9" class="edge">
<title>ho_so_luu_tru:e&#45;&gt;yeu_cau_giai_trinh</title>
<path fill="none" stroke="#806000" stroke-width="1.3" d="M540,-582C628.7,-582 601.29,-484.35 675,-435 713.56,-409.18 746.44,-437.05 773,-399 847.02,-292.95 802.31,-233.97 773,-108 770.76,-98.35 766.81,-88.48 762.48,-79.51"/>
<polygon fill="#806000" stroke="#806000" stroke-width="1.3" points="762.39,-79.33 761.98,-70.57 760.58,-75.76 758.77,-72.2 758.77,-72.2 758.77,-72.2 760.58,-75.76 755.56,-73.82 762.39,-79.33 762.39,-79.33"/>
</g>
</g>
</svg>
