<?xml version="1.0" encoding="UTF-8" standalone="no"?>
<!DOCTYPE svg PUBLIC "-//W3C//DTD SVG 1.1//EN"
 "http://www.w3.org/Graphics/SVG/1.1/DTD/svg11.dtd">
<!-- Generated by graphviz version 2.43.0 (0)
 -->
<!-- Title: ĐÁNH GIÁ THỰC HIỆN TNGT (đã bổ sung phiếu đánh giá 2 chiều) Pages: 1 -->
<svg width="1182pt" height="816pt"
 viewBox="0.00 0.00 1182.00 815.50" xmlns="http://www.w3.org/2000/svg" xmlns:xlink="http://www.w3.org/1999/xlink">
<g id="graph0" class="graph" transform="scale(1 1) rotate(0) translate(4 811.5)">
<title>ĐÁNH GIÁ THỰC HIỆN TNGT (đã bổ sung phiếu đánh giá 2 chiều)</title>
<polygon fill="white" stroke="transparent" points="-4,4 -4,-811.5 1178,-811.5 1178,4 -4,4"/>
<text text-anchor="middle" x="587" y="-785.9" font-family="Helvetica,sans-Serif" font-size="22.00">ĐÁNH GIÁ THỰC HIỆN TNGT (đã bổ sung phiếu đánh giá 2 chiều)</text>
<!-- can_bo -->
<g id="node1" class="node">
<title>can_bo</title>
<polygon fill="#dce6f1" stroke="transparent" points="865,-728.5 865,-748.5 1173,-748.5 1173,-728.5 865,-728.5"/>
<text text-anchor="start" x="998.5" y="-736.7" font-family="Consolas" font-weight="bold" font-size="11.00">can_bo</text>
<text text-anchor="start" x="869" y="-715.2" font-family="Consolas" font-weight="bold" font-size="11.00">id</text>
<text text-anchor="start" x="965" y="-714.3" font-family="Times,serif" font-size="14.00" fill="#b8860b">PK</text>
<text text-anchor="start" x="986" y="-714.3" font-family="Times,serif" font-size="14.00" fill="#1f6fb2">/FK</text>
<text text-anchor="start" x="1027" y="-713.3" font-family="Times,serif" font-size="14.00" fill="#555555">BIGINT UNSIGNED</text>
<text text-anchor="start" x="869" y="-695.1" font-family="Consolas" font-size="8.00" fill="#999999">= = nguoi_dung.id</text>
<text text-anchor="start" x="869" y="-674.2" font-family="Consolas" font-size="11.00">ma_can_bo</text>
<text text-anchor="start" x="1027" y="-673.3" font-family="Times,serif" font-size="14.00" fill="#555555">VARCHAR(30)</text>
<text text-anchor="start" x="869" y="-651.2" font-family="Consolas" font-size="11.00">ho_ten</text>
<text text-anchor="start" x="1027" y="-650.3" font-family="Times,serif" font-size="14.00" fill="#555555">VARCHAR(150)</text>
<text text-anchor="start" x="869" y="-629.2" font-family="Consolas" font-weight="bold" font-size="11.00">don_vi_id</text>
<text text-anchor="start" x="965" y="-627.3" font-family="Times,serif" font-size="14.00" fill="#1f6fb2">FK</text>
<text text-anchor="start" x="1027" y="-627.3" font-family="Times,serif" font-size="14.00" fill="#555555">BIGINT UNSIGNED</text>
<text text-anchor="start" x="869" y="-605.2" font-family="Consolas" font-size="11.00">chuc_vu</text>
<text text-anchor="start" x="1027" y="-604.3" font-family="Times,serif" font-size="14.00" fill="#555555">VARCHAR(100)</text>
<text text-anchor="start" x="869" y="-582.2" font-family="Consolas" font-size="11.00">email</text>
<text text-anchor="start" x="1027" y="-581.3" font-family="Times,serif" font-size="14.00" fill="#555555">VARCHAR(150)</text>
<text text-anchor="start" x="869" y="-559.2" font-family="Consolas" font-size="11.00">so_dien_thoai</text>
<text text-anchor="start" x="1027" y="-558.3" font-family="Times,serif" font-size="14.00" fill="#555555">VARCHAR(20)</text>
<polygon fill="none" stroke="black" points="864,-549.5 864,-749.5 1174,-749.5 1174,-549.5 864,-549.5"/>
</g>
<!-- don_vi -->
<g id="node2" class="node">
<title>don_vi</title>
<polygon fill="#dce6f1" stroke="transparent" points="878,-249.5 878,-269.5 1161,-269.5 1161,-249.5 878,-249.5"/>
<text text-anchor="start" x="999" y="-257.7" font-family="Consolas" font-weight="bold" font-size="11.00">don_vi</text>
<text text-anchor="start" x="882" y="-236.2" font-family="Consolas" font-weight="bold" font-size="11.00">id</text>
<text text-anchor="start" x="978" y="-234.3" font-family="Times,serif" font-size="14.00" fill="#b8860b">PK</text>
<text text-anchor="start" x="1015" y="-234.3" font-family="Times,serif" font-size="14.00" fill="#555555">BIGINT UNSIGNED</text>
<text text-anchor="start" x="882" y="-212.2" font-family="Consolas" font-size="11.00">ma_don_vi</text>
<text text-anchor="start" x="1015" y="-211.3" font-family="Times,serif" font-size="14.00" fill="#555555">VARCHAR(30)</text>
<text text-anchor="start" x="882" y="-189.2" font-family="Consolas" font-size="11.00">ten_don_vi</text>
<text text-anchor="start" x="1015" y="-188.3" font-family="Times,serif" font-size="14.00" fill="#555555">VARCHAR(255)</text>
<text text-anchor="start" x="882" y="-167.2" font-family="Consolas" font-weight="bold" font-size="11.00">don_vi_cha_id</text>
<text text-anchor="start" x="978" y="-165.3" font-family="Times,serif" font-size="14.00" fill="#1f6fb2">FK</text>
<text text-anchor="start" x="1015" y="-165.3" font-family="Times,serif" font-size="14.00" fill="#555555">BIGINT UNSIGNED</text>
<text text-anchor="start" x="882" y="-143.2" font-family="Consolas" font-size="11.00">cap_don_vi</text>
<text text-anchor="start" x="1015" y="-142.3" font-family="Times,serif" font-size="14.00" fill="#555555">TINYINT</text>
<text text-anchor="start" x="882" y="-120.2" font-family="Consolas" font-size="11.00">loai_don_vi</text>
<text text-anchor="start" x="1015" y="-119.3" font-family="Times,serif" font-size="14.00" fill="#555555">VARCHAR(50)</text>
<text text-anchor="start" x="882" y="-97.2" font-family="Consolas" font-size="11.00">dia_chi</text>
<text text-anchor="start" x="1015" y="-96.3" font-family="Times,serif" font-size="14.00" fill="#555555">VARCHAR(255)</text>
<text text-anchor="start" x="882" y="-74.2" font-family="Consolas" font-size="11.00">trang_thai</text>
<text text-anchor="start" x="1015" y="-73.3" font-family="Times,serif" font-size="14.00" fill="#555555">TINYINT</text>
<text text-anchor="start" x="882" y="-51.2" font-family="Consolas" font-size="11.00">ngay_tao</text>
<text text-anchor="start" x="1015" y="-50.3" font-family="Times,serif" font-size="14.00" fill="#555555">DATETIME</text>
<polygon fill="none" stroke="black" points="876.5,-42 876.5,-271 1161.5,-271 1161.5,-42 876.5,-42"/>
</g>
<!-- don_vi&#45;&gt;don_vi -->
<g id="edge1" class="edge">
<title>don_vi&#45;&gt;don_vi</title>
<path fill="none" stroke="#5578a8" stroke-dasharray="5,2" d="M876.05,-89C874.72,-89 874,-89 874,-89 874,-89 874,-21 874,-21 874,-21 1168,-21 1168,-21 1168,-21 1168,-156.5 1168,-156.5 1168,-156.5 1165.67,-156.5 1161.6,-156.5"/>
</g>
<!-- ket_qua_danh_gia -->
<g id="node3" class="node">
<title>ket_qua_danh_gia</title>
<polygon fill="#f2cfcf" stroke="transparent" points="433.5,-754.5 433.5,-774.5 784.5,-774.5 784.5,-754.5 433.5,-754.5"/>
<text text-anchor="start" x="554.5" y="-762.7" font-family="Consolas" font-weight="bold" font-size="11.00">ket_qua_danh_gia</text>
<text text-anchor="start" x="437.5" y="-741.2" font-family="Consolas" font-weight="bold" font-size="11.00">id</text>
<text text-anchor="start" x="601.5" y="-739.3" font-family="Times,serif" font-size="14.00" fill="#b8860b">PK</text>
<text text-anchor="start" x="638.5" y="-739.3" font-family="Times,serif" font-size="14.00" fill="#555555">BIGINT UNSIGNED</text>
<text text-anchor="start" x="437.5" y="-718.2" font-family="Consolas" font-weight="bold" font-size="11.00">ky_khao_sat_id</text>
<text text-anchor="start" x="601.5" y="-716.3" font-family="Times,serif" font-size="14.00" fill="#1f6fb2">FK</text>
<text text-anchor="start" x="638.5" y="-716.3" font-family="Times,serif" font-size="14.00" fill="#555555">BIGINT UNSIGNED</text>
<text text-anchor="start" x="437.5" y="-695.2" font-family="Consolas" font-weight="bold" font-size="11.00">don_vi_duoc_danh_gia_id</text>
<text text-anchor="start" x="601.5" y="-693.3" font-family="Times,serif" font-size="14.00" fill="#1f6fb2">FK</text>
<text text-anchor="start" x="638.5" y="-693.3" font-family="Times,serif" font-size="14.00" fill="#555555">BIGINT UNSIGNED</text>
<text text-anchor="start" x="437.5" y="-671.2" font-family="Consolas" font-size="11.00">tong_diem</text>
<text text-anchor="start" x="638.5" y="-670.3" font-family="Times,serif" font-size="14.00" fill="#555555">DECIMAL(6,2)</text>
<text text-anchor="start" x="437.5" y="-648.2" font-family="Consolas" font-size="11.00">xep_loai</text>
<text text-anchor="start" x="638.5" y="-647.3" font-family="Times,serif" font-size="14.00" fill="#555555">VARCHAR(50)</text>
<text text-anchor="start" x="437.5" y="-626.2" font-family="Consolas" font-weight="bold" font-size="11.00">nguoi_lap_du_thao_id</text>
<text text-anchor="start" x="601.5" y="-624.3" font-family="Times,serif" font-size="14.00" fill="#1f6fb2">FK</text>
<text text-anchor="start" x="638.5" y="-624.3" font-family="Times,serif" font-size="14.00" fill="#555555">BIGINT UNSIGNED</text>
<text text-anchor="start" x="437.5" y="-603.2" font-family="Consolas" font-weight="bold" font-size="11.00">nguoi_duyet_id</text>
<text text-anchor="start" x="601.5" y="-601.3" font-family="Times,serif" font-size="14.00" fill="#1f6fb2">FK</text>
<text text-anchor="start" x="638.5" y="-601.3" font-family="Times,serif" font-size="14.00" fill="#555555">BIGINT UNSIGNED</text>
<text text-anchor="start" x="437.5" y="-579.2" font-family="Consolas" font-size="11.00">trang_thai</text>
<text text-anchor="start" x="638.5" y="-578.3" font-family="Times,serif" font-size="14.00" fill="#555555">ENUM</text>
<text text-anchor="start" x="437.5" y="-556.2" font-family="Consolas" font-size="11.00">ngay_duyet</text>
<text text-anchor="start" x="638.5" y="-555.3" font-family="Times,serif" font-size="14.00" fill="#555555">DATETIME</text>
<text text-anchor="start" x="437.5" y="-533.2" font-family="Consolas" font-size="11.00">ngay_cong_bo</text>
<text text-anchor="start" x="638.5" y="-532.3" font-family="Times,serif" font-size="14.00" fill="#555555">DATETIME</text>
<polygon fill="none" stroke="black" points="432,-523.5 432,-775.5 785,-775.5 785,-523.5 432,-523.5"/>
</g>
<!-- ket_qua_danh_gia&#45;&gt;can_bo -->
<g id="edge8" class="edge">
<title>ket_qua_danh_gia&#45;&gt;can_bo</title>
<path fill="none" stroke="#5578a8" d="M785.27,-616.17C811.44,-616.17 838.23,-616.17 863.91,-616.17"/>
</g>
<!-- ket_qua_danh_gia&#45;&gt;can_bo -->
<g id="edge9" class="edge">
<title>ket_qua_danh_gia&#45;&gt;can_bo</title>
<path fill="none" stroke="#5578a8" d="M785.27,-682.83C811.44,-682.83 838.23,-682.83 863.91,-682.83"/>
</g>
<!-- ket_qua_danh_gia&#45;&gt;don_vi -->
<g id="edge7" class="edge">
<title>ket_qua_danh_gia&#45;&gt;don_vi</title>
<path fill="none" stroke="#5578a8" d="M785.19,-536.5C837.94,-536.5 882,-536.5 882,-536.5 882,-536.5 882,-382.92 882,-271.03"/>
</g>
<!-- ky_khao_sat -->
<g id="node5" class="node">
<title>ky_khao_sat</title>
<polygon fill="#f2cfcf" stroke="transparent" points="888,-498.5 888,-518.5 1151,-518.5 1151,-498.5 888,-498.5"/>
<text text-anchor="start" x="982" y="-506.7" font-family="Consolas" font-weight="bold" font-size="11.00">ky_khao_sat</text>
<text text-anchor="start" x="892" y="-485.2" font-family="Consolas" font-weight="bold" font-size="11.00">id</text>
<text text-anchor="start" x="968" y="-483.3" font-family="Times,serif" font-size="14.00" fill="#b8860b">PK</text>
<text text-anchor="start" x="1005" y="-483.3" font-family="Times,serif" font-size="14.00" fill="#555555">BIGINT UNSIGNED</text>
<text text-anchor="start" x="892" y="-461.2" font-family="Consolas" font-size="11.00">ten_ky</text>
<text text-anchor="start" x="1005" y="-460.3" font-family="Times,serif" font-size="14.00" fill="#555555">VARCHAR(100)</text>
<text text-anchor="start" x="892" y="-438.2" font-family="Consolas" font-size="11.00">tu_ngay</text>
<text text-anchor="start" x="1005" y="-437.3" font-family="Times,serif" font-size="14.00" fill="#555555">DATE</text>
<text text-anchor="start" x="892" y="-415.2" font-family="Consolas" font-size="11.00">den_ngay</text>
<text text-anchor="start" x="1005" y="-414.3" font-family="Times,serif" font-size="14.00" fill="#555555">DATE</text>
<text text-anchor="start" x="892" y="-392.2" font-family="Consolas" font-size="11.00">trang_thai</text>
<text text-anchor="start" x="1005" y="-391.3" font-family="Times,serif" font-size="14.00" fill="#555555">ENUM</text>
<polygon fill="none" stroke="black" points="886.5,-383 886.5,-520 1151.5,-520 1151.5,-383 886.5,-383"/>
</g>
<!-- ket_qua_danh_gia&#45;&gt;ky_khao_sat -->
<g id="edge10" class="edge">
<title>ket_qua_danh_gia&#45;&gt;ky_khao_sat</title>
<path fill="none" stroke="#5578a8" d="M770,-523.27C770,-509.02 770,-499.5 770,-499.5 770,-499.5 827.02,-499.5 886.48,-499.5"/>
</g>
<!-- ket_qua_khao_sat -->
<g id="node4" class="node">
<title>ket_qua_khao_sat</title>
<polygon fill="#f2cfcf" stroke="transparent" points="1.5,-416.5 1.5,-436.5 352.5,-436.5 352.5,-416.5 1.5,-416.5"/>
<text text-anchor="start" x="122.5" y="-424.7" font-family="Consolas" font-weight="bold" font-size="11.00">ket_qua_khao_sat</text>
<text text-anchor="start" x="5.5" y="-403.2" font-family="Consolas" font-weight="bold" font-size="11.00">id</text>
<text text-anchor="start" x="169.5" y="-401.3" font-family="Times,serif" font-size="14.00" fill="#b8860b">PK</text>
<text text-anchor="start" x="206.5" y="-401.3" font-family="Times,serif" font-size="14.00" fill="#555555">BIGINT UNSIGNED</text>
<text text-anchor="start" x="5.5" y="-380.2" font-family="Consolas" font-weight="bold" font-size="11.00">ky_khao_sat_id</text>
<text text-anchor="start" x="169.5" y="-378.3" font-family="Times,serif" font-size="14.00" fill="#1f6fb2">FK</text>
<text text-anchor="start" x="206.5" y="-378.3" font-family="Times,serif" font-size="14.00" fill="#555555">BIGINT UNSIGNED</text>
<text text-anchor="start" x="5.5" y="-357.2" font-family="Consolas" font-weight="bold" font-size="11.00" fill="#c00000">phieu_danh_gia_id</text>
<text text-anchor="start" x="169.5" y="-355.3" font-family="Times,serif" font-size="14.00" fill="#1f6fb2">FK</text>
<text text-anchor="start" x="206.5" y="-355.3" font-family="Times,serif" font-size="14.00" fill="#555555">BIGINT UNSIGNED</text>
<text text-anchor="start" x="5.5" y="-334.2" font-family="Consolas" font-weight="bold" font-size="11.00">don_vi_duoc_danh_gia_id</text>
<text text-anchor="start" x="169.5" y="-332.3" font-family="Times,serif" font-size="14.00" fill="#1f6fb2">FK</text>
<text text-anchor="start" x="206.5" y="-332.3" font-family="Times,serif" font-size="14.00" fill="#555555">BIGINT UNSIGNED</text>
<text text-anchor="start" x="5.5" y="-311.2" font-family="Consolas" font-weight="bold" font-size="11.00">tieu_chi_id</text>
<text text-anchor="start" x="169.5" y="-309.3" font-family="Times,serif" font-size="14.00" fill="#1f6fb2">FK</text>
<text text-anchor="start" x="206.5" y="-309.3" font-family="Times,serif" font-size="14.00" fill="#555555">BIGINT UNSIGNED</text>
<text text-anchor="start" x="5.5" y="-287.2" font-family="Consolas" font-size="11.00">diem_so</text>
<text text-anchor="start" x="206.5" y="-286.3" font-family="Times,serif" font-size="14.00" fill="#555555">DECIMAL(5,2)</text>
<text text-anchor="start" x="5.5" y="-264.2" font-family="Consolas" font-size="11.00">nguon_du_lieu</text>
<text text-anchor="start" x="206.5" y="-263.3" font-family="Times,serif" font-size="14.00" fill="#555555">VARCHAR(100)</text>
<text text-anchor="start" x="5.5" y="-242.2" font-family="Consolas" font-weight="bold" font-size="11.00">can_bo_thu_thap_id</text>
<text text-anchor="start" x="169.5" y="-240.3" font-family="Times,serif" font-size="14.00" fill="#1f6fb2">FK</text>
<text text-anchor="start" x="206.5" y="-240.3" font-family="Times,serif" font-size="14.00" fill="#555555">BIGINT UNSIGNED</text>
<text text-anchor="start" x="5.5" y="-218.2" font-family="Consolas" font-size="11.00">ngay_thu_thap</text>
<text text-anchor="start" x="206.5" y="-217.3" font-family="Times,serif" font-size="14.00" fill="#555555">DATETIME</text>
<polygon fill="none" stroke="black" points="0,-209 0,-438 353,-438 353,-209 0,-209"/>
</g>
<!-- ket_qua_khao_sat&#45;&gt;can_bo -->
<g id="edge4" class="edge">
<title>ket_qua_khao_sat&#45;&gt;can_bo</title>
<path fill="none" stroke="#5578a8" d="M118,-438.14C118,-461.45 118,-479 118,-479 118,-479 868,-479 868,-479 868,-479 868,-512.22 868,-549.33"/>
</g>
<!-- ket_qua_khao_sat&#45;&gt;don_vi -->
<g id="edge3" class="edge">
<title>ket_qua_khao_sat&#45;&gt;don_vi</title>
<path fill="none" stroke="#5578a8" d="M118,-208.69C118,-200.86 118,-196 118,-196 118,-196 622.18,-196 876.23,-196"/>
</g>
<!-- ket_qua_khao_sat&#45;&gt;ky_khao_sat -->
<g id="edge6" class="edge">
<title>ket_qua_khao_sat&#45;&gt;ky_khao_sat</title>
<path fill="none" stroke="#5578a8" d="M236,-438.29C236,-450.45 236,-458.5 236,-458.5 236,-458.5 662.78,-458.5 886.17,-458.5"/>
</g>
<!-- phieu_danh_gia -->
<g id="node6" class="node">
<title>phieu_danh_gia</title>
<polygon fill="#f2cfcf" stroke="transparent" points="463.5,-413.5 463.5,-433.5 753.5,-433.5 753.5,-413.5 463.5,-413.5"/>
<text text-anchor="start" x="561" y="-421.7" font-family="Consolas" font-weight="bold" font-size="11.00">phieu_danh_gia</text>
<text text-anchor="start" x="467.5" y="-400.2" font-family="Consolas" font-weight="bold" font-size="11.00" fill="#c00000">id</text>
<text text-anchor="start" x="570.5" y="-398.3" font-family="Times,serif" font-size="14.00" fill="#b8860b">PK</text>
<text text-anchor="start" x="607.5" y="-398.3" font-family="Times,serif" font-size="14.00" fill="#555555">BIGINT UNSIGNED</text>
<text text-anchor="start" x="467.5" y="-377.2" font-family="Consolas" font-weight="bold" font-size="11.00" fill="#c00000">ky_khao_sat_id</text>
<text text-anchor="start" x="570.5" y="-375.3" font-family="Times,serif" font-size="14.00" fill="#1f6fb2">FK</text>
<text text-anchor="start" x="607.5" y="-375.3" font-family="Times,serif" font-size="14.00" fill="#555555">BIGINT UNSIGNED</text>
<text text-anchor="start" x="467.5" y="-354.2" font-family="Consolas" font-weight="bold" font-size="11.00" fill="#c00000">don_vi_id</text>
<text text-anchor="start" x="570.5" y="-352.3" font-family="Times,serif" font-size="14.00" fill="#1f6fb2">FK</text>
<text text-anchor="start" x="607.5" y="-352.3" font-family="Times,serif" font-size="14.00" fill="#555555">BIGINT UNSIGNED</text>
<text text-anchor="start" x="467.5" y="-331.2" font-family="Consolas" font-weight="bold" font-size="11.00" fill="#c00000">nguoi_lap_id</text>
<text text-anchor="start" x="570.5" y="-329.3" font-family="Times,serif" font-size="14.00" fill="#1f6fb2">FK</text>
<text text-anchor="start" x="607.5" y="-329.3" font-family="Times,serif" font-size="14.00" fill="#555555">BIGINT UNSIGNED</text>
<text text-anchor="start" x="467.5" y="-307.2" font-family="Consolas" font-size="11.00" fill="#c00000">trang_thai</text>
<text text-anchor="start" x="607.5" y="-306.3" font-family="Times,serif" font-size="14.00" fill="#555555">ENUM</text>
<text text-anchor="start" x="467.5" y="-288.1" font-family="Consolas" font-size="8.00" fill="#999999">= Nháp/Đã gửi/Yêu cầu bổ sung/Đã duyệt</text>
<text text-anchor="start" x="467.5" y="-267.2" font-family="Consolas" font-size="11.00" fill="#c00000">ngay_gui</text>
<text text-anchor="start" x="607.5" y="-266.3" font-family="Times,serif" font-size="14.00" fill="#555555">DATETIME</text>
<text text-anchor="start" x="467.5" y="-244.2" font-family="Consolas" font-size="11.00" fill="#c00000">ngay_duyet</text>
<text text-anchor="start" x="607.5" y="-243.3" font-family="Times,serif" font-size="14.00" fill="#555555">DATETIME</text>
<text text-anchor="start" x="467.5" y="-221.2" font-family="Consolas" font-size="11.00" fill="#c00000">ghi_chu</text>
<text text-anchor="start" x="607.5" y="-220.3" font-family="Times,serif" font-size="14.00" fill="#555555">TEXT</text>
<polygon fill="none" stroke="black" points="462.5,-212 462.5,-435 754.5,-435 754.5,-212 462.5,-212"/>
</g>
<!-- ket_qua_khao_sat&#45;&gt;phieu_danh_gia -->
<g id="edge14" class="edge">
<title>ket_qua_khao_sat&#45;&gt;phieu_danh_gia</title>
<path fill="none" stroke="#5578a8" d="M353.15,-323.5C389.4,-323.5 427.19,-323.5 462.23,-323.5"/>
</g>
<!-- tieu_chi_danh_gia -->
<g id="node7" class="node">
<title>tieu_chi_danh_gia</title>
<polygon fill="#f2cfcf" stroke="transparent" points="470.5,-161.5 470.5,-181.5 747.5,-181.5 747.5,-161.5 470.5,-161.5"/>
<text text-anchor="start" x="551.5" y="-169.7" font-family="Consolas" font-weight="bold" font-size="11.00">tieu_chi_danh_gia</text>
<text text-anchor="start" x="474.5" y="-148.2" font-family="Consolas" font-weight="bold" font-size="11.00">id</text>
<text text-anchor="start" x="564.5" y="-146.3" font-family="Times,serif" font-size="14.00" fill="#b8860b">PK</text>
<text text-anchor="start" x="601.5" y="-146.3" font-family="Times,serif" font-size="14.00" fill="#555555">BIGINT UNSIGNED</text>
<text text-anchor="start" x="474.5" y="-124.2" font-family="Consolas" font-size="11.00">ten_tieu_chi</text>
<text text-anchor="start" x="601.5" y="-123.3" font-family="Times,serif" font-size="14.00" fill="#555555">VARCHAR(255)</text>
<text text-anchor="start" x="474.5" y="-101.2" font-family="Consolas" font-size="11.00">mo_ta</text>
<text text-anchor="start" x="601.5" y="-100.3" font-family="Times,serif" font-size="14.00" fill="#555555">TEXT</text>
<text text-anchor="start" x="474.5" y="-78.2" font-family="Consolas" font-size="11.00">trong_so</text>
<text text-anchor="start" x="601.5" y="-77.3" font-family="Times,serif" font-size="14.00" fill="#555555">DECIMAL(5,2)</text>
<text text-anchor="start" x="474.5" y="-55.2" font-family="Consolas" font-size="11.00">pham_vi</text>
<text text-anchor="start" x="601.5" y="-54.3" font-family="Times,serif" font-size="14.00" fill="#555555">ENUM</text>
<text text-anchor="start" x="474.5" y="-33.2" font-family="Consolas" font-weight="bold" font-size="11.00">don_vi_id</text>
<text text-anchor="start" x="564.5" y="-31.3" font-family="Times,serif" font-size="14.00" fill="#1f6fb2">FK</text>
<text text-anchor="start" x="601.5" y="-31.3" font-family="Times,serif" font-size="14.00" fill="#555555">BIGINT UNSIGNED</text>
<text text-anchor="start" x="474.5" y="-9.2" font-family="Consolas" font-size="11.00">trang_thai</text>
<text text-anchor="start" x="601.5" y="-8.3" font-family="Times,serif" font-size="14.00" fill="#555555">TINYINT</text>
<polygon fill="none" stroke="black" points="469,0 469,-183 748,-183 748,0 469,0"/>
</g>
<!-- ket_qua_khao_sat&#45;&gt;tieu_chi_danh_gia -->
<g id="edge5" class="edge">
<title>ket_qua_khao_sat&#45;&gt;tieu_chi_danh_gia</title>
<path fill="none" stroke="#5578a8" d="M236,-208.86C236,-150.41 236,-91.5 236,-91.5 236,-91.5 363.04,-91.5 468.73,-91.5"/>
</g>
<!-- phieu_danh_gia&#45;&gt;can_bo -->
<g id="edge13" class="edge">
<title>phieu_danh_gia&#45;&gt;can_bo</title>
<path fill="none" stroke="#5578a8" d="M754.72,-417.67C814.99,-417.67 871,-417.67 871,-417.67 871,-417.67 871,-486.75 871,-549.5"/>
</g>
<!-- phieu_danh_gia&#45;&gt;don_vi -->
<g id="edge12" class="edge">
<title>phieu_danh_gia&#45;&gt;don_vi</title>
<path fill="none" stroke="#5578a8" d="M754.67,-241.5C794.18,-241.5 836.87,-241.5 876.19,-241.5"/>
</g>
<!-- phieu_danh_gia&#45;&gt;ky_khao_sat -->
<g id="edge11" class="edge">
<title>phieu_danh_gia&#45;&gt;ky_khao_sat</title>
<path fill="none" stroke="#5578a8" d="M754.67,-400.33C797.63,-400.33 844.37,-400.33 886.43,-400.33"/>
</g>
<!-- tieu_chi_danh_gia&#45;&gt;don_vi -->
<g id="edge2" class="edge">
<title>tieu_chi_danh_gia&#45;&gt;don_vi</title>
<path fill="none" stroke="#5578a8" d="M748.05,-136C789.42,-136 834.78,-136 876.34,-136"/>
</g>
</g>
</svg>
