<?xml version="1.0" encoding="UTF-8" standalone="no"?>
<!DOCTYPE svg PUBLIC "-//W3C//DTD SVG 1.1//EN"
 "http://www.w3.org/Graphics/SVG/1.1/DTD/svg11.dtd">
<!-- Generated by graphviz version 2.43.0 (0)
 -->
<!-- Title: ERD Pages: 1 -->
<svg width="1386pt" height="1539pt"
 viewBox="0.00 0.00 1385.60 1538.60" xmlns="http://www.w3.org/2000/svg" xmlns:xlink="http://www.w3.org/1999/xlink">
<g id="graph0" class="graph" transform="scale(1 1) rotate(0) translate(28.8 1509.8)">
<title>ERD</title>
<polygon fill="white" stroke="transparent" points="-28.8,28.8 -28.8,-1509.8 1356.8,-1509.8 1356.8,28.8 -28.8,28.8"/>
<text text-anchor="middle" x="664" y="-1461" font-family="Helvetica,sans-Serif" font-size="20.00">SƠ ĐỒ QUAN HỆ TỔNG THỂ &#45; HỆ THỐNG QUẢN LÝ TRÁCH NHIỆM GIẢI TRÌNH (TNGT)</text>
<g id="clust1" class="cluster">
<title>cluster_dm</title>
<polygon fill="#f2f2f2" stroke="black" points="26,-900 26,-1089 574.5,-1089 574.5,-900 26,-900"/>
<text text-anchor="middle" x="300.25" y="-1074.6" font-family="Helvetica,sans-Serif" font-weight="bold" font-size="13.00">DANH MỤC DÙNG CHUNG</text>
</g>
<g id="clust2" class="cluster">
<title>cluster_ycgt</title>
<polygon fill="#fdf2e9" stroke="black" points="8,-724 8,-862 1001.5,-862 1001.5,-724 8,-724"/>
<text text-anchor="middle" x="504.75" y="-847.6" font-family="Helvetica,sans-Serif" font-weight="bold" font-size="13.00">TIẾP NHẬN &amp; XỬ LÝ YÊU CẦU GIẢI TRÌNH</text>
</g>
<g id="clust3" class="cluster">
<title>cluster_vb</title>
<polygon fill="#eaf1dd" stroke="black" points="438.5,-499 438.5,-637 970.5,-637 970.5,-499 438.5,-499"/>
<text text-anchor="middle" x="704.5" y="-622.6" font-family="Helvetica,sans-Serif" font-weight="bold" font-size="13.00">VĂN BẢN &amp; CÔNG KHAI</text>
</g>
<g id="clust4" class="cluster">
<title>cluster_ph</title>
<polygon fill="#e9e3f2" stroke="black" points="644,-197 644,-397 1008,-397 1008,-197 644,-197"/>
<text text-anchor="middle" x="826" y="-382.6" font-family="Helvetica,sans-Serif" font-weight="bold" font-size="13.00">PHẢN HỒI &amp; KHIẾU NẠI</text>
</g>
<g id="clust5" class="cluster">
<title>cluster_dg</title>
<polygon fill="#fce8e8" stroke="black" points="201,-1305 201,-1443 774.5,-1443 774.5,-1305 201,-1305"/>
<text text-anchor="middle" x="487.75" y="-1428.6" font-family="Helvetica,sans-Serif" font-weight="bold" font-size="13.00">ĐÁNH GIÁ TNGT</text>
</g>
<g id="clust6" class="cluster">
<title>cluster_gs</title>
<polygon fill="#e5f2f2" stroke="black" points="439.5,-1097 439.5,-1297 979.5,-1297 979.5,-1097 439.5,-1097"/>
<text text-anchor="middle" x="709.5" y="-1282.6" font-family="Helvetica,sans-Serif" font-weight="bold" font-size="13.00">GIÁM SÁT, GIAO VIỆC &amp; BÁO CÁO</text>
</g>
<g id="clust7" class="cluster">
<title>cluster_lt</title>
<polygon fill="#f2f2e5" stroke="black" points="651,-8 651,-146 1238.5,-146 1238.5,-8 651,-8"/>
<text text-anchor="middle" x="944.75" y="-131.6" font-family="Helvetica,sans-Serif" font-weight="bold" font-size="13.00">SỔ VĂN BẢN &amp; LƯU TRỮ</text>
</g>
<g id="clust8" class="cluster">
<title>cluster_gen</title>
<polygon fill="#fff8dc" stroke="black" points="1043,-430 1043,-692 1328,-692 1328,-430 1043,-430"/>
<text text-anchor="middle" x="1185.5" y="-677.6" font-family="Helvetica,sans-Serif" font-weight="bold" font-size="13.00">BẢNG DÙNG CHUNG (POLYMORPHIC)</text>
</g>
<!-- don_vi -->
<g id="node1" class="node">
<title>don_vi</title>
<polygon fill="#dce6f1" stroke="black" points="34,-994 34,-1030 95,-1030 95,-994 34,-994"/>
<text text-anchor="middle" x="64.5" y="-1015.2" font-family="Helvetica,sans-Serif" font-size="11.00">don_vi</text>
<text text-anchor="middle" x="64.5" y="-1003.2" font-family="Helvetica,sans-Serif" font-size="11.00">(Đơn vị)</text>
</g>
<!-- don_vi&#45;&gt;don_vi -->
<g id="edge1" class="edge">
<title>don_vi&#45;&gt;don_vi</title>
<path fill="none" stroke="#666666" d="M33.77,-1012C28.67,-1012 25,-1012 25,-1012 25,-1012 25,-1044.5 25,-1044.5 25,-1044.5 104,-1044.5 104,-1044.5 104,-1044.5 104,-1027.5 104,-1027.5 104,-1027.5 102.23,-1027.5 102.23,-1027.5"/>
<polygon fill="#666666" stroke="#666666" points="102.23,-1025.05 95.23,-1027.5 102.23,-1029.95 102.23,-1025.05"/>
</g>
<!-- nguoi_dung -->
<g id="node2" class="node">
<title>nguoi_dung</title>
<polygon fill="#dce6f1" stroke="black" points="216.5,-1022 216.5,-1058 314.5,-1058 314.5,-1022 216.5,-1022"/>
<text text-anchor="middle" x="265.5" y="-1043.2" font-family="Helvetica,sans-Serif" font-size="11.00">nguoi_dung</text>
<text text-anchor="middle" x="265.5" y="-1031.2" font-family="Helvetica,sans-Serif" font-size="11.00">(Định danh chung)</text>
</g>
<!-- don_vi&#45;&gt;can_bo -->
<g id="edge2" class="edge">
<title>don_vi&#45;&gt;can_bo</title>
<path fill="none" stroke="#666666" d="M95.03,-1024.5C95.03,-1020 300,-1027 316,-1027"/>
<polygon fill="#666666" stroke="#666666" points="316,-1029.45 323,-1027 316,-1024.55 316,-1029.45"/>
</g>
<!-- yeu_cau_giai_trinh -->
<g id="node6" class="node">
<title>yeu_cau_giai_trinh</title>
<polygon fill="#f4b183" stroke="black" stroke-width="2" points="207,-733 207,-769 324,-769 324,-733 207,-733"/>
<text text-anchor="middle" x="265.5" y="-754.2" font-family="Helvetica,sans-Serif" font-size="11.00">yeu_cau_giai_trinh</text>
<text text-anchor="middle" x="265.5" y="-742.2" font-family="Helvetica,sans-Serif" font-size="11.00">(TRUNG TÂM)</text>
</g>
<!-- don_vi&#45;&gt;yeu_cau_giai_trinh -->
<g id="edge6" class="edge">
<title>don_vi&#45;&gt;yeu_cau_giai_trinh</title>
<path fill="none" stroke="#666666" d="M95.27,-1009C138.77,-1009 213,-1009 213,-1009 213,-1009 213,-776.14 213,-776.14"/>
<polygon fill="#666666" stroke="#666666" points="215.45,-776.14 213,-769.14 210.55,-776.14 215.45,-776.14"/>
<text text-anchor="middle" x="160" y="-891.8" font-family="Helvetica,sans-Serif" font-size="9.00">tiếp nhận</text>
</g>
<!-- ky_khao_sat -->
<g id="node22" class="node">
<title>ky_khao_sat</title>
<polygon fill="#f2cfcf" stroke="black" points="224,-1314 224,-1350 307,-1350 307,-1314 224,-1314"/>
<text text-anchor="middle" x="265.5" y="-1329.2" font-family="Helvetica,sans-Serif" font-size="11.00">ky_khao_sat</text>
</g>
<!-- don_vi&#45;&gt;ky_khao_sat -->
<g id="edge22" class="edge">
<title>don_vi&#45;&gt;ky_khao_sat</title>
<path fill="none" stroke="#666666" d="M55,-1030.12C55,-1097.82 55,-1332 55,-1332 55,-1332 216.91,-1332 216.91,-1332"/>
<polygon fill="#666666" stroke="#666666" points="216.91,-1334.45 223.91,-1332 216.91,-1329.55 216.91,-1334.45"/>
</g>
<!-- bao_cao_thong_ke -->
<g id="node30" class="node">
<title>bao_cao_thong_ke</title>
<polygon fill="#c6e0e0" stroke="black" points="447.5,-1168 447.5,-1204 563.5,-1204 563.5,-1168 447.5,-1168"/>
<text text-anchor="middle" x="505.5" y="-1183.2" font-family="Helvetica,sans-Serif" font-size="11.00">bao_cao_thong_ke</text>
</g>
<!-- don_vi&#45;&gt;bao_cao_thong_ke -->
<g id="edge30" class="edge">
<title>don_vi&#45;&gt;bao_cao_thong_ke</title>
<path fill="none" stroke="#666666" d="M75,-1030.29C75,-1074.97 75,-1186 75,-1186 75,-1186 440.44,-1186 440.44,-1186"/>
<polygon fill="#666666" stroke="#666666" points="440.44,-1188.45 447.44,-1186 440.44,-1183.55 440.44,-1188.45"/>
</g>
<!-- nguoi_dung_vai_tro -->
<g id="node4" class="node">
<title>nguoi_dung_vai_tro</title>
<polygon fill="#dce6f1" stroke="black" points="444.5,-994 444.5,-1030 566.5,-1030 566.5,-994 444.5,-994"/>
<text text-anchor="middle" x="505.5" y="-1009.2" font-family="Helvetica,sans-Serif" font-size="11.00">nguoi_dung_vai_tro</text>
</g>
<!-- can_bo&#45;&gt;nguoi_dung_vai_tro -->
<g id="edge3" class="edge">
<title>can_bo&#45;&gt;nguoi_dung_vai_tro</title>
<path fill="none" stroke="#666666" d="M430,-1026C430,-1026 437.48,-1026 437.48,-1026"/>
<polygon fill="#666666" stroke="#666666" points="437.48,-1028.45 444.48,-1026 437.48,-1023.55 437.48,-1028.45"/>
</g>
<!-- nhiem_vu_giai_trinh -->
<g id="node8" class="node">
<title>nhiem_vu_giai_trinh</title>
<polygon fill="#fbe5d6" stroke="black" points="647.5,-766 647.5,-802 772.5,-802 772.5,-766 647.5,-766"/>
<text text-anchor="middle" x="710" y="-781.2" font-family="Helvetica,sans-Serif" font-size="11.00">nhiem_vu_giai_trinh</text>
</g>
<!-- can_bo -->
<g id="node_canbo" class="node">
<title>can_bo</title>
<polygon fill="#dce6f1" stroke="black" points="330,-1010 330,-1044 430,-1044 430,-1010 330,-1010"/>
<text text-anchor="middle" x="380" y="-1031.2" font-family="Helvetica,sans-Serif" font-size="11.00">can_bo</text>
<text text-anchor="middle" x="380" y="-1019.2" font-family="Helvetica,sans-Serif" font-size="11.00">(id = nguoi_dung.id)</text>
</g>
<!-- nguoi_dan -->
<g id="node_nguoidan" class="node">
<title>nguoi_dan</title>
<polygon fill="#dce6f1" stroke="black" points="330,-972 330,-1006 430,-1006 430,-972 330,-972"/>
<text text-anchor="middle" x="380" y="-993.2" font-family="Helvetica,sans-Serif" font-size="11.00">nguoi_dan</text>
<text text-anchor="middle" x="380" y="-981.2" font-family="Helvetica,sans-Serif" font-size="11.00">(id = nguoi_dung.id)</text>
</g>
<!-- to_chuc -->
<g id="node_tochuc" class="node">
<title>to_chuc</title>
<polygon fill="#dce6f1" stroke="black" points="330,-934 330,-968 430,-968 430,-934 330,-934"/>
<text text-anchor="middle" x="380" y="-955.2" font-family="Helvetica,sans-Serif" font-size="11.00">to_chuc</text>
<text text-anchor="middle" x="380" y="-943.2" font-family="Helvetica,sans-Serif" font-size="11.00">(id = nguoi_dung.id)</text>
</g>
<!-- nguoi_dung&#45;&gt;can_bo -->
<g id="edge_nd_cb" class="edge">
<title>nguoi_dung&#45;&gt;can_bo</title>
<path fill="none" stroke="#2e8b57" stroke-dasharray="5,2" d="M290,-1022C290,-1010 300,-1027 330,-1027"/>
<polygon fill="#2e8b57" stroke="#2e8b57" points="330,-1029.45 337,-1027 330,-1024.55 330,-1029.45"/>
</g>
<!-- nguoi_dung&#45;&gt;nguoi_dan -->
<g id="edge_nd_ndan" class="edge">
<title>nguoi_dung&#45;&gt;nguoi_dan</title>
<path fill="none" stroke="#2e8b57" stroke-dasharray="5,2" d="M275,-1022C260,-990 300,-989 330,-989"/>
<polygon fill="#2e8b57" stroke="#2e8b57" points="330,-991.45 337,-989 330,-986.55 330,-991.45"/>
</g>
<!-- nguoi_dung&#45;&gt;to_chuc -->
<g id="edge_nd_tc" class="edge">
<title>nguoi_dung&#45;&gt;to_chuc</title>
<path fill="none" stroke="#2e8b57" stroke-dasharray="5,2" d="M265,-1022C240,-970 300,-951 330,-951"/>
<polygon fill="#2e8b57" stroke="#2e8b57" points="330,-953.45 337,-951 330,-948.55 330,-953.45"/>
</g>
<!-- can_bo&#45;&gt;don_vi -->
<g id="edge_cb_dv" class="edge">
<title>can_bo&#45;&gt;don_vi</title>
<path fill="none" stroke="#666666" d="M330,-1015C200,-1015 130,-1015 95,-1010C95,-1009 95,-1005 95,-1000"/>
<polygon fill="#666666" stroke="#666666" points="92.55,-1000.28 95,-993.28 97.45,-1000.28 92.55,-1000.28"/>
</g>
<!-- nguoi_dung&#45;&gt;nhiem_vu_giai_trinh -->
<g id="edge9" class="edge">
<title>nguoi_dung&#45;&gt;nhiem_vu_giai_trinh</title>
<path fill="none" stroke="#666666" d="M304,-1021.74C304,-963.54 304,-786.17 304,-786.17 304,-786.17 640.45,-786.17 640.45,-786.17"/>
<polygon fill="#666666" stroke="#666666" points="640.45,-788.62 647.45,-786.17 640.45,-783.72 640.45,-788.62"/>
<text text-anchor="middle" x="505.5" y="-884.8" font-family="Helvetica,sans-Serif" font-size="9.00">CBCM</text>
</g>
<!-- phieu_giao_viec -->
<g id="node28" class="node">
<title>phieu_giao_viec</title>
<polygon fill="#c6e0e0" stroke="black" points="454,-1106 454,-1142 557,-1142 557,-1106 454,-1106"/>
<text text-anchor="middle" x="505.5" y="-1121.2" font-family="Helvetica,sans-Serif" font-size="11.00">phieu_giao_viec</text>
</g>
<!-- nguoi_dung&#45;&gt;phieu_giao_viec -->
<g id="edge28" class="edge">
<title>nguoi_dung&#45;&gt;phieu_giao_viec</title>
<path fill="none" stroke="#666666" d="M311,-1058.23C311,-1082.93 311,-1124 311,-1124 311,-1124 446.89,-1124 446.89,-1124"/>
<polygon fill="#666666" stroke="#666666" points="446.89,-1126.45 453.89,-1124 446.89,-1121.55 446.89,-1126.45"/>
<text text-anchor="middle" x="372" y="-1075.8" font-family="Helvetica,sans-Serif" font-size="9.00">giao/nhận</text>
</g>
<!-- vai_tro -->
<g id="node3" class="node">
<title>vai_tro</title>
<polygon fill="#dce6f1" stroke="black" points="238.5,-960 238.5,-996 292.5,-996 292.5,-960 238.5,-960"/>
<text text-anchor="middle" x="265.5" y="-975.2" font-family="Helvetica,sans-Serif" font-size="11.00">vai_tro</text>
</g>
<!-- vai_tro&#45;&gt;nguoi_dung_vai_tro -->
<g id="edge4" class="edge">
<title>vai_tro&#45;&gt;nguoi_dung_vai_tro</title>
<path fill="none" stroke="#666666" d="M292.62,-976.5C344.34,-976.5 452,-976.5 452,-976.5 452,-976.5 452,-986.83 452,-986.83"/>
<polygon fill="#666666" stroke="#666666" points="449.55,-986.83 452,-993.83 454.45,-986.83 449.55,-986.83"/>
</g>
<!-- nguoi_yeu_cau -->
<g id="node5" class="node">
<title>nguoi_yeu_cau</title>
<polygon fill="#fbe5d6" stroke="black" points="16,-733 16,-769 113,-769 113,-733 16,-733"/>
<text text-anchor="middle" x="64.5" y="-748.2" font-family="Helvetica,sans-Serif" font-size="11.00">nguoi_yeu_cau</text>
</g>
<!-- nguoi_yeu_cau&#45;&gt;yeu_cau_giai_trinh -->
<g id="edge5" class="edge">
<title>nguoi_yeu_cau&#45;&gt;yeu_cau_giai_trinh</title>
<path fill="none" stroke="#666666" d="M113.16,-751C113.16,-751 199.91,-751 199.91,-751"/>
<polygon fill="#666666" stroke="#666666" points="199.91,-753.45 206.91,-751 199.91,-748.55 199.91,-753.45"/>
</g>
<!-- phieu_yeu_cau_cm -->
<g id="node7" class="node">
<title>phieu_yeu_cau_cm</title>
<polygon fill="#fbe5d6" stroke="black" points="420,-733 420,-769 591,-769 591,-733 420,-733"/>
<text text-anchor="middle" x="505.5" y="-748.2" font-family="Helvetica,sans-Serif" font-size="11.00">phieu_yeu_cau_chuyen_mon</text>
</g>
<!-- yeu_cau_giai_trinh&#45;&gt;phieu_yeu_cau_cm -->
<g id="edge7" class="edge">
<title>yeu_cau_giai_trinh&#45;&gt;phieu_yeu_cau_cm</title>
<path fill="none" stroke="#666666" d="M324.21,-757.17C324.21,-757.17 412.73,-757.17 412.73,-757.17"/>
<polygon fill="#666666" stroke="#666666" points="412.73,-759.62 419.73,-757.17 412.73,-754.72 412.73,-759.62"/>
</g>
<!-- buoi_lam_viec -->
<g id="node10" class="node">
<title>buoi_lam_viec</title>
<polygon fill="#fbe5d6" stroke="black" points="459,-795 459,-831 552,-831 552,-795 459,-795"/>
<text text-anchor="middle" x="505.5" y="-810.2" font-family="Helvetica,sans-Serif" font-size="11.00">buoi_lam_viec</text>
</g>
<!-- yeu_cau_giai_trinh&#45;&gt;buoi_lam_viec -->
<g id="edge12" class="edge">
<title>yeu_cau_giai_trinh&#45;&gt;buoi_lam_viec</title>
<path fill="none" stroke="#666666" d="M317,-769.27C317,-787.56 317,-813 317,-813 317,-813 451.9,-813 451.9,-813"/>
<polygon fill="#666666" stroke="#666666" points="451.9,-815.45 458.9,-813 451.9,-810.55 451.9,-815.45"/>
</g>
<!-- van_ban_giai_trinh -->
<g id="node12" class="node">
<title>van_ban_giai_trinh</title>
<polygon fill="#c4d79b" stroke="black" points="446.5,-508 446.5,-544 564.5,-544 564.5,-508 446.5,-508"/>
<text text-anchor="middle" x="505.5" y="-523.2" font-family="Helvetica,sans-Serif" font-size="11.00">van_ban_giai_trinh</text>
</g>
<!-- yeu_cau_giai_trinh&#45;&gt;van_ban_giai_trinh -->
<g id="edge13" class="edge">
<title>yeu_cau_giai_trinh&#45;&gt;van_ban_giai_trinh</title>
<path fill="none" stroke="#666666" d="M295,-732.97C295,-679.58 295,-526 295,-526 295,-526 439.3,-526 439.3,-526"/>
<polygon fill="#666666" stroke="#666666" points="439.3,-528.45 446.3,-526 439.3,-523.55 439.3,-528.45"/>
</g>
<!-- don_khieu_nai -->
<g id="node18" class="node">
<title>don_khieu_nai</title>
<polygon fill="#ccc1da" stroke="black" points="663.5,-268 663.5,-304 756.5,-304 756.5,-268 663.5,-268"/>
<text text-anchor="middle" x="710" y="-283.2" font-family="Helvetica,sans-Serif" font-size="11.00">don_khieu_nai</text>
</g>
<!-- yeu_cau_giai_trinh&#45;&gt;don_khieu_nai -->
<g id="edge19" class="edge">
<title>yeu_cau_giai_trinh&#45;&gt;don_khieu_nai</title>
<path fill="none" stroke="#666666" stroke-dasharray="5,2" d="M237,-732.77C237,-646.8 237,-286 237,-286 237,-286 656.35,-286 656.35,-286"/>
<polygon fill="#666666" stroke="#666666" points="656.35,-288.45 663.35,-286 656.35,-283.55 656.35,-288.45"/>
</g>
<!-- ban_giao_ho_so -->
<g id="node31" class="node">
<title>ban_giao_ho_so</title>
<polygon fill="#e4e4c6" stroke="black" points="659,-17 659,-53 761,-53 761,-17 659,-17"/>
<text text-anchor="middle" x="710" y="-32.2" font-family="Helvetica,sans-Serif" font-size="11.00">ban_giao_ho_so</text>
</g>
<!-- yeu_cau_giai_trinh&#45;&gt;ban_giao_ho_so -->
<g id="edge31" class="edge">
<title>yeu_cau_giai_trinh&#45;&gt;ban_giao_ho_so</title>
<path fill="none" stroke="#666666" stroke-dasharray="5,2" d="M222,-732.94C222,-621.78 222,-35 222,-35 222,-35 651.7,-35 651.7,-35"/>
<polygon fill="#666666" stroke="#666666" points="651.7,-37.45 658.7,-35 651.7,-32.55 651.7,-37.45"/>
</g>
<!-- ho_so_luu_tru -->
<g id="node34" class="node">
<title>ho_so_luu_tru</title>
<polygon fill="#e4e4c6" stroke="black" points="1139.5,-17 1139.5,-53 1230.5,-53 1230.5,-17 1139.5,-17"/>
<text text-anchor="middle" x="1185" y="-32.2" font-family="Helvetica,sans-Serif" font-size="11.00">ho_so_luu_tru</text>
</g>
<!-- yeu_cau_giai_trinh&#45;&gt;ho_so_luu_tru -->
<g id="edge35" class="edge">
<title>yeu_cau_giai_trinh&#45;&gt;ho_so_luu_tru</title>
<path fill="none" stroke="#666666" stroke-dasharray="5,2" d="M251,-732.75C251,-661.05 251,-402.5 251,-402.5 251,-402.5 1185,-402.5 1185,-402.5 1185,-402.5 1185,-60.22 1185,-60.22"/>
<polygon fill="#666666" stroke="#666666" points="1187.45,-60.22 1185,-53.22 1182.55,-60.22 1187.45,-60.22"/>
</g>
<!-- phe_duyet -->
<g id="node35" class="node">
<title>phe_duyet</title>
<polygon fill="#ffe699" stroke="black" points="1134,-625 1134,-661 1236,-661 1236,-625 1134,-625"/>
<text text-anchor="middle" x="1185" y="-646.2" font-family="Helvetica,sans-Serif" font-size="11.00">phe_duyet</text>
<text text-anchor="middle" x="1185" y="-634.2" font-family="Helvetica,sans-Serif" font-size="11.00">(nhật ký duyệt)</text>
</g>
<!-- yeu_cau_giai_trinh&#45;&gt;phe_duyet -->
<g id="edge36" class="edge">
<title>yeu_cau_giai_trinh&#45;&gt;phe_duyet</title>
<path fill="none" stroke="#b8860b" stroke-dasharray="1,5" d="M310,-732.68C310,-701.87 310,-643 310,-643 310,-643 946.7,-643 1133.85,-643"/>
</g>
<!-- tep_dinh_kem -->
<g id="node36" class="node">
<title>tep_dinh_kem</title>
<polygon fill="#ffe699" stroke="black" points="1139,-563 1139,-599 1231,-599 1231,-563 1139,-563"/>
<text text-anchor="middle" x="1185" y="-578.2" font-family="Helvetica,sans-Serif" font-size="11.00">tep_dinh_kem</text>
</g>
<!-- yeu_cau_giai_trinh&#45;&gt;tep_dinh_kem -->
<g id="edge40" class="edge">
<title>yeu_cau_giai_trinh&#45;&gt;tep_dinh_kem</title>
<path fill="none" stroke="#b8860b" stroke-dasharray="1,5" d="M324.05,-744.83C348.79,-744.83 372,-744.83 372,-744.83 372,-744.83 372,-567.17 372,-567.17 372,-567.17 966.98,-567.17 1138.96,-567.17"/>
</g>
<!-- thong_bao -->
<g id="node37" class="node">
<title>thong_bao</title>
<polygon fill="#ffe699" stroke="black" points="1148,-501 1148,-537 1222,-537 1222,-501 1148,-501"/>
<text text-anchor="middle" x="1185" y="-516.2" font-family="Helvetica,sans-Serif" font-size="11.00">thong_bao</text>
</g>
<!-- yeu_cau_giai_trinh&#45;&gt;thong_bao -->
<g id="edge42" class="edge">
<title>yeu_cau_giai_trinh&#45;&gt;thong_bao</title>
<path fill="none" stroke="#b8860b" stroke-dasharray="1,5" d="M281,-732.84C281,-675.8 281,-504 281,-504 281,-504 977.77,-504 1147.88,-504"/>
</g>
<!-- lich_su_trang_thai -->
<g id="node38" class="node">
<title>lich_su_trang_thai</title>
<polygon fill="#ffe699" stroke="black" points="1128,-439 1128,-475 1242,-475 1242,-439 1128,-439"/>
<text text-anchor="middle" x="1185" y="-454.2" font-family="Helvetica,sans-Serif" font-size="11.00">lich_su_trang_thai</text>
</g>
<!-- yeu_cau_giai_trinh&#45;&gt;lich_su_trang_thai -->
<g id="edge43" class="edge">
<title>yeu_cau_giai_trinh&#45;&gt;lich_su_trang_thai</title>
<path fill="none" stroke="#b8860b" stroke-dasharray="1,5" d="M266,-732.61C266,-668.25 266,-457 266,-457 266,-457 927.08,-457 1127.86,-457"/>
</g>
<!-- phieu_yeu_cau_cm&#45;&gt;nhiem_vu_giai_trinh -->
<g id="edge8" class="edge">
<title>phieu_yeu_cau_cm&#45;&gt;nhiem_vu_giai_trinh</title>
<path fill="none" stroke="#666666" d="M579,-769.05C579,-773.9 579,-777.83 579,-777.83 579,-777.83 640.19,-777.83 640.19,-777.83"/>
<polygon fill="#666666" stroke="#666666" points="640.19,-780.28 647.19,-777.83 640.19,-775.38 640.19,-780.28"/>
</g>
<!-- ke_hoach_giai_trinh -->
<g id="node9" class="node">
<title>ke_hoach_giai_trinh</title>
<polygon fill="#fbe5d6" stroke="black" points="853,-733 853,-769 976,-769 976,-733 853,-733"/>
<text text-anchor="middle" x="914.5" y="-748.2" font-family="Helvetica,sans-Serif" font-size="11.00">ke_hoach_giai_trinh</text>
</g>
<!-- nhiem_vu_giai_trinh&#45;&gt;ke_hoach_giai_trinh -->
<g id="edge10" class="edge">
<title>nhiem_vu_giai_trinh&#45;&gt;ke_hoach_giai_trinh</title>
<path fill="none" stroke="#666666" d="M772.62,-782C832.91,-782 915,-782 915,-782 915,-782 915,-776.03 915,-776.03"/>
<polygon fill="#666666" stroke="#666666" points="917.45,-776.03 915,-769.03 912.55,-776.03 917.45,-776.03"/>
</g>
<!-- bao_cao_thu_thap -->
<g id="node11" class="node">
<title>bao_cao_thu_thap</title>
<polygon fill="#fbe5d6" stroke="black" points="835.5,-795 835.5,-831 993.5,-831 993.5,-795 835.5,-795"/>
<text text-anchor="middle" x="914.5" y="-810.2" font-family="Helvetica,sans-Serif" font-size="11.00">bao_cao_thu_thap_du_lieu</text>
</g>
<!-- nhiem_vu_giai_trinh&#45;&gt;bao_cao_thu_thap -->
<g id="edge11" class="edge">
<title>nhiem_vu_giai_trinh&#45;&gt;bao_cao_thu_thap</title>
<path fill="none" stroke="#666666" d="M772.75,-798.5C772.75,-798.5 828.23,-798.5 828.23,-798.5"/>
<polygon fill="#666666" stroke="#666666" points="828.23,-800.95 835.23,-798.5 828.23,-796.05 828.23,-800.95"/>
</g>
<!-- ke_hoach_giai_trinh&#45;&gt;phe_duyet -->
<g id="edge38" class="edge">
<title>ke_hoach_giai_trinh&#45;&gt;phe_duyet</title>
<path fill="none" stroke="#b8860b" stroke-dasharray="1,5" d="M970,-732.89C970,-704.38 970,-652.25 970,-652.25 970,-652.25 1070.18,-652.25 1133.78,-652.25"/>
</g>
<!-- y_kien_phoi_hop -->
<g id="node13" class="node">
<title>y_kien_phoi_hop</title>
<polygon fill="#d8e4bc" stroke="black" points="657.5,-508 657.5,-544 762.5,-544 762.5,-508 657.5,-508"/>
<text text-anchor="middle" x="710" y="-523.2" font-family="Helvetica,sans-Serif" font-size="11.00">y_kien_phoi_hop</text>
</g>
<!-- van_ban_giai_trinh&#45;&gt;y_kien_phoi_hop -->
<g id="edge14" class="edge">
<title>van_ban_giai_trinh&#45;&gt;y_kien_phoi_hop</title>
<path fill="none" stroke="#666666" d="M564.65,-526C564.65,-526 650.25,-526 650.25,-526"/>
<polygon fill="#666666" stroke="#666666" points="650.25,-528.45 657.25,-526 650.25,-523.55 650.25,-528.45"/>
</g>
<!-- cong_khai_van_ban -->
<g id="node14" class="node">
<title>cong_khai_van_ban</title>
<polygon fill="#d8e4bc" stroke="black" points="649,-570 649,-606 771,-606 771,-570 649,-570"/>
<text text-anchor="middle" x="710" y="-585.2" font-family="Helvetica,sans-Serif" font-size="11.00">cong_khai_van_ban</text>
</g>
<!-- van_ban_giai_trinh&#45;&gt;cong_khai_van_ban -->
<g id="edge15" class="edge">
<title>van_ban_giai_trinh&#45;&gt;cong_khai_van_ban</title>
<path fill="none" stroke="#666666" d="M506,-544.27C506,-562.56 506,-588 506,-588 506,-588 641.79,-588 641.79,-588"/>
<polygon fill="#666666" stroke="#666666" points="641.79,-590.45 648.79,-588 641.79,-585.55 641.79,-590.45"/>
</g>
<!-- phan_hoi_van_ban -->
<g id="node16" class="node">
<title>phan_hoi_van_ban</title>
<polygon fill="#ccc1da" stroke="black" points="652,-330 652,-366 768,-366 768,-330 652,-330"/>
<text text-anchor="middle" x="710" y="-345.2" font-family="Helvetica,sans-Serif" font-size="11.00">phan_hoi_van_ban</text>
</g>
<!-- van_ban_giai_trinh&#45;&gt;phan_hoi_van_ban -->
<g id="edge17" class="edge">
<title>van_ban_giai_trinh&#45;&gt;phan_hoi_van_ban</title>
<path fill="none" stroke="#666666" d="M526,-507.95C526,-462.7 526,-348 526,-348 526,-348 644.78,-348 644.78,-348"/>
<polygon fill="#666666" stroke="#666666" points="644.78,-350.45 651.78,-348 644.78,-345.55 644.78,-350.45"/>
</g>
<!-- so_van_ban -->
<g id="node33" class="node">
<title>so_van_ban</title>
<polygon fill="#e4e4c6" stroke="black" points="670,-79 670,-115 750,-115 750,-79 670,-79"/>
<text text-anchor="middle" x="710" y="-94.2" font-family="Helvetica,sans-Serif" font-size="11.00">so_van_ban</text>
</g>
<!-- van_ban_giai_trinh&#45;&gt;so_van_ban -->
<g id="edge33" class="edge">
<title>van_ban_giai_trinh&#45;&gt;so_van_ban</title>
<path fill="none" stroke="#666666" d="M486,-507.84C486,-426.19 486,-97 486,-97 486,-97 662.95,-97 662.95,-97"/>
<polygon fill="#666666" stroke="#666666" points="662.95,-99.45 669.95,-97 662.95,-94.55 662.95,-99.45"/>
</g>
<!-- van_ban_giai_trinh&#45;&gt;phe_duyet -->
<g id="edge37" class="edge">
<title>van_ban_giai_trinh&#45;&gt;phe_duyet</title>
<path fill="none" stroke="#b8860b" stroke-dasharray="1,5" d="M476,-544.28C476,-575.02 476,-633.75 476,-633.75 476,-633.75 970.86,-633.75 1133.73,-633.75"/>
</g>
<!-- van_ban_giai_trinh&#45;&gt;tep_dinh_kem -->
<g id="edge41" class="edge">
<title>van_ban_giai_trinh&#45;&gt;tep_dinh_kem</title>
<path fill="none" stroke="#b8860b" stroke-dasharray="1,5" d="M535,-544.05C535,-554.19 535,-564.83 535,-564.83 535,-564.83 990.28,-564.83 1138.77,-564.83"/>
</g>
<!-- xu_ly_an_danh -->
<g id="node15" class="node">
<title>xu_ly_an_danh</title>
<polygon fill="#d8e4bc" stroke="black" points="866.5,-517 866.5,-553 962.5,-553 962.5,-517 866.5,-517"/>
<text text-anchor="middle" x="914.5" y="-532.2" font-family="Helvetica,sans-Serif" font-size="11.00">xu_ly_an_danh</text>
</g>
<!-- cong_khai_van_ban&#45;&gt;xu_ly_an_danh -->
<g id="edge16" class="edge">
<title>cong_khai_van_ban&#45;&gt;xu_ly_an_danh</title>
<path fill="none" stroke="#666666" d="M771.23,-584.5C831.64,-584.5 915,-584.5 915,-584.5 915,-584.5 915,-560.15 915,-560.15"/>
<polygon fill="#666666" stroke="#666666" points="917.45,-560.15 915,-553.15 912.55,-560.15 917.45,-560.15"/>
</g>
<!-- cong_khai_van_ban&#45;&gt;phe_duyet -->
<g id="edge39" class="edge">
<title>cong_khai_van_ban&#45;&gt;phe_duyet</title>
<path fill="none" stroke="#b8860b" stroke-dasharray="1,5" d="M771.13,-603C899.42,-603 1185,-603 1185,-603 1185,-603 1185,-614.29 1185,-624.87"/>
</g>
<!-- quyet_dinh_thu_ly_ph -->
<g id="node17" class="node">
<title>quyet_dinh_thu_ly_ph</title>
<polygon fill="#d9d2e9" stroke="black" points="830,-330 830,-366 999,-366 999,-330 830,-330"/>
<text text-anchor="middle" x="914.5" y="-345.2" font-family="Helvetica,sans-Serif" font-size="11.00">quyet_dinh_thu_ly_phan_hoi</text>
</g>
<!-- phan_hoi_van_ban&#45;&gt;quyet_dinh_thu_ly_ph -->
<g id="edge18" class="edge">
<title>phan_hoi_van_ban&#45;&gt;quyet_dinh_thu_ly_ph</title>
<path fill="none" stroke="#666666" d="M768.05,-348C768.05,-348 822.96,-348 822.96,-348"/>
<polygon fill="#666666" stroke="#666666" points="822.96,-350.45 829.96,-348 822.96,-345.55 822.96,-350.45"/>
</g>
<!-- quyet_dinh_thu_ly_kn -->
<g id="node19" class="node">
<title>quyet_dinh_thu_ly_kn</title>
<polygon fill="#d9d2e9" stroke="black" points="829,-206 829,-242 1000,-242 1000,-206 829,-206"/>
<text text-anchor="middle" x="914.5" y="-221.2" font-family="Helvetica,sans-Serif" font-size="11.00">quyet_dinh_thu_ly_khieu_nai</text>
</g>
<!-- don_khieu_nai&#45;&gt;quyet_dinh_thu_ly_kn -->
<g id="edge20" class="edge">
<title>don_khieu_nai&#45;&gt;quyet_dinh_thu_ly_kn</title>
<path fill="none" stroke="#666666" d="M756.55,-279.83C794.21,-279.83 841,-279.83 841,-279.83 841,-279.83 841,-249.28 841,-249.28"/>
<polygon fill="#666666" stroke="#666666" points="843.45,-249.28 841,-242.28 838.55,-249.28 843.45,-249.28"/>
</g>
<!-- xac_minh_khieu_nai -->
<g id="node20" class="node">
<title>xac_minh_khieu_nai</title>
<polygon fill="#d9d2e9" stroke="black" points="852,-268 852,-304 977,-304 977,-268 852,-268"/>
<text text-anchor="middle" x="914.5" y="-283.2" font-family="Helvetica,sans-Serif" font-size="11.00">xac_minh_khieu_nai</text>
</g>
<!-- don_khieu_nai&#45;&gt;xac_minh_khieu_nai -->
<g id="edge21" class="edge">
<title>don_khieu_nai&#45;&gt;xac_minh_khieu_nai</title>
<path fill="none" stroke="#666666" d="M756.66,-292.17C756.66,-292.17 844.76,-292.17 844.76,-292.17"/>
<polygon fill="#666666" stroke="#666666" points="844.76,-294.62 851.76,-292.17 844.76,-289.72 844.76,-294.62"/>
</g>
<!-- tieu_chi_danh_gia -->
<g id="node21" class="node">
<title>tieu_chi_danh_gia</title>
<polygon fill="#f2cfcf" stroke="black" points="209,-1376 209,-1412 322,-1412 322,-1376 209,-1376"/>
<text text-anchor="middle" x="265.5" y="-1391.2" font-family="Helvetica,sans-Serif" font-size="11.00">tieu_chi_danh_gia</text>
</g>
<!-- ket_qua_khao_sat -->
<g id="node23" class="node">
<title>ket_qua_khao_sat</title>
<polygon fill="#f2cfcf" stroke="black" points="449,-1331 449,-1367 562,-1367 562,-1331 449,-1331"/>
<text text-anchor="middle" x="505.5" y="-1346.2" font-family="Helvetica,sans-Serif" font-size="11.00">ket_qua_khao_sat</text>
</g>
<!-- tieu_chi_danh_gia&#45;&gt;ket_qua_khao_sat -->
<g id="edge23" class="edge">
<title>tieu_chi_danh_gia&#45;&gt;ket_qua_khao_sat</title>
<path fill="none" stroke="#666666" d="M320,-1375.68C320,-1367.21 320,-1359 320,-1359 320,-1359 441.84,-1359 441.84,-1359"/>
<polygon fill="#666666" stroke="#666666" points="441.84,-1361.45 448.84,-1359 441.84,-1356.55 441.84,-1361.45"/>
</g>
<!-- ky_khao_sat&#45;&gt;ket_qua_khao_sat -->
<g id="edge24" class="edge">
<title>ky_khao_sat&#45;&gt;ket_qua_khao_sat</title>
<path fill="none" stroke="#666666" d="M307.03,-1340.5C307.03,-1340.5 441.76,-1340.5 441.76,-1340.5"/>
<polygon fill="#666666" stroke="#666666" points="441.76,-1342.95 448.76,-1340.5 441.76,-1338.05 441.76,-1342.95"/>
</g>
<!-- ket_qua_danh_gia -->
<g id="node24" class="node">
<title>ket_qua_danh_gia</title>
<polygon fill="#f2cfcf" stroke="black" points="653.5,-1331 653.5,-1367 766.5,-1367 766.5,-1331 653.5,-1331"/>
<text text-anchor="middle" x="710" y="-1346.2" font-family="Helvetica,sans-Serif" font-size="11.00">ket_qua_danh_gia</text>
</g>
<!-- ket_qua_khao_sat&#45;&gt;ket_qua_danh_gia -->
<g id="edge25" class="edge">
<title>ket_qua_khao_sat&#45;&gt;ket_qua_danh_gia</title>
<path fill="none" stroke="#666666" d="M562.19,-1349C562.19,-1349 646.2,-1349 646.2,-1349"/>
<polygon fill="#666666" stroke="#666666" points="646.2,-1351.45 653.2,-1349 646.2,-1346.55 646.2,-1351.45"/>
</g>
<!-- co_quan_giam_sat -->
<g id="node25" class="node">
<title>co_quan_giam_sat</title>
<polygon fill="#c6e0e0" stroke="black" points="447.5,-1230 447.5,-1266 563.5,-1266 563.5,-1230 447.5,-1230"/>
<text text-anchor="middle" x="505.5" y="-1245.2" font-family="Helvetica,sans-Serif" font-size="11.00">co_quan_giam_sat</text>
</g>
<!-- cau_hinh_phan_quyen -->
<g id="node26" class="node">
<title>cau_hinh_phan_quyen</title>
<polygon fill="#c6e0e0" stroke="black" points="642,-1230 642,-1266 778,-1266 778,-1230 642,-1230"/>
<text text-anchor="middle" x="710" y="-1245.2" font-family="Helvetica,sans-Serif" font-size="11.00">cau_hinh_phan_quyen</text>
</g>
<!-- co_quan_giam_sat&#45;&gt;cau_hinh_phan_quyen -->
<g id="edge26" class="edge">
<title>co_quan_giam_sat&#45;&gt;cau_hinh_phan_quyen</title>
<path fill="none" stroke="#666666" d="M563.55,-1248C563.55,-1248 634.66,-1248 634.66,-1248"/>
<polygon fill="#666666" stroke="#666666" points="634.66,-1250.45 641.66,-1248 634.66,-1245.55 634.66,-1250.45"/>
</g>
<!-- nhat_ky_giam_sat -->
<g id="node27" class="node">
<title>nhat_ky_giam_sat</title>
<polygon fill="#c6e0e0" stroke="black" points="857.5,-1230 857.5,-1266 971.5,-1266 971.5,-1230 857.5,-1230"/>
<text text-anchor="middle" x="914.5" y="-1245.2" font-family="Helvetica,sans-Serif" font-size="11.00">nhat_ky_giam_sat</text>
</g>
<!-- cau_hinh_phan_quyen&#45;&gt;nhat_ky_giam_sat -->
<g id="edge27" class="edge">
<title>cau_hinh_phan_quyen&#45;&gt;nhat_ky_giam_sat</title>
<path fill="none" stroke="#666666" d="M778.1,-1248C778.1,-1248 850.28,-1248 850.28,-1248"/>
<polygon fill="#666666" stroke="#666666" points="850.28,-1250.45 857.28,-1248 850.28,-1245.55 850.28,-1250.45"/>
</g>
<!-- bao_cao_nhiem_vu -->
<g id="node29" class="node">
<title>bao_cao_nhiem_vu</title>
<polygon fill="#c6e0e0" stroke="black" points="650.5,-1106 650.5,-1142 769.5,-1142 769.5,-1106 650.5,-1106"/>
<text text-anchor="middle" x="710" y="-1121.2" font-family="Helvetica,sans-Serif" font-size="11.00">bao_cao_nhiem_vu</text>
</g>
<!-- phieu_giao_viec&#45;&gt;bao_cao_nhiem_vu -->
<g id="edge29" class="edge">
<title>phieu_giao_viec&#45;&gt;bao_cao_nhiem_vu</title>
<path fill="none" stroke="#666666" d="M557.1,-1124C557.1,-1124 643.44,-1124 643.44,-1124"/>
<polygon fill="#666666" stroke="#666666" points="643.44,-1126.45 650.44,-1124 643.44,-1121.55 643.44,-1126.45"/>
</g>
<!-- phuong_an_luu_tru -->
<g id="node32" class="node">
<title>phuong_an_luu_tru</title>
<polygon fill="#e4e4c6" stroke="black" points="855,-17 855,-53 974,-53 974,-17 855,-17"/>
<text text-anchor="middle" x="914.5" y="-32.2" font-family="Helvetica,sans-Serif" font-size="11.00">phuong_an_luu_tru</text>
</g>
<!-- ban_giao_ho_so&#45;&gt;phuong_an_luu_tru -->
<g id="edge32" class="edge">
<title>ban_giao_ho_so&#45;&gt;phuong_an_luu_tru</title>
<path fill="none" stroke="#666666" d="M761.08,-35C761.08,-35 847.65,-35 847.65,-35"/>
<polygon fill="#666666" stroke="#666666" points="847.65,-37.45 854.65,-35 847.65,-32.55 847.65,-37.45"/>
</g>
<!-- phuong_an_luu_tru&#45;&gt;ho_so_luu_tru -->
<g id="edge34" class="edge">
<title>phuong_an_luu_tru&#45;&gt;ho_so_luu_tru</title>
<path fill="none" stroke="#666666" d="M974.2,-35C974.2,-35 1132.3,-35 1132.3,-35"/>
<polygon fill="#666666" stroke="#666666" points="1132.3,-37.45 1139.3,-35 1132.3,-32.55 1132.3,-37.45"/>
</g>
</g>
</svg>
