<?xml version="1.0" encoding="UTF-8" standalone="no"?>
<!DOCTYPE svg PUBLIC "-//W3C//DTD SVG 1.1//EN"
 "http://www.w3.org/Graphics/SVG/1.1/DTD/svg11.dtd">
<!-- Generated by graphviz version 2.43.0 (0)
 -->
<!-- Title: G Pages: 1 -->
<svg width="1408pt" height="791pt"
 viewBox="0.00 0.00 1407.60 790.60" xmlns="http://www.w3.org/2000/svg" xmlns:xlink="http://www.w3.org/1999/xlink">
<g id="graph0" class="graph" transform="scale(1 1) rotate(0) translate(28.8 761.8)">
<title>G</title>
<polygon fill="white" stroke="transparent" points="-28.8,28.8 -28.8,-761.8 1378.8,-761.8 1378.8,28.8 -28.8,28.8"/>
<text text-anchor="middle" x="675" y="-713" font-family="Helvetica,sans-Serif" font-size="20.00">ERD CHI TIẾT — NHÓM: VĂN BẢN GIẢI TRÌNH &amp; CÔNG KHAI</text>
<g id="clust1" class="cluster">
<title>cluster_main</title>
<polygon fill="#d8e4bc" fill-opacity="0.200000" stroke="#d8e4bc" points="8,-146 8,-695 1342,-695 1342,-146 8,-146"/>
</g>
<g id="clust2" class="cluster">
<title>cluster_ghost</title>
<polygon fill="white" stroke="#999999" stroke-dasharray="5,2" points="644,-8 644,-100 1163,-100 1163,-8 644,-8"/>
<text text-anchor="middle" x="903.5" y="-87.2" font-family="Helvetica,sans-Serif" font-weight="bold" font-size="11.00">Bảng cha tham chiếu tới (ở nhóm khác)</text>
</g>
<!-- van_ban_giai_trinh -->
<g id="node1" class="node">
<title>van_ban_giai_trinh</title>
<polygon fill="#d8e4bc" stroke="transparent" points="540,-401 540,-423 814,-423 814,-401 540,-401"/>
<text text-anchor="start" x="616" y="-410.2" font-family="Consolas" font-weight="bold" font-size="11.00">van_ban_giai_trinh</text>
<text text-anchor="start" x="545" y="-388.2" font-family="Consolas" font-weight="bold" font-size="11.00">id</text>
<text text-anchor="start" x="559" y="-388.2" font-family="Consolas" font-size="11.00"> </text>
<text text-anchor="start" x="566" y="-388.2" font-family="Consolas" font-size="11.00" fill="#b8860b">PK</text>
<text text-anchor="start" x="718" y="-387.5" font-family="Consolas" font-size="10.00" fill="#666666">BIGINT UNSIGNED</text>
<text text-anchor="start" x="545" y="-366.2" font-family="Consolas" font-size="11.00">yeu_cau_giai_trinh_id </text>
<text text-anchor="start" x="694" y="-366.2" font-family="Consolas" font-size="11.00" fill="#1f6fb2">FK</text>
<text text-anchor="start" x="718" y="-365.5" font-family="Consolas" font-size="10.00" fill="#666666">BIGINT UNSIGNED</text>
<text text-anchor="start" x="545" y="-343.2" font-family="Consolas" font-size="11.00">so_van_ban</text>
<text text-anchor="start" x="718" y="-343.5" font-family="Consolas" font-size="10.00" fill="#666666">VARCHAR(50)</text>
<text text-anchor="start" x="545" y="-321.2" font-family="Consolas" font-size="11.00">trich_yeu</text>
<text text-anchor="start" x="718" y="-321.5" font-family="Consolas" font-size="10.00" fill="#666666">VARCHAR(500)</text>
<text text-anchor="start" x="545" y="-299.2" font-family="Consolas" font-size="11.00">noi_dung</text>
<text text-anchor="start" x="718" y="-299.5" font-family="Consolas" font-size="10.00" fill="#666666">LONGTEXT</text>
<text text-anchor="start" x="545" y="-278.2" font-family="Consolas" font-size="11.00">nguoi_soan_id </text>
<text text-anchor="start" x="640" y="-278.2" font-family="Consolas" font-size="11.00" fill="#1f6fb2">FK</text>
<text text-anchor="start" x="718" y="-277.5" font-family="Consolas" font-size="10.00" fill="#666666">BIGINT UNSIGNED</text>
<text text-anchor="start" x="545" y="-255.2" font-family="Consolas" font-size="11.00">ngay_soan</text>
<text text-anchor="start" x="718" y="-255.5" font-family="Consolas" font-size="10.00" fill="#666666">DATETIME</text>
<text text-anchor="start" x="545" y="-234.2" font-family="Consolas" font-size="11.00">nguoi_ky_id </text>
<text text-anchor="start" x="627" y="-234.2" font-family="Consolas" font-size="11.00" fill="#1f6fb2">FK</text>
<text text-anchor="start" x="718" y="-233.5" font-family="Consolas" font-size="10.00" fill="#666666">BIGINT UNSIGNED</text>
<text text-anchor="start" x="545" y="-211.2" font-family="Consolas" font-size="11.00">ngay_ban_hanh</text>
<text text-anchor="start" x="718" y="-211.5" font-family="Consolas" font-size="10.00" fill="#666666">DATETIME</text>
<text text-anchor="start" x="545" y="-189.2" font-family="Consolas" font-size="11.00">chu_ky_so</text>
<text text-anchor="start" x="718" y="-189.5" font-family="Consolas" font-size="10.00" fill="#666666">VARCHAR(255)</text>
<text text-anchor="start" x="545" y="-167.2" font-family="Consolas" font-size="11.00">trang_thai</text>
<text text-anchor="start" x="718" y="-167.5" font-family="Consolas" font-size="10.00" fill="#666666">ENUM</text>
<polygon fill="none" stroke="black" points="539,-158 539,-424 815,-424 815,-158 539,-158"/>
</g>
<!-- can_bo -->
<g id="node7" class="node">
<title>can_bo</title>
<polygon fill="#dce6f1" fill-opacity="0.400000" stroke="transparent" points="864,-43 864,-67 971,-67 971,-43 864,-43"/>
<text text-anchor="start" x="883.5" y="-53.2" font-family="Consolas" font-weight="bold" font-size="11.00">can_bo</text>
<text text-anchor="start" x="870" y="-29.8" font-family="Consolas" font-size="9.00" fill="#777777">(bảng ở nhóm khác)</text>
<polygon fill="none" stroke="black" points="862.5,-20 862.5,-68 971.5,-68 971.5,-20 862.5,-20"/>
</g>
<!-- van_ban_giai_trinh&#45;&gt;can_bo -->
<g id="edge2" class="edge">
<title>van_ban_giai_trinh:e&#45;&gt;can_bo</title>
<path fill="none" stroke="#548235" stroke-width="1.3" d="M713,-279C801.49,-279 751.84,-169.99 815,-108 820.11,-102.98 822.85,-103.68 829,-100 841.53,-92.51 854.93,-84.26 867.41,-76.47"/>
<polygon fill="#548235" stroke="#548235" stroke-width="1.3" points="867.46,-76.44 876.15,-75.25 870.85,-74.32 874.24,-72.2 874.24,-72.2 874.24,-72.2 870.85,-74.32 872.33,-69.14 867.46,-76.44 867.46,-76.44"/>
<text text-anchor="middle" x="847" y="-110.8" font-family="Helvetica,sans-Serif" font-size="9.00" fill="#548235">nguoi_soan_id</text>
</g>
<!-- van_ban_giai_trinh&#45;&gt;can_bo -->
<g id="edge3" class="edge">
<title>van_ban_giai_trinh:e&#45;&gt;can_bo</title>
<path fill="none" stroke="#548235" stroke-width="1.3" d="M713,-235C770.8,-235 697.63,-146.21 741,-108 755.73,-95.02 810.39,-106.26 829,-100 845.14,-94.57 861.36,-85.65 875.4,-76.56"/>
<polygon fill="#548235" stroke="#548235" stroke-width="1.3" points="875.45,-76.53 884.1,-75.09 878.78,-74.31 882.11,-72.09 882.11,-72.09 882.11,-72.09 878.78,-74.31 880.11,-69.1 875.45,-76.53 875.45,-76.53"/>
<text text-anchor="middle" x="768" y="-110.8" font-family="Helvetica,sans-Serif" font-size="9.00" fill="#548235">nguoi_ky_id</text>
</g>
<!-- yeu_cau_giai_trinh -->
<g id="node8" class="node">
<title>yeu_cau_giai_trinh</title>
<polygon fill="#fbe5d6" fill-opacity="0.400000" stroke="transparent" points="661,-43 661,-67 795,-67 795,-43 661,-43"/>
<text text-anchor="start" x="667" y="-53.2" font-family="Consolas" font-weight="bold" font-size="11.00">yeu_cau_giai_trinh</text>
<text text-anchor="start" x="680.5" y="-29.8" font-family="Consolas" font-size="9.00" fill="#777777">(bảng ở nhóm khác)</text>
<polygon fill="none" stroke="black" points="660,-20 660,-68 796,-68 796,-20 660,-20"/>
</g>
<!-- van_ban_giai_trinh&#45;&gt;yeu_cau_giai_trinh -->
<g id="edge1" class="edge">
<title>van_ban_giai_trinh:e&#45;&gt;yeu_cau_giai_trinh</title>
<path fill="none" stroke="#548235" stroke-width="1.3" d="M713,-367C825.96,-367 673.39,-230.39 662,-118 661.55,-113.58 660.25,-112.09 662,-108 666.76,-96.88 674.55,-86.78 683.15,-78.1"/>
<polygon fill="#548235" stroke="#548235" stroke-width="1.3" points="683.42,-77.84 691.69,-74.91 686.31,-75.07 689.2,-72.31 689.2,-72.31 689.2,-72.31 686.31,-75.07 686.71,-69.71 683.42,-77.84 683.42,-77.84"/>
</g>
<!-- y_kien_phoi_hop -->
<g id="node2" class="node">
<title>y_kien_phoi_hop</title>
<polygon fill="#d8e4bc" stroke="transparent" points="1051,-660 1051,-682 1325,-682 1325,-660 1051,-660"/>
<text text-anchor="start" x="1137" y="-669.2" font-family="Consolas" font-weight="bold" font-size="11.00">y_kien_phoi_hop</text>
<text text-anchor="start" x="1056" y="-647.2" font-family="Consolas" font-weight="bold" font-size="11.00">id</text>
<text text-anchor="start" x="1070" y="-647.2" font-family="Consolas" font-size="11.00"> </text>
<text text-anchor="start" x="1077" y="-647.2" font-family="Consolas" font-size="11.00" fill="#b8860b">PK</text>
<text text-anchor="start" x="1229" y="-646.5" font-family="Consolas" font-size="10.00" fill="#666666">BIGINT UNSIGNED</text>
<text text-anchor="start" x="1056" y="-625.2" font-family="Consolas" font-size="11.00">van_ban_giai_trinh_id </text>
<text text-anchor="start" x="1205" y="-625.2" font-family="Consolas" font-size="11.00" fill="#1f6fb2">FK</text>
<text text-anchor="start" x="1229" y="-624.5" font-family="Consolas" font-size="10.00" fill="#666666">BIGINT UNSIGNED</text>
<text text-anchor="start" x="1056" y="-603.2" font-family="Consolas" font-size="11.00">don_vi_gop_y_id </text>
<text text-anchor="start" x="1165" y="-603.2" font-family="Consolas" font-size="11.00" fill="#1f6fb2">FK</text>
<text text-anchor="start" x="1229" y="-602.5" font-family="Consolas" font-size="10.00" fill="#666666">BIGINT UNSIGNED</text>
<text text-anchor="start" x="1056" y="-581.2" font-family="Consolas" font-size="11.00">nguoi_gop_y_id </text>
<text text-anchor="start" x="1158" y="-581.2" font-family="Consolas" font-size="11.00" fill="#1f6fb2">FK</text>
<text text-anchor="start" x="1229" y="-580.5" font-family="Consolas" font-size="10.00" fill="#666666">BIGINT UNSIGNED</text>
<text text-anchor="start" x="1056" y="-558.2" font-family="Consolas" font-size="11.00">noi_dung_gop_y</text>
<text text-anchor="start" x="1229" y="-558.5" font-family="Consolas" font-size="10.00" fill="#666666">TEXT</text>
<text text-anchor="start" x="1056" y="-536.2" font-family="Consolas" font-size="11.00">ngay_gop_y</text>
<text text-anchor="start" x="1229" y="-536.5" font-family="Consolas" font-size="10.00" fill="#666666">DATETIME</text>
<text text-anchor="start" x="1056" y="-514.2" font-family="Consolas" font-size="11.00">trang_thai</text>
<text text-anchor="start" x="1229" y="-514.5" font-family="Consolas" font-size="10.00" fill="#666666">ENUM</text>
<polygon fill="none" stroke="black" points="1050,-505 1050,-683 1326,-683 1326,-505 1050,-505"/>
</g>
<!-- y_kien_phoi_hop&#45;&gt;van_ban_giai_trinh -->
<g id="edge4" class="edge">
<title>y_kien_phoi_hop:e&#45;&gt;van_ban_giai_trinh:w</title>
<path fill="none" stroke="#548235" stroke-width="1.3" d="M1224,-626C1331.47,-626 1118.05,-537.61 1017,-501 916.18,-464.48 610.92,-508.43 540,-428 531.1,-417.9 525.02,-399.77 531.47,-392.82"/>
<polygon fill="#548235" stroke="#548235" stroke-width="1.3" points="531.51,-392.8 540.26,-393.37 535.25,-391.4 539,-390 539,-390 539,-390 535.25,-391.4 537.74,-386.63 531.51,-392.8 531.51,-392.8"/>
</g>
<!-- don_vi -->
<g id="node6" class="node">
<title>don_vi</title>
<polygon fill="#dce6f1" fill-opacity="0.400000" stroke="transparent" points="1039,-43 1039,-67 1146,-67 1146,-43 1039,-43"/>
<text text-anchor="start" x="1072" y="-53.2" font-family="Consolas" font-weight="bold" font-size="11.00">don_vi</text>
<text text-anchor="start" x="1045" y="-29.8" font-family="Consolas" font-size="9.00" fill="#777777">(bảng ở nhóm khác)</text>
<polygon fill="none" stroke="black" points="1037.5,-20 1037.5,-68 1146.5,-68 1146.5,-20 1037.5,-20"/>
</g>
<!-- y_kien_phoi_hop&#45;&gt;don_vi -->
<g id="edge5" class="edge">
<title>y_kien_phoi_hop:e&#45;&gt;don_vi</title>
<path fill="none" stroke="#548235" stroke-width="1.3" d="M1224,-604C1446.33,-604 1260.33,-305.9 1159,-108 1153.27,-96.81 1144.72,-86.54 1135.64,-77.69"/>
<polygon fill="#548235" stroke="#548235" stroke-width="1.3" points="1135.47,-77.53 1132.07,-69.44 1132.54,-74.8 1129.61,-72.08 1129.61,-72.08 1129.61,-72.08 1132.54,-74.8 1127.16,-74.71 1135.47,-77.53 1135.47,-77.53"/>
</g>
<!-- y_kien_phoi_hop&#45;&gt;can_bo -->
<g id="edge6" class="edge">
<title>y_kien_phoi_hop:e&#45;&gt;can_bo</title>
<path fill="none" stroke="#548235" stroke-width="1.3" d="M1224,-582C1253.29,-582 1011.69,-130.56 993,-108 983.95,-97.08 972.81,-86.63 961.88,-77.5"/>
<polygon fill="#548235" stroke="#548235" stroke-width="1.3" points="961.68,-77.34 957.76,-69.49 958.58,-74.81 955.48,-72.28 955.48,-72.28 955.48,-72.28 958.58,-74.81 953.2,-75.07 961.68,-77.34 961.68,-77.34"/>
</g>
<!-- xu_ly_an_danh -->
<g id="node3" class="node">
<title>xu_ly_an_danh</title>
<polygon fill="#d8e4bc" stroke="transparent" points="367,-649 367,-671 641,-671 641,-649 367,-649"/>
<text text-anchor="start" x="460" y="-658.2" font-family="Consolas" font-weight="bold" font-size="11.00">xu_ly_an_danh</text>
<text text-anchor="start" x="372" y="-636.2" font-family="Consolas" font-weight="bold" font-size="11.00">id</text>
<text text-anchor="start" x="386" y="-636.2" font-family="Consolas" font-size="11.00"> </text>
<text text-anchor="start" x="393" y="-636.2" font-family="Consolas" font-size="11.00" fill="#b8860b">PK</text>
<text text-anchor="start" x="545" y="-635.5" font-family="Consolas" font-size="10.00" fill="#666666">BIGINT UNSIGNED</text>
<text text-anchor="start" x="372" y="-614.2" font-family="Consolas" font-size="11.00">van_ban_giai_trinh_id </text>
<text text-anchor="start" x="521" y="-614.2" font-family="Consolas" font-size="11.00" fill="#1f6fb2">FK</text>
<text text-anchor="start" x="545" y="-613.5" font-family="Consolas" font-size="10.00" fill="#666666">BIGINT UNSIGNED</text>
<text text-anchor="start" x="372" y="-591.2" font-family="Consolas" font-size="11.00">thong_tin_nhay_cam</text>
<text text-anchor="start" x="545" y="-591.5" font-family="Consolas" font-size="10.00" fill="#666666">TEXT</text>
<text text-anchor="start" x="372" y="-569.2" font-family="Consolas" font-size="11.00">phuong_phap_xu_ly</text>
<text text-anchor="start" x="545" y="-569.5" font-family="Consolas" font-size="10.00" fill="#666666">VARCHAR(255)</text>
<text text-anchor="start" x="372" y="-548.2" font-family="Consolas" font-size="11.00">nguoi_xu_ly_id </text>
<text text-anchor="start" x="474" y="-548.2" font-family="Consolas" font-size="11.00" fill="#1f6fb2">FK</text>
<text text-anchor="start" x="545" y="-547.5" font-family="Consolas" font-size="10.00" fill="#666666">BIGINT UNSIGNED</text>
<text text-anchor="start" x="372" y="-525.2" font-family="Consolas" font-size="11.00">ngay_xu_ly</text>
<text text-anchor="start" x="545" y="-525.5" font-family="Consolas" font-size="10.00" fill="#666666">DATETIME</text>
<polygon fill="none" stroke="black" points="366,-516 366,-672 642,-672 642,-516 366,-516"/>
</g>
<!-- xu_ly_an_danh&#45;&gt;van_ban_giai_trinh -->
<g id="edge7" class="edge">
<title>xu_ly_an_danh:e&#45;&gt;van_ban_giai_trinh:w</title>
<path fill="none" stroke="#548235" stroke-width="1.3" d="M540,-615C637.07,-615 450.52,-402.99 530.97,-390.57"/>
<polygon fill="#548235" stroke="#548235" stroke-width="1.3" points="531.02,-390.56 539.25,-393.59 535.01,-390.28 539,-390 539,-390 539,-390 535.01,-390.28 538.75,-386.41 531.02,-390.56 531.02,-390.56"/>
</g>
<!-- xu_ly_an_danh&#45;&gt;can_bo -->
<g id="edge8" class="edge">
<title>xu_ly_an_danh:e&#45;&gt;can_bo</title>
<path fill="none" stroke="#548235" stroke-width="1.3" d="M540,-549C549.19,-549 842.17,-435.1 848,-428 932.41,-325.17 927.79,-153.93 921.16,-80.36"/>
<polygon fill="#548235" stroke="#548235" stroke-width="1.3" points="921.15,-80.26 923.97,-71.96 920.77,-76.28 920.39,-72.3 920.39,-72.3 920.39,-72.3 920.77,-76.28 916.81,-72.64 921.15,-80.26 921.15,-80.26"/>
</g>
<!-- cong_khai_van_ban -->
<g id="node4" class="node">
<title>cong_khai_van_ban</title>
<polygon fill="#d8e4bc" stroke="transparent" points="709,-660 709,-682 983,-682 983,-660 709,-660"/>
<text text-anchor="start" x="788.5" y="-669.2" font-family="Consolas" font-weight="bold" font-size="11.00">cong_khai_van_ban</text>
<text text-anchor="start" x="714" y="-647.2" font-family="Consolas" font-weight="bold" font-size="11.00">id</text>
<text text-anchor="start" x="728" y="-647.2" font-family="Consolas" font-size="11.00"> </text>
<text text-anchor="start" x="735" y="-647.2" font-family="Consolas" font-size="11.00" fill="#b8860b">PK</text>
<text text-anchor="start" x="887" y="-646.5" font-family="Consolas" font-size="10.00" fill="#666666">BIGINT UNSIGNED</text>
<text text-anchor="start" x="714" y="-625.2" font-family="Consolas" font-size="11.00">van_ban_giai_trinh_id </text>
<text text-anchor="start" x="863" y="-625.2" font-family="Consolas" font-size="11.00" fill="#1f6fb2">FK</text>
<text text-anchor="start" x="887" y="-624.5" font-family="Consolas" font-size="10.00" fill="#666666">BIGINT UNSIGNED</text>
<text text-anchor="start" x="714" y="-602.2" font-family="Consolas" font-size="11.00">kenh_dang_tai</text>
<text text-anchor="start" x="887" y="-602.5" font-family="Consolas" font-size="10.00" fill="#666666">ENUM</text>
<text text-anchor="start" x="714" y="-581.2" font-family="Consolas" font-size="11.00">nguoi_duyet_id </text>
<text text-anchor="start" x="816" y="-581.2" font-family="Consolas" font-size="11.00" fill="#1f6fb2">FK</text>
<text text-anchor="start" x="887" y="-580.5" font-family="Consolas" font-size="10.00" fill="#666666">BIGINT UNSIGNED</text>
<text text-anchor="start" x="714" y="-558.2" font-family="Consolas" font-size="11.00">ngay_duyet</text>
<text text-anchor="start" x="887" y="-558.5" font-family="Consolas" font-size="10.00" fill="#666666">DATETIME</text>
<text text-anchor="start" x="714" y="-536.2" font-family="Consolas" font-size="11.00">ngay_dang_tai</text>
<text text-anchor="start" x="887" y="-536.5" font-family="Consolas" font-size="10.00" fill="#666666">DATETIME</text>
<text text-anchor="start" x="714" y="-514.2" font-family="Consolas" font-size="11.00">trang_thai</text>
<text text-anchor="start" x="887" y="-514.5" font-family="Consolas" font-size="10.00" fill="#666666">ENUM</text>
<polygon fill="none" stroke="black" points="708,-505 708,-683 984,-683 984,-505 708,-505"/>
</g>
<!-- cong_khai_van_ban&#45;&gt;van_ban_giai_trinh -->
<g id="edge9" class="edge">
<title>cong_khai_van_ban:e&#45;&gt;van_ban_giai_trinh:w</title>
<path fill="none" stroke="#548235" stroke-width="1.3" d="M882,-626C989.47,-626 768.29,-554.35 675,-501 615.79,-467.14 575.69,-486.13 540,-428 533.09,-416.75 526.06,-399.89 531.36,-393.04"/>
<polygon fill="#548235" stroke="#548235" stroke-width="1.3" points="531.57,-392.96 540.33,-393.34 535.28,-391.48 539,-390 539,-390 539,-390 535.28,-391.48 537.67,-386.66 531.57,-392.96 531.57,-392.96"/>
</g>
<!-- cong_khai_van_ban&#45;&gt;can_bo -->
<g id="edge10" class="edge">
<title>cong_khai_van_ban:e&#45;&gt;can_bo</title>
<path fill="none" stroke="#548235" stroke-width="1.3" d="M882,-582C943.29,-582 938.13,-523.92 955,-465 998.68,-312.47 997.53,-260.86 955,-108 952.22,-98 947.37,-88 942.05,-79.01"/>
<polygon fill="#548235" stroke="#548235" stroke-width="1.3" points="941.94,-78.82 940.77,-70.13 939.83,-75.43 937.72,-72.03 937.72,-72.03 937.72,-72.03 939.83,-75.43 934.66,-73.93 941.94,-78.82 941.94,-78.82"/>
</g>
<!-- gui_van_ban_lien_thong -->
<g id="node5" class="node">
<title>gui_van_ban_lien_thong</title>
<polygon fill="#d8e4bc" stroke="transparent" points="25,-649 25,-671 299,-671 299,-649 25,-649"/>
<text text-anchor="start" x="87.5" y="-658.2" font-family="Consolas" font-weight="bold" font-size="11.00">gui_van_ban_lien_thong</text>
<text text-anchor="start" x="30" y="-636.2" font-family="Consolas" font-weight="bold" font-size="11.00">id</text>
<text text-anchor="start" x="44" y="-636.2" font-family="Consolas" font-size="11.00"> </text>
<text text-anchor="start" x="51" y="-636.2" font-family="Consolas" font-size="11.00" fill="#b8860b">PK</text>
<text text-anchor="start" x="203" y="-635.5" font-family="Consolas" font-size="10.00" fill="#666666">BIGINT UNSIGNED</text>
<text text-anchor="start" x="30" y="-614.2" font-family="Consolas" font-size="11.00">van_ban_giai_trinh_id </text>
<text text-anchor="start" x="179" y="-614.2" font-family="Consolas" font-size="11.00" fill="#1f6fb2">FK</text>
<text text-anchor="start" x="203" y="-613.5" font-family="Consolas" font-size="10.00" fill="#666666">BIGINT UNSIGNED</text>
<text text-anchor="start" x="30" y="-591.2" font-family="Consolas" font-size="11.00">ma_lien_thong</text>
<text text-anchor="start" x="203" y="-591.5" font-family="Consolas" font-size="10.00" fill="#666666">VARCHAR(100)</text>
<text text-anchor="start" x="30" y="-569.2" font-family="Consolas" font-size="11.00">ngay_gui</text>
<text text-anchor="start" x="203" y="-569.5" font-family="Consolas" font-size="10.00" fill="#666666">DATETIME</text>
<text text-anchor="start" x="30" y="-547.2" font-family="Consolas" font-size="11.00">ket_qua</text>
<text text-anchor="start" x="203" y="-547.5" font-family="Consolas" font-size="10.00" fill="#666666">VARCHAR(255)</text>
<text text-anchor="start" x="30" y="-525.2" font-family="Consolas" font-size="11.00">phan_hoi_api</text>
<text text-anchor="start" x="203" y="-525.5" font-family="Consolas" font-size="10.00" fill="#666666">TEXT</text>
<polygon fill="none" stroke="black" points="24,-516 24,-672 300,-672 300,-516 24,-516"/>
</g>
<!-- gui_van_ban_lien_thong&#45;&gt;van_ban_giai_trinh -->
<g id="edge11" class="edge">
<title>gui_van_ban_lien_thong:e&#45;&gt;van_ban_giai_trinh:w</title>
<path fill="none" stroke="#548235" stroke-width="1.3" d="M198,-615C276.53,-615 268.09,-545.2 333,-501 416.7,-444.01 434.11,-392.77 530.95,-390.11"/>
<polygon fill="#548235" stroke="#548235" stroke-width="1.3" points="531,-390.11 539.05,-393.6 535,-390.05 539,-390 539,-390 539,-390 535,-390.05 538.95,-386.4 531,-390.11 531,-390.11"/>
</g>
</g>
</svg>
