<?xml version="1.0" encoding="UTF-8" standalone="no"?>
<!DOCTYPE svg PUBLIC "-//W3C//DTD SVG 1.1//EN"
 "http://www.w3.org/Graphics/SVG/1.1/DTD/svg11.dtd">
<!-- Generated by graphviz version 2.43.0 (0)
 -->
<!-- Title: G Pages: 1 -->
<svg width="1064pt" height="760pt"
 viewBox="0.00 0.00 1064.02 759.60" xmlns="http://www.w3.org/2000/svg" xmlns:xlink="http://www.w3.org/1999/xlink">
<g id="graph0" class="graph" transform="scale(1 1) rotate(0) translate(28.8 730.8)">
<title>G</title>
<polygon fill="white" stroke="transparent" points="-28.8,28.8 -28.8,-730.8 1035.22,-730.8 1035.22,28.8 -28.8,28.8"/>
<text text-anchor="middle" x="503.21" y="-682" font-family="Helvetica,sans-Serif" font-size="20.00">ERD CHI TIẾT — NHÓM: ĐÁNH GIÁ THỰC HIỆN TNGT</text>
<g id="clust1" class="cluster">
<title>cluster_main</title>
<polygon fill="#f2cfcf" fill-opacity="0.200000" stroke="#f2cfcf" points="8.42,-137 8.42,-664 686.42,-664 686.42,-137 8.42,-137"/>
</g>
<g id="clust2" class="cluster">
<title>cluster_ghost</title>
<polygon fill="white" stroke="#999999" stroke-dasharray="5,2" points="557.42,-8 557.42,-100 874.42,-100 874.42,-8 557.42,-8"/>
<text text-anchor="middle" x="715.92" y="-87.2" font-family="Helvetica,sans-Serif" font-weight="bold" font-size="11.00">Bảng cha tham chiếu tới (ở nhóm khác)</text>
</g>
<!-- tieu_chi_danh_gia -->
<g id="node1" class="node">
<title>tieu_chi_danh_gia</title>
<polygon fill="#f2cfcf" stroke="transparent" points="26.42,-304 26.42,-326 219.42,-326 219.42,-304 26.42,-304"/>
<text text-anchor="start" x="65.42" y="-313.2" font-family="Consolas" font-weight="bold" font-size="11.00">tieu_chi_danh_gia</text>
<text text-anchor="start" x="31.42" y="-291.2" font-family="Consolas" font-weight="bold" font-size="11.00">id</text>
<text text-anchor="start" x="45.42" y="-291.2" font-family="Consolas" font-size="11.00"> </text>
<text text-anchor="start" x="52.42" y="-291.2" font-family="Consolas" font-size="11.00" fill="#b8860b">PK</text>
<text text-anchor="start" x="123.42" y="-290.5" font-family="Consolas" font-size="10.00" fill="#666666">BIGINT UNSIGNED</text>
<text text-anchor="start" x="31.42" y="-268.2" font-family="Consolas" font-size="11.00">ten_tieu_chi</text>
<text text-anchor="start" x="123.42" y="-268.5" font-family="Consolas" font-size="10.00" fill="#666666">VARCHAR(255)</text>
<text text-anchor="start" x="31.42" y="-246.2" font-family="Consolas" font-size="11.00">mo_ta</text>
<text text-anchor="start" x="123.42" y="-246.5" font-family="Consolas" font-size="10.00" fill="#666666">TEXT</text>
<text text-anchor="start" x="31.42" y="-224.2" font-family="Consolas" font-size="11.00">trong_so</text>
<text text-anchor="start" x="123.42" y="-224.5" font-family="Consolas" font-size="10.00" fill="#666666">DECIMAL(5,2)</text>
<text text-anchor="start" x="31.42" y="-202.2" font-family="Consolas" font-size="11.00">pham_vi</text>
<text text-anchor="start" x="123.42" y="-202.5" font-family="Consolas" font-size="10.00" fill="#666666">ENUM</text>
<text text-anchor="start" x="31.42" y="-181.2" font-family="Consolas" font-size="11.00">don_vi_id </text>
<text text-anchor="start" x="99.42" y="-181.2" font-family="Consolas" font-size="11.00" fill="#1f6fb2">FK</text>
<text text-anchor="start" x="123.42" y="-180.5" font-family="Consolas" font-size="10.00" fill="#666666">BIGINT UNSIGNED</text>
<text text-anchor="start" x="31.42" y="-158.2" font-family="Consolas" font-size="11.00">trang_thai</text>
<text text-anchor="start" x="123.42" y="-158.5" font-family="Consolas" font-size="10.00" fill="#666666">TINYINT</text>
<polygon fill="none" stroke="black" points="24.92,-149 24.92,-327 219.92,-327 219.92,-149 24.92,-149"/>
</g>
<!-- don_vi -->
<g id="node5" class="node">
<title>don_vi</title>
<polygon fill="#dce6f1" fill-opacity="0.400000" stroke="transparent" points="575.42,-43 575.42,-67 682.42,-67 682.42,-43 575.42,-43"/>
<text text-anchor="start" x="608.42" y="-53.2" font-family="Consolas" font-weight="bold" font-size="11.00">don_vi</text>
<text text-anchor="start" x="581.42" y="-29.8" font-family="Consolas" font-size="9.00" fill="#777777">(bảng ở nhóm khác)</text>
<polygon fill="none" stroke="black" points="573.92,-20 573.92,-68 682.92,-68 682.92,-20 573.92,-20"/>
</g>
<!-- tieu_chi_danh_gia&#45;&gt;don_vi -->
<g id="edge1" class="edge">
<title>tieu_chi_danh_gia:e&#45;&gt;don_vi</title>
<path fill="none" stroke="#c00000" stroke-width="1.3" d="M118.42,-182C181.24,-182 192.07,-154.48 252.42,-137 357.83,-106.46 481.75,-77.45 557.68,-60.44"/>
<polygon fill="#c00000" stroke="#c00000" stroke-width="1.3" points="557.98,-60.37 566.57,-62.14 561.88,-59.5 565.79,-58.63 565.79,-58.63 565.79,-58.63 561.88,-59.5 565,-55.12 557.98,-60.37 557.98,-60.37"/>
</g>
<!-- ky_khao_sat -->
<g id="node2" class="node">
<title>ky_khao_sat</title>
<polygon fill="#f2cfcf" stroke="transparent" points="287.42,-282 287.42,-304 466.42,-304 466.42,-282 287.42,-282"/>
<text text-anchor="start" x="339.42" y="-291.2" font-family="Consolas" font-weight="bold" font-size="11.00">ky_khao_sat</text>
<text text-anchor="start" x="292.42" y="-269.2" font-family="Consolas" font-weight="bold" font-size="11.00">id</text>
<text text-anchor="start" x="306.42" y="-269.2" font-family="Consolas" font-size="11.00"> </text>
<text text-anchor="start" x="313.42" y="-269.2" font-family="Consolas" font-size="11.00" fill="#b8860b">PK</text>
<text text-anchor="start" x="370.42" y="-268.5" font-family="Consolas" font-size="10.00" fill="#666666">BIGINT UNSIGNED</text>
<text text-anchor="start" x="292.42" y="-246.2" font-family="Consolas" font-size="11.00">ten_ky</text>
<text text-anchor="start" x="370.42" y="-246.5" font-family="Consolas" font-size="10.00" fill="#666666">VARCHAR(100)</text>
<text text-anchor="start" x="292.42" y="-224.2" font-family="Consolas" font-size="11.00">tu_ngay</text>
<text text-anchor="start" x="370.42" y="-224.5" font-family="Consolas" font-size="10.00" fill="#666666">DATE</text>
<text text-anchor="start" x="292.42" y="-202.2" font-family="Consolas" font-size="11.00">den_ngay</text>
<text text-anchor="start" x="370.42" y="-202.5" font-family="Consolas" font-size="10.00" fill="#666666">DATE</text>
<text text-anchor="start" x="292.42" y="-180.2" font-family="Consolas" font-size="11.00">trang_thai</text>
<text text-anchor="start" x="370.42" y="-180.5" font-family="Consolas" font-size="10.00" fill="#666666">ENUM</text>
<polygon fill="none" stroke="black" points="285.92,-171 285.92,-305 466.92,-305 466.92,-171 285.92,-171"/>
</g>
<!-- ket_qua_khao_sat -->
<g id="node3" class="node">
<title>ket_qua_khao_sat</title>
<polygon fill="#f2cfcf" stroke="transparent" points="25.42,-607 25.42,-629 313.42,-629 313.42,-607 25.42,-607"/>
<text text-anchor="start" x="114.92" y="-616.2" font-family="Consolas" font-weight="bold" font-size="11.00">ket_qua_khao_sat</text>
<text text-anchor="start" x="30.42" y="-594.2" font-family="Consolas" font-weight="bold" font-size="11.00">id</text>
<text text-anchor="start" x="44.42" y="-594.2" font-family="Consolas" font-size="11.00"> </text>
<text text-anchor="start" x="51.42" y="-594.2" font-family="Consolas" font-size="11.00" fill="#b8860b">PK</text>
<text text-anchor="start" x="217.42" y="-593.5" font-family="Consolas" font-size="10.00" fill="#666666">BIGINT UNSIGNED</text>
<text text-anchor="start" x="30.42" y="-572.2" font-family="Consolas" font-size="11.00">ky_khao_sat_id </text>
<text text-anchor="start" x="132.42" y="-572.2" font-family="Consolas" font-size="11.00" fill="#1f6fb2">FK</text>
<text text-anchor="start" x="217.42" y="-571.5" font-family="Consolas" font-size="10.00" fill="#666666">BIGINT UNSIGNED</text>
<text text-anchor="start" x="30.42" y="-550.2" font-family="Consolas" font-size="11.00">don_vi_duoc_danh_gia_id </text>
<text text-anchor="start" x="193.42" y="-550.2" font-family="Consolas" font-size="11.00" fill="#1f6fb2">FK</text>
<text text-anchor="start" x="217.42" y="-549.5" font-family="Consolas" font-size="10.00" fill="#666666">BIGINT UNSIGNED</text>
<text text-anchor="start" x="30.42" y="-528.2" font-family="Consolas" font-size="11.00">tieu_chi_id </text>
<text text-anchor="start" x="112.42" y="-528.2" font-family="Consolas" font-size="11.00" fill="#1f6fb2">FK</text>
<text text-anchor="start" x="217.42" y="-527.5" font-family="Consolas" font-size="10.00" fill="#666666">BIGINT UNSIGNED</text>
<text text-anchor="start" x="30.42" y="-505.2" font-family="Consolas" font-size="11.00">diem_so</text>
<text text-anchor="start" x="217.42" y="-505.5" font-family="Consolas" font-size="10.00" fill="#666666">DECIMAL(5,2)</text>
<text text-anchor="start" x="30.42" y="-483.2" font-family="Consolas" font-size="11.00">nguon_du_lieu</text>
<text text-anchor="start" x="217.42" y="-483.5" font-family="Consolas" font-size="10.00" fill="#666666">VARCHAR(100)</text>
<text text-anchor="start" x="30.42" y="-462.2" font-family="Consolas" font-size="11.00">can_bo_thu_thap_id </text>
<text text-anchor="start" x="159.42" y="-462.2" font-family="Consolas" font-size="11.00" fill="#1f6fb2">FK</text>
<text text-anchor="start" x="217.42" y="-461.5" font-family="Consolas" font-size="10.00" fill="#666666">BIGINT UNSIGNED</text>
<text text-anchor="start" x="30.42" y="-439.2" font-family="Consolas" font-size="11.00">ngay_thu_thap</text>
<text text-anchor="start" x="217.42" y="-439.5" font-family="Consolas" font-size="10.00" fill="#666666">DATETIME</text>
<polygon fill="none" stroke="black" points="24.42,-430 24.42,-630 314.42,-630 314.42,-430 24.42,-430"/>
</g>
<!-- ket_qua_khao_sat&#45;&gt;tieu_chi_danh_gia -->
<g id="edge4" class="edge">
<title>ket_qua_khao_sat:e&#45;&gt;tieu_chi_danh_gia:w</title>
<path fill="none" stroke="#c00000" stroke-width="1.3" d="M212.42,-529C343.24,-529 -88.28,-303.48 17.28,-293.35"/>
<polygon fill="#c00000" stroke="#c00000" stroke-width="1.3" points="17.42,-293.35 25.57,-296.6 21.42,-293.17 25.42,-293 25.42,-293 25.42,-293 21.42,-293.17 25.26,-289.4 17.42,-293.35 17.42,-293.35"/>
</g>
<!-- ket_qua_khao_sat&#45;&gt;ky_khao_sat -->
<g id="edge2" class="edge">
<title>ket_qua_khao_sat:e&#45;&gt;ky_khao_sat:w</title>
<path fill="none" stroke="#c00000" stroke-width="1.3" d="M212.42,-573C278.54,-573 222.59,-296.4 278.23,-272.62"/>
<polygon fill="#c00000" stroke="#c00000" stroke-width="1.3" points="278.57,-272.56 287.12,-274.53 282.49,-271.78 286.42,-271 286.42,-271 286.42,-271 282.49,-271.78 285.72,-267.47 278.57,-272.56 278.57,-272.56"/>
</g>
<!-- ket_qua_khao_sat&#45;&gt;don_vi -->
<g id="edge3" class="edge">
<title>ket_qua_khao_sat:e&#45;&gt;don_vi</title>
<path fill="none" stroke="#c00000" stroke-width="1.3" d="M212.42,-551C301.12,-551 276.09,-456.73 347.42,-404 408,-359.21 447.79,-384.92 500.42,-331 571.54,-258.12 607.09,-138.9 621.06,-80.08"/>
<polygon fill="#c00000" stroke="#c00000" stroke-width="1.3" points="621.08,-79.99 626.4,-73.01 621.99,-76.09 622.89,-72.19 622.89,-72.19 622.89,-72.19 621.99,-76.09 619.38,-71.38 621.08,-79.99 621.08,-79.99"/>
</g>
<!-- can_bo -->
<g id="node6" class="node">
<title>can_bo</title>
<polygon fill="#dce6f1" fill-opacity="0.400000" stroke="transparent" points="750.42,-43 750.42,-67 857.42,-67 857.42,-43 750.42,-43"/>
<text text-anchor="start" x="769.92" y="-53.2" font-family="Consolas" font-weight="bold" font-size="11.00">can_bo</text>
<text text-anchor="start" x="756.42" y="-29.8" font-family="Consolas" font-size="9.00" fill="#777777">(bảng ở nhóm khác)</text>
<polygon fill="none" stroke="black" points="748.92,-20 748.92,-68 857.92,-68 857.92,-20 748.92,-20"/>
</g>
<!-- ket_qua_khao_sat&#45;&gt;can_bo -->
<g id="edge5" class="edge">
<title>ket_qua_khao_sat:e&#45;&gt;can_bo</title>
<path fill="none" stroke="#c00000" stroke-width="1.3" d="M212.42,-463C277.9,-463 285.69,-425.84 347.42,-404 453.73,-366.38 498.96,-396.97 590.42,-331 615.35,-313.02 729.78,-150.82 779.85,-78.98"/>
<polygon fill="#c00000" stroke="#c00000" stroke-width="1.3" points="779.92,-78.88 787.44,-74.38 782.2,-75.6 784.49,-72.32 784.49,-72.32 784.49,-72.32 782.2,-75.6 781.53,-70.26 779.92,-78.88 779.92,-78.88"/>
</g>
<!-- ket_qua_danh_gia -->
<g id="node4" class="node">
<title>ket_qua_danh_gia</title>
<polygon fill="#f2cfcf" stroke="transparent" points="381.42,-629 381.42,-651 669.42,-651 669.42,-629 381.42,-629"/>
<text text-anchor="start" x="470.92" y="-638.2" font-family="Consolas" font-weight="bold" font-size="11.00">ket_qua_danh_gia</text>
<text text-anchor="start" x="386.42" y="-616.2" font-family="Consolas" font-weight="bold" font-size="11.00">id</text>
<text text-anchor="start" x="400.42" y="-616.2" font-family="Consolas" font-size="11.00"> </text>
<text text-anchor="start" x="407.42" y="-616.2" font-family="Consolas" font-size="11.00" fill="#b8860b">PK</text>
<text text-anchor="start" x="573.42" y="-615.5" font-family="Consolas" font-size="10.00" fill="#666666">BIGINT UNSIGNED</text>
<text text-anchor="start" x="386.42" y="-594.2" font-family="Consolas" font-size="11.00">ky_khao_sat_id </text>
<text text-anchor="start" x="488.42" y="-594.2" font-family="Consolas" font-size="11.00" fill="#1f6fb2">FK</text>
<text text-anchor="start" x="573.42" y="-593.5" font-family="Consolas" font-size="10.00" fill="#666666">BIGINT UNSIGNED</text>
<text text-anchor="start" x="386.42" y="-572.2" font-family="Consolas" font-size="11.00">don_vi_duoc_danh_gia_id </text>
<text text-anchor="start" x="549.42" y="-572.2" font-family="Consolas" font-size="11.00" fill="#1f6fb2">FK</text>
<text text-anchor="start" x="573.42" y="-571.5" font-family="Consolas" font-size="10.00" fill="#666666">BIGINT UNSIGNED</text>
<text text-anchor="start" x="386.42" y="-549.2" font-family="Consolas" font-size="11.00">tong_diem</text>
<text text-anchor="start" x="573.42" y="-549.5" font-family="Consolas" font-size="10.00" fill="#666666">DECIMAL(6,2)</text>
<text text-anchor="start" x="386.42" y="-527.2" font-family="Consolas" font-size="11.00">xep_loai</text>
<text text-anchor="start" x="573.42" y="-527.5" font-family="Consolas" font-size="10.00" fill="#666666">VARCHAR(50)</text>
<text text-anchor="start" x="386.42" y="-506.2" font-family="Consolas" font-size="11.00">nguoi_lap_du_thao_id </text>
<text text-anchor="start" x="528.42" y="-506.2" font-family="Consolas" font-size="11.00" fill="#1f6fb2">FK</text>
<text text-anchor="start" x="573.42" y="-505.5" font-family="Consolas" font-size="10.00" fill="#666666">BIGINT UNSIGNED</text>
<text text-anchor="start" x="386.42" y="-484.2" font-family="Consolas" font-size="11.00">nguoi_duyet_id </text>
<text text-anchor="start" x="488.42" y="-484.2" font-family="Consolas" font-size="11.00" fill="#1f6fb2">FK</text>
<text text-anchor="start" x="573.42" y="-483.5" font-family="Consolas" font-size="10.00" fill="#666666">BIGINT UNSIGNED</text>
<text text-anchor="start" x="386.42" y="-461.2" font-family="Consolas" font-size="11.00">trang_thai</text>
<text text-anchor="start" x="573.42" y="-461.5" font-family="Consolas" font-size="10.00" fill="#666666">ENUM</text>
<text text-anchor="start" x="386.42" y="-439.2" font-family="Consolas" font-size="11.00">ngay_duyet</text>
<text text-anchor="start" x="573.42" y="-439.5" font-family="Consolas" font-size="10.00" fill="#666666">DATETIME</text>
<text text-anchor="start" x="386.42" y="-417.2" font-family="Consolas" font-size="11.00">ngay_cong_bo</text>
<text text-anchor="start" x="573.42" y="-417.5" font-family="Consolas" font-size="10.00" fill="#666666">DATETIME</text>
<polygon fill="none" stroke="black" points="380.42,-408 380.42,-652 670.42,-652 670.42,-408 380.42,-408"/>
</g>
<!-- ket_qua_danh_gia&#45;&gt;ky_khao_sat -->
<g id="edge6" class="edge">
<title>ket_qua_danh_gia:e&#45;&gt;ky_khao_sat:w</title>
<path fill="none" stroke="#c00000" stroke-width="1.3" d="M568.42,-595C746.61,-595 357.05,-473.03 287.42,-309 282.36,-297.09 274.56,-281.14 278.76,-274.32"/>
<polygon fill="#c00000" stroke="#c00000" stroke-width="1.3" points="279.08,-274.18 287.85,-274.3 282.75,-272.59 286.42,-271 286.42,-271 286.42,-271 282.75,-272.59 284.98,-267.7 279.08,-274.18 279.08,-274.18"/>
</g>
<!-- ket_qua_danh_gia&#45;&gt;don_vi -->
<g id="edge7" class="edge">
<title>ket_qua_danh_gia:e&#45;&gt;don_vi</title>
<path fill="none" stroke="#c00000" stroke-width="1.3" d="M568.42,-573C674.67,-573 663.05,-470.4 691.42,-368 720.08,-264.51 672.69,-138.86 645.48,-79.39"/>
<polygon fill="#c00000" stroke="#c00000" stroke-width="1.3" points="645.47,-79.38 645.37,-70.61 643.79,-75.76 642.1,-72.13 642.1,-72.13 642.1,-72.13 643.79,-75.76 638.84,-73.64 645.47,-79.38 645.47,-79.38"/>
</g>
<!-- ket_qua_danh_gia&#45;&gt;can_bo -->
<g id="edge8" class="edge">
<title>ket_qua_danh_gia:e&#45;&gt;can_bo</title>
<path fill="none" stroke="#c00000" stroke-width="1.3" d="M568.42,-507C759.83,-507 795.4,-188.04 801.95,-80.17"/>
<polygon fill="#c00000" stroke="#c00000" stroke-width="1.3" points="801.95,-80.16 806,-72.38 802.18,-76.17 802.41,-72.18 802.41,-72.18 802.41,-72.18 802.18,-76.17 798.81,-71.97 801.95,-80.16 801.95,-80.16"/>
<text text-anchor="middle" x="845.42" y="-235.8" font-family="Helvetica,sans-Serif" font-size="9.00" fill="#c00000">nguoi_lap_du_thao_id</text>
</g>
<!-- ket_qua_danh_gia&#45;&gt;can_bo -->
<g id="edge9" class="edge">
<title>ket_qua_danh_gia:e&#45;&gt;can_bo</title>
<path fill="none" stroke="#c00000" stroke-width="1.3" d="M568.42,-485C733.5,-485 817.11,-469.83 906.42,-331 953.06,-258.49 941.64,-215.7 906.42,-137 895.59,-112.81 874.91,-92.36 854.9,-76.92"/>
<polygon fill="#c00000" stroke="#c00000" stroke-width="1.3" points="854.85,-76.88 850.6,-69.21 851.65,-74.49 848.44,-72.09 848.44,-72.09 848.44,-72.09 851.65,-74.49 846.29,-74.97 854.85,-76.88 854.85,-76.88"/>
<text text-anchor="middle" x="971.42" y="-235.8" font-family="Helvetica,sans-Serif" font-size="9.00" fill="#c00000">nguoi_duyet_id</text>
</g>
</g>
</svg>
