<?xml version="1.0" encoding="UTF-8" standalone="no"?>
<!DOCTYPE svg PUBLIC "-//W3C//DTD SVG 1.1//EN"
 "http://www.w3.org/Graphics/SVG/1.1/DTD/svg11.dtd">
<!-- Generated by graphviz version 2.43.0 (0)
 -->
<!-- Title: VĂN BẢN GIẢI TRÌNH &amp; CÔNG KHAI (đã bổ sung loại văn bản &amp; thay thế) Pages: 1 -->
<svg width="1565pt" height="1216pt"
 viewBox="0.00 0.00 1565.00 1215.50" xmlns="http://www.w3.org/2000/svg" xmlns:xlink="http://www.w3.org/1999/xlink">
<g id="graph0" class="graph" transform="scale(1 1) rotate(0) translate(4 1211.5)">
<title>VĂN BẢN GIẢI TRÌNH &amp; CÔNG KHAI (đã bổ sung loại văn bản &amp; thay thế)</title>
<polygon fill="white" stroke="transparent" points="-4,4 -4,-1211.5 1561,-1211.5 1561,4 -4,4"/>
<text text-anchor="start" x="380.5" y="-1185.9" font-family="Helvetica,sans-Serif" font-size="22.00">VĂN BẢN GIẢI TRÌNH &amp; CÔNG KHAI (đã bổ sung loại văn bản &amp; thay thế)</text>
<!-- can_bo -->
<g id="node1" class="node">
<title>can_bo</title>
<polygon fill="#dce6f1" stroke="transparent" points="851.5,-932 851.5,-952 1159.5,-952 1159.5,-932 851.5,-932"/>
<text text-anchor="start" x="985" y="-940.2" font-family="Consolas" font-weight="bold" font-size="11.00">can_bo</text>
<text text-anchor="start" x="855.5" y="-918.7" font-family="Consolas" font-weight="bold" font-size="11.00">id</text>
<text text-anchor="start" x="951.5" y="-917.8" font-family="Times,serif" font-size="14.00" fill="#b8860b">PK</text>
<text text-anchor="start" x="972.5" y="-917.8" font-family="Times,serif" font-size="14.00" fill="#1f6fb2">/FK</text>
<text text-anchor="start" x="1013.5" y="-916.8" font-family="Times,serif" font-size="14.00" fill="#555555">BIGINT UNSIGNED</text>
<text text-anchor="start" x="855.5" y="-898.6" font-family="Consolas" font-size="8.00" fill="#999999">= = nguoi_dung.id</text>
<text text-anchor="start" x="855.5" y="-877.7" font-family="Consolas" font-size="11.00">ma_can_bo</text>
<text text-anchor="start" x="1013.5" y="-876.8" font-family="Times,serif" font-size="14.00" fill="#555555">VARCHAR(30)</text>
<text text-anchor="start" x="855.5" y="-854.7" font-family="Consolas" font-size="11.00">ho_ten</text>
<text text-anchor="start" x="1013.5" y="-853.8" font-family="Times,serif" font-size="14.00" fill="#555555">VARCHAR(150)</text>
<text text-anchor="start" x="855.5" y="-832.7" font-family="Consolas" font-weight="bold" font-size="11.00">don_vi_id</text>
<text text-anchor="start" x="951.5" y="-830.8" font-family="Times,serif" font-size="14.00" fill="#1f6fb2">FK</text>
<text text-anchor="start" x="1013.5" y="-830.8" font-family="Times,serif" font-size="14.00" fill="#555555">BIGINT UNSIGNED</text>
<text text-anchor="start" x="855.5" y="-808.7" font-family="Consolas" font-size="11.00">chuc_vu</text>
<text text-anchor="start" x="1013.5" y="-807.8" font-family="Times,serif" font-size="14.00" fill="#555555">VARCHAR(100)</text>
<text text-anchor="start" x="855.5" y="-785.7" font-family="Consolas" font-size="11.00">email</text>
<text text-anchor="start" x="1013.5" y="-784.8" font-family="Times,serif" font-size="14.00" fill="#555555">VARCHAR(150)</text>
<text text-anchor="start" x="855.5" y="-762.7" font-family="Consolas" font-size="11.00">so_dien_thoai</text>
<text text-anchor="start" x="1013.5" y="-761.8" font-family="Times,serif" font-size="14.00" fill="#555555">VARCHAR(20)</text>
<polygon fill="none" stroke="black" points="850.5,-753 850.5,-953 1160.5,-953 1160.5,-753 850.5,-753"/>
</g>
<!-- cong_khai_van_ban -->
<g id="node2" class="node">
<title>cong_khai_van_ban</title>
<polygon fill="#d8e4bc" stroke="transparent" points="1.5,-752 1.5,-772 338.5,-772 338.5,-752 1.5,-752"/>
<text text-anchor="start" x="112.5" y="-760.2" font-family="Consolas" font-weight="bold" font-size="11.00">cong_khai_van_ban</text>
<text text-anchor="start" x="5.5" y="-738.7" font-family="Consolas" font-weight="bold" font-size="11.00">id</text>
<text text-anchor="start" x="155.5" y="-736.8" font-family="Times,serif" font-size="14.00" fill="#b8860b">PK</text>
<text text-anchor="start" x="192.5" y="-736.8" font-family="Times,serif" font-size="14.00" fill="#555555">BIGINT UNSIGNED</text>
<text text-anchor="start" x="5.5" y="-715.7" font-family="Consolas" font-weight="bold" font-size="11.00">van_ban_giai_trinh_id</text>
<text text-anchor="start" x="155.5" y="-713.8" font-family="Times,serif" font-size="14.00" fill="#1f6fb2">FK</text>
<text text-anchor="start" x="192.5" y="-713.8" font-family="Times,serif" font-size="14.00" fill="#555555">BIGINT UNSIGNED</text>
<text text-anchor="start" x="5.5" y="-691.7" font-family="Consolas" font-size="11.00">kenh_dang_tai</text>
<text text-anchor="start" x="192.5" y="-690.8" font-family="Times,serif" font-size="14.00" fill="#555555">ENUM</text>
<text text-anchor="start" x="5.5" y="-669.7" font-family="Consolas" font-weight="bold" font-size="11.00">nguoi_duyet_id</text>
<text text-anchor="start" x="155.5" y="-667.8" font-family="Times,serif" font-size="14.00" fill="#1f6fb2">FK</text>
<text text-anchor="start" x="192.5" y="-667.8" font-family="Times,serif" font-size="14.00" fill="#555555">BIGINT UNSIGNED</text>
<text text-anchor="start" x="5.5" y="-645.7" font-family="Consolas" font-size="11.00">ngay_duyet</text>
<text text-anchor="start" x="192.5" y="-644.8" font-family="Times,serif" font-size="14.00" fill="#555555">DATETIME</text>
<text text-anchor="start" x="5.5" y="-622.7" font-family="Consolas" font-size="11.00">ngay_dang_tai</text>
<text text-anchor="start" x="192.5" y="-621.8" font-family="Times,serif" font-size="14.00" fill="#555555">DATETIME</text>
<text text-anchor="start" x="5.5" y="-599.7" font-family="Consolas" font-size="11.00">trang_thai</text>
<text text-anchor="start" x="192.5" y="-598.8" font-family="Times,serif" font-size="14.00" fill="#555555">ENUM</text>
<polygon fill="none" stroke="black" points="0,-590.5 0,-773.5 339,-773.5 339,-590.5 0,-590.5"/>
</g>
<!-- cong_khai_van_ban&#45;&gt;can_bo -->
<g id="edge12" class="edge">
<title>cong_khai_van_ban&#45;&gt;can_bo</title>
<path fill="none" stroke="#5578a8" d="M339.18,-770.5C488.8,-770.5 705.01,-770.5 850.17,-770.5"/>
</g>
<!-- van_ban_giai_trinh -->
<g id="node7" class="node">
<title>van_ban_giai_trinh</title>
<polygon fill="#d8e4bc" stroke="transparent" points="419.5,-740 419.5,-760 756.5,-760 756.5,-740 419.5,-740"/>
<text text-anchor="start" x="527" y="-748.2" font-family="Consolas" font-weight="bold" font-size="11.00">van_ban_giai_trinh</text>
<text text-anchor="start" x="423.5" y="-726.7" font-family="Consolas" font-weight="bold" font-size="11.00">id</text>
<text text-anchor="start" x="573.5" y="-724.8" font-family="Times,serif" font-size="14.00" fill="#b8860b">PK</text>
<text text-anchor="start" x="610.5" y="-724.8" font-family="Times,serif" font-size="14.00" fill="#555555">BIGINT UNSIGNED</text>
<text text-anchor="start" x="423.5" y="-703.7" font-family="Consolas" font-weight="bold" font-size="11.00">yeu_cau_giai_trinh_id</text>
<text text-anchor="start" x="573.5" y="-701.8" font-family="Times,serif" font-size="14.00" fill="#1f6fb2">FK</text>
<text text-anchor="start" x="610.5" y="-701.8" font-family="Times,serif" font-size="14.00" fill="#555555">BIGINT UNSIGNED</text>
<text text-anchor="start" x="423.5" y="-679.7" font-family="Consolas" font-size="11.00" fill="#c00000">loai_van_ban</text>
<text text-anchor="start" x="610.5" y="-678.8" font-family="Times,serif" font-size="14.00" fill="#555555">ENUM</text>
<text text-anchor="start" x="423.5" y="-656.7" font-family="Consolas" font-size="11.00">so_van_ban</text>
<text text-anchor="start" x="610.5" y="-655.8" font-family="Times,serif" font-size="14.00" fill="#555555">VARCHAR(50)</text>
<text text-anchor="start" x="423.5" y="-633.7" font-family="Consolas" font-size="11.00">trich_yeu</text>
<text text-anchor="start" x="610.5" y="-632.8" font-family="Times,serif" font-size="14.00" fill="#555555">VARCHAR(500)</text>
<text text-anchor="start" x="423.5" y="-610.7" font-family="Consolas" font-size="11.00">noi_dung</text>
<text text-anchor="start" x="610.5" y="-609.8" font-family="Times,serif" font-size="14.00" fill="#555555">LONGTEXT</text>
<text text-anchor="start" x="423.5" y="-588.7" font-family="Consolas" font-weight="bold" font-size="11.00">nguoi_soan_id</text>
<text text-anchor="start" x="573.5" y="-586.8" font-family="Times,serif" font-size="14.00" fill="#1f6fb2">FK</text>
<text text-anchor="start" x="610.5" y="-586.8" font-family="Times,serif" font-size="14.00" fill="#555555">BIGINT UNSIGNED</text>
<text text-anchor="start" x="423.5" y="-564.7" font-family="Consolas" font-size="11.00">ngay_soan</text>
<text text-anchor="start" x="610.5" y="-563.8" font-family="Times,serif" font-size="14.00" fill="#555555">DATETIME</text>
<text text-anchor="start" x="423.5" y="-542.7" font-family="Consolas" font-weight="bold" font-size="11.00">nguoi_ky_id</text>
<text text-anchor="start" x="573.5" y="-540.8" font-family="Times,serif" font-size="14.00" fill="#1f6fb2">FK</text>
<text text-anchor="start" x="610.5" y="-540.8" font-family="Times,serif" font-size="14.00" fill="#555555">BIGINT UNSIGNED</text>
<text text-anchor="start" x="423.5" y="-518.7" font-family="Consolas" font-size="11.00">ngay_ban_hanh</text>
<text text-anchor="start" x="610.5" y="-517.8" font-family="Times,serif" font-size="14.00" fill="#555555">DATETIME</text>
<text text-anchor="start" x="423.5" y="-495.7" font-family="Consolas" font-size="11.00">chu_ky_so</text>
<text text-anchor="start" x="610.5" y="-494.8" font-family="Times,serif" font-size="14.00" fill="#555555">VARCHAR(255)</text>
<text text-anchor="start" x="423.5" y="-473.7" font-family="Consolas" font-weight="bold" font-size="11.00" fill="#c00000">van_ban_thay_the_id</text>
<text text-anchor="start" x="573.5" y="-471.8" font-family="Times,serif" font-size="14.00" fill="#1f6fb2">FK</text>
<text text-anchor="start" x="610.5" y="-471.8" font-family="Times,serif" font-size="14.00" fill="#555555">BIGINT UNSIGNED</text>
<text text-anchor="start" x="423.5" y="-449.7" font-family="Consolas" font-size="11.00">trang_thai</text>
<text text-anchor="start" x="610.5" y="-448.8" font-family="Times,serif" font-size="14.00" fill="#555555">ENUM</text>
<polygon fill="none" stroke="black" points="418,-440.5 418,-761.5 757,-761.5 757,-440.5 418,-440.5"/>
</g>
<!-- cong_khai_van_ban&#45;&gt;van_ban_giai_trinh -->
<g id="edge13" class="edge">
<title>cong_khai_van_ban&#45;&gt;van_ban_giai_trinh</title>
<path fill="none" stroke="#5578a8" d="M339.22,-647.5C365.11,-647.5 391.84,-647.5 417.74,-647.5"/>
</g>
<!-- don_vi -->
<g id="node3" class="node">
<title>don_vi</title>
<polygon fill="#dce6f1" stroke="transparent" points="1255.5,-613 1255.5,-633 1538.5,-633 1538.5,-613 1255.5,-613"/>
<text text-anchor="start" x="1376.5" y="-621.2" font-family="Consolas" font-weight="bold" font-size="11.00">don_vi</text>
<text text-anchor="start" x="1259.5" y="-599.7" font-family="Consolas" font-weight="bold" font-size="11.00">id</text>
<text text-anchor="start" x="1355.5" y="-597.8" font-family="Times,serif" font-size="14.00" fill="#b8860b">PK</text>
<text text-anchor="start" x="1392.5" y="-597.8" font-family="Times,serif" font-size="14.00" fill="#555555">BIGINT UNSIGNED</text>
<text text-anchor="start" x="1259.5" y="-575.7" font-family="Consolas" font-size="11.00">ma_don_vi</text>
<text text-anchor="start" x="1392.5" y="-574.8" font-family="Times,serif" font-size="14.00" fill="#555555">VARCHAR(30)</text>
<text text-anchor="start" x="1259.5" y="-552.7" font-family="Consolas" font-size="11.00">ten_don_vi</text>
<text text-anchor="start" x="1392.5" y="-551.8" font-family="Times,serif" font-size="14.00" fill="#555555">VARCHAR(255)</text>
<text text-anchor="start" x="1259.5" y="-530.7" font-family="Consolas" font-weight="bold" font-size="11.00">don_vi_cha_id</text>
<text text-anchor="start" x="1355.5" y="-528.8" font-family="Times,serif" font-size="14.00" fill="#1f6fb2">FK</text>
<text text-anchor="start" x="1392.5" y="-528.8" font-family="Times,serif" font-size="14.00" fill="#555555">BIGINT UNSIGNED</text>
<text text-anchor="start" x="1259.5" y="-506.7" font-family="Consolas" font-size="11.00">cap_don_vi</text>
<text text-anchor="start" x="1392.5" y="-505.8" font-family="Times,serif" font-size="14.00" fill="#555555">TINYINT</text>
<text text-anchor="start" x="1259.5" y="-483.7" font-family="Consolas" font-size="11.00">loai_don_vi</text>
<text text-anchor="start" x="1392.5" y="-482.8" font-family="Times,serif" font-size="14.00" fill="#555555">VARCHAR(50)</text>
<text text-anchor="start" x="1259.5" y="-460.7" font-family="Consolas" font-size="11.00">dia_chi</text>
<text text-anchor="start" x="1392.5" y="-459.8" font-family="Times,serif" font-size="14.00" fill="#555555">VARCHAR(255)</text>
<text text-anchor="start" x="1259.5" y="-437.7" font-family="Consolas" font-size="11.00">trang_thai</text>
<text text-anchor="start" x="1392.5" y="-436.8" font-family="Times,serif" font-size="14.00" fill="#555555">TINYINT</text>
<text text-anchor="start" x="1259.5" y="-414.7" font-family="Consolas" font-size="11.00">ngay_tao</text>
<text text-anchor="start" x="1392.5" y="-413.8" font-family="Times,serif" font-size="14.00" fill="#555555">DATETIME</text>
<polygon fill="none" stroke="black" points="1254,-405.5 1254,-634.5 1539,-634.5 1539,-405.5 1254,-405.5"/>
</g>
<!-- don_vi&#45;&gt;don_vi -->
<g id="edge1" class="edge">
<title>don_vi&#45;&gt;don_vi</title>
<path fill="none" stroke="#5578a8" stroke-dasharray="5,2" d="M1253.94,-577.25C1231.21,-577.25 1215,-577.25 1215,-577.25 1215,-577.25 1215,-679 1215,-679 1215,-679 1557,-679 1557,-679 1557,-679 1557,-520 1557,-520 1557,-520 1550.12,-520 1539.21,-520"/>
</g>
<!-- gui_van_ban_lien_thong -->
<g id="node4" class="node">
<title>gui_van_ban_lien_thong</title>
<polygon fill="#d8e4bc" stroke="transparent" points="1.5,-328 1.5,-348 338.5,-348 338.5,-328 1.5,-328"/>
<text text-anchor="start" x="95.5" y="-336.2" font-family="Consolas" font-weight="bold" font-size="11.00">gui_van_ban_lien_thong</text>
<text text-anchor="start" x="5.5" y="-314.7" font-family="Consolas" font-weight="bold" font-size="11.00">id</text>
<text text-anchor="start" x="155.5" y="-312.8" font-family="Times,serif" font-size="14.00" fill="#b8860b">PK</text>
<text text-anchor="start" x="192.5" y="-312.8" font-family="Times,serif" font-size="14.00" fill="#555555">BIGINT UNSIGNED</text>
<text text-anchor="start" x="5.5" y="-291.7" font-family="Consolas" font-weight="bold" font-size="11.00">van_ban_giai_trinh_id</text>
<text text-anchor="start" x="155.5" y="-289.8" font-family="Times,serif" font-size="14.00" fill="#1f6fb2">FK</text>
<text text-anchor="start" x="192.5" y="-289.8" font-family="Times,serif" font-size="14.00" fill="#555555">BIGINT UNSIGNED</text>
<text text-anchor="start" x="5.5" y="-267.7" font-family="Consolas" font-size="11.00">ma_lien_thong</text>
<text text-anchor="start" x="192.5" y="-266.8" font-family="Times,serif" font-size="14.00" fill="#555555">VARCHAR(100)</text>
<text text-anchor="start" x="5.5" y="-244.7" font-family="Consolas" font-size="11.00">ngay_gui</text>
<text text-anchor="start" x="192.5" y="-243.8" font-family="Times,serif" font-size="14.00" fill="#555555">DATETIME</text>
<text text-anchor="start" x="5.5" y="-221.7" font-family="Consolas" font-size="11.00">ket_qua</text>
<text text-anchor="start" x="192.5" y="-220.8" font-family="Times,serif" font-size="14.00" fill="#555555">VARCHAR(255)</text>
<text text-anchor="start" x="5.5" y="-198.7" font-family="Consolas" font-size="11.00">phan_hoi_api</text>
<text text-anchor="start" x="192.5" y="-197.8" font-family="Times,serif" font-size="14.00" fill="#555555">TEXT</text>
<polygon fill="none" stroke="black" points="0,-189 0,-349 339,-349 339,-189 0,-189"/>
</g>
<!-- gui_van_ban_lien_thong&#45;&gt;van_ban_giai_trinh -->
<g id="edge14" class="edge">
<title>gui_van_ban_lien_thong&#45;&gt;van_ban_giai_trinh</title>
<path fill="none" stroke="#5578a8" d="M339.14,-332.75C433.06,-332.75 531,-332.75 531,-332.75 531,-332.75 531,-383.18 531,-440.31"/>
</g>
<!-- phan_hoi_van_ban -->
<g id="node5" class="node">
<title>phan_hoi_van_ban</title>
<polygon fill="#d9d2e9" stroke="transparent" points="1.5,-540 1.5,-560 338.5,-560 338.5,-540 1.5,-540"/>
<text text-anchor="start" x="115.5" y="-548.2" font-family="Consolas" font-weight="bold" font-size="11.00">phan_hoi_van_ban</text>
<text text-anchor="start" x="5.5" y="-526.7" font-family="Consolas" font-weight="bold" font-size="11.00">id</text>
<text text-anchor="start" x="155.5" y="-524.8" font-family="Times,serif" font-size="14.00" fill="#b8860b">PK</text>
<text text-anchor="start" x="192.5" y="-524.8" font-family="Times,serif" font-size="14.00" fill="#555555">BIGINT UNSIGNED</text>
<text text-anchor="start" x="5.5" y="-503.7" font-family="Consolas" font-weight="bold" font-size="11.00">van_ban_giai_trinh_id</text>
<text text-anchor="start" x="155.5" y="-501.8" font-family="Times,serif" font-size="14.00" fill="#1f6fb2">FK</text>
<text text-anchor="start" x="192.5" y="-501.8" font-family="Times,serif" font-size="14.00" fill="#555555">BIGINT UNSIGNED</text>
<text text-anchor="start" x="5.5" y="-480.7" font-family="Consolas" font-weight="bold" font-size="11.00">nguoi_gui_id</text>
<text text-anchor="start" x="155.5" y="-478.8" font-family="Times,serif" font-size="14.00" fill="#1f6fb2">FK</text>
<text text-anchor="start" x="192.5" y="-478.8" font-family="Times,serif" font-size="14.00" fill="#555555">BIGINT UNSIGNED</text>
<text text-anchor="start" x="5.5" y="-456.7" font-family="Consolas" font-size="11.00">hinh_thuc_gui</text>
<text text-anchor="start" x="192.5" y="-455.8" font-family="Times,serif" font-size="14.00" fill="#555555">ENUM</text>
<text text-anchor="start" x="5.5" y="-433.7" font-family="Consolas" font-size="11.00">noi_dung</text>
<text text-anchor="start" x="192.5" y="-432.8" font-family="Times,serif" font-size="14.00" fill="#555555">TEXT</text>
<text text-anchor="start" x="5.5" y="-410.7" font-family="Consolas" font-size="11.00">ngay_gui</text>
<text text-anchor="start" x="192.5" y="-409.8" font-family="Times,serif" font-size="14.00" fill="#555555">DATETIME</text>
<text text-anchor="start" x="5.5" y="-387.7" font-family="Consolas" font-size="11.00">trang_thai</text>
<text text-anchor="start" x="192.5" y="-386.8" font-family="Times,serif" font-size="14.00" fill="#555555">ENUM</text>
<polygon fill="none" stroke="black" points="0,-378.5 0,-561.5 339,-561.5 339,-378.5 0,-378.5"/>
</g>
<!-- phan_hoi_van_ban&#45;&gt;van_ban_giai_trinh -->
<g id="edge15" class="edge">
<title>phan_hoi_van_ban&#45;&gt;van_ban_giai_trinh</title>
<path fill="none" stroke="#5578a8" d="M339.22,-501C365.11,-501 391.84,-501 417.74,-501"/>
</g>
<!-- so_van_ban -->
<g id="node6" class="node">
<title>so_van_ban</title>
<polygon fill="#e4e4c6" stroke="transparent" points="1.5,-139 1.5,-159 338.5,-159 338.5,-139 1.5,-139"/>
<text text-anchor="start" x="136" y="-147.2" font-family="Consolas" font-weight="bold" font-size="11.00">so_van_ban</text>
<text text-anchor="start" x="5.5" y="-125.7" font-family="Consolas" font-weight="bold" font-size="11.00">id</text>
<text text-anchor="start" x="155.5" y="-123.8" font-family="Times,serif" font-size="14.00" fill="#b8860b">PK</text>
<text text-anchor="start" x="192.5" y="-123.8" font-family="Times,serif" font-size="14.00" fill="#555555">BIGINT UNSIGNED</text>
<text text-anchor="start" x="5.5" y="-102.7" font-family="Consolas" font-weight="bold" font-size="11.00">van_ban_giai_trinh_id</text>
<text text-anchor="start" x="155.5" y="-100.8" font-family="Times,serif" font-size="14.00" fill="#1f6fb2">FK</text>
<text text-anchor="start" x="192.5" y="-100.8" font-family="Times,serif" font-size="14.00" fill="#555555">BIGINT UNSIGNED</text>
<text text-anchor="start" x="5.5" y="-78.7" font-family="Consolas" font-size="11.00">so_hieu</text>
<text text-anchor="start" x="192.5" y="-77.8" font-family="Times,serif" font-size="14.00" fill="#555555">VARCHAR(50)</text>
<text text-anchor="start" x="5.5" y="-55.7" font-family="Consolas" font-size="11.00">loai_van_ban</text>
<text text-anchor="start" x="192.5" y="-54.8" font-family="Times,serif" font-size="14.00" fill="#555555">VARCHAR(100)</text>
<text text-anchor="start" x="5.5" y="-32.7" font-family="Consolas" font-size="11.00">ngay_dang_ky</text>
<text text-anchor="start" x="192.5" y="-31.8" font-family="Times,serif" font-size="14.00" fill="#555555">DATETIME</text>
<text text-anchor="start" x="5.5" y="-10.7" font-family="Consolas" font-weight="bold" font-size="11.00">nguoi_dang_ky_id</text>
<text text-anchor="start" x="155.5" y="-8.8" font-family="Times,serif" font-size="14.00" fill="#1f6fb2">FK</text>
<text text-anchor="start" x="192.5" y="-8.8" font-family="Times,serif" font-size="14.00" fill="#555555">BIGINT UNSIGNED</text>
<polygon fill="none" stroke="black" points="0,0 0,-160 339,-160 339,0 0,0"/>
</g>
<!-- so_van_ban&#45;&gt;can_bo -->
<g id="edge16" class="edge">
<title>so_van_ban&#45;&gt;can_bo</title>
<path fill="none" stroke="#5578a8" d="M339.04,-53.33C528.8,-53.33 810,-53.33 810,-53.33 810,-53.33 810,-764.5 810,-764.5 810,-764.5 826.56,-764.5 850.03,-764.5"/>
</g>
<!-- so_van_ban&#45;&gt;van_ban_giai_trinh -->
<g id="edge17" class="edge">
<title>so_van_ban&#45;&gt;van_ban_giai_trinh</title>
<path fill="none" stroke="#5578a8" d="M339.13,-106.67C475.34,-106.67 644,-106.67 644,-106.67 644,-106.67 644,-295.86 644,-440.16"/>
</g>
<!-- van_ban_giai_trinh&#45;&gt;can_bo -->
<g id="edge4" class="edge">
<title>van_ban_giai_trinh&#45;&gt;can_bo</title>
<path fill="none" stroke="#5578a8" d="M757.22,-755.12C787.97,-755.12 819.91,-755.12 850.23,-755.12"/>
</g>
<!-- van_ban_giai_trinh&#45;&gt;can_bo -->
<g id="edge5" class="edge">
<title>van_ban_giai_trinh&#45;&gt;can_bo</title>
<path fill="none" stroke="#5578a8" d="M757.22,-757.25C787.97,-757.25 819.91,-757.25 850.23,-757.25"/>
</g>
<!-- van_ban_giai_trinh&#45;&gt;van_ban_giai_trinh -->
<g id="edge18" class="edge">
<title>van_ban_giai_trinh&#45;&gt;van_ban_giai_trinh</title>
<path fill="none" stroke="#5578a8" stroke-dasharray="5,2" d="M417.73,-704.5C394.81,-704.5 379,-704.5 379,-704.5 379,-704.5 379,-767.5 379,-767.5 379,-767.5 784,-767.5 784,-767.5 784,-767.5 784,-759.38 784,-759.38 784,-759.38 773.39,-759.38 757.09,-759.38"/>
</g>
<!-- yeu_cau_giai_trinh -->
<g id="node10" class="node">
<title>yeu_cau_giai_trinh</title>
<polygon fill="#fbe5d6" stroke="transparent" points="837.5,-702 837.5,-722 1174.5,-722 1174.5,-702 837.5,-702"/>
<text text-anchor="start" x="945" y="-710.2" font-family="Consolas" font-weight="bold" font-size="11.00">yeu_cau_giai_trinh</text>
<text text-anchor="start" x="841.5" y="-688.7" font-family="Consolas" font-weight="bold" font-size="11.00">id</text>
<text text-anchor="start" x="991.5" y="-686.8" font-family="Times,serif" font-size="14.00" fill="#b8860b">PK</text>
<text text-anchor="start" x="1028.5" y="-686.8" font-family="Times,serif" font-size="14.00" fill="#555555">BIGINT UNSIGNED</text>
<text text-anchor="start" x="841.5" y="-664.7" font-family="Consolas" font-size="11.00">ma_yeu_cau</text>
<text text-anchor="start" x="1028.5" y="-663.8" font-family="Times,serif" font-size="14.00" fill="#555555">VARCHAR(30)</text>
<text text-anchor="start" x="841.5" y="-642.7" font-family="Consolas" font-weight="bold" font-size="11.00">nguoi_yeu_cau_id</text>
<text text-anchor="start" x="991.5" y="-640.8" font-family="Times,serif" font-size="14.00" fill="#1f6fb2">FK</text>
<text text-anchor="start" x="1028.5" y="-640.8" font-family="Times,serif" font-size="14.00" fill="#555555">BIGINT UNSIGNED</text>
<text text-anchor="start" x="841.5" y="-618.7" font-family="Consolas" font-size="11.00">hinh_thuc_gui</text>
<text text-anchor="start" x="1028.5" y="-617.8" font-family="Times,serif" font-size="14.00" fill="#555555">ENUM</text>
<text text-anchor="start" x="841.5" y="-595.7" font-family="Consolas" font-size="11.00">nguon_goc</text>
<text text-anchor="start" x="1028.5" y="-594.8" font-family="Times,serif" font-size="14.00" fill="#555555">ENUM</text>
<text text-anchor="start" x="841.5" y="-572.7" font-family="Consolas" font-size="11.00">noi_dung_yeu_cau</text>
<text text-anchor="start" x="1028.5" y="-571.8" font-family="Times,serif" font-size="14.00" fill="#555555">TEXT</text>
<text text-anchor="start" x="841.5" y="-549.7" font-family="Consolas" font-size="11.00">ngay_gui</text>
<text text-anchor="start" x="1028.5" y="-548.8" font-family="Times,serif" font-size="14.00" fill="#555555">DATETIME</text>
<text text-anchor="start" x="841.5" y="-527.7" font-family="Consolas" font-weight="bold" font-size="11.00">don_vi_tiep_nhan_id</text>
<text text-anchor="start" x="991.5" y="-525.8" font-family="Times,serif" font-size="14.00" fill="#1f6fb2">FK</text>
<text text-anchor="start" x="1028.5" y="-525.8" font-family="Times,serif" font-size="14.00" fill="#555555">BIGINT UNSIGNED</text>
<text text-anchor="start" x="841.5" y="-504.7" font-family="Consolas" font-weight="bold" font-size="11.00">don_vi_chuyen_mon_id</text>
<text text-anchor="start" x="991.5" y="-502.8" font-family="Times,serif" font-size="14.00" fill="#1f6fb2">FK</text>
<text text-anchor="start" x="1028.5" y="-502.8" font-family="Times,serif" font-size="14.00" fill="#555555">BIGINT UNSIGNED</text>
<text text-anchor="start" x="841.5" y="-480.7" font-family="Consolas" font-size="11.00">han_xu_ly</text>
<text text-anchor="start" x="1028.5" y="-479.8" font-family="Times,serif" font-size="14.00" fill="#555555">DATE</text>
<text text-anchor="start" x="841.5" y="-457.7" font-family="Consolas" font-size="11.00" fill="#c00000">han_xu_ly_cu</text>
<text text-anchor="start" x="1028.5" y="-456.8" font-family="Times,serif" font-size="14.00" fill="#555555">DATE</text>
<text text-anchor="start" x="841.5" y="-434.7" font-family="Consolas" font-size="11.00" fill="#c00000">so_lan_gia_han</text>
<text text-anchor="start" x="1028.5" y="-433.8" font-family="Times,serif" font-size="14.00" fill="#555555">TINYINT</text>
<text text-anchor="start" x="841.5" y="-412.7" font-family="Consolas" font-weight="bold" font-size="11.00" fill="#c00000">ly_do_gia_han_id</text>
<text text-anchor="start" x="991.5" y="-410.8" font-family="Times,serif" font-size="14.00" fill="#1f6fb2">FK</text>
<text text-anchor="start" x="1028.5" y="-410.8" font-family="Times,serif" font-size="14.00" fill="#555555">BIGINT UNSIGNED</text>
<text text-anchor="start" x="841.5" y="-388.7" font-family="Consolas" font-size="11.00" fill="#c00000">ngay_gia_han_gan_nhat</text>
<text text-anchor="start" x="1028.5" y="-387.8" font-family="Times,serif" font-size="14.00" fill="#555555">DATETIME</text>
<text text-anchor="start" x="841.5" y="-365.7" font-family="Consolas" font-size="11.00">trang_thai</text>
<text text-anchor="start" x="1028.5" y="-364.8" font-family="Times,serif" font-size="14.00" fill="#555555">ENUM</text>
<text text-anchor="start" x="841.5" y="-346.6" font-family="Consolas" font-size="8.00" fill="#999999">= ...,Đã rút (bổ sung)</text>
<text text-anchor="start" x="841.5" y="-325.7" font-family="Consolas" font-size="11.00">ngay_dong</text>
<text text-anchor="start" x="1028.5" y="-324.8" font-family="Times,serif" font-size="14.00" fill="#555555">DATETIME</text>
<polygon fill="none" stroke="black" points="836,-316.5 836,-723.5 1175,-723.5 1175,-316.5 836,-316.5"/>
</g>
<!-- van_ban_giai_trinh&#45;&gt;yeu_cau_giai_trinh -->
<g id="edge6" class="edge">
<title>van_ban_giai_trinh&#45;&gt;yeu_cau_giai_trinh</title>
<path fill="none" stroke="#5578a8" d="M757.22,-582C783.11,-582 809.84,-582 835.74,-582"/>
</g>
<!-- xu_ly_an_danh -->
<g id="node8" class="node">
<title>xu_ly_an_danh</title>
<polygon fill="#d8e4bc" stroke="transparent" points="1.5,-942 1.5,-962 338.5,-962 338.5,-942 1.5,-942"/>
<text text-anchor="start" x="126" y="-950.2" font-family="Consolas" font-weight="bold" font-size="11.00">xu_ly_an_danh</text>
<text text-anchor="start" x="5.5" y="-928.7" font-family="Consolas" font-weight="bold" font-size="11.00">id</text>
<text text-anchor="start" x="155.5" y="-926.8" font-family="Times,serif" font-size="14.00" fill="#b8860b">PK</text>
<text text-anchor="start" x="192.5" y="-926.8" font-family="Times,serif" font-size="14.00" fill="#555555">BIGINT UNSIGNED</text>
<text text-anchor="start" x="5.5" y="-905.7" font-family="Consolas" font-weight="bold" font-size="11.00">van_ban_giai_trinh_id</text>
<text text-anchor="start" x="155.5" y="-903.8" font-family="Times,serif" font-size="14.00" fill="#1f6fb2">FK</text>
<text text-anchor="start" x="192.5" y="-903.8" font-family="Times,serif" font-size="14.00" fill="#555555">BIGINT UNSIGNED</text>
<text text-anchor="start" x="5.5" y="-881.7" font-family="Consolas" font-size="11.00">thong_tin_nhay_cam</text>
<text text-anchor="start" x="192.5" y="-880.8" font-family="Times,serif" font-size="14.00" fill="#555555">TEXT</text>
<text text-anchor="start" x="5.5" y="-858.7" font-family="Consolas" font-size="11.00">phuong_phap_xu_ly</text>
<text text-anchor="start" x="192.5" y="-857.8" font-family="Times,serif" font-size="14.00" fill="#555555">VARCHAR(255)</text>
<text text-anchor="start" x="5.5" y="-836.7" font-family="Consolas" font-weight="bold" font-size="11.00">nguoi_xu_ly_id</text>
<text text-anchor="start" x="155.5" y="-834.8" font-family="Times,serif" font-size="14.00" fill="#1f6fb2">FK</text>
<text text-anchor="start" x="192.5" y="-834.8" font-family="Times,serif" font-size="14.00" fill="#555555">BIGINT UNSIGNED</text>
<text text-anchor="start" x="5.5" y="-812.7" font-family="Consolas" font-size="11.00">ngay_xu_ly</text>
<text text-anchor="start" x="192.5" y="-811.8" font-family="Times,serif" font-size="14.00" fill="#555555">DATETIME</text>
<polygon fill="none" stroke="black" points="0,-803 0,-963 339,-963 339,-803 0,-803"/>
</g>
<!-- xu_ly_an_danh&#45;&gt;can_bo -->
<g id="edge10" class="edge">
<title>xu_ly_an_danh&#45;&gt;can_bo</title>
<path fill="none" stroke="#5578a8" d="M339.18,-903C488.8,-903 705.01,-903 850.17,-903"/>
</g>
<!-- xu_ly_an_danh&#45;&gt;van_ban_giai_trinh -->
<g id="edge11" class="edge">
<title>xu_ly_an_danh&#45;&gt;van_ban_giai_trinh</title>
<path fill="none" stroke="#5578a8" d="M339.14,-853C433.06,-853 531,-853 531,-853 531,-853 531,-811.21 531,-761.67"/>
</g>
<!-- y_kien_phoi_hop -->
<g id="node9" class="node">
<title>y_kien_phoi_hop</title>
<polygon fill="#d8e4bc" stroke="transparent" points="1.5,-1154 1.5,-1174 338.5,-1174 338.5,-1154 1.5,-1154"/>
<text text-anchor="start" x="119" y="-1162.2" font-family="Consolas" font-weight="bold" font-size="11.00">y_kien_phoi_hop</text>
<text text-anchor="start" x="5.5" y="-1140.7" font-family="Consolas" font-weight="bold" font-size="11.00">id</text>
<text text-anchor="start" x="155.5" y="-1138.8" font-family="Times,serif" font-size="14.00" fill="#b8860b">PK</text>
<text text-anchor="start" x="192.5" y="-1138.8" font-family="Times,serif" font-size="14.00" fill="#555555">BIGINT UNSIGNED</text>
<text text-anchor="start" x="5.5" y="-1117.7" font-family="Consolas" font-weight="bold" font-size="11.00">van_ban_giai_trinh_id</text>
<text text-anchor="start" x="155.5" y="-1115.8" font-family="Times,serif" font-size="14.00" fill="#1f6fb2">FK</text>
<text text-anchor="start" x="192.5" y="-1115.8" font-family="Times,serif" font-size="14.00" fill="#555555">BIGINT UNSIGNED</text>
<text text-anchor="start" x="5.5" y="-1094.7" font-family="Consolas" font-weight="bold" font-size="11.00">don_vi_gop_y_id</text>
<text text-anchor="start" x="155.5" y="-1092.8" font-family="Times,serif" font-size="14.00" fill="#1f6fb2">FK</text>
<text text-anchor="start" x="192.5" y="-1092.8" font-family="Times,serif" font-size="14.00" fill="#555555">BIGINT UNSIGNED</text>
<text text-anchor="start" x="5.5" y="-1071.7" font-family="Consolas" font-weight="bold" font-size="11.00">nguoi_gop_y_id</text>
<text text-anchor="start" x="155.5" y="-1069.8" font-family="Times,serif" font-size="14.00" fill="#1f6fb2">FK</text>
<text text-anchor="start" x="192.5" y="-1069.8" font-family="Times,serif" font-size="14.00" fill="#555555">BIGINT UNSIGNED</text>
<text text-anchor="start" x="5.5" y="-1047.7" font-family="Consolas" font-size="11.00">noi_dung_gop_y</text>
<text text-anchor="start" x="192.5" y="-1046.8" font-family="Times,serif" font-size="14.00" fill="#555555">TEXT</text>
<text text-anchor="start" x="5.5" y="-1024.7" font-family="Consolas" font-size="11.00">ngay_gop_y</text>
<text text-anchor="start" x="192.5" y="-1023.8" font-family="Times,serif" font-size="14.00" fill="#555555">DATETIME</text>
<text text-anchor="start" x="5.5" y="-1001.7" font-family="Consolas" font-size="11.00">trang_thai</text>
<text text-anchor="start" x="192.5" y="-1000.8" font-family="Times,serif" font-size="14.00" fill="#555555">ENUM</text>
<polygon fill="none" stroke="black" points="0,-992.5 0,-1175.5 339,-1175.5 339,-992.5 0,-992.5"/>
</g>
<!-- y_kien_phoi_hop&#45;&gt;can_bo -->
<g id="edge8" class="edge">
<title>y_kien_phoi_hop&#45;&gt;can_bo</title>
<path fill="none" stroke="#5578a8" d="M339.03,-1084C583.5,-1084 1006,-1084 1006,-1084 1006,-1084 1006,-1015.65 1006,-953.31"/>
</g>
<!-- y_kien_phoi_hop&#45;&gt;don_vi -->
<g id="edge7" class="edge">
<title>y_kien_phoi_hop&#45;&gt;don_vi</title>
<path fill="none" stroke="#5578a8" d="M339.21,-1129.75C676.08,-1129.75 1397,-1129.75 1397,-1129.75 1397,-1129.75 1397,-811.32 1397,-634.69"/>
</g>
<!-- y_kien_phoi_hop&#45;&gt;van_ban_giai_trinh -->
<g id="edge9" class="edge">
<title>y_kien_phoi_hop&#45;&gt;van_ban_giai_trinh</title>
<path fill="none" stroke="#5578a8" d="M339.13,-1038.25C475.34,-1038.25 644,-1038.25 644,-1038.25 644,-1038.25 644,-886.38 644,-761.64"/>
</g>
<!-- yeu_cau_giai_trinh&#45;&gt;don_vi -->
<g id="edge2" class="edge">
<title>yeu_cau_giai_trinh&#45;&gt;don_vi</title>
<path fill="none" stroke="#5578a8" d="M1175.01,-462.75C1201.3,-462.75 1228.24,-462.75 1253.86,-462.75"/>
</g>
<!-- yeu_cau_giai_trinh&#45;&gt;don_vi -->
<g id="edge3" class="edge">
<title>yeu_cau_giai_trinh&#45;&gt;don_vi</title>
<path fill="none" stroke="#5578a8" d="M1175.01,-520C1201.3,-520 1228.24,-520 1253.86,-520"/>
</g>
</g>
</svg>
