<?xml version="1.0" encoding="UTF-8" standalone="no"?>
<!DOCTYPE svg PUBLIC "-//W3C//DTD SVG 1.1//EN"
 "http://www.w3.org/Graphics/SVG/1.1/DTD/svg11.dtd">
<!-- Generated by graphviz version 2.43.0 (0)
 -->
<!-- Title: PHẢN HỒI &amp; KHIẾU NẠI Pages: 1 -->
<svg width="1918pt" height="856pt"
 viewBox="0.00 0.00 1918.00 855.50" xmlns="http://www.w3.org/2000/svg" xmlns:xlink="http://www.w3.org/1999/xlink">
<g id="graph0" class="graph" transform="scale(1 1) rotate(0) translate(4 851.5)">
<title>PHẢN HỒI &amp; KHIẾU NẠI</title>
<polygon fill="white" stroke="transparent" points="-4,4 -4,-851.5 1914,-851.5 1914,4 -4,4"/>
<text text-anchor="start" x="828.5" y="-825.9" font-family="Helvetica,sans-Serif" font-size="22.00">PHẢN HỒI &amp; KHIẾU NẠI</text>
<!-- can_bo -->
<g id="node1" class="node">
<title>can_bo</title>
<polygon fill="#dce6f1" stroke="transparent" points="1215.5,-624 1215.5,-644 1523.5,-644 1523.5,-624 1215.5,-624"/>
<text text-anchor="start" x="1349" y="-632.2" font-family="Consolas" font-weight="bold" font-size="11.00">can_bo</text>
<text text-anchor="start" x="1219.5" y="-610.7" font-family="Consolas" font-weight="bold" font-size="11.00">id</text>
<text text-anchor="start" x="1315.5" y="-609.8" font-family="Times,serif" font-size="14.00" fill="#b8860b">PK</text>
<text text-anchor="start" x="1336.5" y="-609.8" font-family="Times,serif" font-size="14.00" fill="#1f6fb2">/FK</text>
<text text-anchor="start" x="1377.5" y="-608.8" font-family="Times,serif" font-size="14.00" fill="#555555">BIGINT UNSIGNED</text>
<text text-anchor="start" x="1219.5" y="-590.6" font-family="Consolas" font-size="8.00" fill="#999999">= = nguoi_dung.id</text>
<text text-anchor="start" x="1219.5" y="-569.7" font-family="Consolas" font-size="11.00">ma_can_bo</text>
<text text-anchor="start" x="1377.5" y="-568.8" font-family="Times,serif" font-size="14.00" fill="#555555">VARCHAR(30)</text>
<text text-anchor="start" x="1219.5" y="-546.7" font-family="Consolas" font-size="11.00">ho_ten</text>
<text text-anchor="start" x="1377.5" y="-545.8" font-family="Times,serif" font-size="14.00" fill="#555555">VARCHAR(150)</text>
<text text-anchor="start" x="1219.5" y="-524.7" font-family="Consolas" font-weight="bold" font-size="11.00">don_vi_id</text>
<text text-anchor="start" x="1315.5" y="-522.8" font-family="Times,serif" font-size="14.00" fill="#1f6fb2">FK</text>
<text text-anchor="start" x="1377.5" y="-522.8" font-family="Times,serif" font-size="14.00" fill="#555555">BIGINT UNSIGNED</text>
<text text-anchor="start" x="1219.5" y="-500.7" font-family="Consolas" font-size="11.00">chuc_vu</text>
<text text-anchor="start" x="1377.5" y="-499.8" font-family="Times,serif" font-size="14.00" fill="#555555">VARCHAR(100)</text>
<text text-anchor="start" x="1219.5" y="-477.7" font-family="Consolas" font-size="11.00">email</text>
<text text-anchor="start" x="1377.5" y="-476.8" font-family="Times,serif" font-size="14.00" fill="#555555">VARCHAR(150)</text>
<text text-anchor="start" x="1219.5" y="-454.7" font-family="Consolas" font-size="11.00">so_dien_thoai</text>
<text text-anchor="start" x="1377.5" y="-453.8" font-family="Times,serif" font-size="14.00" fill="#555555">VARCHAR(20)</text>
<polygon fill="none" stroke="black" points="1214.5,-445 1214.5,-645 1524.5,-645 1524.5,-445 1214.5,-445"/>
</g>
<!-- don_khieu_nai -->
<g id="node2" class="node">
<title>don_khieu_nai</title>
<polygon fill="#d9d2e9" stroke="transparent" points="783.5,-209 783.5,-229 1120.5,-229 1120.5,-209 783.5,-209"/>
<text text-anchor="start" x="908" y="-217.2" font-family="Consolas" font-weight="bold" font-size="11.00">don_khieu_nai</text>
<text text-anchor="start" x="787.5" y="-195.7" font-family="Consolas" font-weight="bold" font-size="11.00">id</text>
<text text-anchor="start" x="937.5" y="-193.8" font-family="Times,serif" font-size="14.00" fill="#b8860b">PK</text>
<text text-anchor="start" x="974.5" y="-193.8" font-family="Times,serif" font-size="14.00" fill="#555555">BIGINT UNSIGNED</text>
<text text-anchor="start" x="787.5" y="-172.7" font-family="Consolas" font-weight="bold" font-size="11.00">yeu_cau_giai_trinh_id</text>
<text text-anchor="start" x="937.5" y="-170.8" font-family="Times,serif" font-size="14.00" fill="#1f6fb2">FK</text>
<text text-anchor="start" x="974.5" y="-170.8" font-family="Times,serif" font-size="14.00" fill="#555555">BIGINT UNSIGNED</text>
<text text-anchor="start" x="787.5" y="-149.7" font-family="Consolas" font-weight="bold" font-size="11.00">nguoi_khieu_nai_id</text>
<text text-anchor="start" x="937.5" y="-147.8" font-family="Times,serif" font-size="14.00" fill="#1f6fb2">FK</text>
<text text-anchor="start" x="974.5" y="-147.8" font-family="Times,serif" font-size="14.00" fill="#555555">BIGINT UNSIGNED</text>
<text text-anchor="start" x="787.5" y="-125.7" font-family="Consolas" font-size="11.00">noi_dung</text>
<text text-anchor="start" x="974.5" y="-124.8" font-family="Times,serif" font-size="14.00" fill="#555555">TEXT</text>
<text text-anchor="start" x="787.5" y="-102.7" font-family="Consolas" font-size="11.00">ngay_nop</text>
<text text-anchor="start" x="974.5" y="-101.8" font-family="Times,serif" font-size="14.00" fill="#555555">DATETIME</text>
<text text-anchor="start" x="787.5" y="-80.7" font-family="Consolas" font-weight="bold" font-size="11.00">can_bo_tiep_nhan_id</text>
<text text-anchor="start" x="937.5" y="-78.8" font-family="Times,serif" font-size="14.00" fill="#1f6fb2">FK</text>
<text text-anchor="start" x="974.5" y="-78.8" font-family="Times,serif" font-size="14.00" fill="#555555">BIGINT UNSIGNED</text>
<text text-anchor="start" x="787.5" y="-56.7" font-family="Consolas" font-size="11.00">trang_thai</text>
<text text-anchor="start" x="974.5" y="-55.8" font-family="Times,serif" font-size="14.00" fill="#555555">ENUM</text>
<polygon fill="none" stroke="black" points="782,-47.5 782,-230.5 1121,-230.5 1121,-47.5 782,-47.5"/>
</g>
<!-- don_khieu_nai&#45;&gt;can_bo -->
<g id="edge9" class="edge">
<title>don_khieu_nai&#45;&gt;can_bo</title>
<path fill="none" stroke="#5578a8" d="M1121.27,-169.5C1149.07,-169.5 1169,-169.5 1169,-169.5 1169,-169.5 1169,-511.67 1169,-511.67 1169,-511.67 1188.09,-511.67 1214.5,-511.67"/>
</g>
<!-- nguoi_yeu_cau -->
<g id="node3" class="node">
<title>nguoi_yeu_cau</title>
<polygon fill="#fbe5d6" stroke="transparent" points="1619,-305 1619,-325 1909,-325 1909,-305 1619,-305"/>
<text text-anchor="start" x="1720" y="-313.2" font-family="Consolas" font-weight="bold" font-size="11.00">nguoi_yeu_cau</text>
<text text-anchor="start" x="1623" y="-291.7" font-family="Consolas" font-weight="bold" font-size="11.00">id</text>
<text text-anchor="start" x="1726" y="-289.8" font-family="Times,serif" font-size="14.00" fill="#b8860b">PK</text>
<text text-anchor="start" x="1763" y="-289.8" font-family="Times,serif" font-size="14.00" fill="#555555">BIGINT UNSIGNED</text>
<text text-anchor="start" x="1623" y="-267.7" font-family="Consolas" font-size="11.00">loai_doi_tuong</text>
<text text-anchor="start" x="1763" y="-266.8" font-family="Times,serif" font-size="14.00" fill="#555555">ENUM</text>
<text text-anchor="start" x="1623" y="-244.7" font-family="Consolas" font-size="11.00">ho_ten</text>
<text text-anchor="start" x="1763" y="-243.8" font-family="Times,serif" font-size="14.00" fill="#555555">VARCHAR(150)</text>
<text text-anchor="start" x="1623" y="-221.7" font-family="Consolas" font-size="11.00">so_cccd</text>
<text text-anchor="start" x="1763" y="-220.8" font-family="Times,serif" font-size="14.00" fill="#555555">VARCHAR(20)</text>
<text text-anchor="start" x="1623" y="-199.7" font-family="Consolas" font-weight="bold" font-size="11.00">nguoi_dung_id</text>
<text text-anchor="start" x="1726" y="-197.8" font-family="Times,serif" font-size="14.00" fill="#1f6fb2">FK</text>
<text text-anchor="start" x="1763" y="-197.8" font-family="Times,serif" font-size="14.00" fill="#555555">BIGINT UNSIGNED</text>
<text text-anchor="start" x="1623" y="-175.7" font-family="Consolas" font-size="11.00">dia_chi</text>
<text text-anchor="start" x="1763" y="-174.8" font-family="Times,serif" font-size="14.00" fill="#555555">VARCHAR(255)</text>
<text text-anchor="start" x="1623" y="-152.7" font-family="Consolas" font-size="11.00">email</text>
<text text-anchor="start" x="1763" y="-151.8" font-family="Times,serif" font-size="14.00" fill="#555555">VARCHAR(150)</text>
<text text-anchor="start" x="1623" y="-129.7" font-family="Consolas" font-size="11.00">so_dien_thoai</text>
<text text-anchor="start" x="1763" y="-128.8" font-family="Times,serif" font-size="14.00" fill="#555555">VARCHAR(20)</text>
<text text-anchor="start" x="1623" y="-106.7" font-family="Consolas" font-size="11.00">ngay_tao</text>
<text text-anchor="start" x="1763" y="-105.8" font-family="Times,serif" font-size="14.00" fill="#555555">DATETIME</text>
<polygon fill="none" stroke="black" points="1618,-97.5 1618,-326.5 1910,-326.5 1910,-97.5 1618,-97.5"/>
</g>
<!-- don_khieu_nai&#45;&gt;nguoi_yeu_cau -->
<g id="edge10" class="edge">
<title>don_khieu_nai&#45;&gt;nguoi_yeu_cau</title>
<path fill="none" stroke="#5578a8" d="M952,-47.26C952,-23.4 952,-4.25 952,-4.25 952,-4.25 1764,-4.25 1764,-4.25 1764,-4.25 1764,-49.33 1764,-97.49"/>
</g>
<!-- yeu_cau_giai_trinh -->
<g id="node9" class="node">
<title>yeu_cau_giai_trinh</title>
<polygon fill="#fbe5d6" stroke="transparent" points="1201.5,-394 1201.5,-414 1538.5,-414 1538.5,-394 1201.5,-394"/>
<text text-anchor="start" x="1309" y="-402.2" font-family="Consolas" font-weight="bold" font-size="11.00">yeu_cau_giai_trinh</text>
<text text-anchor="start" x="1205.5" y="-380.7" font-family="Consolas" font-weight="bold" font-size="11.00">id</text>
<text text-anchor="start" x="1355.5" y="-378.8" font-family="Times,serif" font-size="14.00" fill="#b8860b">PK</text>
<text text-anchor="start" x="1392.5" y="-378.8" font-family="Times,serif" font-size="14.00" fill="#555555">BIGINT UNSIGNED</text>
<text text-anchor="start" x="1205.5" y="-356.7" font-family="Consolas" font-size="11.00">ma_yeu_cau</text>
<text text-anchor="start" x="1392.5" y="-355.8" font-family="Times,serif" font-size="14.00" fill="#555555">VARCHAR(30)</text>
<text text-anchor="start" x="1205.5" y="-334.7" font-family="Consolas" font-weight="bold" font-size="11.00">nguoi_yeu_cau_id</text>
<text text-anchor="start" x="1355.5" y="-332.8" font-family="Times,serif" font-size="14.00" fill="#1f6fb2">FK</text>
<text text-anchor="start" x="1392.5" y="-332.8" font-family="Times,serif" font-size="14.00" fill="#555555">BIGINT UNSIGNED</text>
<text text-anchor="start" x="1205.5" y="-310.7" font-family="Consolas" font-size="11.00">hinh_thuc_gui</text>
<text text-anchor="start" x="1392.5" y="-309.8" font-family="Times,serif" font-size="14.00" fill="#555555">ENUM</text>
<text text-anchor="start" x="1205.5" y="-287.7" font-family="Consolas" font-size="11.00">nguon_goc</text>
<text text-anchor="start" x="1392.5" y="-286.8" font-family="Times,serif" font-size="14.00" fill="#555555">ENUM</text>
<text text-anchor="start" x="1205.5" y="-264.7" font-family="Consolas" font-size="11.00">noi_dung_yeu_cau</text>
<text text-anchor="start" x="1392.5" y="-263.8" font-family="Times,serif" font-size="14.00" fill="#555555">TEXT</text>
<text text-anchor="start" x="1205.5" y="-241.7" font-family="Consolas" font-size="11.00">ngay_gui</text>
<text text-anchor="start" x="1392.5" y="-240.8" font-family="Times,serif" font-size="14.00" fill="#555555">DATETIME</text>
<text text-anchor="start" x="1205.5" y="-219.7" font-family="Consolas" font-weight="bold" font-size="11.00">don_vi_tiep_nhan_id</text>
<text text-anchor="start" x="1355.5" y="-217.8" font-family="Times,serif" font-size="14.00" fill="#1f6fb2">FK</text>
<text text-anchor="start" x="1392.5" y="-217.8" font-family="Times,serif" font-size="14.00" fill="#555555">BIGINT UNSIGNED</text>
<text text-anchor="start" x="1205.5" y="-196.7" font-family="Consolas" font-weight="bold" font-size="11.00">don_vi_chuyen_mon_id</text>
<text text-anchor="start" x="1355.5" y="-194.8" font-family="Times,serif" font-size="14.00" fill="#1f6fb2">FK</text>
<text text-anchor="start" x="1392.5" y="-194.8" font-family="Times,serif" font-size="14.00" fill="#555555">BIGINT UNSIGNED</text>
<text text-anchor="start" x="1205.5" y="-172.7" font-family="Consolas" font-size="11.00">han_xu_ly</text>
<text text-anchor="start" x="1392.5" y="-171.8" font-family="Times,serif" font-size="14.00" fill="#555555">DATE</text>
<text text-anchor="start" x="1205.5" y="-149.7" font-family="Consolas" font-size="11.00" fill="#c00000">han_xu_ly_cu</text>
<text text-anchor="start" x="1392.5" y="-148.8" font-family="Times,serif" font-size="14.00" fill="#555555">DATE</text>
<text text-anchor="start" x="1205.5" y="-126.7" font-family="Consolas" font-size="11.00" fill="#c00000">so_lan_gia_han</text>
<text text-anchor="start" x="1392.5" y="-125.8" font-family="Times,serif" font-size="14.00" fill="#555555">TINYINT</text>
<text text-anchor="start" x="1205.5" y="-104.7" font-family="Consolas" font-weight="bold" font-size="11.00" fill="#c00000">ly_do_gia_han_id</text>
<text text-anchor="start" x="1355.5" y="-102.8" font-family="Times,serif" font-size="14.00" fill="#1f6fb2">FK</text>
<text text-anchor="start" x="1392.5" y="-102.8" font-family="Times,serif" font-size="14.00" fill="#555555">BIGINT UNSIGNED</text>
<text text-anchor="start" x="1205.5" y="-80.7" font-family="Consolas" font-size="11.00" fill="#c00000">ngay_gia_han_gan_nhat</text>
<text text-anchor="start" x="1392.5" y="-79.8" font-family="Times,serif" font-size="14.00" fill="#555555">DATETIME</text>
<text text-anchor="start" x="1205.5" y="-57.7" font-family="Consolas" font-size="11.00">trang_thai</text>
<text text-anchor="start" x="1392.5" y="-56.8" font-family="Times,serif" font-size="14.00" fill="#555555">ENUM</text>
<text text-anchor="start" x="1205.5" y="-38.6" font-family="Consolas" font-size="8.00" fill="#999999">= ...,Đã rút (bổ sung)</text>
<text text-anchor="start" x="1205.5" y="-17.7" font-family="Consolas" font-size="11.00">ngay_dong</text>
<text text-anchor="start" x="1392.5" y="-16.8" font-family="Times,serif" font-size="14.00" fill="#555555">DATETIME</text>
<polygon fill="none" stroke="black" points="1200,-8.5 1200,-415.5 1539,-415.5 1539,-8.5 1200,-8.5"/>
</g>
<!-- don_khieu_nai&#45;&gt;yeu_cau_giai_trinh -->
<g id="edge11" class="edge">
<title>don_khieu_nai&#45;&gt;yeu_cau_giai_trinh</title>
<path fill="none" stroke="#5578a8" d="M1121.22,-108.5C1147.11,-108.5 1173.84,-108.5 1199.74,-108.5"/>
</g>
<!-- phan_hoi_van_ban -->
<g id="node4" class="node">
<title>phan_hoi_van_ban</title>
<polygon fill="#d9d2e9" stroke="transparent" points="365.5,-687 365.5,-707 702.5,-707 702.5,-687 365.5,-687"/>
<text text-anchor="start" x="479.5" y="-695.2" font-family="Consolas" font-weight="bold" font-size="11.00">phan_hoi_van_ban</text>
<text text-anchor="start" x="369.5" y="-673.7" font-family="Consolas" font-weight="bold" font-size="11.00">id</text>
<text text-anchor="start" x="519.5" y="-671.8" font-family="Times,serif" font-size="14.00" fill="#b8860b">PK</text>
<text text-anchor="start" x="556.5" y="-671.8" font-family="Times,serif" font-size="14.00" fill="#555555">BIGINT UNSIGNED</text>
<text text-anchor="start" x="369.5" y="-650.7" font-family="Consolas" font-weight="bold" font-size="11.00">van_ban_giai_trinh_id</text>
<text text-anchor="start" x="519.5" y="-648.8" font-family="Times,serif" font-size="14.00" fill="#1f6fb2">FK</text>
<text text-anchor="start" x="556.5" y="-648.8" font-family="Times,serif" font-size="14.00" fill="#555555">BIGINT UNSIGNED</text>
<text text-anchor="start" x="369.5" y="-627.7" font-family="Consolas" font-weight="bold" font-size="11.00">nguoi_gui_id</text>
<text text-anchor="start" x="519.5" y="-625.8" font-family="Times,serif" font-size="14.00" fill="#1f6fb2">FK</text>
<text text-anchor="start" x="556.5" y="-625.8" font-family="Times,serif" font-size="14.00" fill="#555555">BIGINT UNSIGNED</text>
<text text-anchor="start" x="369.5" y="-603.7" font-family="Consolas" font-size="11.00">hinh_thuc_gui</text>
<text text-anchor="start" x="556.5" y="-602.8" font-family="Times,serif" font-size="14.00" fill="#555555">ENUM</text>
<text text-anchor="start" x="369.5" y="-580.7" font-family="Consolas" font-size="11.00">noi_dung</text>
<text text-anchor="start" x="556.5" y="-579.8" font-family="Times,serif" font-size="14.00" fill="#555555">TEXT</text>
<text text-anchor="start" x="369.5" y="-557.7" font-family="Consolas" font-size="11.00">ngay_gui</text>
<text text-anchor="start" x="556.5" y="-556.8" font-family="Times,serif" font-size="14.00" fill="#555555">DATETIME</text>
<text text-anchor="start" x="369.5" y="-534.7" font-family="Consolas" font-size="11.00">trang_thai</text>
<text text-anchor="start" x="556.5" y="-533.8" font-family="Times,serif" font-size="14.00" fill="#555555">ENUM</text>
<polygon fill="none" stroke="black" points="364,-525.5 364,-708.5 703,-708.5 703,-525.5 364,-525.5"/>
</g>
<!-- phan_hoi_van_ban&#45;&gt;nguoi_yeu_cau -->
<g id="edge5" class="edge">
<title>phan_hoi_van_ban&#45;&gt;nguoi_yeu_cau</title>
<path fill="none" stroke="#5578a8" d="M698,-525.48C698,-477.21 698,-427.88 698,-427.88 698,-427.88 1764,-427.88 1764,-427.88 1764,-427.88 1764,-378.24 1764,-326.57"/>
</g>
<!-- van_ban_giai_trinh -->
<g id="node7" class="node">
<title>van_ban_giai_trinh</title>
<polygon fill="#d8e4bc" stroke="transparent" points="783.5,-776 783.5,-796 1120.5,-796 1120.5,-776 783.5,-776"/>
<text text-anchor="start" x="891" y="-784.2" font-family="Consolas" font-weight="bold" font-size="11.00">van_ban_giai_trinh</text>
<text text-anchor="start" x="787.5" y="-762.7" font-family="Consolas" font-weight="bold" font-size="11.00">id</text>
<text text-anchor="start" x="937.5" y="-760.8" font-family="Times,serif" font-size="14.00" fill="#b8860b">PK</text>
<text text-anchor="start" x="974.5" y="-760.8" font-family="Times,serif" font-size="14.00" fill="#555555">BIGINT UNSIGNED</text>
<text text-anchor="start" x="787.5" y="-739.7" font-family="Consolas" font-weight="bold" font-size="11.00">yeu_cau_giai_trinh_id</text>
<text text-anchor="start" x="937.5" y="-737.8" font-family="Times,serif" font-size="14.00" fill="#1f6fb2">FK</text>
<text text-anchor="start" x="974.5" y="-737.8" font-family="Times,serif" font-size="14.00" fill="#555555">BIGINT UNSIGNED</text>
<text text-anchor="start" x="787.5" y="-715.7" font-family="Consolas" font-size="11.00" fill="#c00000">loai_van_ban</text>
<text text-anchor="start" x="974.5" y="-714.8" font-family="Times,serif" font-size="14.00" fill="#555555">ENUM</text>
<text text-anchor="start" x="787.5" y="-692.7" font-family="Consolas" font-size="11.00">so_van_ban</text>
<text text-anchor="start" x="974.5" y="-691.8" font-family="Times,serif" font-size="14.00" fill="#555555">VARCHAR(50)</text>
<text text-anchor="start" x="787.5" y="-669.7" font-family="Consolas" font-size="11.00">trich_yeu</text>
<text text-anchor="start" x="974.5" y="-668.8" font-family="Times,serif" font-size="14.00" fill="#555555">VARCHAR(500)</text>
<text text-anchor="start" x="787.5" y="-646.7" font-family="Consolas" font-size="11.00">noi_dung</text>
<text text-anchor="start" x="974.5" y="-645.8" font-family="Times,serif" font-size="14.00" fill="#555555">LONGTEXT</text>
<text text-anchor="start" x="787.5" y="-624.7" font-family="Consolas" font-weight="bold" font-size="11.00">nguoi_soan_id</text>
<text text-anchor="start" x="937.5" y="-622.8" font-family="Times,serif" font-size="14.00" fill="#1f6fb2">FK</text>
<text text-anchor="start" x="974.5" y="-622.8" font-family="Times,serif" font-size="14.00" fill="#555555">BIGINT UNSIGNED</text>
<text text-anchor="start" x="787.5" y="-600.7" font-family="Consolas" font-size="11.00">ngay_soan</text>
<text text-anchor="start" x="974.5" y="-599.8" font-family="Times,serif" font-size="14.00" fill="#555555">DATETIME</text>
<text text-anchor="start" x="787.5" y="-578.7" font-family="Consolas" font-weight="bold" font-size="11.00">nguoi_ky_id</text>
<text text-anchor="start" x="937.5" y="-576.8" font-family="Times,serif" font-size="14.00" fill="#1f6fb2">FK</text>
<text text-anchor="start" x="974.5" y="-576.8" font-family="Times,serif" font-size="14.00" fill="#555555">BIGINT UNSIGNED</text>
<text text-anchor="start" x="787.5" y="-554.7" font-family="Consolas" font-size="11.00">ngay_ban_hanh</text>
<text text-anchor="start" x="974.5" y="-553.8" font-family="Times,serif" font-size="14.00" fill="#555555">DATETIME</text>
<text text-anchor="start" x="787.5" y="-531.7" font-family="Consolas" font-size="11.00">chu_ky_so</text>
<text text-anchor="start" x="974.5" y="-530.8" font-family="Times,serif" font-size="14.00" fill="#555555">VARCHAR(255)</text>
<text text-anchor="start" x="787.5" y="-508.7" font-family="Consolas" font-size="11.00" fill="#c00000">hinh_thuc_ky</text>
<text text-anchor="start" x="974.5" y="-507.8" font-family="Times,serif" font-size="14.00" fill="#555555">ENUM</text>
<text text-anchor="start" x="787.5" y="-489.6" font-family="Consolas" font-size="8.00" fill="#999999">= Ký số/Ký nháy</text>
<text text-anchor="start" x="787.5" y="-469.7" font-family="Consolas" font-weight="bold" font-size="11.00" fill="#c00000">van_ban_thay_the_id</text>
<text text-anchor="start" x="937.5" y="-467.8" font-family="Times,serif" font-size="14.00" fill="#1f6fb2">FK</text>
<text text-anchor="start" x="974.5" y="-467.8" font-family="Times,serif" font-size="14.00" fill="#555555">BIGINT UNSIGNED</text>
<text text-anchor="start" x="787.5" y="-445.7" font-family="Consolas" font-size="11.00">trang_thai</text>
<text text-anchor="start" x="974.5" y="-444.8" font-family="Times,serif" font-size="14.00" fill="#555555">ENUM</text>
<polygon fill="none" stroke="black" points="782,-436.5 782,-797.5 1121,-797.5 1121,-436.5 782,-436.5"/>
</g>
<!-- phan_hoi_van_ban&#45;&gt;van_ban_giai_trinh -->
<g id="edge6" class="edge">
<title>phan_hoi_van_ban&#45;&gt;van_ban_giai_trinh</title>
<path fill="none" stroke="#5578a8" d="M703.22,-617C729.11,-617 755.84,-617 781.74,-617"/>
</g>
<!-- quyet_dinh_thu_ly_khieu_nai -->
<g id="node5" class="node">
<title>quyet_dinh_thu_ly_khieu_nai</title>
<polygon fill="#d9d2e9" stroke="transparent" points="381.5,-139 381.5,-159 685.5,-159 685.5,-139 381.5,-139"/>
<text text-anchor="start" x="442" y="-147.2" font-family="Consolas" font-weight="bold" font-size="11.00">quyet_dinh_thu_ly_khieu_nai</text>
<text text-anchor="start" x="385.5" y="-125.7" font-family="Consolas" font-weight="bold" font-size="11.00">id</text>
<text text-anchor="start" x="502.5" y="-123.8" font-family="Times,serif" font-size="14.00" fill="#b8860b">PK</text>
<text text-anchor="start" x="539.5" y="-123.8" font-family="Times,serif" font-size="14.00" fill="#555555">BIGINT UNSIGNED</text>
<text text-anchor="start" x="385.5" y="-102.7" font-family="Consolas" font-weight="bold" font-size="11.00">don_khieu_nai_id</text>
<text text-anchor="start" x="502.5" y="-100.8" font-family="Times,serif" font-size="14.00" fill="#1f6fb2">FK</text>
<text text-anchor="start" x="539.5" y="-100.8" font-family="Times,serif" font-size="14.00" fill="#555555">BIGINT UNSIGNED</text>
<text text-anchor="start" x="385.5" y="-79.7" font-family="Consolas" font-weight="bold" font-size="11.00">nguoi_ky_id</text>
<text text-anchor="start" x="502.5" y="-77.8" font-family="Times,serif" font-size="14.00" fill="#1f6fb2">FK</text>
<text text-anchor="start" x="539.5" y="-77.8" font-family="Times,serif" font-size="14.00" fill="#555555">BIGINT UNSIGNED</text>
<text text-anchor="start" x="385.5" y="-55.7" font-family="Consolas" font-size="11.00">so_quyet_dinh</text>
<text text-anchor="start" x="539.5" y="-54.8" font-family="Times,serif" font-size="14.00" fill="#555555">VARCHAR(50)</text>
<text text-anchor="start" x="385.5" y="-32.7" font-family="Consolas" font-size="11.00">ngay_ky</text>
<text text-anchor="start" x="539.5" y="-31.8" font-family="Times,serif" font-size="14.00" fill="#555555">DATETIME</text>
<text text-anchor="start" x="385.5" y="-9.7" font-family="Consolas" font-size="11.00">ket_qua</text>
<text text-anchor="start" x="539.5" y="-8.8" font-family="Times,serif" font-size="14.00" fill="#555555">ENUM</text>
<polygon fill="none" stroke="black" points="380.5,0 380.5,-160 686.5,-160 686.5,0 380.5,0"/>
</g>
<!-- quyet_dinh_thu_ly_khieu_nai&#45;&gt;can_bo -->
<g id="edge12" class="edge">
<title>quyet_dinh_thu_ly_khieu_nai&#45;&gt;can_bo</title>
<path fill="none" stroke="#5578a8" d="M686.66,-28C879.25,-28 1185,-28 1185,-28 1185,-28 1185,-478.33 1185,-478.33 1185,-478.33 1196.71,-478.33 1214.23,-478.33"/>
</g>
<!-- quyet_dinh_thu_ly_khieu_nai&#45;&gt;don_khieu_nai -->
<g id="edge13" class="edge">
<title>quyet_dinh_thu_ly_khieu_nai&#45;&gt;don_khieu_nai</title>
<path fill="none" stroke="#5578a8" d="M686.77,-103.75C717.65,-103.75 750.27,-103.75 781.67,-103.75"/>
</g>
<!-- quyet_dinh_thu_ly_phan_hoi -->
<g id="node6" class="node">
<title>quyet_dinh_thu_ly_phan_hoi</title>
<polygon fill="#d9d2e9" stroke="transparent" points="1.5,-564 1.5,-584 284.5,-584 284.5,-564 1.5,-564"/>
<text text-anchor="start" x="55" y="-572.2" font-family="Consolas" font-weight="bold" font-size="11.00">quyet_dinh_thu_ly_phan_hoi</text>
<text text-anchor="start" x="5.5" y="-550.7" font-family="Consolas" font-weight="bold" font-size="11.00">id</text>
<text text-anchor="start" x="101.5" y="-548.8" font-family="Times,serif" font-size="14.00" fill="#b8860b">PK</text>
<text text-anchor="start" x="138.5" y="-548.8" font-family="Times,serif" font-size="14.00" fill="#555555">BIGINT UNSIGNED</text>
<text text-anchor="start" x="5.5" y="-527.7" font-family="Consolas" font-weight="bold" font-size="11.00">phan_hoi_id</text>
<text text-anchor="start" x="101.5" y="-525.8" font-family="Times,serif" font-size="14.00" fill="#1f6fb2">FK</text>
<text text-anchor="start" x="138.5" y="-525.8" font-family="Times,serif" font-size="14.00" fill="#555555">BIGINT UNSIGNED</text>
<text text-anchor="start" x="5.5" y="-504.7" font-family="Consolas" font-weight="bold" font-size="11.00">nguoi_ky_id</text>
<text text-anchor="start" x="101.5" y="-502.8" font-family="Times,serif" font-size="14.00" fill="#1f6fb2">FK</text>
<text text-anchor="start" x="138.5" y="-502.8" font-family="Times,serif" font-size="14.00" fill="#555555">BIGINT UNSIGNED</text>
<text text-anchor="start" x="5.5" y="-480.7" font-family="Consolas" font-size="11.00">so_quyet_dinh</text>
<text text-anchor="start" x="138.5" y="-479.8" font-family="Times,serif" font-size="14.00" fill="#555555">VARCHAR(50)</text>
<text text-anchor="start" x="5.5" y="-457.7" font-family="Consolas" font-size="11.00">ngay_ky</text>
<text text-anchor="start" x="138.5" y="-456.8" font-family="Times,serif" font-size="14.00" fill="#555555">DATETIME</text>
<text text-anchor="start" x="5.5" y="-434.7" font-family="Consolas" font-size="11.00">ket_qua</text>
<text text-anchor="start" x="138.5" y="-433.8" font-family="Times,serif" font-size="14.00" fill="#555555">ENUM</text>
<polygon fill="none" stroke="black" points="0,-425 0,-585 285,-585 285,-425 0,-425"/>
</g>
<!-- quyet_dinh_thu_ly_phan_hoi&#45;&gt;can_bo -->
<g id="edge7" class="edge">
<title>quyet_dinh_thu_ly_phan_hoi&#45;&gt;can_bo</title>
<path fill="none" stroke="#5578a8" d="M285.11,-430.75C608.57,-430.75 1370,-430.75 1370,-430.75 1370,-430.75 1370,-436.22 1370,-444.76"/>
</g>
<!-- quyet_dinh_thu_ly_phan_hoi&#45;&gt;phan_hoi_van_ban -->
<g id="edge8" class="edge">
<title>quyet_dinh_thu_ly_phan_hoi&#45;&gt;phan_hoi_van_ban</title>
<path fill="none" stroke="#5578a8" d="M285.04,-555.25C310.69,-555.25 337.65,-555.25 363.97,-555.25"/>
</g>
<!-- van_ban_giai_trinh&#45;&gt;can_bo -->
<g id="edge2" class="edge">
<title>van_ban_giai_trinh&#45;&gt;can_bo</title>
<path fill="none" stroke="#5578a8" d="M1121.22,-578.33C1151.97,-578.33 1183.91,-578.33 1214.23,-578.33"/>
</g>
<!-- van_ban_giai_trinh&#45;&gt;can_bo -->
<g id="edge3" class="edge">
<title>van_ban_giai_trinh&#45;&gt;can_bo</title>
<path fill="none" stroke="#5578a8" d="M1121.22,-611.67C1151.97,-611.67 1183.91,-611.67 1214.23,-611.67"/>
</g>
<!-- van_ban_giai_trinh&#45;&gt;van_ban_giai_trinh -->
<g id="edge16" class="edge">
<title>van_ban_giai_trinh&#45;&gt;van_ban_giai_trinh</title>
<path fill="none" stroke="#5578a8" stroke-dasharray="5,2" d="M781.73,-481C758.81,-481 743,-481 743,-481 743,-481 743,-433.62 743,-433.62 743,-433.62 1137,-433.62 1137,-433.62 1137,-433.62 1137,-442.17 1137,-442.17 1137,-442.17 1131.01,-442.17 1121.18,-442.17"/>
</g>
<!-- van_ban_giai_trinh&#45;&gt;yeu_cau_giai_trinh -->
<g id="edge4" class="edge">
<title>van_ban_giai_trinh&#45;&gt;yeu_cau_giai_trinh</title>
<path fill="none" stroke="#5578a8" d="M1121.16,-439.33C1168.86,-439.33 1208,-439.33 1208,-439.33 1208,-439.33 1208,-430.31 1208,-415.86"/>
</g>
<!-- xac_minh_khieu_nai -->
<g id="node8" class="node">
<title>xac_minh_khieu_nai</title>
<polygon fill="#d9d2e9" stroke="transparent" points="375.5,-328 375.5,-348 692.5,-348 692.5,-328 375.5,-328"/>
<text text-anchor="start" x="473" y="-336.2" font-family="Consolas" font-weight="bold" font-size="11.00">xac_minh_khieu_nai</text>
<text text-anchor="start" x="379.5" y="-314.7" font-family="Consolas" font-weight="bold" font-size="11.00">id</text>
<text text-anchor="start" x="509.5" y="-312.8" font-family="Times,serif" font-size="14.00" fill="#b8860b">PK</text>
<text text-anchor="start" x="546.5" y="-312.8" font-family="Times,serif" font-size="14.00" fill="#555555">BIGINT UNSIGNED</text>
<text text-anchor="start" x="379.5" y="-291.7" font-family="Consolas" font-weight="bold" font-size="11.00">don_khieu_nai_id</text>
<text text-anchor="start" x="509.5" y="-289.8" font-family="Times,serif" font-size="14.00" fill="#1f6fb2">FK</text>
<text text-anchor="start" x="546.5" y="-289.8" font-family="Times,serif" font-size="14.00" fill="#555555">BIGINT UNSIGNED</text>
<text text-anchor="start" x="379.5" y="-268.7" font-family="Consolas" font-weight="bold" font-size="11.00">can_bo_xac_minh_id</text>
<text text-anchor="start" x="509.5" y="-266.8" font-family="Times,serif" font-size="14.00" fill="#1f6fb2">FK</text>
<text text-anchor="start" x="546.5" y="-266.8" font-family="Times,serif" font-size="14.00" fill="#555555">BIGINT UNSIGNED</text>
<text text-anchor="start" x="379.5" y="-244.7" font-family="Consolas" font-size="11.00">noi_dung_xac_minh</text>
<text text-anchor="start" x="546.5" y="-243.8" font-family="Times,serif" font-size="14.00" fill="#555555">TEXT</text>
<text text-anchor="start" x="379.5" y="-221.7" font-family="Consolas" font-size="11.00">ket_qua_giai_quyet</text>
<text text-anchor="start" x="546.5" y="-220.8" font-family="Times,serif" font-size="14.00" fill="#555555">TEXT</text>
<text text-anchor="start" x="379.5" y="-198.7" font-family="Consolas" font-size="11.00">ngay_cap_nhat</text>
<text text-anchor="start" x="546.5" y="-197.8" font-family="Times,serif" font-size="14.00" fill="#555555">DATETIME</text>
<polygon fill="none" stroke="black" points="374,-189 374,-349 693,-349 693,-189 374,-189"/>
</g>
<!-- xac_minh_khieu_nai&#45;&gt;can_bo -->
<g id="edge14" class="edge">
<title>xac_minh_khieu_nai&#45;&gt;can_bo</title>
<path fill="none" stroke="#5578a8" d="M693.04,-289.75C876.59,-289.75 1153,-289.75 1153,-289.75 1153,-289.75 1153,-545 1153,-545 1153,-545 1179.76,-545 1214.46,-545"/>
</g>
<!-- xac_minh_khieu_nai&#45;&gt;don_khieu_nai -->
<g id="edge15" class="edge">
<title>xac_minh_khieu_nai&#45;&gt;don_khieu_nai</title>
<path fill="none" stroke="#5578a8" d="M693.02,-209.75C722.07,-209.75 752.48,-209.75 781.82,-209.75"/>
</g>
<!-- yeu_cau_giai_trinh&#45;&gt;nguoi_yeu_cau -->
<g id="edge1" class="edge">
<title>yeu_cau_giai_trinh&#45;&gt;nguoi_yeu_cau</title>
<path fill="none" stroke="#5578a8" d="M1539.09,-212C1565.3,-212 1592.17,-212 1617.81,-212"/>
</g>
</g>
</svg>
