<?xml version="1.0" encoding="UTF-8" standalone="no"?>
<!DOCTYPE svg PUBLIC "-//W3C//DTD SVG 1.1//EN"
 "http://www.w3.org/Graphics/SVG/1.1/DTD/svg11.dtd">
<!-- Generated by graphviz version 2.43.0 (0)
 -->
<!-- Title: G Pages: 1 -->
<svg width="1602pt" height="478pt"
 viewBox="0.00 0.00 1601.60 477.60" xmlns="http://www.w3.org/2000/svg" xmlns:xlink="http://www.w3.org/1999/xlink">
<g id="graph0" class="graph" transform="scale(1 1) rotate(0) translate(28.8 448.8)">
<title>G</title>
<polygon fill="white" stroke="transparent" points="-28.8,28.8 -28.8,-448.8 1572.8,-448.8 1572.8,28.8 -28.8,28.8"/>
<text text-anchor="middle" x="772" y="-400" font-family="Helvetica,sans-Serif" font-size="20.00">ERD CHI TIẾT — NHÓM: BẢNG DÙNG CHUNG (POLYMORPHIC)</text>
<g id="clust1" class="cluster">
<title>cluster_main</title>
<polygon fill="#ffe699" fill-opacity="0.200000" stroke="#ffe699" points="8,-136 8,-382 1536,-382 1536,-136 8,-136"/>
</g>
<g id="clust2" class="cluster">
<title>cluster_ghost</title>
<polygon fill="white" stroke="#999999" stroke-dasharray="5,2" points="532,-8 532,-100 876,-100 876,-8 532,-8"/>
<text text-anchor="middle" x="704" y="-87.2" font-family="Helvetica,sans-Serif" font-weight="bold" font-size="11.00">Bảng cha tham chiếu tới (ở nhóm khác)</text>
</g>
<!-- phe_duyet -->
<g id="node1" class="node">
<title>phe_duyet</title>
<polygon fill="#ffe699" stroke="transparent" points="1265,-347 1265,-369 1519,-369 1519,-347 1265,-347"/>
<text text-anchor="start" x="1361.5" y="-356.2" font-family="Consolas" font-weight="bold" font-size="11.00">phe_duyet</text>
<text text-anchor="start" x="1270" y="-334.2" font-family="Consolas" font-weight="bold" font-size="11.00">id</text>
<text text-anchor="start" x="1284" y="-334.2" font-family="Consolas" font-size="11.00"> </text>
<text text-anchor="start" x="1291" y="-334.2" font-family="Consolas" font-size="11.00" fill="#b8860b">PK</text>
<text text-anchor="start" x="1423" y="-333.5" font-family="Consolas" font-size="10.00" fill="#666666">BIGINT UNSIGNED</text>
<text text-anchor="start" x="1270" y="-311.2" font-family="Consolas" font-size="11.00">doi_tuong_loai</text>
<text text-anchor="start" x="1423" y="-311.5" font-family="Consolas" font-size="10.00" fill="#666666">VARCHAR(50)</text>
<text text-anchor="start" x="1270" y="-289.2" font-family="Consolas" font-size="11.00">doi_tuong_id</text>
<text text-anchor="start" x="1423" y="-289.5" font-family="Consolas" font-size="10.00" fill="#666666">BIGINT UNSIGNED</text>
<text text-anchor="start" x="1270" y="-267.2" font-family="Consolas" font-size="11.00">buoc_phe_duyet</text>
<text text-anchor="start" x="1423" y="-267.5" font-family="Consolas" font-size="10.00" fill="#666666">VARCHAR(150)</text>
<text text-anchor="start" x="1270" y="-246.2" font-family="Consolas" font-size="11.00">nguoi_phe_duyet_id </text>
<text text-anchor="start" x="1399" y="-246.2" font-family="Consolas" font-size="11.00" fill="#1f6fb2">FK</text>
<text text-anchor="start" x="1423" y="-245.5" font-family="Consolas" font-size="10.00" fill="#666666">BIGINT UNSIGNED</text>
<text text-anchor="start" x="1270" y="-223.2" font-family="Consolas" font-size="11.00">ket_qua</text>
<text text-anchor="start" x="1423" y="-223.5" font-family="Consolas" font-size="10.00" fill="#666666">ENUM</text>
<text text-anchor="start" x="1270" y="-201.2" font-family="Consolas" font-size="11.00">ghi_chu</text>
<text text-anchor="start" x="1423" y="-201.5" font-family="Consolas" font-size="10.00" fill="#666666">TEXT</text>
<text text-anchor="start" x="1270" y="-179.2" font-family="Consolas" font-size="11.00">chu_ky_so</text>
<text text-anchor="start" x="1423" y="-179.5" font-family="Consolas" font-size="10.00" fill="#666666">VARCHAR(255)</text>
<text text-anchor="start" x="1270" y="-157.2" font-family="Consolas" font-size="11.00">thoi_gian_phe_duyet</text>
<text text-anchor="start" x="1423" y="-157.5" font-family="Consolas" font-size="10.00" fill="#666666">DATETIME</text>
<polygon fill="none" stroke="black" points="1264,-148 1264,-370 1520,-370 1520,-148 1264,-148"/>
</g>
<!-- nguoi_dung -->
<g id="node6" class="node">
<title>nguoi_dung</title>
<polygon fill="#dce6f1" fill-opacity="0.400000" stroke="transparent" points="752,-43 752,-67 859,-67 859,-43 752,-43"/>
<text text-anchor="start" x="771.5" y="-53.2" font-family="Consolas" font-weight="bold" font-size="11.00">nguoi_dung</text>
<text text-anchor="start" x="758" y="-29.8" font-family="Consolas" font-size="9.00" fill="#777777">(bảng ở nhóm khác)</text>
<polygon fill="none" stroke="black" points="750.5,-20 750.5,-68 859.5,-68 859.5,-20 750.5,-20"/>
</g>
<!-- can_bo -->
<g id="node_canbo_stub" class="node">
<title>can_bo</title>
<polygon fill="#dce6f1" fill-opacity="0.400000" stroke="transparent" points="750.5,-88 750.5,-136 859.5,-136 859.5,-88 750.5,-88"/>
<text text-anchor="start" x="770.0" y="-106.8" font-family="Consolas" font-weight="bold" font-size="11.00">can_bo</text>
<text text-anchor="start" x="756.5" y="-130.8" font-family="Consolas" font-size="9.00" fill="#777777">(bảng ở nhóm khác)</text>
<polygon fill="none" stroke="black" points="749.0,-137 749.0,-88 860.5,-88 860.5,-137 749.0,-137"/>
</g>

<!-- phe_duyet&#45;&gt;nguoi_dung -->
<g id="edge1" class="edge">
<title>phe_duyet:e&#45;&gt;can_bo</title>
<path fill="none" stroke="#bf8f00" stroke-width="1.3" d="M1418,-247C1514.65,-247 1321,-171.23 1231,-136 1111.1,-89.07 962.25,-64.31 805.00,112.00"/>
<polygon fill="#bf8f00" stroke="#bf8f00" stroke-width="1.3" points="875.79,-52.97 868.31,-48.37 871.82,-52.45 867.85,-51.94 867.85,-51.94 867.85,-51.94 871.82,-52.45 867.39,-55.51 875.79,-52.97 875.79,-52.97"/>
</g>
<!-- tep_dinh_kem -->
<g id="node2" class="node">
<title>tep_dinh_kem</title>
<polygon fill="#ffe699" stroke="transparent" points="957,-347 957,-369 1197,-369 1197,-347 957,-347"/>
<text text-anchor="start" x="1036" y="-356.2" font-family="Consolas" font-weight="bold" font-size="11.00">tep_dinh_kem</text>
<text text-anchor="start" x="962" y="-334.2" font-family="Consolas" font-weight="bold" font-size="11.00">id</text>
<text text-anchor="start" x="976" y="-334.2" font-family="Consolas" font-size="11.00"> </text>
<text text-anchor="start" x="983" y="-334.2" font-family="Consolas" font-size="11.00" fill="#b8860b">PK</text>
<text text-anchor="start" x="1101" y="-333.5" font-family="Consolas" font-size="10.00" fill="#666666">BIGINT UNSIGNED</text>
<text text-anchor="start" x="962" y="-311.2" font-family="Consolas" font-size="11.00">doi_tuong_loai</text>
<text text-anchor="start" x="1101" y="-311.5" font-family="Consolas" font-size="10.00" fill="#666666">VARCHAR(50)</text>
<text text-anchor="start" x="962" y="-289.2" font-family="Consolas" font-size="11.00">doi_tuong_id</text>
<text text-anchor="start" x="1101" y="-289.5" font-family="Consolas" font-size="10.00" fill="#666666">BIGINT UNSIGNED</text>
<text text-anchor="start" x="962" y="-267.2" font-family="Consolas" font-size="11.00">ten_file</text>
<text text-anchor="start" x="1101" y="-267.5" font-family="Consolas" font-size="10.00" fill="#666666">VARCHAR(255)</text>
<text text-anchor="start" x="962" y="-245.2" font-family="Consolas" font-size="11.00">duong_dan</text>
<text text-anchor="start" x="1101" y="-245.5" font-family="Consolas" font-size="10.00" fill="#666666">VARCHAR(500)</text>
<text text-anchor="start" x="962" y="-223.2" font-family="Consolas" font-size="11.00">loai_file</text>
<text text-anchor="start" x="1101" y="-223.5" font-family="Consolas" font-size="10.00" fill="#666666">VARCHAR(30)</text>
<text text-anchor="start" x="962" y="-201.2" font-family="Consolas" font-size="11.00">dung_luong</text>
<text text-anchor="start" x="1101" y="-201.5" font-family="Consolas" font-size="10.00" fill="#666666">BIGINT</text>
<text text-anchor="start" x="962" y="-180.2" font-family="Consolas" font-size="11.00">nguoi_tai_len_id </text>
<text text-anchor="start" x="1077" y="-180.2" font-family="Consolas" font-size="11.00" fill="#1f6fb2">FK</text>
<text text-anchor="start" x="1101" y="-179.5" font-family="Consolas" font-size="10.00" fill="#666666">BIGINT UNSIGNED</text>
<text text-anchor="start" x="962" y="-157.2" font-family="Consolas" font-size="11.00">ngay_tai_len</text>
<text text-anchor="start" x="1101" y="-157.5" font-family="Consolas" font-size="10.00" fill="#666666">DATETIME</text>
<polygon fill="none" stroke="black" points="956,-148 956,-370 1198,-370 1198,-148 956,-148"/>
</g>
<!-- tep_dinh_kem&#45;&gt;nguoi_dung -->
<g id="edge2" class="edge">
<title>tep_dinh_kem:e&#45;&gt;nguoi_dung</title>
<path fill="none" stroke="#bf8f00" stroke-width="1.3" d="M1096,-181C1201.48,-181 992.22,-106.75 875.74,-67.98"/>
<polygon fill="#bf8f00" stroke="#bf8f00" stroke-width="1.3" points="875.45,-67.88 869,-61.94 871.66,-66.62 867.86,-65.36 867.86,-65.36 867.86,-65.36 871.66,-66.62 866.73,-68.78 875.45,-67.88 875.45,-67.88"/>
</g>
<!-- thong_bao -->
<g id="node3" class="node">
<title>thong_bao</title>
<polygon fill="#ffe699" stroke="transparent" points="683,-336 683,-358 889,-358 889,-336 683,-336"/>
<text text-anchor="start" x="755.5" y="-345.2" font-family="Consolas" font-weight="bold" font-size="11.00">thong_bao</text>
<text text-anchor="start" x="688" y="-323.2" font-family="Consolas" font-weight="bold" font-size="11.00">id</text>
<text text-anchor="start" x="702" y="-323.2" font-family="Consolas" font-size="11.00"> </text>
<text text-anchor="start" x="709" y="-323.2" font-family="Consolas" font-size="11.00" fill="#b8860b">PK</text>
<text text-anchor="start" x="793" y="-322.5" font-family="Consolas" font-size="10.00" fill="#666666">BIGINT UNSIGNED</text>
<text text-anchor="start" x="688" y="-300.2" font-family="Consolas" font-size="11.00">doi_tuong_loai</text>
<text text-anchor="start" x="793" y="-300.5" font-family="Consolas" font-size="10.00" fill="#666666">VARCHAR(50)</text>
<text text-anchor="start" x="688" y="-278.2" font-family="Consolas" font-size="11.00">doi_tuong_id</text>
<text text-anchor="start" x="793" y="-278.5" font-family="Consolas" font-size="10.00" fill="#666666">BIGINT UNSIGNED</text>
<text text-anchor="start" x="688" y="-256.2" font-family="Consolas" font-size="11.00">kenh_gui</text>
<text text-anchor="start" x="793" y="-256.5" font-family="Consolas" font-size="10.00" fill="#666666">ENUM</text>
<text text-anchor="start" x="688" y="-234.2" font-family="Consolas" font-size="11.00">noi_dung</text>
<text text-anchor="start" x="793" y="-234.5" font-family="Consolas" font-size="10.00" fill="#666666">TEXT</text>
<text text-anchor="start" x="688" y="-212.2" font-family="Consolas" font-size="11.00">nguoi_nhan</text>
<text text-anchor="start" x="793" y="-212.5" font-family="Consolas" font-size="10.00" fill="#666666">VARCHAR(150)</text>
<text text-anchor="start" x="688" y="-190.2" font-family="Consolas" font-size="11.00">thoi_gian_gui</text>
<text text-anchor="start" x="793" y="-190.5" font-family="Consolas" font-size="10.00" fill="#666666">DATETIME</text>
<text text-anchor="start" x="688" y="-168.2" font-family="Consolas" font-size="11.00">trang_thai_gui</text>
<text text-anchor="start" x="793" y="-168.5" font-family="Consolas" font-size="10.00" fill="#666666">ENUM</text>
<polygon fill="none" stroke="black" points="682,-159 682,-359 890,-359 890,-159 682,-159"/>
</g>
<!-- lich_su_trang_thai -->
<g id="node4" class="node">
<title>lich_su_trang_thai</title>
<polygon fill="#ffe699" stroke="transparent" points="368,-336 368,-358 615,-358 615,-336 368,-336"/>
<text text-anchor="start" x="430.5" y="-345.2" font-family="Consolas" font-weight="bold" font-size="11.00">lich_su_trang_thai</text>
<text text-anchor="start" x="373" y="-323.2" font-family="Consolas" font-weight="bold" font-size="11.00">id</text>
<text text-anchor="start" x="387" y="-323.2" font-family="Consolas" font-size="11.00"> </text>
<text text-anchor="start" x="394" y="-323.2" font-family="Consolas" font-size="11.00" fill="#b8860b">PK</text>
<text text-anchor="start" x="519" y="-322.5" font-family="Consolas" font-size="10.00" fill="#666666">BIGINT UNSIGNED</text>
<text text-anchor="start" x="373" y="-300.2" font-family="Consolas" font-size="11.00">doi_tuong_loai</text>
<text text-anchor="start" x="519" y="-300.5" font-family="Consolas" font-size="10.00" fill="#666666">VARCHAR(50)</text>
<text text-anchor="start" x="373" y="-278.2" font-family="Consolas" font-size="11.00">doi_tuong_id</text>
<text text-anchor="start" x="519" y="-278.5" font-family="Consolas" font-size="10.00" fill="#666666">BIGINT UNSIGNED</text>
<text text-anchor="start" x="373" y="-256.2" font-family="Consolas" font-size="11.00">trang_thai</text>
<text text-anchor="start" x="519" y="-256.5" font-family="Consolas" font-size="10.00" fill="#666666">VARCHAR(100)</text>
<text text-anchor="start" x="373" y="-234.2" font-family="Consolas" font-size="11.00">loai_hien_thi</text>
<text text-anchor="start" x="519" y="-234.5" font-family="Consolas" font-size="10.00" fill="#666666">ENUM</text>
<text text-anchor="start" x="373" y="-213.2" font-family="Consolas" font-size="11.00">nguoi_cap_nhat_id </text>
<text text-anchor="start" x="495" y="-213.2" font-family="Consolas" font-size="11.00" fill="#1f6fb2">FK</text>
<text text-anchor="start" x="519" y="-212.5" font-family="Consolas" font-size="10.00" fill="#666666">BIGINT UNSIGNED</text>
<text text-anchor="start" x="373" y="-190.2" font-family="Consolas" font-size="11.00">thoi_gian</text>
<text text-anchor="start" x="519" y="-190.5" font-family="Consolas" font-size="10.00" fill="#666666">DATETIME</text>
<text text-anchor="start" x="373" y="-168.2" font-family="Consolas" font-size="11.00">ghi_chu</text>
<text text-anchor="start" x="519" y="-168.5" font-family="Consolas" font-size="10.00" fill="#666666">TEXT</text>
<polygon fill="none" stroke="black" points="366.5,-159 366.5,-359 615.5,-359 615.5,-159 366.5,-159"/>
</g>
<!-- lich_su_trang_thai&#45;&gt;nguoi_dung -->
<g id="edge3" class="edge">
<title>lich_su_trang_thai:e&#45;&gt;can_bo</title>
<path fill="none" stroke="#bf8f00" stroke-width="1.3" d="M514,-214C583.29,-214 588.37,-169.55 649,-136 678.92,-119.44 687.37,-117.07 717,-100 729.78,-92.64 743.38,-84.36 805.00,112.00"/>
<polygon fill="#bf8f00" stroke="#bf8f00" stroke-width="1.3" points="756.07,-76.45 764.76,-75.25 759.46,-74.32 762.85,-72.2 762.85,-72.2 762.85,-72.2 759.46,-74.32 760.94,-69.15 756.07,-76.45 756.07,-76.45"/>
</g>
<!-- luot_tra_cuu -->
<g id="node5" class="node">
<title>luot_tra_cuu</title>
<polygon fill="#ffe699" stroke="transparent" points="25,-314 25,-336 299,-336 299,-314 25,-314"/>
<text text-anchor="start" x="121" y="-323.2" font-family="Consolas" font-weight="bold" font-size="11.00">luot_tra_cuu</text>
<text text-anchor="start" x="30" y="-301.2" font-family="Consolas" font-weight="bold" font-size="11.00">id</text>
<text text-anchor="start" x="44" y="-301.2" font-family="Consolas" font-size="11.00"> </text>
<text text-anchor="start" x="51" y="-301.2" font-family="Consolas" font-size="11.00" fill="#b8860b">PK</text>
<text text-anchor="start" x="203" y="-300.5" font-family="Consolas" font-size="10.00" fill="#666666">BIGINT UNSIGNED</text>
<text text-anchor="start" x="30" y="-279.2" font-family="Consolas" font-size="11.00">yeu_cau_giai_trinh_id </text>
<text text-anchor="start" x="179" y="-279.2" font-family="Consolas" font-size="11.00" fill="#1f6fb2">FK</text>
<text text-anchor="start" x="203" y="-278.5" font-family="Consolas" font-size="10.00" fill="#666666">BIGINT UNSIGNED</text>
<text text-anchor="start" x="30" y="-256.2" font-family="Consolas" font-size="11.00">nguoi_tra_cuu</text>
<text text-anchor="start" x="203" y="-256.5" font-family="Consolas" font-size="10.00" fill="#666666">VARCHAR(150)</text>
<text text-anchor="start" x="30" y="-234.2" font-family="Consolas" font-size="11.00">ma_tra_cuu</text>
<text text-anchor="start" x="203" y="-234.5" font-family="Consolas" font-size="10.00" fill="#666666">VARCHAR(30)</text>
<text text-anchor="start" x="30" y="-212.2" font-family="Consolas" font-size="11.00">thoi_gian_tra_cuu</text>
<text text-anchor="start" x="203" y="-212.5" font-family="Consolas" font-size="10.00" fill="#666666">DATETIME</text>
<text text-anchor="start" x="30" y="-190.2" font-family="Consolas" font-size="11.00">ket_qua</text>
<text text-anchor="start" x="203" y="-190.5" font-family="Consolas" font-size="10.00" fill="#666666">VARCHAR(100)</text>
<polygon fill="none" stroke="black" points="24,-181 24,-337 300,-337 300,-181 24,-181"/>
</g>
<!-- yeu_cau_giai_trinh -->
<g id="node7" class="node">
<title>yeu_cau_giai_trinh</title>
<polygon fill="#fbe5d6" fill-opacity="0.400000" stroke="transparent" points="549,-43 549,-67 683,-67 683,-43 549,-43"/>
<text text-anchor="start" x="555" y="-53.2" font-family="Consolas" font-weight="bold" font-size="11.00">yeu_cau_giai_trinh</text>
<text text-anchor="start" x="568.5" y="-29.8" font-family="Consolas" font-size="9.00" fill="#777777">(bảng ở nhóm khác)</text>
<polygon fill="none" stroke="black" points="548,-20 548,-68 684,-68 684,-20 548,-20"/>
</g>
<!-- luot_tra_cuu&#45;&gt;yeu_cau_giai_trinh -->
<g id="edge4" class="edge">
<title>luot_tra_cuu:e&#45;&gt;yeu_cau_giai_trinh</title>
<path fill="none" stroke="#bf8f00" stroke-width="1.3" d="M198,-280C286.03,-280 259.56,-182.99 334,-136 394.66,-97.71 472.91,-74.13 531.58,-60.6"/>
<polygon fill="#bf8f00" stroke="#bf8f00" stroke-width="1.3" points="531.92,-60.53 540.52,-62.27 535.82,-59.64 539.73,-58.76 539.73,-58.76 539.73,-58.76 535.82,-59.64 538.93,-55.25 531.92,-60.53 531.92,-60.53"/>
</g>
</g>
</svg>
