<?xml version="1.0" encoding="UTF-8" standalone="no"?>
<!DOCTYPE svg PUBLIC "-//W3C//DTD SVG 1.1//EN"
 "http://www.w3.org/Graphics/SVG/1.1/DTD/svg11.dtd">
<!-- Generated by graphviz version 2.43.0 (0)
 -->
<!-- Title: PHẢN HỒI &amp; KHIẾU NẠI Pages: 1 -->
<svg width="1918pt" height="836pt"
 viewBox="0.00 0.00 1918.00 836.00" xmlns="http://www.w3.org/2000/svg" xmlns:xlink="http://www.w3.org/1999/xlink">
<g id="graph0" class="graph" transform="scale(1 1) rotate(0) translate(4 832)">
<title>PHẢN HỒI &amp; KHIẾU NẠI</title>
<polygon fill="white" stroke="transparent" points="-4,4 -4,-832 1914,-832 1914,4 -4,4"/>
<text text-anchor="start" x="828.5" y="-806.4" font-family="Helvetica,sans-Serif" font-size="22.00">PHẢN HỒI &amp; KHIẾU NẠI</text>
<!-- can_bo -->
<g id="node1" class="node">
<title>can_bo</title>
<polygon fill="#dce6f1" stroke="transparent" points="1215.5,-633.5 1215.5,-653.5 1523.5,-653.5 1523.5,-633.5 1215.5,-633.5"/>
<text text-anchor="start" x="1349" y="-641.7" font-family="Consolas" font-weight="bold" font-size="11.00">can_bo</text>
<text text-anchor="start" x="1219.5" y="-620.2" font-family="Consolas" font-weight="bold" font-size="11.00">id</text>
<text text-anchor="start" x="1315.5" y="-619.3" font-family="Times,serif" font-size="14.00" fill="#b8860b">PK</text>
<text text-anchor="start" x="1336.5" y="-619.3" font-family="Times,serif" font-size="14.00" fill="#1f6fb2">/FK</text>
<text text-anchor="start" x="1377.5" y="-618.3" font-family="Times,serif" font-size="14.00" fill="#555555">BIGINT UNSIGNED</text>
<text text-anchor="start" x="1219.5" y="-600.1" font-family="Consolas" font-size="8.00" fill="#999999">= = nguoi_dung.id</text>
<text text-anchor="start" x="1219.5" y="-579.2" font-family="Consolas" font-size="11.00">ma_can_bo</text>
<text text-anchor="start" x="1377.5" y="-578.3" font-family="Times,serif" font-size="14.00" fill="#555555">VARCHAR(30)</text>
<text text-anchor="start" x="1219.5" y="-556.2" font-family="Consolas" font-size="11.00">ho_ten</text>
<text text-anchor="start" x="1377.5" y="-555.3" font-family="Times,serif" font-size="14.00" fill="#555555">VARCHAR(150)</text>
<text text-anchor="start" x="1219.5" y="-534.2" font-family="Consolas" font-weight="bold" font-size="11.00">don_vi_id</text>
<text text-anchor="start" x="1315.5" y="-532.3" font-family="Times,serif" font-size="14.00" fill="#1f6fb2">FK</text>
<text text-anchor="start" x="1377.5" y="-532.3" font-family="Times,serif" font-size="14.00" fill="#555555">BIGINT UNSIGNED</text>
<text text-anchor="start" x="1219.5" y="-510.2" font-family="Consolas" font-size="11.00">chuc_vu</text>
<text text-anchor="start" x="1377.5" y="-509.3" font-family="Times,serif" font-size="14.00" fill="#555555">VARCHAR(100)</text>
<text text-anchor="start" x="1219.5" y="-487.2" font-family="Consolas" font-size="11.00">email</text>
<text text-anchor="start" x="1377.5" y="-486.3" font-family="Times,serif" font-size="14.00" fill="#555555">VARCHAR(150)</text>
<text text-anchor="start" x="1219.5" y="-464.2" font-family="Consolas" font-size="11.00">so_dien_thoai</text>
<text text-anchor="start" x="1377.5" y="-463.3" font-family="Times,serif" font-size="14.00" fill="#555555">VARCHAR(20)</text>
<polygon fill="none" stroke="black" points="1214.5,-454.5 1214.5,-654.5 1524.5,-654.5 1524.5,-454.5 1214.5,-454.5"/>
</g>
<!-- don_khieu_nai -->
<g id="node2" class="node">
<title>don_khieu_nai</title>
<polygon fill="#d9d2e9" stroke="transparent" points="783.5,-228.5 783.5,-248.5 1120.5,-248.5 1120.5,-228.5 783.5,-228.5"/>
<text text-anchor="start" x="908" y="-236.7" font-family="Consolas" font-weight="bold" font-size="11.00">don_khieu_nai</text>
<text text-anchor="start" x="787.5" y="-215.2" font-family="Consolas" font-weight="bold" font-size="11.00">id</text>
<text text-anchor="start" x="937.5" y="-213.3" font-family="Times,serif" font-size="14.00" fill="#b8860b">PK</text>
<text text-anchor="start" x="974.5" y="-213.3" font-family="Times,serif" font-size="14.00" fill="#555555">BIGINT UNSIGNED</text>
<text text-anchor="start" x="787.5" y="-192.2" font-family="Consolas" font-weight="bold" font-size="11.00">yeu_cau_giai_trinh_id</text>
<text text-anchor="start" x="937.5" y="-190.3" font-family="Times,serif" font-size="14.00" fill="#1f6fb2">FK</text>
<text text-anchor="start" x="974.5" y="-190.3" font-family="Times,serif" font-size="14.00" fill="#555555">BIGINT UNSIGNED</text>
<text text-anchor="start" x="787.5" y="-169.2" font-family="Consolas" font-weight="bold" font-size="11.00">nguoi_khieu_nai_id</text>
<text text-anchor="start" x="937.5" y="-167.3" font-family="Times,serif" font-size="14.00" fill="#1f6fb2">FK</text>
<text text-anchor="start" x="974.5" y="-167.3" font-family="Times,serif" font-size="14.00" fill="#555555">BIGINT UNSIGNED</text>
<text text-anchor="start" x="787.5" y="-145.2" font-family="Consolas" font-size="11.00">noi_dung</text>
<text text-anchor="start" x="974.5" y="-144.3" font-family="Times,serif" font-size="14.00" fill="#555555">TEXT</text>
<text text-anchor="start" x="787.5" y="-122.2" font-family="Consolas" font-size="11.00">ngay_nop</text>
<text text-anchor="start" x="974.5" y="-121.3" font-family="Times,serif" font-size="14.00" fill="#555555">DATETIME</text>
<text text-anchor="start" x="787.5" y="-100.2" font-family="Consolas" font-weight="bold" font-size="11.00">can_bo_tiep_nhan_id</text>
<text text-anchor="start" x="937.5" y="-98.3" font-family="Times,serif" font-size="14.00" fill="#1f6fb2">FK</text>
<text text-anchor="start" x="974.5" y="-98.3" font-family="Times,serif" font-size="14.00" fill="#555555">BIGINT UNSIGNED</text>
<text text-anchor="start" x="787.5" y="-76.2" font-family="Consolas" font-size="11.00">trang_thai</text>
<text text-anchor="start" x="974.5" y="-75.3" font-family="Times,serif" font-size="14.00" fill="#555555">ENUM</text>
<polygon fill="none" stroke="black" points="782,-67 782,-250 1121,-250 1121,-67 782,-67"/>
</g>
<!-- don_khieu_nai&#45;&gt;can_bo -->
<g id="edge9" class="edge">
<title>don_khieu_nai&#45;&gt;can_bo</title>
<path fill="none" stroke="#5578a8" d="M1121.07,-189C1140.21,-189 1153,-189 1153,-189 1153,-189 1153,-541.64 1153,-541.64 1153,-541.64 1179.76,-541.64 1214.46,-541.64"/>
</g>
<!-- nguoi_yeu_cau -->
<g id="node3" class="node">
<title>nguoi_yeu_cau</title>
<polygon fill="#fbe5d6" stroke="transparent" points="1619,-314.5 1619,-334.5 1909,-334.5 1909,-314.5 1619,-314.5"/>
<text text-anchor="start" x="1720" y="-322.7" font-family="Consolas" font-weight="bold" font-size="11.00">nguoi_yeu_cau</text>
<text text-anchor="start" x="1623" y="-301.2" font-family="Consolas" font-weight="bold" font-size="11.00">id</text>
<text text-anchor="start" x="1726" y="-299.3" font-family="Times,serif" font-size="14.00" fill="#b8860b">PK</text>
<text text-anchor="start" x="1763" y="-299.3" font-family="Times,serif" font-size="14.00" fill="#555555">BIGINT UNSIGNED</text>
<text text-anchor="start" x="1623" y="-277.2" font-family="Consolas" font-size="11.00">loai_doi_tuong</text>
<text text-anchor="start" x="1763" y="-276.3" font-family="Times,serif" font-size="14.00" fill="#555555">ENUM</text>
<text text-anchor="start" x="1623" y="-254.2" font-family="Consolas" font-size="11.00">ho_ten</text>
<text text-anchor="start" x="1763" y="-253.3" font-family="Times,serif" font-size="14.00" fill="#555555">VARCHAR(150)</text>
<text text-anchor="start" x="1623" y="-231.2" font-family="Consolas" font-size="11.00">so_cccd</text>
<text text-anchor="start" x="1763" y="-230.3" font-family="Times,serif" font-size="14.00" fill="#555555">VARCHAR(20)</text>
<text text-anchor="start" x="1623" y="-209.2" font-family="Consolas" font-weight="bold" font-size="11.00">nguoi_dung_id</text>
<text text-anchor="start" x="1726" y="-207.3" font-family="Times,serif" font-size="14.00" fill="#1f6fb2">FK</text>
<text text-anchor="start" x="1763" y="-207.3" font-family="Times,serif" font-size="14.00" fill="#555555">BIGINT UNSIGNED</text>
<text text-anchor="start" x="1623" y="-185.2" font-family="Consolas" font-size="11.00">dia_chi</text>
<text text-anchor="start" x="1763" y="-184.3" font-family="Times,serif" font-size="14.00" fill="#555555">VARCHAR(255)</text>
<text text-anchor="start" x="1623" y="-162.2" font-family="Consolas" font-size="11.00">email</text>
<text text-anchor="start" x="1763" y="-161.3" font-family="Times,serif" font-size="14.00" fill="#555555">VARCHAR(150)</text>
<text text-anchor="start" x="1623" y="-139.2" font-family="Consolas" font-size="11.00">so_dien_thoai</text>
<text text-anchor="start" x="1763" y="-138.3" font-family="Times,serif" font-size="14.00" fill="#555555">VARCHAR(20)</text>
<text text-anchor="start" x="1623" y="-116.2" font-family="Consolas" font-size="11.00">ngay_tao</text>
<text text-anchor="start" x="1763" y="-115.3" font-family="Times,serif" font-size="14.00" fill="#555555">DATETIME</text>
<polygon fill="none" stroke="black" points="1618,-107 1618,-336 1910,-336 1910,-107 1618,-107"/>
</g>
<!-- don_khieu_nai&#45;&gt;nguoi_yeu_cau -->
<g id="edge10" class="edge">
<title>don_khieu_nai&#45;&gt;nguoi_yeu_cau</title>
<path fill="none" stroke="#5578a8" d="M952,-66.76C952,-31.71 952,0 952,0 952,0 1764,0 1764,0 1764,0 1764,-52.81 1764,-106.86"/>
</g>
<!-- yeu_cau_giai_trinh -->
<g id="node9" class="node">
<title>yeu_cau_giai_trinh</title>
<polygon fill="#fbe5d6" stroke="transparent" points="1201.5,-403.5 1201.5,-423.5 1538.5,-423.5 1538.5,-403.5 1201.5,-403.5"/>
<text text-anchor="start" x="1309" y="-411.7" font-family="Consolas" font-weight="bold" font-size="11.00">yeu_cau_giai_trinh</text>
<text text-anchor="start" x="1205.5" y="-390.2" font-family="Consolas" font-weight="bold" font-size="11.00">id</text>
<text text-anchor="start" x="1355.5" y="-388.3" font-family="Times,serif" font-size="14.00" fill="#b8860b">PK</text>
<text text-anchor="start" x="1392.5" y="-388.3" font-family="Times,serif" font-size="14.00" fill="#555555">BIGINT UNSIGNED</text>
<text text-anchor="start" x="1205.5" y="-366.2" font-family="Consolas" font-size="11.00">ma_yeu_cau</text>
<text text-anchor="start" x="1392.5" y="-365.3" font-family="Times,serif" font-size="14.00" fill="#555555">VARCHAR(30)</text>
<text text-anchor="start" x="1205.5" y="-344.2" font-family="Consolas" font-weight="bold" font-size="11.00">nguoi_yeu_cau_id</text>
<text text-anchor="start" x="1355.5" y="-342.3" font-family="Times,serif" font-size="14.00" fill="#1f6fb2">FK</text>
<text text-anchor="start" x="1392.5" y="-342.3" font-family="Times,serif" font-size="14.00" fill="#555555">BIGINT UNSIGNED</text>
<text text-anchor="start" x="1205.5" y="-320.2" font-family="Consolas" font-size="11.00">hinh_thuc_gui</text>
<text text-anchor="start" x="1392.5" y="-319.3" font-family="Times,serif" font-size="14.00" fill="#555555">ENUM</text>
<text text-anchor="start" x="1205.5" y="-297.2" font-family="Consolas" font-size="11.00">nguon_goc</text>
<text text-anchor="start" x="1392.5" y="-296.3" font-family="Times,serif" font-size="14.00" fill="#555555">ENUM</text>
<text text-anchor="start" x="1205.5" y="-274.2" font-family="Consolas" font-size="11.00">noi_dung_yeu_cau</text>
<text text-anchor="start" x="1392.5" y="-273.3" font-family="Times,serif" font-size="14.00" fill="#555555">TEXT</text>
<text text-anchor="start" x="1205.5" y="-251.2" font-family="Consolas" font-size="11.00">ngay_gui</text>
<text text-anchor="start" x="1392.5" y="-250.3" font-family="Times,serif" font-size="14.00" fill="#555555">DATETIME</text>
<text text-anchor="start" x="1205.5" y="-229.2" font-family="Consolas" font-weight="bold" font-size="11.00">don_vi_tiep_nhan_id</text>
<text text-anchor="start" x="1355.5" y="-227.3" font-family="Times,serif" font-size="14.00" fill="#1f6fb2">FK</text>
<text text-anchor="start" x="1392.5" y="-227.3" font-family="Times,serif" font-size="14.00" fill="#555555">BIGINT UNSIGNED</text>
<text text-anchor="start" x="1205.5" y="-206.2" font-family="Consolas" font-weight="bold" font-size="11.00">don_vi_chuyen_mon_id</text>
<text text-anchor="start" x="1355.5" y="-204.3" font-family="Times,serif" font-size="14.00" fill="#1f6fb2">FK</text>
<text text-anchor="start" x="1392.5" y="-204.3" font-family="Times,serif" font-size="14.00" fill="#555555">BIGINT UNSIGNED</text>
<text text-anchor="start" x="1205.5" y="-182.2" font-family="Consolas" font-size="11.00">han_xu_ly</text>
<text text-anchor="start" x="1392.5" y="-181.3" font-family="Times,serif" font-size="14.00" fill="#555555">DATE</text>
<text text-anchor="start" x="1205.5" y="-159.2" font-family="Consolas" font-size="11.00" fill="#c00000">han_xu_ly_cu</text>
<text text-anchor="start" x="1392.5" y="-158.3" font-family="Times,serif" font-size="14.00" fill="#555555">DATE</text>
<text text-anchor="start" x="1205.5" y="-136.2" font-family="Consolas" font-size="11.00" fill="#c00000">so_lan_gia_han</text>
<text text-anchor="start" x="1392.5" y="-135.3" font-family="Times,serif" font-size="14.00" fill="#555555">TINYINT</text>
<text text-anchor="start" x="1205.5" y="-114.2" font-family="Consolas" font-weight="bold" font-size="11.00" fill="#c00000">ly_do_gia_han_id</text>
<text text-anchor="start" x="1355.5" y="-112.3" font-family="Times,serif" font-size="14.00" fill="#1f6fb2">FK</text>
<text text-anchor="start" x="1392.5" y="-112.3" font-family="Times,serif" font-size="14.00" fill="#555555">BIGINT UNSIGNED</text>
<text text-anchor="start" x="1205.5" y="-90.2" font-family="Consolas" font-size="11.00" fill="#c00000">ngay_gia_han_gan_nhat</text>
<text text-anchor="start" x="1392.5" y="-89.3" font-family="Times,serif" font-size="14.00" fill="#555555">DATETIME</text>
<text text-anchor="start" x="1205.5" y="-67.2" font-family="Consolas" font-size="11.00">trang_thai</text>
<text text-anchor="start" x="1392.5" y="-66.3" font-family="Times,serif" font-size="14.00" fill="#555555">ENUM</text>
<text text-anchor="start" x="1205.5" y="-48.1" font-family="Consolas" font-size="8.00" fill="#999999">= ...,Đã rút (bổ sung)</text>
<text text-anchor="start" x="1205.5" y="-27.2" font-family="Consolas" font-size="11.00">ngay_dong</text>
<text text-anchor="start" x="1392.5" y="-26.3" font-family="Times,serif" font-size="14.00" fill="#555555">DATETIME</text>
<polygon fill="none" stroke="black" points="1200,-18 1200,-425 1539,-425 1539,-18 1200,-18"/>
</g>
<!-- don_khieu_nai&#45;&gt;yeu_cau_giai_trinh -->
<g id="edge11" class="edge">
<title>don_khieu_nai&#45;&gt;yeu_cau_giai_trinh</title>
<path fill="none" stroke="#5578a8" d="M1121.22,-128C1147.11,-128 1173.84,-128 1199.74,-128"/>
</g>
<!-- phan_hoi_van_ban -->
<g id="node4" class="node">
<title>phan_hoi_van_ban</title>
<polygon fill="#d9d2e9" stroke="transparent" points="365.5,-687.5 365.5,-707.5 702.5,-707.5 702.5,-687.5 365.5,-687.5"/>
<text text-anchor="start" x="479.5" y="-695.7" font-family="Consolas" font-weight="bold" font-size="11.00">phan_hoi_van_ban</text>
<text text-anchor="start" x="369.5" y="-674.2" font-family="Consolas" font-weight="bold" font-size="11.00">id</text>
<text text-anchor="start" x="519.5" y="-672.3" font-family="Times,serif" font-size="14.00" fill="#b8860b">PK</text>
<text text-anchor="start" x="556.5" y="-672.3" font-family="Times,serif" font-size="14.00" fill="#555555">BIGINT UNSIGNED</text>
<text text-anchor="start" x="369.5" y="-651.2" font-family="Consolas" font-weight="bold" font-size="11.00">van_ban_giai_trinh_id</text>
<text text-anchor="start" x="519.5" y="-649.3" font-family="Times,serif" font-size="14.00" fill="#1f6fb2">FK</text>
<text text-anchor="start" x="556.5" y="-649.3" font-family="Times,serif" font-size="14.00" fill="#555555">BIGINT UNSIGNED</text>
<text text-anchor="start" x="369.5" y="-628.2" font-family="Consolas" font-weight="bold" font-size="11.00">nguoi_gui_id</text>
<text text-anchor="start" x="519.5" y="-626.3" font-family="Times,serif" font-size="14.00" fill="#1f6fb2">FK</text>
<text text-anchor="start" x="556.5" y="-626.3" font-family="Times,serif" font-size="14.00" fill="#555555">BIGINT UNSIGNED</text>
<text text-anchor="start" x="369.5" y="-604.2" font-family="Consolas" font-size="11.00">hinh_thuc_gui</text>
<text text-anchor="start" x="556.5" y="-603.3" font-family="Times,serif" font-size="14.00" fill="#555555">ENUM</text>
<text text-anchor="start" x="369.5" y="-581.2" font-family="Consolas" font-size="11.00">noi_dung</text>
<text text-anchor="start" x="556.5" y="-580.3" font-family="Times,serif" font-size="14.00" fill="#555555">TEXT</text>
<text text-anchor="start" x="369.5" y="-558.2" font-family="Consolas" font-size="11.00">ngay_gui</text>
<text text-anchor="start" x="556.5" y="-557.3" font-family="Times,serif" font-size="14.00" fill="#555555">DATETIME</text>
<text text-anchor="start" x="369.5" y="-535.2" font-family="Consolas" font-size="11.00">trang_thai</text>
<text text-anchor="start" x="556.5" y="-534.3" font-family="Times,serif" font-size="14.00" fill="#555555">ENUM</text>
<polygon fill="none" stroke="black" points="364,-526 364,-709 703,-709 703,-526 364,-526"/>
</g>
<!-- phan_hoi_van_ban&#45;&gt;nguoi_yeu_cau -->
<g id="edge5" class="edge">
<title>phan_hoi_van_ban&#45;&gt;nguoi_yeu_cau</title>
<path fill="none" stroke="#5578a8" d="M698,-525.83C698,-478.17 698,-429.75 698,-429.75 698,-429.75 1764,-429.75 1764,-429.75 1764,-429.75 1764,-384.56 1764,-336.29"/>
</g>
<!-- van_ban_giai_trinh -->
<g id="node7" class="node">
<title>van_ban_giai_trinh</title>
<polygon fill="#d8e4bc" stroke="transparent" points="783.5,-756.5 783.5,-776.5 1120.5,-776.5 1120.5,-756.5 783.5,-756.5"/>
<text text-anchor="start" x="891" y="-764.7" font-family="Consolas" font-weight="bold" font-size="11.00">van_ban_giai_trinh</text>
<text text-anchor="start" x="787.5" y="-743.2" font-family="Consolas" font-weight="bold" font-size="11.00">id</text>
<text text-anchor="start" x="937.5" y="-741.3" font-family="Times,serif" font-size="14.00" fill="#b8860b">PK</text>
<text text-anchor="start" x="974.5" y="-741.3" font-family="Times,serif" font-size="14.00" fill="#555555">BIGINT UNSIGNED</text>
<text text-anchor="start" x="787.5" y="-720.2" font-family="Consolas" font-weight="bold" font-size="11.00">yeu_cau_giai_trinh_id</text>
<text text-anchor="start" x="937.5" y="-718.3" font-family="Times,serif" font-size="14.00" fill="#1f6fb2">FK</text>
<text text-anchor="start" x="974.5" y="-718.3" font-family="Times,serif" font-size="14.00" fill="#555555">BIGINT UNSIGNED</text>
<text text-anchor="start" x="787.5" y="-696.2" font-family="Consolas" font-size="11.00" fill="#c00000">loai_van_ban</text>
<text text-anchor="start" x="974.5" y="-695.3" font-family="Times,serif" font-size="14.00" fill="#555555">ENUM</text>
<text text-anchor="start" x="787.5" y="-673.2" font-family="Consolas" font-size="11.00">so_van_ban</text>
<text text-anchor="start" x="974.5" y="-672.3" font-family="Times,serif" font-size="14.00" fill="#555555">VARCHAR(50)</text>
<text text-anchor="start" x="787.5" y="-650.2" font-family="Consolas" font-size="11.00">trich_yeu</text>
<text text-anchor="start" x="974.5" y="-649.3" font-family="Times,serif" font-size="14.00" fill="#555555">VARCHAR(500)</text>
<text text-anchor="start" x="787.5" y="-627.2" font-family="Consolas" font-size="11.00">noi_dung</text>
<text text-anchor="start" x="974.5" y="-626.3" font-family="Times,serif" font-size="14.00" fill="#555555">LONGTEXT</text>
<text text-anchor="start" x="787.5" y="-605.2" font-family="Consolas" font-weight="bold" font-size="11.00">nguoi_soan_id</text>
<text text-anchor="start" x="937.5" y="-603.3" font-family="Times,serif" font-size="14.00" fill="#1f6fb2">FK</text>
<text text-anchor="start" x="974.5" y="-603.3" font-family="Times,serif" font-size="14.00" fill="#555555">BIGINT UNSIGNED</text>
<text text-anchor="start" x="787.5" y="-581.2" font-family="Consolas" font-size="11.00">ngay_soan</text>
<text text-anchor="start" x="974.5" y="-580.3" font-family="Times,serif" font-size="14.00" fill="#555555">DATETIME</text>
<text text-anchor="start" x="787.5" y="-559.2" font-family="Consolas" font-weight="bold" font-size="11.00">nguoi_ky_id</text>
<text text-anchor="start" x="937.5" y="-557.3" font-family="Times,serif" font-size="14.00" fill="#1f6fb2">FK</text>
<text text-anchor="start" x="974.5" y="-557.3" font-family="Times,serif" font-size="14.00" fill="#555555">BIGINT UNSIGNED</text>
<text text-anchor="start" x="787.5" y="-535.2" font-family="Consolas" font-size="11.00">ngay_ban_hanh</text>
<text text-anchor="start" x="974.5" y="-534.3" font-family="Times,serif" font-size="14.00" fill="#555555">DATETIME</text>
<text text-anchor="start" x="787.5" y="-512.2" font-family="Consolas" font-size="11.00">chu_ky_so</text>
<text text-anchor="start" x="974.5" y="-511.3" font-family="Times,serif" font-size="14.00" fill="#555555">VARCHAR(255)</text>
<text text-anchor="start" x="787.5" y="-490.2" font-family="Consolas" font-weight="bold" font-size="11.00" fill="#c00000">van_ban_thay_the_id</text>
<text text-anchor="start" x="937.5" y="-488.3" font-family="Times,serif" font-size="14.00" fill="#1f6fb2">FK</text>
<text text-anchor="start" x="974.5" y="-488.3" font-family="Times,serif" font-size="14.00" fill="#555555">BIGINT UNSIGNED</text>
<text text-anchor="start" x="787.5" y="-466.2" font-family="Consolas" font-size="11.00">trang_thai</text>
<text text-anchor="start" x="974.5" y="-465.3" font-family="Times,serif" font-size="14.00" fill="#555555">ENUM</text>
<polygon fill="none" stroke="black" points="782,-457 782,-778 1121,-778 1121,-457 782,-457"/>
</g>
<!-- phan_hoi_van_ban&#45;&gt;van_ban_giai_trinh -->
<g id="edge6" class="edge">
<title>phan_hoi_van_ban&#45;&gt;van_ban_giai_trinh</title>
<path fill="none" stroke="#5578a8" d="M703.22,-617.5C729.11,-617.5 755.84,-617.5 781.74,-617.5"/>
</g>
<!-- quyet_dinh_thu_ly_khieu_nai -->
<g id="node5" class="node">
<title>quyet_dinh_thu_ly_khieu_nai</title>
<polygon fill="#d9d2e9" stroke="transparent" points="381.5,-158.5 381.5,-178.5 685.5,-178.5 685.5,-158.5 381.5,-158.5"/>
<text text-anchor="start" x="442" y="-166.7" font-family="Consolas" font-weight="bold" font-size="11.00">quyet_dinh_thu_ly_khieu_nai</text>
<text text-anchor="start" x="385.5" y="-145.2" font-family="Consolas" font-weight="bold" font-size="11.00">id</text>
<text text-anchor="start" x="502.5" y="-143.3" font-family="Times,serif" font-size="14.00" fill="#b8860b">PK</text>
<text text-anchor="start" x="539.5" y="-143.3" font-family="Times,serif" font-size="14.00" fill="#555555">BIGINT UNSIGNED</text>
<text text-anchor="start" x="385.5" y="-122.2" font-family="Consolas" font-weight="bold" font-size="11.00">don_khieu_nai_id</text>
<text text-anchor="start" x="502.5" y="-120.3" font-family="Times,serif" font-size="14.00" fill="#1f6fb2">FK</text>
<text text-anchor="start" x="539.5" y="-120.3" font-family="Times,serif" font-size="14.00" fill="#555555">BIGINT UNSIGNED</text>
<text text-anchor="start" x="385.5" y="-99.2" font-family="Consolas" font-weight="bold" font-size="11.00">nguoi_ky_id</text>
<text text-anchor="start" x="502.5" y="-97.3" font-family="Times,serif" font-size="14.00" fill="#1f6fb2">FK</text>
<text text-anchor="start" x="539.5" y="-97.3" font-family="Times,serif" font-size="14.00" fill="#555555">BIGINT UNSIGNED</text>
<text text-anchor="start" x="385.5" y="-75.2" font-family="Consolas" font-size="11.00">so_quyet_dinh</text>
<text text-anchor="start" x="539.5" y="-74.3" font-family="Times,serif" font-size="14.00" fill="#555555">VARCHAR(50)</text>
<text text-anchor="start" x="385.5" y="-52.2" font-family="Consolas" font-size="11.00">ngay_ky</text>
<text text-anchor="start" x="539.5" y="-51.3" font-family="Times,serif" font-size="14.00" fill="#555555">DATETIME</text>
<text text-anchor="start" x="385.5" y="-29.2" font-family="Consolas" font-size="11.00">ket_qua</text>
<text text-anchor="start" x="539.5" y="-28.3" font-family="Times,serif" font-size="14.00" fill="#555555">ENUM</text>
<polygon fill="none" stroke="black" points="380.5,-19.5 380.5,-179.5 686.5,-179.5 686.5,-19.5 380.5,-19.5"/>
</g>
<!-- quyet_dinh_thu_ly_khieu_nai&#45;&gt;can_bo -->
<g id="edge12" class="edge">
<title>quyet_dinh_thu_ly_khieu_nai&#45;&gt;can_bo</title>
<path fill="none" stroke="#5578a8" d="M686.53,-43.25C874.57,-43.25 1169,-43.25 1169,-43.25 1169,-43.25 1169,-485.21 1169,-485.21 1169,-485.21 1188.09,-485.21 1214.5,-485.21"/>
</g>
<!-- quyet_dinh_thu_ly_khieu_nai&#45;&gt;don_khieu_nai -->
<g id="edge13" class="edge">
<title>quyet_dinh_thu_ly_khieu_nai&#45;&gt;don_khieu_nai</title>
<path fill="none" stroke="#5578a8" d="M686.77,-123.25C717.65,-123.25 750.27,-123.25 781.67,-123.25"/>
</g>
<!-- quyet_dinh_thu_ly_phan_hoi -->
<g id="node6" class="node">
<title>quyet_dinh_thu_ly_phan_hoi</title>
<polygon fill="#d9d2e9" stroke="transparent" points="1.5,-573.5 1.5,-593.5 284.5,-593.5 284.5,-573.5 1.5,-573.5"/>
<text text-anchor="start" x="55" y="-581.7" font-family="Consolas" font-weight="bold" font-size="11.00">quyet_dinh_thu_ly_phan_hoi</text>
<text text-anchor="start" x="5.5" y="-560.2" font-family="Consolas" font-weight="bold" font-size="11.00">id</text>
<text text-anchor="start" x="101.5" y="-558.3" font-family="Times,serif" font-size="14.00" fill="#b8860b">PK</text>
<text text-anchor="start" x="138.5" y="-558.3" font-family="Times,serif" font-size="14.00" fill="#555555">BIGINT UNSIGNED</text>
<text text-anchor="start" x="5.5" y="-537.2" font-family="Consolas" font-weight="bold" font-size="11.00">phan_hoi_id</text>
<text text-anchor="start" x="101.5" y="-535.3" font-family="Times,serif" font-size="14.00" fill="#1f6fb2">FK</text>
<text text-anchor="start" x="138.5" y="-535.3" font-family="Times,serif" font-size="14.00" fill="#555555">BIGINT UNSIGNED</text>
<text text-anchor="start" x="5.5" y="-514.2" font-family="Consolas" font-weight="bold" font-size="11.00">nguoi_ky_id</text>
<text text-anchor="start" x="101.5" y="-512.3" font-family="Times,serif" font-size="14.00" fill="#1f6fb2">FK</text>
<text text-anchor="start" x="138.5" y="-512.3" font-family="Times,serif" font-size="14.00" fill="#555555">BIGINT UNSIGNED</text>
<text text-anchor="start" x="5.5" y="-490.2" font-family="Consolas" font-size="11.00">so_quyet_dinh</text>
<text text-anchor="start" x="138.5" y="-489.3" font-family="Times,serif" font-size="14.00" fill="#555555">VARCHAR(50)</text>
<text text-anchor="start" x="5.5" y="-467.2" font-family="Consolas" font-size="11.00">ngay_ky</text>
<text text-anchor="start" x="138.5" y="-466.3" font-family="Times,serif" font-size="14.00" fill="#555555">DATETIME</text>
<text text-anchor="start" x="5.5" y="-444.2" font-family="Consolas" font-size="11.00">ket_qua</text>
<text text-anchor="start" x="138.5" y="-443.3" font-family="Times,serif" font-size="14.00" fill="#555555">ENUM</text>
<polygon fill="none" stroke="black" points="0,-434.5 0,-594.5 285,-594.5 285,-434.5 0,-434.5"/>
</g>
<!-- quyet_dinh_thu_ly_phan_hoi&#45;&gt;can_bo -->
<g id="edge7" class="edge">
<title>quyet_dinh_thu_ly_phan_hoi&#45;&gt;can_bo</title>
<path fill="none" stroke="#5578a8" d="M285.11,-444.5C608.57,-444.5 1370,-444.5 1370,-444.5 1370,-444.5 1370,-448.21 1370,-454.26"/>
</g>
<!-- quyet_dinh_thu_ly_phan_hoi&#45;&gt;phan_hoi_van_ban -->
<g id="edge8" class="edge">
<title>quyet_dinh_thu_ly_phan_hoi&#45;&gt;phan_hoi_van_ban</title>
<path fill="none" stroke="#5578a8" d="M285.04,-560.25C310.69,-560.25 337.65,-560.25 363.97,-560.25"/>
</g>
<!-- van_ban_giai_trinh&#45;&gt;can_bo -->
<g id="edge2" class="edge">
<title>van_ban_giai_trinh&#45;&gt;can_bo</title>
<path fill="none" stroke="#5578a8" d="M1121.22,-598.07C1151.97,-598.07 1183.91,-598.07 1214.23,-598.07"/>
</g>
<!-- van_ban_giai_trinh&#45;&gt;can_bo -->
<g id="edge3" class="edge">
<title>van_ban_giai_trinh&#45;&gt;can_bo</title>
<path fill="none" stroke="#5578a8" d="M1121.22,-626.29C1151.97,-626.29 1183.91,-626.29 1214.23,-626.29"/>
</g>
<!-- van_ban_giai_trinh&#45;&gt;van_ban_giai_trinh -->
<g id="edge16" class="edge">
<title>van_ban_giai_trinh&#45;&gt;van_ban_giai_trinh</title>
<path fill="none" stroke="#5578a8" stroke-dasharray="5,2" d="M781.73,-743.5C758.81,-743.5 743,-743.5 743,-743.5 743,-743.5 743,-796 743,-796 743,-796 1185,-796 1185,-796 1185,-796 1185,-716.25 1185,-716.25 1185,-716.25 1157.41,-716.25 1121.2,-716.25"/>
</g>
<!-- van_ban_giai_trinh&#45;&gt;yeu_cau_giai_trinh -->
<g id="edge4" class="edge">
<title>van_ban_giai_trinh&#45;&gt;yeu_cau_giai_trinh</title>
<path fill="none" stroke="#5578a8" d="M1121.16,-513.43C1168.86,-513.43 1208,-513.43 1208,-513.43 1208,-513.43 1208,-474.49 1208,-425.05"/>
</g>
<!-- xac_minh_khieu_nai -->
<g id="node8" class="node">
<title>xac_minh_khieu_nai</title>
<polygon fill="#d9d2e9" stroke="transparent" points="375.5,-347.5 375.5,-367.5 692.5,-367.5 692.5,-347.5 375.5,-347.5"/>
<text text-anchor="start" x="473" y="-355.7" font-family="Consolas" font-weight="bold" font-size="11.00">xac_minh_khieu_nai</text>
<text text-anchor="start" x="379.5" y="-334.2" font-family="Consolas" font-weight="bold" font-size="11.00">id</text>
<text text-anchor="start" x="509.5" y="-332.3" font-family="Times,serif" font-size="14.00" fill="#b8860b">PK</text>
<text text-anchor="start" x="546.5" y="-332.3" font-family="Times,serif" font-size="14.00" fill="#555555">BIGINT UNSIGNED</text>
<text text-anchor="start" x="379.5" y="-311.2" font-family="Consolas" font-weight="bold" font-size="11.00">don_khieu_nai_id</text>
<text text-anchor="start" x="509.5" y="-309.3" font-family="Times,serif" font-size="14.00" fill="#1f6fb2">FK</text>
<text text-anchor="start" x="546.5" y="-309.3" font-family="Times,serif" font-size="14.00" fill="#555555">BIGINT UNSIGNED</text>
<text text-anchor="start" x="379.5" y="-288.2" font-family="Consolas" font-weight="bold" font-size="11.00">can_bo_xac_minh_id</text>
<text text-anchor="start" x="509.5" y="-286.3" font-family="Times,serif" font-size="14.00" fill="#1f6fb2">FK</text>
<text text-anchor="start" x="546.5" y="-286.3" font-family="Times,serif" font-size="14.00" fill="#555555">BIGINT UNSIGNED</text>
<text text-anchor="start" x="379.5" y="-264.2" font-family="Consolas" font-size="11.00">noi_dung_xac_minh</text>
<text text-anchor="start" x="546.5" y="-263.3" font-family="Times,serif" font-size="14.00" fill="#555555">TEXT</text>
<text text-anchor="start" x="379.5" y="-241.2" font-family="Consolas" font-size="11.00">ket_qua_giai_quyet</text>
<text text-anchor="start" x="546.5" y="-240.3" font-family="Times,serif" font-size="14.00" fill="#555555">TEXT</text>
<text text-anchor="start" x="379.5" y="-218.2" font-family="Consolas" font-size="11.00">ngay_cap_nhat</text>
<text text-anchor="start" x="546.5" y="-217.3" font-family="Times,serif" font-size="14.00" fill="#555555">DATETIME</text>
<polygon fill="none" stroke="black" points="374,-208.5 374,-368.5 693,-368.5 693,-208.5 374,-208.5"/>
</g>
<!-- xac_minh_khieu_nai&#45;&gt;can_bo -->
<g id="edge14" class="edge">
<title>xac_minh_khieu_nai&#45;&gt;can_bo</title>
<path fill="none" stroke="#5578a8" d="M693.25,-309.25C872.04,-309.25 1137,-309.25 1137,-309.25 1137,-309.25 1137,-569.86 1137,-569.86 1137,-569.86 1171.77,-569.86 1214.42,-569.86"/>
</g>
<!-- xac_minh_khieu_nai&#45;&gt;don_khieu_nai -->
<g id="edge15" class="edge">
<title>xac_minh_khieu_nai&#45;&gt;don_khieu_nai</title>
<path fill="none" stroke="#5578a8" d="M693.02,-229.25C722.07,-229.25 752.48,-229.25 781.82,-229.25"/>
</g>
<!-- yeu_cau_giai_trinh&#45;&gt;nguoi_yeu_cau -->
<g id="edge1" class="edge">
<title>yeu_cau_giai_trinh&#45;&gt;nguoi_yeu_cau</title>
<path fill="none" stroke="#5578a8" d="M1539.09,-221.5C1565.3,-221.5 1592.17,-221.5 1617.81,-221.5"/>
</g>
</g>
</svg>
