<?xml version="1.0" encoding="UTF-8" standalone="no"?>
<!DOCTYPE svg PUBLIC "-//W3C//DTD SVG 1.1//EN"
 "http://www.w3.org/Graphics/SVG/1.1/DTD/svg11.dtd">
<!-- Generated by graphviz version 2.43.0 (0)
 -->
<!-- Title: G Pages: 1 -->
<svg width="1362pt" height="1669pt"
 viewBox="0.00 0.00 1361.56 1668.60" xmlns="http://www.w3.org/2000/svg" xmlns:xlink="http://www.w3.org/1999/xlink">
<g id="graph0" class="graph" transform="scale(1 1) rotate(0) translate(28.8 1639.8)">
<title>G</title>
<polygon fill="white" stroke="transparent" points="-28.8,28.8 -28.8,-1639.8 1332.76,-1639.8 1332.76,28.8 -28.8,28.8"/>
<text text-anchor="middle" x="651.98" y="-1591" font-family="Helvetica,sans-Serif" font-size="20.00">ERD CHI TIẾT — NHÓM: TIẾP NHẬN &amp; XỬ LÝ YÊU CẦU GIẢI TRÌNH</text>
<g id="clust1" class="cluster">
<title>cluster_main</title>
<polygon fill="#fbe5d6" fill-opacity="0.200000" stroke="#fbe5d6" points="20.96,-137 20.96,-1573 670.96,-1573 670.96,-137 20.96,-137"/>
</g>
<g id="clust2" class="cluster">
<title>cluster_ghost</title>
<polygon fill="white" stroke="#999999" stroke-dasharray="5,2" points="632.96,-8 632.96,-100 949.96,-100 949.96,-8 632.96,-8"/>
<text text-anchor="middle" x="791.46" y="-87.2" font-family="Helvetica,sans-Serif" font-weight="bold" font-size="11.00">Bảng cha tham chiếu tới (ở nhóm khác)</text>
</g>
<!-- nguoi_yeu_cau -->
<g id="node1" class="node">
<title>nguoi_yeu_cau</title>
<polygon fill="#fbe5d6" stroke="transparent" points="37.96,-348 37.96,-370 257.96,-370 257.96,-348 37.96,-348"/>
<text text-anchor="start" x="103.96" y="-357.2" font-family="Consolas" font-weight="bold" font-size="11.00">nguoi_yeu_cau</text>
<text text-anchor="start" x="42.96" y="-335.2" font-family="Consolas" font-weight="bold" font-size="11.00">id</text>
<text text-anchor="start" x="56.96" y="-335.2" font-family="Consolas" font-size="11.00"> </text>
<text text-anchor="start" x="63.96" y="-335.2" font-family="Consolas" font-size="11.00" fill="#b8860b">PK</text>
<text text-anchor="start" x="161.96" y="-334.5" font-family="Consolas" font-size="10.00" fill="#666666">BIGINT UNSIGNED</text>
<text text-anchor="start" x="42.96" y="-312.2" font-family="Consolas" font-size="11.00">loai_doi_tuong</text>
<text text-anchor="start" x="161.96" y="-312.5" font-family="Consolas" font-size="10.00" fill="#666666">ENUM</text>
<text text-anchor="start" x="42.96" y="-290.2" font-family="Consolas" font-size="11.00">ho_ten</text>
<text text-anchor="start" x="161.96" y="-290.5" font-family="Consolas" font-size="10.00" fill="#666666">VARCHAR(150)</text>
<text text-anchor="start" x="42.96" y="-268.2" font-family="Consolas" font-size="11.00">so_cccd</text>
<text text-anchor="start" x="161.96" y="-268.5" font-family="Consolas" font-size="10.00" fill="#666666">VARCHAR(20)</text>
<text text-anchor="start" x="42.96" y="-247.2" font-family="Consolas" font-size="11.00">nguoi_dung_id </text>
<text text-anchor="start" x="137.96" y="-247.2" font-family="Consolas" font-size="11.00" fill="#1f6fb2">FK</text>
<text text-anchor="start" x="161.96" y="-246.5" font-family="Consolas" font-size="10.00" fill="#666666">BIGINT UNSIGNED</text>
<text text-anchor="start" x="42.96" y="-224.2" font-family="Consolas" font-size="11.00">dia_chi</text>
<text text-anchor="start" x="161.96" y="-224.5" font-family="Consolas" font-size="10.00" fill="#666666">VARCHAR(255)</text>
<text text-anchor="start" x="42.96" y="-202.2" font-family="Consolas" font-size="11.00">email</text>
<text text-anchor="start" x="161.96" y="-202.5" font-family="Consolas" font-size="10.00" fill="#666666">VARCHAR(150)</text>
<text text-anchor="start" x="42.96" y="-180.2" font-family="Consolas" font-size="11.00">so_dien_thoai</text>
<text text-anchor="start" x="161.96" y="-180.5" font-family="Consolas" font-size="10.00" fill="#666666">VARCHAR(20)</text>
<text text-anchor="start" x="42.96" y="-158.2" font-family="Consolas" font-size="11.00">ngay_tao</text>
<text text-anchor="start" x="161.96" y="-158.5" font-family="Consolas" font-size="10.00" fill="#666666">DATETIME</text>
<polygon fill="none" stroke="black" points="36.96,-149 36.96,-371 258.96,-371 258.96,-149 36.96,-149"/>
</g>
<!-- nguoi_dung -->
<g id="node9" class="node">
<title>nguoi_dung</title>
<polygon fill="#dce6f1" fill-opacity="0.400000" stroke="transparent" points="825.96,-43 825.96,-67 932.96,-67 932.96,-43 825.96,-43"/>
<text text-anchor="start" x="845.46" y="-53.2" font-family="Consolas" font-weight="bold" font-size="11.00">nguoi_dung</text>
<text text-anchor="start" x="831.96" y="-29.8" font-family="Consolas" font-size="9.00" fill="#777777">(bảng ở nhóm khác)</text>
<polygon fill="none" stroke="black" points="824.46,-20 824.46,-68 933.46,-68 933.46,-20 824.46,-20"/>
</g>
<!-- can_bo -->
<g id="node_canbo_stub" class="node">
<title>can_bo</title>
<polygon fill="#dce6f1" fill-opacity="0.400000" stroke="transparent" points="824.46,-88 824.46,-136 933.46,-136 933.46,-88 824.46,-88"/>
<text text-anchor="start" x="843.96" y="-106.8" font-family="Consolas" font-weight="bold" font-size="11.00">can_bo</text>
<text text-anchor="start" x="830.46" y="-130.8" font-family="Consolas" font-size="9.00" fill="#777777">(bảng ở nhóm khác)</text>
<polygon fill="none" stroke="black" points="822.96,-137 822.96,-88 934.46,-88 934.46,-137 822.96,-137"/>
</g>

<!-- nguoi_yeu_cau&#45;&gt;nguoi_dung -->
<g id="edge1" class="edge">
<title>nguoi_yeu_cau:e&#45;&gt;nguoi_dung</title>
<path fill="none" stroke="#c55a11" stroke-width="1.3" d="M156.96,-248C239.19,-248 228,-165.94 304.96,-137 508.14,-60.6 585.9,-168.24 791.96,-100 807.85,-94.74 823.76,-85.96 837.55,-76.95"/>
<polygon fill="#c55a11" stroke="#c55a11" stroke-width="1.3" points="837.92,-76.7 846.57,-75.22 841.24,-74.47 844.56,-72.23 844.56,-72.23 844.56,-72.23 841.24,-74.47 842.55,-69.25 837.92,-76.7 837.92,-76.7"/>
</g>
<!-- yeu_cau_giai_trinh -->
<g id="node2" class="node">
<title>yeu_cau_giai_trinh</title>
<polygon fill="#fbe5d6" stroke="transparent" points="210.96,-717 210.96,-739 477.96,-739 477.96,-717 210.96,-717"/>
<text text-anchor="start" x="283.46" y="-726.2" font-family="Consolas" font-weight="bold" font-size="11.00">yeu_cau_giai_trinh</text>
<text text-anchor="start" x="215.96" y="-704.2" font-family="Consolas" font-weight="bold" font-size="11.00">id</text>
<text text-anchor="start" x="229.96" y="-704.2" font-family="Consolas" font-size="11.00"> </text>
<text text-anchor="start" x="236.96" y="-704.2" font-family="Consolas" font-size="11.00" fill="#b8860b">PK</text>
<text text-anchor="start" x="381.96" y="-703.5" font-family="Consolas" font-size="10.00" fill="#666666">BIGINT UNSIGNED</text>
<text text-anchor="start" x="215.96" y="-681.2" font-family="Consolas" font-size="11.00">ma_yeu_cau</text>
<text text-anchor="start" x="381.96" y="-681.5" font-family="Consolas" font-size="10.00" fill="#666666">VARCHAR(30)</text>
<text text-anchor="start" x="215.96" y="-660.2" font-family="Consolas" font-size="11.00">nguoi_yeu_cau_id </text>
<text text-anchor="start" x="330.96" y="-660.2" font-family="Consolas" font-size="11.00" fill="#1f6fb2">FK</text>
<text text-anchor="start" x="381.96" y="-659.5" font-family="Consolas" font-size="10.00" fill="#666666">BIGINT UNSIGNED</text>
<text text-anchor="start" x="215.96" y="-637.2" font-family="Consolas" font-size="11.00">hinh_thuc_gui</text>
<text text-anchor="start" x="381.96" y="-637.5" font-family="Consolas" font-size="10.00" fill="#666666">ENUM</text>
<text text-anchor="start" x="215.96" y="-615.2" font-family="Consolas" font-size="11.00">nguon_goc</text>
<text text-anchor="start" x="381.96" y="-615.5" font-family="Consolas" font-size="10.00" fill="#666666">ENUM</text>
<text text-anchor="start" x="215.96" y="-593.2" font-family="Consolas" font-size="11.00">noi_dung_yeu_cau</text>
<text text-anchor="start" x="381.96" y="-593.5" font-family="Consolas" font-size="10.00" fill="#666666">TEXT</text>
<text text-anchor="start" x="215.96" y="-571.2" font-family="Consolas" font-size="11.00">ngay_gui</text>
<text text-anchor="start" x="381.96" y="-571.5" font-family="Consolas" font-size="10.00" fill="#666666">DATETIME</text>
<text text-anchor="start" x="215.96" y="-550.2" font-family="Consolas" font-size="11.00">don_vi_tiep_nhan_id </text>
<text text-anchor="start" x="351.96" y="-550.2" font-family="Consolas" font-size="11.00" fill="#1f6fb2">FK</text>
<text text-anchor="start" x="381.96" y="-549.5" font-family="Consolas" font-size="10.00" fill="#666666">BIGINT UNSIGNED</text>
<text text-anchor="start" x="215.96" y="-528.2" font-family="Consolas" font-size="11.00">don_vi_chuyen_mon_id </text>
<text text-anchor="start" x="357.96" y="-528.2" font-family="Consolas" font-size="11.00" fill="#1f6fb2">FK</text>
<text text-anchor="start" x="381.96" y="-527.5" font-family="Consolas" font-size="10.00" fill="#666666">BIGINT UNSIGNED</text>
<text text-anchor="start" x="215.96" y="-505.2" font-family="Consolas" font-size="11.00">han_xu_ly</text>
<text text-anchor="start" x="381.96" y="-505.5" font-family="Consolas" font-size="10.00" fill="#666666">DATE</text>
<text text-anchor="start" x="215.96" y="-483.2" font-family="Consolas" font-size="11.00">trang_thai</text>
<text text-anchor="start" x="381.96" y="-483.5" font-family="Consolas" font-size="10.00" fill="#666666">ENUM</text>
<text text-anchor="start" x="215.96" y="-461.2" font-family="Consolas" font-size="11.00">ngay_dong</text>
<text text-anchor="start" x="381.96" y="-461.5" font-family="Consolas" font-size="10.00" fill="#666666">DATETIME</text>
<polygon fill="none" stroke="black" points="209.46,-452 209.46,-740 478.46,-740 478.46,-452 209.46,-452"/>
</g>
<!-- yeu_cau_giai_trinh&#45;&gt;nguoi_yeu_cau -->
<g id="edge2" class="edge">
<title>yeu_cau_giai_trinh:e&#45;&gt;nguoi_yeu_cau:w</title>
<path fill="none" stroke="#c55a11" stroke-width="1.3" d="M376.96,-661C582.85,-661 -151.24,-345.8 28.94,-337.18"/>
<polygon fill="#c55a11" stroke="#c55a11" stroke-width="1.3" points="28.97,-337.18 37.04,-340.6 32.96,-337.09 36.96,-337 36.96,-337 36.96,-337 32.96,-337.09 36.88,-333.4 28.97,-337.18 28.97,-337.18"/>
</g>
<!-- don_vi -->
<g id="node8" class="node">
<title>don_vi</title>
<polygon fill="#dce6f1" fill-opacity="0.400000" stroke="transparent" points="650.96,-43 650.96,-67 757.96,-67 757.96,-43 650.96,-43"/>
<text text-anchor="start" x="683.96" y="-53.2" font-family="Consolas" font-weight="bold" font-size="11.00">don_vi</text>
<text text-anchor="start" x="656.96" y="-29.8" font-family="Consolas" font-size="9.00" fill="#777777">(bảng ở nhóm khác)</text>
<polygon fill="none" stroke="black" points="649.46,-20 649.46,-68 758.46,-68 758.46,-20 649.46,-20"/>
</g>
<!-- yeu_cau_giai_trinh&#45;&gt;don_vi -->
<g id="edge3" class="edge">
<title>yeu_cau_giai_trinh:e&#45;&gt;don_vi</title>
<path fill="none" stroke="#c55a11" stroke-width="1.3" d="M376.96,-551C468.74,-551 439.47,-454.71 484.96,-375 544.29,-271.05 539.6,-233.08 610.96,-137 626.9,-115.54 647.84,-94.37 665.82,-77.75"/>
<polygon fill="#c55a11" stroke="#c55a11" stroke-width="1.3" points="665.88,-77.7 674.22,-74.96 668.83,-75 671.79,-72.3 671.79,-72.3 671.79,-72.3 668.83,-75 669.36,-69.64 665.88,-77.7 665.88,-77.7"/>
<text text-anchor="middle" x="656.96" y="-257.8" font-family="Helvetica,sans-Serif" font-size="9.00" fill="#c55a11">don_vi_tiep_nhan_id</text>
</g>
<!-- yeu_cau_giai_trinh&#45;&gt;don_vi -->
<g id="edge4" class="edge">
<title>yeu_cau_giai_trinh:e&#45;&gt;don_vi</title>
<path fill="none" stroke="#c55a11" stroke-width="1.3" d="M376.96,-529C445.55,-529 369.19,-443.55 366.96,-375 363.54,-269.28 302.77,-221.07 366.96,-137 399.09,-94.93 544.08,-67.46 633.09,-54.24"/>
<polygon fill="#c55a11" stroke="#c55a11" stroke-width="1.3" points="633.34,-54.2 641.78,-56.6 637.3,-53.62 641.25,-53.04 641.25,-53.04 641.25,-53.04 637.3,-53.62 640.73,-49.48 633.34,-54.2 633.34,-54.2"/>
<text text-anchor="middle" x="419.96" y="-257.8" font-family="Helvetica,sans-Serif" font-size="9.00" fill="#c55a11">don_vi_chuyen_mon_id</text>
</g>
<!-- phieu_yeu_cau_chuyen_mon -->
<g id="node3" class="node">
<title>phieu_yeu_cau_chuyen_mon</title>
<polygon fill="#fbe5d6" stroke="transparent" points="379.96,-998 379.96,-1020 653.96,-1020 653.96,-998 379.96,-998"/>
<text text-anchor="start" x="435.46" y="-1007.2" font-family="Consolas" font-weight="bold" font-size="11.00">phieu_yeu_cau_chuyen_mon</text>
<text text-anchor="start" x="384.96" y="-985.2" font-family="Consolas" font-weight="bold" font-size="11.00">id</text>
<text text-anchor="start" x="398.96" y="-985.2" font-family="Consolas" font-size="11.00"> </text>
<text text-anchor="start" x="405.96" y="-985.2" font-family="Consolas" font-size="11.00" fill="#b8860b">PK</text>
<text text-anchor="start" x="557.96" y="-984.5" font-family="Consolas" font-size="10.00" fill="#666666">BIGINT UNSIGNED</text>
<text text-anchor="start" x="384.96" y="-963.2" font-family="Consolas" font-size="11.00">yeu_cau_giai_trinh_id </text>
<text text-anchor="start" x="533.96" y="-963.2" font-family="Consolas" font-size="11.00" fill="#1f6fb2">FK</text>
<text text-anchor="start" x="557.96" y="-962.5" font-family="Consolas" font-size="10.00" fill="#666666">BIGINT UNSIGNED</text>
<text text-anchor="start" x="384.96" y="-940.2" font-family="Consolas" font-size="11.00">loai_phieu</text>
<text text-anchor="start" x="557.96" y="-940.5" font-family="Consolas" font-size="10.00" fill="#666666">ENUM</text>
<text text-anchor="start" x="384.96" y="-919.2" font-family="Consolas" font-size="11.00">don_vi_chuyen_mon_id </text>
<text text-anchor="start" x="526.96" y="-919.2" font-family="Consolas" font-size="11.00" fill="#1f6fb2">FK</text>
<text text-anchor="start" x="557.96" y="-918.5" font-family="Consolas" font-size="10.00" fill="#666666">BIGINT UNSIGNED</text>
<text text-anchor="start" x="384.96" y="-897.2" font-family="Consolas" font-size="11.00">nguoi_gui_id </text>
<text text-anchor="start" x="472.96" y="-897.2" font-family="Consolas" font-size="11.00" fill="#1f6fb2">FK</text>
<text text-anchor="start" x="557.96" y="-896.5" font-family="Consolas" font-size="10.00" fill="#666666">BIGINT UNSIGNED</text>
<text text-anchor="start" x="384.96" y="-874.2" font-family="Consolas" font-size="11.00">ngay_gui</text>
<text text-anchor="start" x="557.96" y="-874.5" font-family="Consolas" font-size="10.00" fill="#666666">DATETIME</text>
<text text-anchor="start" x="384.96" y="-852.2" font-family="Consolas" font-size="11.00">trang_thai</text>
<text text-anchor="start" x="557.96" y="-852.5" font-family="Consolas" font-size="10.00" fill="#666666">VARCHAR(50)</text>
<polygon fill="none" stroke="black" points="378.96,-843 378.96,-1021 654.96,-1021 654.96,-843 378.96,-843"/>
</g>
<!-- phieu_yeu_cau_chuyen_mon&#45;&gt;yeu_cau_giai_trinh -->
<g id="edge5" class="edge">
<title>phieu_yeu_cau_chuyen_mon:e&#45;&gt;yeu_cau_giai_trinh:w</title>
<path fill="none" stroke="#c55a11" stroke-width="1.3" d="M552.96,-964C665.8,-964 441.77,-876.61 345.96,-817 288.05,-780.96 246.66,-802.13 210.96,-744 204.06,-732.75 197.02,-715.89 202.33,-709.04"/>
<polygon fill="#c55a11" stroke="#c55a11" stroke-width="1.3" points="202.53,-708.96 211.3,-709.34 206.25,-707.48 209.96,-706 209.96,-706 209.96,-706 206.25,-707.48 208.63,-702.66 202.53,-708.96 202.53,-708.96"/>
</g>
<!-- phieu_yeu_cau_chuyen_mon&#45;&gt;don_vi -->
<g id="edge6" class="edge">
<title>phieu_yeu_cau_chuyen_mon:e&#45;&gt;don_vi</title>
<path fill="none" stroke="#c55a11" stroke-width="1.3" d="M552.96,-920C900.12,-920 753.35,-242.89 713.01,-79.95"/>
<polygon fill="#c55a11" stroke="#c55a11" stroke-width="1.3" points="713,-79.91 714.55,-71.27 712.03,-76.03 711.06,-72.15 711.06,-72.15 711.06,-72.15 712.03,-76.03 707.57,-73.02 713,-79.91 713,-79.91"/>
</g>
<!-- phieu_yeu_cau_chuyen_mon&#45;&gt;nguoi_dung -->
<g id="edge7" class="edge">
<title>phieu_yeu_cau_chuyen_mon:e&#45;&gt;can_bo</title>
<path fill="none" stroke="#c55a11" stroke-width="1.3" d="M552.96,-898C682.71,-898 763.52,-868.22 800.96,-744 875.09,-498.09 880.06,-184.4 878.96,112.00"/>
<polygon fill="#c55a11" stroke="#c55a11" stroke-width="1.3" points="878.96,112.27 882.50,120.30 878.93,116.27 878.90,120.27 878.90,120.27 878.90,120.27 878.93,116.27 875.30,120.25 878.96,112.27 878.96,112.27"/>
</g>
<!-- nhiem_vu_giai_trinh -->
<g id="node4" class="node">
<title>nhiem_vu_giai_trinh</title>
<polygon fill="#fbe5d6" stroke="transparent" points="338.96,-1279 338.96,-1301 653.96,-1301 653.96,-1279 338.96,-1279"/>
<text text-anchor="start" x="431.96" y="-1288.2" font-family="Consolas" font-weight="bold" font-size="11.00">nhiem_vu_giai_trinh</text>
<text text-anchor="start" x="343.96" y="-1266.2" font-family="Consolas" font-weight="bold" font-size="11.00">id</text>
<text text-anchor="start" x="357.96" y="-1266.2" font-family="Consolas" font-size="11.00"> </text>
<text text-anchor="start" x="364.96" y="-1266.2" font-family="Consolas" font-size="11.00" fill="#b8860b">PK</text>
<text text-anchor="start" x="557.96" y="-1265.5" font-family="Consolas" font-size="10.00" fill="#666666">BIGINT UNSIGNED</text>
<text text-anchor="start" x="343.96" y="-1244.2" font-family="Consolas" font-size="11.00">phieu_yeu_cau_chuyen_mon_id </text>
<text text-anchor="start" x="533.96" y="-1244.2" font-family="Consolas" font-size="11.00" fill="#1f6fb2">FK</text>
<text text-anchor="start" x="557.96" y="-1243.5" font-family="Consolas" font-size="10.00" fill="#666666">BIGINT UNSIGNED</text>
<text text-anchor="start" x="343.96" y="-1222.2" font-family="Consolas" font-size="11.00">can_bo_chuyen_mon_id </text>
<text text-anchor="start" x="485.96" y="-1222.2" font-family="Consolas" font-size="11.00" fill="#1f6fb2">FK</text>
<text text-anchor="start" x="557.96" y="-1221.5" font-family="Consolas" font-size="10.00" fill="#666666">BIGINT UNSIGNED</text>
<text text-anchor="start" x="343.96" y="-1200.2" font-family="Consolas" font-size="11.00">nguoi_giao_id </text>
<text text-anchor="start" x="438.96" y="-1200.2" font-family="Consolas" font-size="11.00" fill="#1f6fb2">FK</text>
<text text-anchor="start" x="557.96" y="-1199.5" font-family="Consolas" font-size="10.00" fill="#666666">BIGINT UNSIGNED</text>
<text text-anchor="start" x="343.96" y="-1177.2" font-family="Consolas" font-size="11.00">ngay_giao</text>
<text text-anchor="start" x="557.96" y="-1177.5" font-family="Consolas" font-size="10.00" fill="#666666">DATETIME</text>
<text text-anchor="start" x="343.96" y="-1155.2" font-family="Consolas" font-size="11.00">han_hoan_thanh</text>
<text text-anchor="start" x="557.96" y="-1155.5" font-family="Consolas" font-size="10.00" fill="#666666">DATE</text>
<text text-anchor="start" x="343.96" y="-1133.2" font-family="Consolas" font-size="11.00">trang_thai</text>
<text text-anchor="start" x="557.96" y="-1133.5" font-family="Consolas" font-size="10.00" fill="#666666">ENUM</text>
<polygon fill="none" stroke="black" points="337.46,-1124 337.46,-1302 654.46,-1302 654.46,-1124 337.46,-1124"/>
</g>
<!-- nhiem_vu_giai_trinh&#45;&gt;phieu_yeu_cau_chuyen_mon -->
<g id="edge8" class="edge">
<title>nhiem_vu_giai_trinh:e&#45;&gt;phieu_yeu_cau_chuyen_mon:w</title>
<path fill="none" stroke="#c55a11" stroke-width="1.3" d="M552.96,-1245C688.3,-1245 259.75,-997.97 370.85,-987.35"/>
<polygon fill="#c55a11" stroke="#c55a11" stroke-width="1.3" points="370.97,-987.35 379.12,-990.6 374.97,-987.17 378.96,-987 378.96,-987 378.96,-987 374.97,-987.17 378.81,-983.4 370.97,-987.35 370.97,-987.35"/>
</g>
<!-- nhiem_vu_giai_trinh&#45;&gt;nguoi_dung -->
<g id="edge9" class="edge">
<title>nhiem_vu_giai_trinh:e&#45;&gt;can_bo</title>
<path fill="none" stroke="#c55a11" stroke-width="1.3" d="M552.96,-1223C835.62,-1223 1118.96,-1215.65 1118.96,-933 1118.96,-933 1118.96,-933 1118.96,-259 1118.96,-167.3 1020.15,-105.17 878.96,112.00"/>
<polygon fill="#c55a11" stroke="#c55a11" stroke-width="1.3" points="878.62,112.16 872.83,118.74 874.98,113.81 871.34,115.46 871.34,115.46 871.34,115.46 874.98,113.81 869.85,112.19 878.62,112.16 878.62,112.16"/>
<text text-anchor="middle" x="1173.46" y="-593.8" font-family="Helvetica,sans-Serif" font-size="9.00" fill="#c55a11">can_bo_chuyen_mon_id</text>
</g>
<!-- nhiem_vu_giai_trinh&#45;&gt;nguoi_dung -->
<g id="edge10" class="edge">
<title>nhiem_vu_giai_trinh:e&#45;&gt;can_bo</title>
<path fill="none" stroke="#c55a11" stroke-width="1.3" d="M552.96,-1201C768.43,-1201 956.96,-1148.47 956.96,-933 956.96,-933 956.96,-933 956.96,-259 956.96,-189.57 944.05,-171.92 916.96,-108 912.79,-98.16 907.29,-88.02 878.96,112.00"/>
<polygon fill="#c55a11" stroke="#c55a11" stroke-width="1.3" points="878.95,112.01 877.82,120.71 876.86,115.41 874.76,118.82 874.76,118.82 874.76,118.82 876.86,115.41 871.69,116.93 878.95,112.01 878.95,112.01"/>
<text text-anchor="middle" x="987.96" y="-593.8" font-family="Helvetica,sans-Serif" font-size="9.00" fill="#c55a11">nguoi_giao_id</text>
</g>
<!-- ke_hoach_giai_trinh -->
<g id="node5" class="node">
<title>ke_hoach_giai_trinh</title>
<polygon fill="#fbe5d6" stroke="transparent" points="427.96,-1538 427.96,-1560 653.96,-1560 653.96,-1538 427.96,-1538"/>
<text text-anchor="start" x="476.46" y="-1547.2" font-family="Consolas" font-weight="bold" font-size="11.00">ke_hoach_giai_trinh</text>
<text text-anchor="start" x="432.96" y="-1525.2" font-family="Consolas" font-weight="bold" font-size="11.00">id</text>
<text text-anchor="start" x="446.96" y="-1525.2" font-family="Consolas" font-size="11.00"> </text>
<text text-anchor="start" x="453.96" y="-1525.2" font-family="Consolas" font-size="11.00" fill="#b8860b">PK</text>
<text text-anchor="start" x="557.96" y="-1524.5" font-family="Consolas" font-size="10.00" fill="#666666">BIGINT UNSIGNED</text>
<text text-anchor="start" x="432.96" y="-1503.2" font-family="Consolas" font-size="11.00">nhiem_vu_id </text>
<text text-anchor="start" x="514.96" y="-1503.2" font-family="Consolas" font-size="11.00" fill="#1f6fb2">FK</text>
<text text-anchor="start" x="557.96" y="-1502.5" font-family="Consolas" font-size="10.00" fill="#666666">BIGINT UNSIGNED</text>
<text text-anchor="start" x="432.96" y="-1480.2" font-family="Consolas" font-size="11.00">phien_ban</text>
<text text-anchor="start" x="557.96" y="-1480.5" font-family="Consolas" font-size="10.00" fill="#666666">INT</text>
<text text-anchor="start" x="432.96" y="-1458.2" font-family="Consolas" font-size="11.00">noi_dung_ke_hoach</text>
<text text-anchor="start" x="557.96" y="-1458.5" font-family="Consolas" font-size="10.00" fill="#666666">TEXT</text>
<text text-anchor="start" x="432.96" y="-1437.2" font-family="Consolas" font-size="11.00">nguoi_lap_id </text>
<text text-anchor="start" x="520.96" y="-1437.2" font-family="Consolas" font-size="11.00" fill="#1f6fb2">FK</text>
<text text-anchor="start" x="557.96" y="-1436.5" font-family="Consolas" font-size="10.00" fill="#666666">BIGINT UNSIGNED</text>
<text text-anchor="start" x="432.96" y="-1414.2" font-family="Consolas" font-size="11.00">ngay_lap</text>
<text text-anchor="start" x="557.96" y="-1414.5" font-family="Consolas" font-size="10.00" fill="#666666">DATETIME</text>
<text text-anchor="start" x="432.96" y="-1392.2" font-family="Consolas" font-size="11.00">trang_thai</text>
<text text-anchor="start" x="557.96" y="-1392.5" font-family="Consolas" font-size="10.00" fill="#666666">ENUM</text>
<polygon fill="none" stroke="black" points="426.96,-1383 426.96,-1561 654.96,-1561 654.96,-1383 426.96,-1383"/>
</g>
<!-- ke_hoach_giai_trinh&#45;&gt;nhiem_vu_giai_trinh -->
<g id="edge11" class="edge">
<title>ke_hoach_giai_trinh:e&#45;&gt;nhiem_vu_giai_trinh:w</title>
<path fill="none" stroke="#c55a11" stroke-width="1.3" d="M552.96,-1504C691.8,-1504 217.21,-1278.03 329.69,-1268.32"/>
<polygon fill="#c55a11" stroke="#c55a11" stroke-width="1.3" points="329.97,-1268.31 338.1,-1271.6 333.97,-1268.16 337.96,-1268 337.96,-1268 337.96,-1268 333.97,-1268.16 337.82,-1264.4 329.97,-1268.31 329.97,-1268.31"/>
</g>
<!-- ke_hoach_giai_trinh&#45;&gt;nguoi_dung -->
<g id="edge12" class="edge">
<title>ke_hoach_giai_trinh:e&#45;&gt;can_bo</title>
<path fill="none" stroke="#c55a11" stroke-width="1.3" d="M552.96,-1438C727.12,-1438 1303.96,-1388.15 1303.96,-1214 1303.96,-1214 1303.96,-1214 1303.96,-259 1303.96,-102.34 1070.74,-60.35 878.96,112.00"/>
<polygon fill="#c55a11" stroke="#c55a11" stroke-width="1.3" points="878.77,112.01 871.12,116.31 874.79,112.37 870.80,112.72 870.80,112.72 870.80,112.72 874.79,112.37 870.48,109.14 878.77,112.01 878.77,112.01"/>
</g>
<!-- buoi_lam_viec -->
<g id="node6" class="node">
<title>buoi_lam_viec</title>
<polygon fill="#fbe5d6" stroke="transparent" points="37.96,-1020 37.96,-1042 311.96,-1042 311.96,-1020 37.96,-1020"/>
<text text-anchor="start" x="130.96" y="-1029.2" font-family="Consolas" font-weight="bold" font-size="11.00">buoi_lam_viec</text>
<text text-anchor="start" x="42.96" y="-1007.2" font-family="Consolas" font-weight="bold" font-size="11.00">id</text>
<text text-anchor="start" x="56.96" y="-1007.2" font-family="Consolas" font-size="11.00"> </text>
<text text-anchor="start" x="63.96" y="-1007.2" font-family="Consolas" font-size="11.00" fill="#b8860b">PK</text>
<text text-anchor="start" x="215.96" y="-1006.5" font-family="Consolas" font-size="10.00" fill="#666666">BIGINT UNSIGNED</text>
<text text-anchor="start" x="42.96" y="-985.2" font-family="Consolas" font-size="11.00">yeu_cau_giai_trinh_id </text>
<text text-anchor="start" x="191.96" y="-985.2" font-family="Consolas" font-size="11.00" fill="#1f6fb2">FK</text>
<text text-anchor="start" x="215.96" y="-984.5" font-family="Consolas" font-size="10.00" fill="#666666">BIGINT UNSIGNED</text>
<text text-anchor="start" x="42.96" y="-962.2" font-family="Consolas" font-size="11.00">hinh_thuc</text>
<text text-anchor="start" x="215.96" y="-962.5" font-family="Consolas" font-size="10.00" fill="#666666">ENUM</text>
<text text-anchor="start" x="42.96" y="-940.2" font-family="Consolas" font-size="11.00">dia_diem</text>
<text text-anchor="start" x="215.96" y="-940.5" font-family="Consolas" font-size="10.00" fill="#666666">VARCHAR(255)</text>
<text text-anchor="start" x="42.96" y="-918.2" font-family="Consolas" font-size="11.00">link_meeting</text>
<text text-anchor="start" x="215.96" y="-918.5" font-family="Consolas" font-size="10.00" fill="#666666">VARCHAR(255)</text>
<text text-anchor="start" x="42.96" y="-896.2" font-family="Consolas" font-size="11.00">thoi_gian</text>
<text text-anchor="start" x="215.96" y="-896.5" font-family="Consolas" font-size="10.00" fill="#666666">DATETIME</text>
<text text-anchor="start" x="42.96" y="-874.2" font-family="Consolas" font-size="11.00">thanh_phan_tham_gia</text>
<text text-anchor="start" x="215.96" y="-874.5" font-family="Consolas" font-size="10.00" fill="#666666">TEXT</text>
<text text-anchor="start" x="42.96" y="-852.2" font-family="Consolas" font-size="11.00">muc_tieu</text>
<text text-anchor="start" x="215.96" y="-852.5" font-family="Consolas" font-size="10.00" fill="#666666">TEXT</text>
<text text-anchor="start" x="42.96" y="-830.2" font-family="Consolas" font-size="11.00">trang_thai</text>
<text text-anchor="start" x="215.96" y="-830.5" font-family="Consolas" font-size="10.00" fill="#666666">ENUM</text>
<polygon fill="none" stroke="black" points="36.96,-821 36.96,-1043 312.96,-1043 312.96,-821 36.96,-821"/>
</g>
<!-- buoi_lam_viec&#45;&gt;yeu_cau_giai_trinh -->
<g id="edge13" class="edge">
<title>buoi_lam_viec:e&#45;&gt;yeu_cau_giai_trinh:w</title>
<path fill="none" stroke="#c55a11" stroke-width="1.3" d="M210.96,-986C332.49,-986 97.03,-718.97 201.82,-706.45"/>
<polygon fill="#c55a11" stroke="#c55a11" stroke-width="1.3" points="201.98,-706.45 210.16,-709.59 205.97,-706.22 209.96,-706 209.96,-706 209.96,-706 205.97,-706.22 209.76,-702.41 201.98,-706.45 201.98,-706.45"/>
</g>
<!-- bao_cao_thu_thap_du_lieu -->
<g id="node7" class="node">
<title>bao_cao_thu_thap_du_lieu</title>
<polygon fill="#fbe5d6" stroke="transparent" points="152.96,-1505 152.96,-1527 359.96,-1527 359.96,-1505 152.96,-1505"/>
<text text-anchor="start" x="174.96" y="-1514.2" font-family="Consolas" font-weight="bold" font-size="11.00">bao_cao_thu_thap_du_lieu</text>
<text text-anchor="start" x="157.96" y="-1492.2" font-family="Consolas" font-weight="bold" font-size="11.00">id</text>
<text text-anchor="start" x="171.96" y="-1492.2" font-family="Consolas" font-size="11.00"> </text>
<text text-anchor="start" x="178.96" y="-1492.2" font-family="Consolas" font-size="11.00" fill="#b8860b">PK</text>
<text text-anchor="start" x="263.96" y="-1491.5" font-family="Consolas" font-size="10.00" fill="#666666">BIGINT UNSIGNED</text>
<text text-anchor="start" x="157.96" y="-1470.2" font-family="Consolas" font-size="11.00">nhiem_vu_id </text>
<text text-anchor="start" x="239.96" y="-1470.2" font-family="Consolas" font-size="11.00" fill="#1f6fb2">FK</text>
<text text-anchor="start" x="263.96" y="-1469.5" font-family="Consolas" font-size="10.00" fill="#666666">BIGINT UNSIGNED</text>
<text text-anchor="start" x="157.96" y="-1447.2" font-family="Consolas" font-size="11.00">noi_dung</text>
<text text-anchor="start" x="263.96" y="-1447.5" font-family="Consolas" font-size="10.00" fill="#666666">TEXT</text>
<text text-anchor="start" x="157.96" y="-1425.2" font-family="Consolas" font-size="11.00">ngay_lap</text>
<text text-anchor="start" x="263.96" y="-1425.5" font-family="Consolas" font-size="10.00" fill="#666666">DATETIME</text>
<polygon fill="none" stroke="black" points="151.46,-1416 151.46,-1528 360.46,-1528 360.46,-1416 151.46,-1416"/>
</g>
<!-- bao_cao_thu_thap_du_lieu&#45;&gt;nhiem_vu_giai_trinh -->
<g id="edge14" class="edge">
<title>bao_cao_thu_thap_du_lieu:e&#45;&gt;nhiem_vu_giai_trinh:w</title>
<path fill="none" stroke="#c55a11" stroke-width="1.3" d="M258.96,-1471C352.75,-1471 248.11,-1280.49 329.49,-1268.58"/>
<polygon fill="#c55a11" stroke="#c55a11" stroke-width="1.3" points="329.98,-1268.55 338.21,-1271.59 333.97,-1268.27 337.96,-1268 337.96,-1268 337.96,-1268 333.97,-1268.27 337.72,-1264.41 329.98,-1268.55 329.98,-1268.55"/>
</g>
</g>
</svg>
