<?xml version="1.0" encoding="UTF-8" standalone="no"?>
<!DOCTYPE svg PUBLIC "-//W3C//DTD SVG 1.1//EN"
 "http://www.w3.org/Graphics/SVG/1.1/DTD/svg11.dtd">
<!-- Generated by graphviz version 2.43.0 (0)
 -->
<!-- Title: VĂN BẢN GIẢI TRÌNH &amp; CÔNG KHAI (đã bổ sung loại văn bản &amp; thay thế) Pages: 1 -->
<svg width="1565pt" height="814pt"
 viewBox="0.00 0.00 1565.00 813.50" xmlns="http://www.w3.org/2000/svg" xmlns:xlink="http://www.w3.org/1999/xlink">
<g id="graph0" class="graph" transform="scale(1 1) rotate(0) translate(4 809.5)">
<title>VĂN BẢN GIẢI TRÌNH &amp; CÔNG KHAI (đã bổ sung loại văn bản &amp; thay thế)</title>
<polygon fill="white" stroke="transparent" points="-4,4 -4,-809.5 1561,-809.5 1561,4 -4,4"/>
<text text-anchor="start" x="380.5" y="-783.9" font-family="Helvetica,sans-Serif" font-size="22.00">VĂN BẢN GIẢI TRÌNH &amp; CÔNG KHAI (đã bổ sung loại văn bản &amp; thay thế)</text>
<!-- van_ban_giai_trinh -->
<g id="node1" class="node">
<title>van_ban_giai_trinh</title>
<polygon fill="#d8e4bc" stroke="transparent" points="419.5,-446 419.5,-466 756.5,-466 756.5,-446 419.5,-446"/>
<text text-anchor="start" x="527" y="-454.2" font-family="Consolas" font-weight="bold" font-size="11.00">van_ban_giai_trinh</text>
<text text-anchor="start" x="423.5" y="-432.7" font-family="Consolas" font-weight="bold" font-size="11.00">id</text>
<text text-anchor="start" x="573.5" y="-430.8" font-family="Times,serif" font-size="14.00" fill="#b8860b">PK</text>
<text text-anchor="start" x="610.5" y="-430.8" font-family="Times,serif" font-size="14.00" fill="#555555">BIGINT UNSIGNED</text>
<text text-anchor="start" x="423.5" y="-409.7" font-family="Consolas" font-weight="bold" font-size="11.00">yeu_cau_giai_trinh_id</text>
<text text-anchor="start" x="573.5" y="-407.8" font-family="Times,serif" font-size="14.00" fill="#1f6fb2">FK</text>
<text text-anchor="start" x="610.5" y="-407.8" font-family="Times,serif" font-size="14.00" fill="#555555">BIGINT UNSIGNED</text>
<text text-anchor="start" x="423.5" y="-385.7" font-family="Consolas" font-size="11.00" fill="#c00000">loai_van_ban</text>
<text text-anchor="start" x="610.5" y="-384.8" font-family="Times,serif" font-size="14.00" fill="#555555">ENUM</text>
<text text-anchor="start" x="423.5" y="-362.7" font-family="Consolas" font-size="11.00">so_van_ban</text>
<text text-anchor="start" x="610.5" y="-361.8" font-family="Times,serif" font-size="14.00" fill="#555555">VARCHAR(50)</text>
<text text-anchor="start" x="423.5" y="-339.7" font-family="Consolas" font-size="11.00">trich_yeu</text>
<text text-anchor="start" x="610.5" y="-338.8" font-family="Times,serif" font-size="14.00" fill="#555555">VARCHAR(500)</text>
<text text-anchor="start" x="423.5" y="-316.7" font-family="Consolas" font-size="11.00">noi_dung</text>
<text text-anchor="start" x="610.5" y="-315.8" font-family="Times,serif" font-size="14.00" fill="#555555">LONGTEXT</text>
<text text-anchor="start" x="423.5" y="-294.7" font-family="Consolas" font-weight="bold" font-size="11.00">nguoi_soan_id</text>
<text text-anchor="start" x="573.5" y="-292.8" font-family="Times,serif" font-size="14.00" fill="#1f6fb2">FK</text>
<text text-anchor="start" x="610.5" y="-292.8" font-family="Times,serif" font-size="14.00" fill="#555555">BIGINT UNSIGNED</text>
<text text-anchor="start" x="423.5" y="-270.7" font-family="Consolas" font-size="11.00">ngay_soan</text>
<text text-anchor="start" x="610.5" y="-269.8" font-family="Times,serif" font-size="14.00" fill="#555555">DATETIME</text>
<text text-anchor="start" x="423.5" y="-248.7" font-family="Consolas" font-weight="bold" font-size="11.00">nguoi_ky_id</text>
<text text-anchor="start" x="573.5" y="-246.8" font-family="Times,serif" font-size="14.00" fill="#1f6fb2">FK</text>
<text text-anchor="start" x="610.5" y="-246.8" font-family="Times,serif" font-size="14.00" fill="#555555">BIGINT UNSIGNED</text>
<text text-anchor="start" x="423.5" y="-224.7" font-family="Consolas" font-size="11.00">ngay_ban_hanh</text>
<text text-anchor="start" x="610.5" y="-223.8" font-family="Times,serif" font-size="14.00" fill="#555555">DATETIME</text>
<text text-anchor="start" x="423.5" y="-201.7" font-family="Consolas" font-size="11.00">chu_ky_so</text>
<text text-anchor="start" x="610.5" y="-200.8" font-family="Times,serif" font-size="14.00" fill="#555555">VARCHAR(255)</text>
<text text-anchor="start" x="423.5" y="-179.7" font-family="Consolas" font-weight="bold" font-size="11.00" fill="#c00000">van_ban_thay_the_id</text>
<text text-anchor="start" x="573.5" y="-177.8" font-family="Times,serif" font-size="14.00" fill="#1f6fb2">FK</text>
<text text-anchor="start" x="610.5" y="-177.8" font-family="Times,serif" font-size="14.00" fill="#555555">BIGINT UNSIGNED</text>
<text text-anchor="start" x="423.5" y="-155.7" font-family="Consolas" font-size="11.00">trang_thai</text>
<text text-anchor="start" x="610.5" y="-154.8" font-family="Times,serif" font-size="14.00" fill="#555555">ENUM</text>
<polygon fill="none" stroke="black" points="418,-146.5 418,-467.5 757,-467.5 757,-146.5 418,-146.5"/>
</g>
<!-- van_ban_giai_trinh&#45;&gt;van_ban_giai_trinh -->
<g id="edge15" class="edge">
<title>van_ban_giai_trinh&#45;&gt;van_ban_giai_trinh</title>
<path fill="none" stroke="#5578a8" stroke-dasharray="5,2" d="M417.96,-437.83C402.21,-437.83 392,-437.83 392,-437.83 392,-437.83 392,-491 392,-491 392,-491 797,-491 797,-491 797,-491 797,-458.12 797,-458.12 797,-458.12 780.66,-458.12 757.1,-458.12"/>
</g>
<!-- can_bo -->
<g id="node2" class="node">
<title>can_bo</title>
<polygon fill="#dce6f1" stroke="transparent" points="851.5,-609 851.5,-629 1159.5,-629 1159.5,-609 851.5,-609"/>
<text text-anchor="start" x="985" y="-617.2" font-family="Consolas" font-weight="bold" font-size="11.00">can_bo</text>
<text text-anchor="start" x="855.5" y="-595.7" font-family="Consolas" font-weight="bold" font-size="11.00">id</text>
<text text-anchor="start" x="951.5" y="-594.8" font-family="Times,serif" font-size="14.00" fill="#b8860b">PK</text>
<text text-anchor="start" x="972.5" y="-594.8" font-family="Times,serif" font-size="14.00" fill="#1f6fb2">/FK</text>
<text text-anchor="start" x="1013.5" y="-593.8" font-family="Times,serif" font-size="14.00" fill="#555555">BIGINT UNSIGNED</text>
<text text-anchor="start" x="855.5" y="-575.6" font-family="Consolas" font-size="8.00" fill="#999999">= = nguoi_dung.id</text>
<text text-anchor="start" x="855.5" y="-554.7" font-family="Consolas" font-size="11.00">ma_can_bo</text>
<text text-anchor="start" x="1013.5" y="-553.8" font-family="Times,serif" font-size="14.00" fill="#555555">VARCHAR(30)</text>
<text text-anchor="start" x="855.5" y="-531.7" font-family="Consolas" font-size="11.00">ho_ten</text>
<text text-anchor="start" x="1013.5" y="-530.8" font-family="Times,serif" font-size="14.00" fill="#555555">VARCHAR(150)</text>
<text text-anchor="start" x="855.5" y="-509.7" font-family="Consolas" font-weight="bold" font-size="11.00">don_vi_id</text>
<text text-anchor="start" x="951.5" y="-507.8" font-family="Times,serif" font-size="14.00" fill="#1f6fb2">FK</text>
<text text-anchor="start" x="1013.5" y="-507.8" font-family="Times,serif" font-size="14.00" fill="#555555">BIGINT UNSIGNED</text>
<text text-anchor="start" x="855.5" y="-485.7" font-family="Consolas" font-size="11.00">chuc_vu</text>
<text text-anchor="start" x="1013.5" y="-484.8" font-family="Times,serif" font-size="14.00" fill="#555555">VARCHAR(100)</text>
<text text-anchor="start" x="855.5" y="-462.7" font-family="Consolas" font-size="11.00">email</text>
<text text-anchor="start" x="1013.5" y="-461.8" font-family="Times,serif" font-size="14.00" fill="#555555">VARCHAR(150)</text>
<text text-anchor="start" x="855.5" y="-439.7" font-family="Consolas" font-size="11.00">so_dien_thoai</text>
<text text-anchor="start" x="1013.5" y="-438.8" font-family="Times,serif" font-size="14.00" fill="#555555">VARCHAR(20)</text>
<polygon fill="none" stroke="black" points="850.5,-430 850.5,-630 1160.5,-630 1160.5,-430 850.5,-430"/>
</g>
<!-- van_ban_giai_trinh&#45;&gt;can_bo -->
<g id="edge4" class="edge">
<title>van_ban_giai_trinh&#45;&gt;can_bo</title>
<path fill="none" stroke="#5578a8" d="M757.22,-439.38C787.97,-439.38 819.91,-439.38 850.23,-439.38"/>
</g>
<!-- van_ban_giai_trinh&#45;&gt;can_bo -->
<g id="edge5" class="edge">
<title>van_ban_giai_trinh&#45;&gt;can_bo</title>
<path fill="none" stroke="#5578a8" d="M757.22,-448.75C787.97,-448.75 819.91,-448.75 850.23,-448.75"/>
</g>
<!-- yeu_cau_giai_trinh -->
<g id="node8" class="node">
<title>yeu_cau_giai_trinh</title>
<polygon fill="#fbe5d6" stroke="transparent" points="837.5,-380 837.5,-400 1174.5,-400 1174.5,-380 837.5,-380"/>
<text text-anchor="start" x="945" y="-388.2" font-family="Consolas" font-weight="bold" font-size="11.00">yeu_cau_giai_trinh</text>
<text text-anchor="start" x="841.5" y="-366.7" font-family="Consolas" font-weight="bold" font-size="11.00">id</text>
<text text-anchor="start" x="991.5" y="-364.8" font-family="Times,serif" font-size="14.00" fill="#b8860b">PK</text>
<text text-anchor="start" x="1028.5" y="-364.8" font-family="Times,serif" font-size="14.00" fill="#555555">BIGINT UNSIGNED</text>
<text text-anchor="start" x="841.5" y="-342.7" font-family="Consolas" font-size="11.00">ma_yeu_cau</text>
<text text-anchor="start" x="1028.5" y="-341.8" font-family="Times,serif" font-size="14.00" fill="#555555">VARCHAR(30)</text>
<text text-anchor="start" x="841.5" y="-320.7" font-family="Consolas" font-weight="bold" font-size="11.00">nguoi_yeu_cau_id</text>
<text text-anchor="start" x="991.5" y="-318.8" font-family="Times,serif" font-size="14.00" fill="#1f6fb2">FK</text>
<text text-anchor="start" x="1028.5" y="-318.8" font-family="Times,serif" font-size="14.00" fill="#555555">BIGINT UNSIGNED</text>
<text text-anchor="start" x="841.5" y="-296.7" font-family="Consolas" font-size="11.00">hinh_thuc_gui</text>
<text text-anchor="start" x="1028.5" y="-295.8" font-family="Times,serif" font-size="14.00" fill="#555555">ENUM</text>
<text text-anchor="start" x="841.5" y="-273.7" font-family="Consolas" font-size="11.00">nguon_goc</text>
<text text-anchor="start" x="1028.5" y="-272.8" font-family="Times,serif" font-size="14.00" fill="#555555">ENUM</text>
<text text-anchor="start" x="841.5" y="-250.7" font-family="Consolas" font-size="11.00">noi_dung_yeu_cau</text>
<text text-anchor="start" x="1028.5" y="-249.8" font-family="Times,serif" font-size="14.00" fill="#555555">TEXT</text>
<text text-anchor="start" x="841.5" y="-227.7" font-family="Consolas" font-size="11.00">ngay_gui</text>
<text text-anchor="start" x="1028.5" y="-226.8" font-family="Times,serif" font-size="14.00" fill="#555555">DATETIME</text>
<text text-anchor="start" x="841.5" y="-205.7" font-family="Consolas" font-weight="bold" font-size="11.00">don_vi_tiep_nhan_id</text>
<text text-anchor="start" x="991.5" y="-203.8" font-family="Times,serif" font-size="14.00" fill="#1f6fb2">FK</text>
<text text-anchor="start" x="1028.5" y="-203.8" font-family="Times,serif" font-size="14.00" fill="#555555">BIGINT UNSIGNED</text>
<text text-anchor="start" x="841.5" y="-182.7" font-family="Consolas" font-weight="bold" font-size="11.00">don_vi_chuyen_mon_id</text>
<text text-anchor="start" x="991.5" y="-180.8" font-family="Times,serif" font-size="14.00" fill="#1f6fb2">FK</text>
<text text-anchor="start" x="1028.5" y="-180.8" font-family="Times,serif" font-size="14.00" fill="#555555">BIGINT UNSIGNED</text>
<text text-anchor="start" x="841.5" y="-158.7" font-family="Consolas" font-size="11.00">han_xu_ly</text>
<text text-anchor="start" x="1028.5" y="-157.8" font-family="Times,serif" font-size="14.00" fill="#555555">DATE</text>
<text text-anchor="start" x="841.5" y="-135.7" font-family="Consolas" font-size="11.00" fill="#c00000">han_xu_ly_cu</text>
<text text-anchor="start" x="1028.5" y="-134.8" font-family="Times,serif" font-size="14.00" fill="#555555">DATE</text>
<text text-anchor="start" x="841.5" y="-112.7" font-family="Consolas" font-size="11.00" fill="#c00000">so_lan_gia_han</text>
<text text-anchor="start" x="1028.5" y="-111.8" font-family="Times,serif" font-size="14.00" fill="#555555">TINYINT</text>
<text text-anchor="start" x="841.5" y="-90.7" font-family="Consolas" font-weight="bold" font-size="11.00" fill="#c00000">ly_do_gia_han_id</text>
<text text-anchor="start" x="991.5" y="-88.8" font-family="Times,serif" font-size="14.00" fill="#1f6fb2">FK</text>
<text text-anchor="start" x="1028.5" y="-88.8" font-family="Times,serif" font-size="14.00" fill="#555555">BIGINT UNSIGNED</text>
<text text-anchor="start" x="841.5" y="-66.7" font-family="Consolas" font-size="11.00" fill="#c00000">ngay_gia_han_gan_nhat</text>
<text text-anchor="start" x="1028.5" y="-65.8" font-family="Times,serif" font-size="14.00" fill="#555555">DATETIME</text>
<text text-anchor="start" x="841.5" y="-43.7" font-family="Consolas" font-size="11.00">trang_thai</text>
<text text-anchor="start" x="1028.5" y="-42.8" font-family="Times,serif" font-size="14.00" fill="#555555">ENUM</text>
<text text-anchor="start" x="841.5" y="-20.7" font-family="Consolas" font-size="11.00">ngay_dong</text>
<text text-anchor="start" x="1028.5" y="-19.8" font-family="Times,serif" font-size="14.00" fill="#555555">DATETIME</text>
<polygon fill="none" stroke="black" points="836,-11 836,-401 1175,-401 1175,-11 836,-11"/>
</g>
<!-- van_ban_giai_trinh&#45;&gt;yeu_cau_giai_trinh -->
<g id="edge6" class="edge">
<title>van_ban_giai_trinh&#45;&gt;yeu_cau_giai_trinh</title>
<path fill="none" stroke="#5578a8" d="M757.22,-273.75C783.11,-273.75 809.84,-273.75 835.74,-273.75"/>
</g>
<!-- don_vi -->
<g id="node3" class="node">
<title>don_vi</title>
<polygon fill="#dce6f1" stroke="transparent" points="1255.5,-299 1255.5,-319 1538.5,-319 1538.5,-299 1255.5,-299"/>
<text text-anchor="start" x="1376.5" y="-307.2" font-family="Consolas" font-weight="bold" font-size="11.00">don_vi</text>
<text text-anchor="start" x="1259.5" y="-285.7" font-family="Consolas" font-weight="bold" font-size="11.00">id</text>
<text text-anchor="start" x="1355.5" y="-283.8" font-family="Times,serif" font-size="14.00" fill="#b8860b">PK</text>
<text text-anchor="start" x="1392.5" y="-283.8" font-family="Times,serif" font-size="14.00" fill="#555555">BIGINT UNSIGNED</text>
<text text-anchor="start" x="1259.5" y="-261.7" font-family="Consolas" font-size="11.00">ma_don_vi</text>
<text text-anchor="start" x="1392.5" y="-260.8" font-family="Times,serif" font-size="14.00" fill="#555555">VARCHAR(30)</text>
<text text-anchor="start" x="1259.5" y="-238.7" font-family="Consolas" font-size="11.00">ten_don_vi</text>
<text text-anchor="start" x="1392.5" y="-237.8" font-family="Times,serif" font-size="14.00" fill="#555555">VARCHAR(255)</text>
<text text-anchor="start" x="1259.5" y="-216.7" font-family="Consolas" font-weight="bold" font-size="11.00">don_vi_cha_id</text>
<text text-anchor="start" x="1355.5" y="-214.8" font-family="Times,serif" font-size="14.00" fill="#1f6fb2">FK</text>
<text text-anchor="start" x="1392.5" y="-214.8" font-family="Times,serif" font-size="14.00" fill="#555555">BIGINT UNSIGNED</text>
<text text-anchor="start" x="1259.5" y="-192.7" font-family="Consolas" font-size="11.00">cap_don_vi</text>
<text text-anchor="start" x="1392.5" y="-191.8" font-family="Times,serif" font-size="14.00" fill="#555555">TINYINT</text>
<text text-anchor="start" x="1259.5" y="-169.7" font-family="Consolas" font-size="11.00">loai_don_vi</text>
<text text-anchor="start" x="1392.5" y="-168.8" font-family="Times,serif" font-size="14.00" fill="#555555">VARCHAR(50)</text>
<text text-anchor="start" x="1259.5" y="-146.7" font-family="Consolas" font-size="11.00">dia_chi</text>
<text text-anchor="start" x="1392.5" y="-145.8" font-family="Times,serif" font-size="14.00" fill="#555555">VARCHAR(255)</text>
<text text-anchor="start" x="1259.5" y="-123.7" font-family="Consolas" font-size="11.00">trang_thai</text>
<text text-anchor="start" x="1392.5" y="-122.8" font-family="Times,serif" font-size="14.00" fill="#555555">TINYINT</text>
<text text-anchor="start" x="1259.5" y="-100.7" font-family="Consolas" font-size="11.00">ngay_tao</text>
<text text-anchor="start" x="1392.5" y="-99.8" font-family="Times,serif" font-size="14.00" fill="#555555">DATETIME</text>
<polygon fill="none" stroke="black" points="1254,-91.5 1254,-320.5 1539,-320.5 1539,-91.5 1254,-91.5"/>
</g>
<!-- don_vi&#45;&gt;don_vi -->
<g id="edge1" class="edge">
<title>don_vi&#45;&gt;don_vi</title>
<path fill="none" stroke="#5578a8" stroke-dasharray="5,2" d="M1253.94,-148.75C1231.21,-148.75 1215,-148.75 1215,-148.75 1215,-148.75 1215,-51.25 1215,-51.25 1215,-51.25 1557,-51.25 1557,-51.25 1557,-51.25 1557,-206 1557,-206 1557,-206 1550.12,-206 1539.21,-206"/>
</g>
<!-- y_kien_phoi_hop -->
<g id="node4" class="node">
<title>y_kien_phoi_hop</title>
<polygon fill="#d8e4bc" stroke="transparent" points="1.5,-752 1.5,-772 338.5,-772 338.5,-752 1.5,-752"/>
<text text-anchor="start" x="119" y="-760.2" font-family="Consolas" font-weight="bold" font-size="11.00">y_kien_phoi_hop</text>
<text text-anchor="start" x="5.5" y="-738.7" font-family="Consolas" font-weight="bold" font-size="11.00">id</text>
<text text-anchor="start" x="155.5" y="-736.8" font-family="Times,serif" font-size="14.00" fill="#b8860b">PK</text>
<text text-anchor="start" x="192.5" y="-736.8" font-family="Times,serif" font-size="14.00" fill="#555555">BIGINT UNSIGNED</text>
<text text-anchor="start" x="5.5" y="-715.7" font-family="Consolas" font-weight="bold" font-size="11.00">van_ban_giai_trinh_id</text>
<text text-anchor="start" x="155.5" y="-713.8" font-family="Times,serif" font-size="14.00" fill="#1f6fb2">FK</text>
<text text-anchor="start" x="192.5" y="-713.8" font-family="Times,serif" font-size="14.00" fill="#555555">BIGINT UNSIGNED</text>
<text text-anchor="start" x="5.5" y="-692.7" font-family="Consolas" font-weight="bold" font-size="11.00">don_vi_gop_y_id</text>
<text text-anchor="start" x="155.5" y="-690.8" font-family="Times,serif" font-size="14.00" fill="#1f6fb2">FK</text>
<text text-anchor="start" x="192.5" y="-690.8" font-family="Times,serif" font-size="14.00" fill="#555555">BIGINT UNSIGNED</text>
<text text-anchor="start" x="5.5" y="-669.7" font-family="Consolas" font-weight="bold" font-size="11.00">nguoi_gop_y_id</text>
<text text-anchor="start" x="155.5" y="-667.8" font-family="Times,serif" font-size="14.00" fill="#1f6fb2">FK</text>
<text text-anchor="start" x="192.5" y="-667.8" font-family="Times,serif" font-size="14.00" fill="#555555">BIGINT UNSIGNED</text>
<text text-anchor="start" x="5.5" y="-645.7" font-family="Consolas" font-size="11.00">noi_dung_gop_y</text>
<text text-anchor="start" x="192.5" y="-644.8" font-family="Times,serif" font-size="14.00" fill="#555555">TEXT</text>
<text text-anchor="start" x="5.5" y="-622.7" font-family="Consolas" font-size="11.00">ngay_gop_y</text>
<text text-anchor="start" x="192.5" y="-621.8" font-family="Times,serif" font-size="14.00" fill="#555555">DATETIME</text>
<text text-anchor="start" x="5.5" y="-599.7" font-family="Consolas" font-size="11.00">trang_thai</text>
<text text-anchor="start" x="192.5" y="-598.8" font-family="Times,serif" font-size="14.00" fill="#555555">ENUM</text>
<polygon fill="none" stroke="black" points="0,-590.5 0,-773.5 339,-773.5 339,-590.5 0,-590.5"/>
</g>
<!-- y_kien_phoi_hop&#45;&gt;van_ban_giai_trinh -->
<g id="edge9" class="edge">
<title>y_kien_phoi_hop&#45;&gt;van_ban_giai_trinh</title>
<path fill="none" stroke="#5578a8" d="M339.12,-603.67C455.12,-603.67 588,-603.67 588,-603.67 588,-603.67 588,-537.66 588,-467.92"/>
</g>
<!-- y_kien_phoi_hop&#45;&gt;can_bo -->
<g id="edge8" class="edge">
<title>y_kien_phoi_hop&#45;&gt;can_bo</title>
<path fill="none" stroke="#5578a8" d="M339.18,-616.83C488.8,-616.83 705.01,-616.83 850.17,-616.83"/>
</g>
<!-- y_kien_phoi_hop&#45;&gt;don_vi -->
<g id="edge7" class="edge">
<title>y_kien_phoi_hop&#45;&gt;don_vi</title>
<path fill="none" stroke="#5578a8" d="M339.21,-701.75C676.08,-701.75 1397,-701.75 1397,-701.75 1397,-701.75 1397,-467.1 1397,-320.67"/>
</g>
<!-- xu_ly_an_danh -->
<g id="node5" class="node">
<title>xu_ly_an_danh</title>
<polygon fill="#d8e4bc" stroke="transparent" points="1.5,-139 1.5,-159 338.5,-159 338.5,-139 1.5,-139"/>
<text text-anchor="start" x="126" y="-147.2" font-family="Consolas" font-weight="bold" font-size="11.00">xu_ly_an_danh</text>
<text text-anchor="start" x="5.5" y="-125.7" font-family="Consolas" font-weight="bold" font-size="11.00">id</text>
<text text-anchor="start" x="155.5" y="-123.8" font-family="Times,serif" font-size="14.00" fill="#b8860b">PK</text>
<text text-anchor="start" x="192.5" y="-123.8" font-family="Times,serif" font-size="14.00" fill="#555555">BIGINT UNSIGNED</text>
<text text-anchor="start" x="5.5" y="-102.7" font-family="Consolas" font-weight="bold" font-size="11.00">van_ban_giai_trinh_id</text>
<text text-anchor="start" x="155.5" y="-100.8" font-family="Times,serif" font-size="14.00" fill="#1f6fb2">FK</text>
<text text-anchor="start" x="192.5" y="-100.8" font-family="Times,serif" font-size="14.00" fill="#555555">BIGINT UNSIGNED</text>
<text text-anchor="start" x="5.5" y="-78.7" font-family="Consolas" font-size="11.00">thong_tin_nhay_cam</text>
<text text-anchor="start" x="192.5" y="-77.8" font-family="Times,serif" font-size="14.00" fill="#555555">TEXT</text>
<text text-anchor="start" x="5.5" y="-55.7" font-family="Consolas" font-size="11.00">phuong_phap_xu_ly</text>
<text text-anchor="start" x="192.5" y="-54.8" font-family="Times,serif" font-size="14.00" fill="#555555">VARCHAR(255)</text>
<text text-anchor="start" x="5.5" y="-33.7" font-family="Consolas" font-weight="bold" font-size="11.00">nguoi_xu_ly_id</text>
<text text-anchor="start" x="155.5" y="-31.8" font-family="Times,serif" font-size="14.00" fill="#1f6fb2">FK</text>
<text text-anchor="start" x="192.5" y="-31.8" font-family="Times,serif" font-size="14.00" fill="#555555">BIGINT UNSIGNED</text>
<text text-anchor="start" x="5.5" y="-9.7" font-family="Consolas" font-size="11.00">ngay_xu_ly</text>
<text text-anchor="start" x="192.5" y="-8.8" font-family="Times,serif" font-size="14.00" fill="#555555">DATETIME</text>
<polygon fill="none" stroke="black" points="0,0 0,-160 339,-160 339,0 0,0"/>
</g>
<!-- xu_ly_an_danh&#45;&gt;van_ban_giai_trinh -->
<g id="edge11" class="edge">
<title>xu_ly_an_danh&#45;&gt;van_ban_giai_trinh</title>
<path fill="none" stroke="#5578a8" d="M339.22,-151C365.11,-151 391.84,-151 417.74,-151"/>
</g>
<!-- xu_ly_an_danh&#45;&gt;can_bo -->
<g id="edge10" class="edge">
<title>xu_ly_an_danh&#45;&gt;can_bo</title>
<path fill="none" stroke="#5578a8" d="M339.09,-155.5C355.39,-155.5 366,-155.5 366,-155.5 366,-155.5 366,-514.5 366,-514.5 366,-514.5 661.01,-514.5 850.29,-514.5"/>
</g>
<!-- cong_khai_van_ban -->
<g id="node6" class="node">
<title>cong_khai_van_ban</title>
<polygon fill="#d8e4bc" stroke="transparent" points="1.5,-540 1.5,-560 338.5,-560 338.5,-540 1.5,-540"/>
<text text-anchor="start" x="112.5" y="-548.2" font-family="Consolas" font-weight="bold" font-size="11.00">cong_khai_van_ban</text>
<text text-anchor="start" x="5.5" y="-526.7" font-family="Consolas" font-weight="bold" font-size="11.00">id</text>
<text text-anchor="start" x="155.5" y="-524.8" font-family="Times,serif" font-size="14.00" fill="#b8860b">PK</text>
<text text-anchor="start" x="192.5" y="-524.8" font-family="Times,serif" font-size="14.00" fill="#555555">BIGINT UNSIGNED</text>
<text text-anchor="start" x="5.5" y="-503.7" font-family="Consolas" font-weight="bold" font-size="11.00">van_ban_giai_trinh_id</text>
<text text-anchor="start" x="155.5" y="-501.8" font-family="Times,serif" font-size="14.00" fill="#1f6fb2">FK</text>
<text text-anchor="start" x="192.5" y="-501.8" font-family="Times,serif" font-size="14.00" fill="#555555">BIGINT UNSIGNED</text>
<text text-anchor="start" x="5.5" y="-479.7" font-family="Consolas" font-size="11.00">kenh_dang_tai</text>
<text text-anchor="start" x="192.5" y="-478.8" font-family="Times,serif" font-size="14.00" fill="#555555">ENUM</text>
<text text-anchor="start" x="5.5" y="-457.7" font-family="Consolas" font-weight="bold" font-size="11.00">nguoi_duyet_id</text>
<text text-anchor="start" x="155.5" y="-455.8" font-family="Times,serif" font-size="14.00" fill="#1f6fb2">FK</text>
<text text-anchor="start" x="192.5" y="-455.8" font-family="Times,serif" font-size="14.00" fill="#555555">BIGINT UNSIGNED</text>
<text text-anchor="start" x="5.5" y="-433.7" font-family="Consolas" font-size="11.00">ngay_duyet</text>
<text text-anchor="start" x="192.5" y="-432.8" font-family="Times,serif" font-size="14.00" fill="#555555">DATETIME</text>
<text text-anchor="start" x="5.5" y="-410.7" font-family="Consolas" font-size="11.00">ngay_dang_tai</text>
<text text-anchor="start" x="192.5" y="-409.8" font-family="Times,serif" font-size="14.00" fill="#555555">DATETIME</text>
<text text-anchor="start" x="5.5" y="-387.7" font-family="Consolas" font-size="11.00">trang_thai</text>
<text text-anchor="start" x="192.5" y="-386.8" font-family="Times,serif" font-size="14.00" fill="#555555">ENUM</text>
<polygon fill="none" stroke="black" points="0,-378.5 0,-561.5 339,-561.5 339,-378.5 0,-378.5"/>
</g>
<!-- cong_khai_van_ban&#45;&gt;van_ban_giai_trinh -->
<g id="edge13" class="edge">
<title>cong_khai_van_ban&#45;&gt;van_ban_giai_trinh</title>
<path fill="none" stroke="#5578a8" d="M339.22,-408.17C365.11,-408.17 391.84,-408.17 417.74,-408.17"/>
</g>
<!-- cong_khai_van_ban&#45;&gt;can_bo -->
<g id="edge12" class="edge">
<title>cong_khai_van_ban&#45;&gt;can_bo</title>
<path fill="none" stroke="#5578a8" d="M339.18,-538C488.8,-538 705.01,-538 850.17,-538"/>
</g>
<!-- gui_van_ban_lien_thong -->
<g id="node7" class="node">
<title>gui_van_ban_lien_thong</title>
<polygon fill="#d8e4bc" stroke="transparent" points="1.5,-328 1.5,-348 338.5,-348 338.5,-328 1.5,-328"/>
<text text-anchor="start" x="95.5" y="-336.2" font-family="Consolas" font-weight="bold" font-size="11.00">gui_van_ban_lien_thong</text>
<text text-anchor="start" x="5.5" y="-314.7" font-family="Consolas" font-weight="bold" font-size="11.00">id</text>
<text text-anchor="start" x="155.5" y="-312.8" font-family="Times,serif" font-size="14.00" fill="#b8860b">PK</text>
<text text-anchor="start" x="192.5" y="-312.8" font-family="Times,serif" font-size="14.00" fill="#555555">BIGINT UNSIGNED</text>
<text text-anchor="start" x="5.5" y="-291.7" font-family="Consolas" font-weight="bold" font-size="11.00">van_ban_giai_trinh_id</text>
<text text-anchor="start" x="155.5" y="-289.8" font-family="Times,serif" font-size="14.00" fill="#1f6fb2">FK</text>
<text text-anchor="start" x="192.5" y="-289.8" font-family="Times,serif" font-size="14.00" fill="#555555">BIGINT UNSIGNED</text>
<text text-anchor="start" x="5.5" y="-267.7" font-family="Consolas" font-size="11.00">ma_lien_thong</text>
<text text-anchor="start" x="192.5" y="-266.8" font-family="Times,serif" font-size="14.00" fill="#555555">VARCHAR(100)</text>
<text text-anchor="start" x="5.5" y="-244.7" font-family="Consolas" font-size="11.00">ngay_gui</text>
<text text-anchor="start" x="192.5" y="-243.8" font-family="Times,serif" font-size="14.00" fill="#555555">DATETIME</text>
<text text-anchor="start" x="5.5" y="-221.7" font-family="Consolas" font-size="11.00">ket_qua</text>
<text text-anchor="start" x="192.5" y="-220.8" font-family="Times,serif" font-size="14.00" fill="#555555">VARCHAR(255)</text>
<text text-anchor="start" x="5.5" y="-198.7" font-family="Consolas" font-size="11.00">phan_hoi_api</text>
<text text-anchor="start" x="192.5" y="-197.8" font-family="Times,serif" font-size="14.00" fill="#555555">TEXT</text>
<polygon fill="none" stroke="black" points="0,-189 0,-349 339,-349 339,-189 0,-189"/>
</g>
<!-- gui_van_ban_lien_thong&#45;&gt;van_ban_giai_trinh -->
<g id="edge14" class="edge">
<title>gui_van_ban_lien_thong&#45;&gt;van_ban_giai_trinh</title>
<path fill="none" stroke="#5578a8" d="M339.22,-269C365.11,-269 391.84,-269 417.74,-269"/>
</g>
<!-- yeu_cau_giai_trinh&#45;&gt;don_vi -->
<g id="edge2" class="edge">
<title>yeu_cau_giai_trinh&#45;&gt;don_vi</title>
<path fill="none" stroke="#5578a8" d="M1175.01,-206C1201.3,-206 1228.24,-206 1253.86,-206"/>
</g>
<!-- yeu_cau_giai_trinh&#45;&gt;don_vi -->
<g id="edge3" class="edge">
<title>yeu_cau_giai_trinh&#45;&gt;don_vi</title>
<path fill="none" stroke="#5578a8" d="M1175.01,-263.25C1201.3,-263.25 1228.24,-263.25 1253.86,-263.25"/>
</g>
</g>
</svg>
