<?xml version="1.0" encoding="UTF-8" standalone="no"?>
<!DOCTYPE svg PUBLIC "-//W3C//DTD SVG 1.1//EN"
 "http://www.w3.org/Graphics/SVG/1.1/DTD/svg11.dtd">
<!-- Generated by graphviz version 2.43.0 (0)
 -->
<!-- Title: G Pages: 1 -->
<svg width="526pt" height="422pt"
 viewBox="0.00 0.00 525.60 421.60" xmlns="http://www.w3.org/2000/svg" xmlns:xlink="http://www.w3.org/1999/xlink">
<g id="graph0" class="graph" transform="scale(1 1) rotate(0) translate(28.8 392.8)">
<title>G</title>
<polygon fill="white" stroke="transparent" points="-28.8,28.8 -28.8,-392.8 496.8,-392.8 496.8,28.8 -28.8,28.8"/>
<text text-anchor="middle" x="234" y="-344" font-family="Helvetica,sans-Serif" font-size="20.00">ERD CHI TIẾT — NHÓM: QUẢN TRỊ HỆ THỐNG</text>
<g id="clust1" class="cluster">
<title>cluster_main</title>
<polygon fill="#d9d9d9" fill-opacity="0.200000" stroke="#d9d9d9" points="93,-146 93,-326 375,-326 375,-146 93,-146"/>
</g>
<g id="clust2" class="cluster">
<title>cluster_ghost</title>
<polygon fill="white" stroke="#999999" stroke-dasharray="5,2" points="94,-8 94,-100 351,-100 351,-8 94,-8"/>
<text text-anchor="middle" x="222.5" y="-87.2" font-family="Helvetica,sans-Serif" font-weight="bold" font-size="11.00">Bảng cha tham chiếu tới (ở nhóm khác)</text>
</g>
<!-- nhat_ky_cau_hinh_he_thong -->
<g id="node1" class="node">
<title>nhat_ky_cau_hinh_he_thong</title>
<polygon fill="#d9d9d9" stroke="transparent" points="111,-291 111,-313 358,-313 358,-291 111,-291"/>
<text text-anchor="start" x="150" y="-300.2" font-family="Consolas" font-weight="bold" font-size="11.00">nhat_ky_cau_hinh_he_thong</text>
<text text-anchor="start" x="116" y="-278.2" font-family="Consolas" font-weight="bold" font-size="11.00">id</text>
<text text-anchor="start" x="130" y="-278.2" font-family="Consolas" font-size="11.00"> </text>
<text text-anchor="start" x="137" y="-278.2" font-family="Consolas" font-size="11.00" fill="#b8860b">PK</text>
<text text-anchor="start" x="262" y="-277.5" font-family="Consolas" font-size="10.00" fill="#666666">BIGINT UNSIGNED</text>
<text text-anchor="start" x="116" y="-256.2" font-family="Consolas" font-size="11.00">nguoi_thay_doi_id </text>
<text text-anchor="start" x="238" y="-256.2" font-family="Consolas" font-size="11.00" fill="#1f6fb2">FK</text>
<text text-anchor="start" x="262" y="-255.5" font-family="Consolas" font-size="10.00" fill="#666666">BIGINT UNSIGNED</text>
<text text-anchor="start" x="116" y="-233.2" font-family="Consolas" font-size="11.00">noi_dung_thay_doi</text>
<text text-anchor="start" x="262" y="-233.5" font-family="Consolas" font-size="10.00" fill="#666666">TEXT</text>
<text text-anchor="start" x="116" y="-212.2" font-family="Consolas" font-size="11.00">nguoi_duyet_id </text>
<text text-anchor="start" x="218" y="-212.2" font-family="Consolas" font-size="11.00" fill="#1f6fb2">FK</text>
<text text-anchor="start" x="262" y="-211.5" font-family="Consolas" font-size="10.00" fill="#666666">BIGINT UNSIGNED</text>
<text text-anchor="start" x="116" y="-189.2" font-family="Consolas" font-size="11.00">trang_thai</text>
<text text-anchor="start" x="262" y="-189.5" font-family="Consolas" font-size="10.00" fill="#666666">ENUM</text>
<text text-anchor="start" x="116" y="-167.2" font-family="Consolas" font-size="11.00">thoi_gian</text>
<text text-anchor="start" x="262" y="-167.5" font-family="Consolas" font-size="10.00" fill="#666666">DATETIME</text>
<polygon fill="none" stroke="black" points="109.5,-158 109.5,-314 358.5,-314 358.5,-158 109.5,-158"/>
</g>
<!-- can_bo -->
<g id="node2" class="node">
<title>can_bo</title>
<polygon fill="#dce6f1" fill-opacity="0.400000" stroke="transparent" points="158,-43 158,-67 265,-67 265,-43 158,-43"/>
<text text-anchor="start" x="177.5" y="-53.2" font-family="Consolas" font-weight="bold" font-size="11.00">can_bo</text>
<text text-anchor="start" x="164" y="-29.8" font-family="Consolas" font-size="9.00" fill="#777777">(bảng ở nhóm khác)</text>
<polygon fill="none" stroke="black" points="156.5,-20 156.5,-68 265.5,-68 265.5,-20 156.5,-20"/>
</g>
<!-- nhat_ky_cau_hinh_he_thong&#45;&gt;can_bo -->
<g id="edge1" class="edge">
<title>nhat_ky_cau_hinh_he_thong:e&#45;&gt;can_bo</title>
<path fill="none" stroke="#595959" stroke-width="1.3" d="M257,-257C332.59,-257 181.85,-190.05 159,-118 154.52,-103.86 160.58,-90.12 169.97,-78.46"/>
<polygon fill="#595959" stroke="#595959" stroke-width="1.3" points="170.19,-78.2 178.18,-74.58 172.83,-75.2 175.48,-72.2 175.48,-72.2 175.48,-72.2 172.83,-75.2 172.77,-69.82 170.19,-78.2 170.19,-78.2"/>
<text text-anchor="middle" x="200" y="-110.8" font-family="Helvetica,sans-Serif" font-size="9.00" fill="#595959">nguoi_thay_doi_id</text>
</g>
<!-- nhat_ky_cau_hinh_he_thong&#45;&gt;can_bo -->
<g id="edge2" class="edge">
<title>nhat_ky_cau_hinh_he_thong:e&#45;&gt;can_bo</title>
<path fill="none" stroke="#595959" stroke-width="1.3" d="M257,-213C311.91,-213 265.79,-128.49 234.33,-79.35"/>
<polygon fill="#595959" stroke="#595959" stroke-width="1.3" points="234.16,-79.08 232.83,-70.41 231.98,-75.72 229.81,-72.37 229.81,-72.37 229.81,-72.37 231.98,-75.72 226.79,-74.32 234.16,-79.08 234.16,-79.08"/>
<text text-anchor="middle" x="290" y="-110.8" font-family="Helvetica,sans-Serif" font-size="9.00" fill="#595959">nguoi_duyet_id</text>
</g>
</g>
</svg>
